<svg width="333" height="89" viewBox="0 0 333 89" fill="none" xmlns="http://www.w3.org/2000/svg">
<mask id="path-1-outside-1_29_1589" maskUnits="userSpaceOnUse" x="0" y="17.3939" width="333" height="72" fill="black">
<rect fill="white" y="17.3939" width="333" height="72"/>
<path d="M9.30702 86V60.619C9.30702 57.3328 9.20088 54.3262 8.9886 51.5994C8.77632 48.8026 8.42252 46.1106 7.92719 43.5236C7.50263 40.9366 6.93655 38.3845 6.22895 35.8674C5.59211 33.2803 4.84912 30.5534 4 27.6867L22.6807 21.3939C23.8129 24.8899 24.7681 28.1412 25.5465 31.1478C26.3249 34.0844 26.9263 37.056 27.3509 40.0626C27.7754 43.0691 28.0585 46.1806 28.2 49.3969C28.4123 52.6132 28.5184 56.1442 28.5184 59.9897V86H9.30702Z"/>
<path d="M56.4922 35.2381C59.2519 35.2381 61.9408 35.8324 64.5589 37.021C67.2478 38.2097 69.6183 39.7829 71.6703 41.7406C73.7931 43.6984 75.4914 45.9708 76.765 48.5578C78.0387 51.1449 78.6756 53.8018 78.6756 56.5287C78.6756 59.3255 78.0387 62.0174 76.765 64.6045C75.4914 67.1216 73.7931 69.394 71.6703 71.4217C69.6183 73.3794 67.2478 74.9526 64.5589 76.1413C61.9408 77.3299 59.2519 77.9242 56.4922 77.9242C53.6618 77.9242 50.9022 77.3299 48.2133 76.1413C45.5951 74.9526 43.2247 73.3794 41.1019 71.4217C39.0498 69.394 37.387 67.1216 36.1133 64.6045C34.9103 62.0174 34.3089 59.3255 34.3089 56.5287C34.3089 53.8018 34.9103 51.1449 36.1133 48.5578C37.387 45.9708 39.0498 43.6984 41.1019 41.7406C43.2247 39.7829 45.5951 38.2097 48.2133 37.021C50.9022 35.8324 53.6618 35.2381 56.4922 35.2381ZM56.4922 59.9897C57.4121 59.9897 58.1905 59.6402 58.8273 58.941C59.5349 58.2418 59.8887 57.4377 59.8887 56.5287C59.8887 55.6198 59.5349 54.8506 58.8273 54.2214C58.1905 53.5222 57.4121 53.1726 56.4922 53.1726C55.5016 53.1726 54.6525 53.5222 53.9449 54.2214C53.308 54.8506 52.9896 55.6198 52.9896 56.5287C52.9896 57.4377 53.308 58.2418 53.9449 58.941C54.6525 59.6402 55.5016 59.9897 56.4922 59.9897Z"/>
<path d="M106.66 35.2381C109.42 35.2381 112.109 35.8324 114.727 37.021C117.416 38.2097 119.786 39.7829 121.838 41.7406C123.961 43.6984 125.659 45.9708 126.933 48.5578C128.207 51.1449 128.843 53.8018 128.843 56.5287C128.843 59.3255 128.207 62.0174 126.933 64.6045C125.659 67.1216 123.961 69.394 121.838 71.4217C119.786 73.3794 117.416 74.9526 114.727 76.1413C112.109 77.3299 109.42 77.9242 106.66 77.9242C103.83 77.9242 101.07 77.3299 98.3812 76.1413C95.7631 74.9526 93.3926 73.3794 91.2698 71.4217C89.2177 69.394 87.5549 67.1216 86.2812 64.6045C85.0783 62.0174 84.4768 59.3255 84.4768 56.5287C84.4768 53.8018 85.0783 51.1449 86.2812 48.5578C87.5549 45.9708 89.2177 43.6984 91.2698 41.7406C93.3926 39.7829 95.7631 38.2097 98.3812 37.021C101.07 35.8324 103.83 35.2381 106.66 35.2381ZM106.66 59.9897C107.58 59.9897 108.358 59.6402 108.995 58.941C109.703 58.2418 110.057 57.4377 110.057 56.5287C110.057 55.6198 109.703 54.8506 108.995 54.2214C108.358 53.5222 107.58 53.1726 106.66 53.1726C105.669 53.1726 104.82 53.5222 104.113 54.2214C103.476 54.8506 103.158 55.6198 103.158 56.5287C103.158 57.4377 103.476 58.2418 104.113 58.941C104.82 59.6402 105.669 59.9897 106.66 59.9897Z"/>
<path d="M156.828 35.2381C159.588 35.2381 162.277 35.8324 164.895 37.021C167.584 38.2097 169.954 39.7829 172.006 41.7406C174.129 43.6984 175.827 45.9708 177.101 48.5578C178.375 51.1449 179.011 53.8018 179.011 56.5287C179.011 59.3255 178.375 62.0174 177.101 64.6045C175.827 67.1216 174.129 69.394 172.006 71.4217C169.954 73.3794 167.584 74.9526 164.895 76.1413C162.277 77.3299 159.588 77.9242 156.828 77.9242C153.998 77.9242 151.238 77.3299 148.549 76.1413C145.931 74.9526 143.561 73.3794 141.438 71.4217C139.386 69.394 137.723 67.1216 136.449 64.6045C135.246 62.0174 134.645 59.3255 134.645 56.5287C134.645 53.8018 135.246 51.1449 136.449 48.5578C137.723 45.9708 139.386 43.6984 141.438 41.7406C143.561 39.7829 145.931 38.2097 148.549 37.021C151.238 35.8324 153.998 35.2381 156.828 35.2381ZM156.828 59.9897C157.748 59.9897 158.526 59.6402 159.163 58.941C159.871 58.2418 160.225 57.4377 160.225 56.5287C160.225 55.6198 159.871 54.8506 159.163 54.2214C158.526 53.5222 157.748 53.1726 156.828 53.1726C155.837 53.1726 154.988 53.5222 154.281 54.2214C153.644 54.8506 153.325 55.6198 153.325 56.5287C153.325 57.4377 153.644 58.2418 154.281 58.941C154.988 59.6402 155.837 59.9897 156.828 59.9897Z"/>
<path d="M206.996 35.2381C209.756 35.2381 212.445 35.8324 215.063 37.021C217.752 38.2097 220.122 39.7829 222.174 41.7406C224.297 43.6984 225.995 45.9708 227.269 48.5578C228.542 51.1449 229.179 53.8018 229.179 56.5287C229.179 59.3255 228.542 62.0174 227.269 64.6045C225.995 67.1216 224.297 69.394 222.174 71.4217C220.122 73.3794 217.752 74.9526 215.063 76.1413C212.445 77.3299 209.756 77.9242 206.996 77.9242C204.166 77.9242 201.406 77.3299 198.717 76.1413C196.099 74.9526 193.728 73.3794 191.606 71.4217C189.554 69.394 187.891 67.1216 186.617 64.6045C185.414 62.0174 184.813 59.3255 184.813 56.5287C184.813 53.8018 185.414 51.1449 186.617 48.5578C187.891 45.9708 189.554 43.6984 191.606 41.7406C193.728 39.7829 196.099 38.2097 198.717 37.021C201.406 35.8324 204.166 35.2381 206.996 35.2381ZM206.996 59.9897C207.916 59.9897 208.694 59.6402 209.331 58.941C210.039 58.2418 210.392 57.4377 210.392 56.5287C210.392 55.6198 210.039 54.8506 209.331 54.2214C208.694 53.5222 207.916 53.1726 206.996 53.1726C206.005 53.1726 205.156 53.5222 204.449 54.2214C203.812 54.8506 203.493 55.6198 203.493 56.5287C203.493 57.4377 203.812 58.2418 204.449 58.941C205.156 59.6402 206.005 59.9897 206.996 59.9897Z"/>
<path d="M257.164 35.2381C259.924 35.2381 262.612 35.8324 265.231 37.021C267.919 38.2097 270.29 39.7829 272.342 41.7406C274.465 43.6984 276.163 45.9708 277.437 48.5578C278.71 51.1449 279.347 53.8018 279.347 56.5287C279.347 59.3255 278.71 62.0174 277.437 64.6045C276.163 67.1216 274.465 69.394 272.342 71.4217C270.29 73.3794 267.919 74.9526 265.231 76.1413C262.612 77.3299 259.924 77.9242 257.164 77.9242C254.333 77.9242 251.574 77.3299 248.885 76.1413C246.267 74.9526 243.896 73.3794 241.774 71.4217C239.721 69.394 238.059 67.1216 236.785 64.6045C235.582 62.0174 234.981 59.3255 234.981 56.5287C234.981 53.8018 235.582 51.1449 236.785 48.5578C238.059 45.9708 239.721 43.6984 241.774 41.7406C243.896 39.7829 246.267 38.2097 248.885 37.021C251.574 35.8324 254.333 35.2381 257.164 35.2381ZM257.164 59.9897C258.084 59.9897 258.862 59.6402 259.499 58.941C260.207 58.2418 260.56 57.4377 260.56 56.5287C260.56 55.6198 260.207 54.8506 259.499 54.2214C258.862 53.5222 258.084 53.1726 257.164 53.1726C256.173 53.1726 255.324 53.5222 254.617 54.2214C253.98 54.8506 253.661 55.6198 253.661 56.5287C253.661 57.4377 253.98 58.2418 254.617 58.941C255.324 59.6402 256.173 59.9897 257.164 59.9897Z"/>
<path d="M307.332 35.2381C310.091 35.2381 312.78 35.8324 315.398 37.021C318.087 38.2097 320.458 39.7829 322.51 41.7406C324.633 43.6984 326.331 45.9708 327.605 48.5578C328.878 51.1449 329.515 53.8018 329.515 56.5287C329.515 59.3255 328.878 62.0174 327.605 64.6045C326.331 67.1216 324.633 69.394 322.51 71.4217C320.458 73.3794 318.087 74.9526 315.398 76.1413C312.78 77.3299 310.091 77.9242 307.332 77.9242C304.501 77.9242 301.742 77.3299 299.053 76.1413C296.435 74.9526 294.064 73.3794 291.941 71.4217C289.889 69.394 288.227 67.1216 286.953 64.6045C285.75 62.0174 285.148 59.3255 285.148 56.5287C285.148 53.8018 285.75 51.1449 286.953 48.5578C288.227 45.9708 289.889 43.6984 291.941 41.7406C294.064 39.7829 296.435 38.2097 299.053 37.021C301.742 35.8324 304.501 35.2381 307.332 35.2381ZM307.332 59.9897C308.252 59.9897 309.03 59.6402 309.667 58.941C310.375 58.2418 310.728 57.4377 310.728 56.5287C310.728 55.6198 310.375 54.8506 309.667 54.2214C309.03 53.5222 308.252 53.1726 307.332 53.1726C306.341 53.1726 305.492 53.5222 304.784 54.2214C304.148 54.8506 303.829 55.6198 303.829 56.5287C303.829 57.4377 304.148 58.2418 304.784 58.941C305.492 59.6402 306.341 59.9897 307.332 59.9897Z"/>
</mask>
<path d="M9.30702 86V60.619C9.30702 57.3328 9.20088 54.3262 8.9886 51.5994C8.77632 48.8026 8.42252 46.1106 7.92719 43.5236C7.50263 40.9366 6.93655 38.3845 6.22895 35.8674C5.59211 33.2803 4.84912 30.5534 4 27.6867L22.6807 21.3939C23.8129 24.8899 24.7681 28.1412 25.5465 31.1478C26.3249 34.0844 26.9263 37.056 27.3509 40.0626C27.7754 43.0691 28.0585 46.1806 28.2 49.3969C28.4123 52.6132 28.5184 56.1442 28.5184 59.9897V86H9.30702Z" fill="#D96BD9"/>
<path d="M56.4922 35.2381C59.2519 35.2381 61.9408 35.8324 64.5589 37.021C67.2478 38.2097 69.6183 39.7829 71.6703 41.7406C73.7931 43.6984 75.4914 45.9708 76.765 48.5578C78.0387 51.1449 78.6756 53.8018 78.6756 56.5287C78.6756 59.3255 78.0387 62.0174 76.765 64.6045C75.4914 67.1216 73.7931 69.394 71.6703 71.4217C69.6183 73.3794 67.2478 74.9526 64.5589 76.1413C61.9408 77.3299 59.2519 77.9242 56.4922 77.9242C53.6618 77.9242 50.9022 77.3299 48.2133 76.1413C45.5951 74.9526 43.2247 73.3794 41.1019 71.4217C39.0498 69.394 37.387 67.1216 36.1133 64.6045C34.9103 62.0174 34.3089 59.3255 34.3089 56.5287C34.3089 53.8018 34.9103 51.1449 36.1133 48.5578C37.387 45.9708 39.0498 43.6984 41.1019 41.7406C43.2247 39.7829 45.5951 38.2097 48.2133 37.021C50.9022 35.8324 53.6618 35.2381 56.4922 35.2381ZM56.4922 59.9897C57.4121 59.9897 58.1905 59.6402 58.8273 58.941C59.5349 58.2418 59.8887 57.4377 59.8887 56.5287C59.8887 55.6198 59.5349 54.8506 58.8273 54.2214C58.1905 53.5222 57.4121 53.1726 56.4922 53.1726C55.5016 53.1726 54.6525 53.5222 53.9449 54.2214C53.308 54.8506 52.9896 55.6198 52.9896 56.5287C52.9896 57.4377 53.308 58.2418 53.9449 58.941C54.6525 59.6402 55.5016 59.9897 56.4922 59.9897Z" fill="#D96BD9"/>
<path d="M106.66 35.2381C109.42 35.2381 112.109 35.8324 114.727 37.021C117.416 38.2097 119.786 39.7829 121.838 41.7406C123.961 43.6984 125.659 45.9708 126.933 48.5578C128.207 51.1449 128.843 53.8018 128.843 56.5287C128.843 59.3255 128.207 62.0174 126.933 64.6045C125.659 67.1216 123.961 69.394 121.838 71.4217C119.786 73.3794 117.416 74.9526 114.727 76.1413C112.109 77.3299 109.42 77.9242 106.66 77.9242C103.83 77.9242 101.07 77.3299 98.3812 76.1413C95.7631 74.9526 93.3926 73.3794 91.2698 71.4217C89.2177 69.394 87.5549 67.1216 86.2812 64.6045C85.0783 62.0174 84.4768 59.3255 84.4768 56.5287C84.4768 53.8018 85.0783 51.1449 86.2812 48.5578C87.5549 45.9708 89.2177 43.6984 91.2698 41.7406C93.3926 39.7829 95.7631 38.2097 98.3812 37.021C101.07 35.8324 103.83 35.2381 106.66 35.2381ZM106.66 59.9897C107.58 59.9897 108.358 59.6402 108.995 58.941C109.703 58.2418 110.057 57.4377 110.057 56.5287C110.057 55.6198 109.703 54.8506 108.995 54.2214C108.358 53.5222 107.58 53.1726 106.66 53.1726C105.669 53.1726 104.82 53.5222 104.113 54.2214C103.476 54.8506 103.158 55.6198 103.158 56.5287C103.158 57.4377 103.476 58.2418 104.113 58.941C104.82 59.6402 105.669 59.9897 106.66 59.9897Z" fill="#D96BD9"/>
<path d="M156.828 35.2381C159.588 35.2381 162.277 35.8324 164.895 37.021C167.584 38.2097 169.954 39.7829 172.006 41.7406C174.129 43.6984 175.827 45.9708 177.101 48.5578C178.375 51.1449 179.011 53.8018 179.011 56.5287C179.011 59.3255 178.375 62.0174 177.101 64.6045C175.827 67.1216 174.129 69.394 172.006 71.4217C169.954 73.3794 167.584 74.9526 164.895 76.1413C162.277 77.3299 159.588 77.9242 156.828 77.9242C153.998 77.9242 151.238 77.3299 148.549 76.1413C145.931 74.9526 143.561 73.3794 141.438 71.4217C139.386 69.394 137.723 67.1216 136.449 64.6045C135.246 62.0174 134.645 59.3255 134.645 56.5287C134.645 53.8018 135.246 51.1449 136.449 48.5578C137.723 45.9708 139.386 43.6984 141.438 41.7406C143.561 39.7829 145.931 38.2097 148.549 37.021C151.238 35.8324 153.998 35.2381 156.828 35.2381ZM156.828 59.9897C157.748 59.9897 158.526 59.6402 159.163 58.941C159.871 58.2418 160.225 57.4377 160.225 56.5287C160.225 55.6198 159.871 54.8506 159.163 54.2214C158.526 53.5222 157.748 53.1726 156.828 53.1726C155.837 53.1726 154.988 53.5222 154.281 54.2214C153.644 54.8506 153.325 55.6198 153.325 56.5287C153.325 57.4377 153.644 58.2418 154.281 58.941C154.988 59.6402 155.837 59.9897 156.828 59.9897Z" fill="#D96BD9"/>
<path d="M206.996 35.2381C209.756 35.2381 212.445 35.8324 215.063 37.021C217.752 38.2097 220.122 39.7829 222.174 41.7406C224.297 43.6984 225.995 45.9708 227.269 48.5578C228.542 51.1449 229.179 53.8018 229.179 56.5287C229.179 59.3255 228.542 62.0174 227.269 64.6045C225.995 67.1216 224.297 69.394 222.174 71.4217C220.122 73.3794 217.752 74.9526 215.063 76.1413C212.445 77.3299 209.756 77.9242 206.996 77.9242C204.166 77.9242 201.406 77.3299 198.717 76.1413C196.099 74.9526 193.728 73.3794 191.606 71.4217C189.554 69.394 187.891 67.1216 186.617 64.6045C185.414 62.0174 184.813 59.3255 184.813 56.5287C184.813 53.8018 185.414 51.1449 186.617 48.5578C187.891 45.9708 189.554 43.6984 191.606 41.7406C193.728 39.7829 196.099 38.2097 198.717 37.021C201.406 35.8324 204.166 35.2381 206.996 35.2381ZM206.996 59.9897C207.916 59.9897 208.694 59.6402 209.331 58.941C210.039 58.2418 210.392 57.4377 210.392 56.5287C210.392 55.6198 210.039 54.8506 209.331 54.2214C208.694 53.5222 207.916 53.1726 206.996 53.1726C206.005 53.1726 205.156 53.5222 204.449 54.2214C203.812 54.8506 203.493 55.6198 203.493 56.5287C203.493 57.4377 203.812 58.2418 204.449 58.941C205.156 59.6402 206.005 59.9897 206.996 59.9897Z" fill="#D96BD9"/>
<path d="M257.164 35.2381C259.924 35.2381 262.612 35.8324 265.231 37.021C267.919 38.2097 270.29 39.7829 272.342 41.7406C274.465 43.6984 276.163 45.9708 277.437 48.5578C278.71 51.1449 279.347 53.8018 279.347 56.5287C279.347 59.3255 278.71 62.0174 277.437 64.6045C276.163 67.1216 274.465 69.394 272.342 71.4217C270.29 73.3794 267.919 74.9526 265.231 76.1413C262.612 77.3299 259.924 77.9242 257.164 77.9242C254.333 77.9242 251.574 77.3299 248.885 76.1413C246.267 74.9526 243.896 73.3794 241.774 71.4217C239.721 69.394 238.059 67.1216 236.785 64.6045C235.582 62.0174 234.981 59.3255 234.981 56.5287C234.981 53.8018 235.582 51.1449 236.785 48.5578C238.059 45.9708 239.721 43.6984 241.774 41.7406C243.896 39.7829 246.267 38.2097 248.885 37.021C251.574 35.8324 254.333 35.2381 257.164 35.2381ZM257.164 59.9897C258.084 59.9897 258.862 59.6402 259.499 58.941C260.207 58.2418 260.56 57.4377 260.56 56.5287C260.56 55.6198 260.207 54.8506 259.499 54.2214C258.862 53.5222 258.084 53.1726 257.164 53.1726C256.173 53.1726 255.324 53.5222 254.617 54.2214C253.98 54.8506 253.661 55.6198 253.661 56.5287C253.661 57.4377 253.98 58.2418 254.617 58.941C255.324 59.6402 256.173 59.9897 257.164 59.9897Z" fill="#D96BD9"/>
<path d="M307.332 35.2381C310.091 35.2381 312.78 35.8324 315.398 37.021C318.087 38.2097 320.458 39.7829 322.51 41.7406C324.633 43.6984 326.331 45.9708 327.605 48.5578C328.878 51.1449 329.515 53.8018 329.515 56.5287C329.515 59.3255 328.878 62.0174 327.605 64.6045C326.331 67.1216 324.633 69.394 322.51 71.4217C320.458 73.3794 318.087 74.9526 315.398 76.1413C312.78 77.3299 310.091 77.9242 307.332 77.9242C304.501 77.9242 301.742 77.3299 299.053 76.1413C296.435 74.9526 294.064 73.3794 291.941 71.4217C289.889 69.394 288.227 67.1216 286.953 64.6045C285.75 62.0174 285.148 59.3255 285.148 56.5287C285.148 53.8018 285.75 51.1449 286.953 48.5578C288.227 45.9708 289.889 43.6984 291.941 41.7406C294.064 39.7829 296.435 38.2097 299.053 37.021C301.742 35.8324 304.501 35.2381 307.332 35.2381ZM307.332 59.9897C308.252 59.9897 309.03 59.6402 309.667 58.941C310.375 58.2418 310.728 57.4377 310.728 56.5287C310.728 55.6198 310.375 54.8506 309.667 54.2214C309.03 53.5222 308.252 53.1726 307.332 53.1726C306.341 53.1726 305.492 53.5222 304.784 54.2214C304.148 54.8506 303.829 55.6198 303.829 56.5287C303.829 57.4377 304.148 58.2418 304.784 58.941C305.492 59.6402 306.341 59.9897 307.332 59.9897Z" fill="#D96BD9"/>
<path d="M9.30702 86V60.619C9.30702 57.3328 9.20088 54.3262 8.9886 51.5994C8.77632 48.8026 8.42252 46.1106 7.92719 43.5236C7.50263 40.9366 6.93655 38.3845 6.22895 35.8674C5.59211 33.2803 4.84912 30.5534 4 27.6867L22.6807 21.3939C23.8129 24.8899 24.7681 28.1412 25.5465 31.1478C26.3249 34.0844 26.9263 37.056 27.3509 40.0626C27.7754 43.0691 28.0585 46.1806 28.2 49.3969C28.4123 52.6132 28.5184 56.1442 28.5184 59.9897V86H9.30702Z" stroke="#7100A6" stroke-width="6" mask="url(#path-1-outside-1_29_1589)"/>
<path d="M56.4922 35.2381C59.2519 35.2381 61.9408 35.8324 64.5589 37.021C67.2478 38.2097 69.6183 39.7829 71.6703 41.7406C73.7931 43.6984 75.4914 45.9708 76.765 48.5578C78.0387 51.1449 78.6756 53.8018 78.6756 56.5287C78.6756 59.3255 78.0387 62.0174 76.765 64.6045C75.4914 67.1216 73.7931 69.394 71.6703 71.4217C69.6183 73.3794 67.2478 74.9526 64.5589 76.1413C61.9408 77.3299 59.2519 77.9242 56.4922 77.9242C53.6618 77.9242 50.9022 77.3299 48.2133 76.1413C45.5951 74.9526 43.2247 73.3794 41.1019 71.4217C39.0498 69.394 37.387 67.1216 36.1133 64.6045C34.9103 62.0174 34.3089 59.3255 34.3089 56.5287C34.3089 53.8018 34.9103 51.1449 36.1133 48.5578C37.387 45.9708 39.0498 43.6984 41.1019 41.7406C43.2247 39.7829 45.5951 38.2097 48.2133 37.021C50.9022 35.8324 53.6618 35.2381 56.4922 35.2381ZM56.4922 59.9897C57.4121 59.9897 58.1905 59.6402 58.8273 58.941C59.5349 58.2418 59.8887 57.4377 59.8887 56.5287C59.8887 55.6198 59.5349 54.8506 58.8273 54.2214C58.1905 53.5222 57.4121 53.1726 56.4922 53.1726C55.5016 53.1726 54.6525 53.5222 53.9449 54.2214C53.308 54.8506 52.9896 55.6198 52.9896 56.5287C52.9896 57.4377 53.308 58.2418 53.9449 58.941C54.6525 59.6402 55.5016 59.9897 56.4922 59.9897Z" stroke="#7100A6" stroke-width="6" mask="url(#path-1-outside-1_29_1589)"/>
<path d="M106.66 35.2381C109.42 35.2381 112.109 35.8324 114.727 37.021C117.416 38.2097 119.786 39.7829 121.838 41.7406C123.961 43.6984 125.659 45.9708 126.933 48.5578C128.207 51.1449 128.843 53.8018 128.843 56.5287C128.843 59.3255 128.207 62.0174 126.933 64.6045C125.659 67.1216 123.961 69.394 121.838 71.4217C119.786 73.3794 117.416 74.9526 114.727 76.1413C112.109 77.3299 109.42 77.9242 106.66 77.9242C103.83 77.9242 101.07 77.3299 98.3812 76.1413C95.7631 74.9526 93.3926 73.3794 91.2698 71.4217C89.2177 69.394 87.5549 67.1216 86.2812 64.6045C85.0783 62.0174 84.4768 59.3255 84.4768 56.5287C84.4768 53.8018 85.0783 51.1449 86.2812 48.5578C87.5549 45.9708 89.2177 43.6984 91.2698 41.7406C93.3926 39.7829 95.7631 38.2097 98.3812 37.021C101.07 35.8324 103.83 35.2381 106.66 35.2381ZM106.66 59.9897C107.58 59.9897 108.358 59.6402 108.995 58.941C109.703 58.2418 110.057 57.4377 110.057 56.5287C110.057 55.6198 109.703 54.8506 108.995 54.2214C108.358 53.5222 107.58 53.1726 106.66 53.1726C105.669 53.1726 104.82 53.5222 104.113 54.2214C103.476 54.8506 103.158 55.6198 103.158 56.5287C103.158 57.4377 103.476 58.2418 104.113 58.941C104.82 59.6402 105.669 59.9897 106.66 59.9897Z" stroke="#7100A6" stroke-width="6" mask="url(#path-1-outside-1_29_1589)"/>
<path d="M156.828 35.2381C159.588 35.2381 162.277 35.8324 164.895 37.021C167.584 38.2097 169.954 39.7829 172.006 41.7406C174.129 43.6984 175.827 45.9708 177.101 48.5578C178.375 51.1449 179.011 53.8018 179.011 56.5287C179.011 59.3255 178.375 62.0174 177.101 64.6045C175.827 67.1216 174.129 69.394 172.006 71.4217C169.954 73.3794 167.584 74.9526 164.895 76.1413C162.277 77.3299 159.588 77.9242 156.828 77.9242C153.998 77.9242 151.238 77.3299 148.549 76.1413C145.931 74.9526 143.561 73.3794 141.438 71.4217C139.386 69.394 137.723 67.1216 136.449 64.6045C135.246 62.0174 134.645 59.3255 134.645 56.5287C134.645 53.8018 135.246 51.1449 136.449 48.5578C137.723 45.9708 139.386 43.6984 141.438 41.7406C143.561 39.7829 145.931 38.2097 148.549 37.021C151.238 35.8324 153.998 35.2381 156.828 35.2381ZM156.828 59.9897C157.748 59.9897 158.526 59.6402 159.163 58.941C159.871 58.2418 160.225 57.4377 160.225 56.5287C160.225 55.6198 159.871 54.8506 159.163 54.2214C158.526 53.5222 157.748 53.1726 156.828 53.1726C155.837 53.1726 154.988 53.5222 154.281 54.2214C153.644 54.8506 153.325 55.6198 153.325 56.5287C153.325 57.4377 153.644 58.2418 154.281 58.941C154.988 59.6402 155.837 59.9897 156.828 59.9897Z" stroke="#7100A6" stroke-width="6" mask="url(#path-1-outside-1_29_1589)"/>
<path d="M206.996 35.2381C209.756 35.2381 212.445 35.8324 215.063 37.021C217.752 38.2097 220.122 39.7829 222.174 41.7406C224.297 43.6984 225.995 45.9708 227.269 48.5578C228.542 51.1449 229.179 53.8018 229.179 56.5287C229.179 59.3255 228.542 62.0174 227.269 64.6045C225.995 67.1216 224.297 69.394 222.174 71.4217C220.122 73.3794 217.752 74.9526 215.063 76.1413C212.445 77.3299 209.756 77.9242 206.996 77.9242C204.166 77.9242 201.406 77.3299 198.717 76.1413C196.099 74.9526 193.728 73.3794 191.606 71.4217C189.554 69.394 187.891 67.1216 186.617 64.6045C185.414 62.0174 184.813 59.3255 184.813 56.5287C184.813 53.8018 185.414 51.1449 186.617 48.5578C187.891 45.9708 189.554 43.6984 191.606 41.7406C193.728 39.7829 196.099 38.2097 198.717 37.021C201.406 35.8324 204.166 35.2381 206.996 35.2381ZM206.996 59.9897C207.916 59.9897 208.694 59.6402 209.331 58.941C210.039 58.2418 210.392 57.4377 210.392 56.5287C210.392 55.6198 210.039 54.8506 209.331 54.2214C208.694 53.5222 207.916 53.1726 206.996 53.1726C206.005 53.1726 205.156 53.5222 204.449 54.2214C203.812 54.8506 203.493 55.6198 203.493 56.5287C203.493 57.4377 203.812 58.2418 204.449 58.941C205.156 59.6402 206.005 59.9897 206.996 59.9897Z" stroke="#7100A6" stroke-width="6" mask="url(#path-1-outside-1_29_1589)"/>
<path d="M257.164 35.2381C259.924 35.2381 262.612 35.8324 265.231 37.021C267.919 38.2097 270.29 39.7829 272.342 41.7406C274.465 43.6984 276.163 45.9708 277.437 48.5578C278.71 51.1449 279.347 53.8018 279.347 56.5287C279.347 59.3255 278.71 62.0174 277.437 64.6045C276.163 67.1216 274.465 69.394 272.342 71.4217C270.29 73.3794 267.919 74.9526 265.231 76.1413C262.612 77.3299 259.924 77.9242 257.164 77.9242C254.333 77.9242 251.574 77.3299 248.885 76.1413C246.267 74.9526 243.896 73.3794 241.774 71.4217C239.721 69.394 238.059 67.1216 236.785 64.6045C235.582 62.0174 234.981 59.3255 234.981 56.5287C234.981 53.8018 235.582 51.1449 236.785 48.5578C238.059 45.9708 239.721 43.6984 241.774 41.7406C243.896 39.7829 246.267 38.2097 248.885 37.021C251.574 35.8324 254.333 35.2381 257.164 35.2381ZM257.164 59.9897C258.084 59.9897 258.862 59.6402 259.499 58.941C260.207 58.2418 260.56 57.4377 260.56 56.5287C260.56 55.6198 260.207 54.8506 259.499 54.2214C258.862 53.5222 258.084 53.1726 257.164 53.1726C256.173 53.1726 255.324 53.5222 254.617 54.2214C253.98 54.8506 253.661 55.6198 253.661 56.5287C253.661 57.4377 253.98 58.2418 254.617 58.941C255.324 59.6402 256.173 59.9897 257.164 59.9897Z" stroke="#7100A6" stroke-width="6" mask="url(#path-1-outside-1_29_1589)"/>
<path d="M307.332 35.2381C310.091 35.2381 312.78 35.8324 315.398 37.021C318.087 38.2097 320.458 39.7829 322.51 41.7406C324.633 43.6984 326.331 45.9708 327.605 48.5578C328.878 51.1449 329.515 53.8018 329.515 56.5287C329.515 59.3255 328.878 62.0174 327.605 64.6045C326.331 67.1216 324.633 69.394 322.51 71.4217C320.458 73.3794 318.087 74.9526 315.398 76.1413C312.78 77.3299 310.091 77.9242 307.332 77.9242C304.501 77.9242 301.742 77.3299 299.053 76.1413C296.435 74.9526 294.064 73.3794 291.941 71.4217C289.889 69.394 288.227 67.1216 286.953 64.6045C285.75 62.0174 285.148 59.3255 285.148 56.5287C285.148 53.8018 285.75 51.1449 286.953 48.5578C288.227 45.9708 289.889 43.6984 291.941 41.7406C294.064 39.7829 296.435 38.2097 299.053 37.021C301.742 35.8324 304.501 35.2381 307.332 35.2381ZM307.332 59.9897C308.252 59.9897 309.03 59.6402 309.667 58.941C310.375 58.2418 310.728 57.4377 310.728 56.5287C310.728 55.6198 310.375 54.8506 309.667 54.2214C309.03 53.5222 308.252 53.1726 307.332 53.1726C306.341 53.1726 305.492 53.5222 304.784 54.2214C304.148 54.8506 303.829 55.6198 303.829 56.5287C303.829 57.4377 304.148 58.2418 304.784 58.941C305.492 59.6402 306.341 59.9897 307.332 59.9897Z" stroke="#7100A6" stroke-width="6" mask="url(#path-1-outside-1_29_1589)"/>
<mask id="path-2-outside-2_29_1589" maskUnits="userSpaceOnUse" x="0" y="8.69702" width="333" height="72" fill="black">
<rect fill="white" y="8.69702" width="333" height="72"/>
<path d="M9.30702 77.3031V51.9221C9.30702 48.6359 9.20088 45.6293 8.9886 42.9025C8.77632 40.1057 8.42252 37.4137 7.92719 34.8267C7.50263 32.2397 6.93655 29.6876 6.22895 27.1705C5.59211 24.5834 4.84912 21.8565 4 18.9898L22.6807 12.697C23.8129 16.193 24.7681 19.4443 25.5465 22.4509C26.3249 25.3875 26.9263 28.3591 27.3509 31.3657C27.7754 34.3722 28.0585 37.4837 28.2 40.7C28.4123 43.9163 28.5184 47.4473 28.5184 51.2929V77.3031H9.30702Z"/>
<path d="M56.4922 26.5412C59.2519 26.5412 61.9408 27.1355 64.5589 28.3241C67.2478 29.5128 69.6183 31.086 71.6703 33.0437C73.7931 35.0015 75.4914 37.2739 76.765 39.8609C78.0387 42.448 78.6756 45.1049 78.6756 47.8318C78.6756 50.6286 78.0387 53.3205 76.765 55.9076C75.4914 58.4247 73.7931 60.6971 71.6703 62.7248C69.6183 64.6825 67.2478 66.2557 64.5589 67.4444C61.9408 68.633 59.2519 69.2273 56.4922 69.2273C53.6618 69.2273 50.9022 68.633 48.2133 67.4444C45.5951 66.2557 43.2247 64.6825 41.1019 62.7248C39.0498 60.6971 37.387 58.4247 36.1133 55.9076C34.9103 53.3205 34.3089 50.6286 34.3089 47.8318C34.3089 45.1049 34.9103 42.448 36.1133 39.8609C37.387 37.2739 39.0498 35.0015 41.1019 33.0437C43.2247 31.086 45.5951 29.5128 48.2133 28.3241C50.9022 27.1355 53.6618 26.5412 56.4922 26.5412ZM56.4922 51.2929C57.4121 51.2929 58.1905 50.9433 58.8273 50.2441C59.5349 49.5449 59.8887 48.7408 59.8887 47.8318C59.8887 46.9229 59.5349 46.1537 58.8273 45.5245C58.1905 44.8253 57.4121 44.4757 56.4922 44.4757C55.5016 44.4757 54.6525 44.8253 53.9449 45.5245C53.308 46.1537 52.9896 46.9229 52.9896 47.8318C52.9896 48.7408 53.308 49.5449 53.9449 50.2441C54.6525 50.9433 55.5016 51.2929 56.4922 51.2929Z"/>
<path d="M106.66 26.5412C109.42 26.5412 112.109 27.1355 114.727 28.3241C117.416 29.5128 119.786 31.086 121.838 33.0437C123.961 35.0015 125.659 37.2739 126.933 39.8609C128.207 42.448 128.843 45.1049 128.843 47.8318C128.843 50.6286 128.207 53.3205 126.933 55.9076C125.659 58.4247 123.961 60.6971 121.838 62.7248C119.786 64.6825 117.416 66.2557 114.727 67.4444C112.109 68.633 109.42 69.2273 106.66 69.2273C103.83 69.2273 101.07 68.633 98.3812 67.4444C95.7631 66.2557 93.3926 64.6825 91.2698 62.7248C89.2177 60.6971 87.5549 58.4247 86.2812 55.9076C85.0783 53.3205 84.4768 50.6286 84.4768 47.8318C84.4768 45.1049 85.0783 42.448 86.2812 39.8609C87.5549 37.2739 89.2177 35.0015 91.2698 33.0437C93.3926 31.086 95.7631 29.5128 98.3812 28.3241C101.07 27.1355 103.83 26.5412 106.66 26.5412ZM106.66 51.2929C107.58 51.2929 108.358 50.9433 108.995 50.2441C109.703 49.5449 110.057 48.7408 110.057 47.8318C110.057 46.9229 109.703 46.1537 108.995 45.5245C108.358 44.8253 107.58 44.4757 106.66 44.4757C105.669 44.4757 104.82 44.8253 104.113 45.5245C103.476 46.1537 103.158 46.9229 103.158 47.8318C103.158 48.7408 103.476 49.5449 104.113 50.2441C104.82 50.9433 105.669 51.2929 106.66 51.2929Z"/>
<path d="M156.828 26.5412C159.588 26.5412 162.277 27.1355 164.895 28.3241C167.584 29.5128 169.954 31.086 172.006 33.0437C174.129 35.0015 175.827 37.2739 177.101 39.8609C178.375 42.448 179.011 45.1049 179.011 47.8318C179.011 50.6286 178.375 53.3205 177.101 55.9076C175.827 58.4247 174.129 60.6971 172.006 62.7248C169.954 64.6825 167.584 66.2557 164.895 67.4444C162.277 68.633 159.588 69.2273 156.828 69.2273C153.998 69.2273 151.238 68.633 148.549 67.4444C145.931 66.2557 143.561 64.6825 141.438 62.7248C139.386 60.6971 137.723 58.4247 136.449 55.9076C135.246 53.3205 134.645 50.6286 134.645 47.8318C134.645 45.1049 135.246 42.448 136.449 39.8609C137.723 37.2739 139.386 35.0015 141.438 33.0437C143.561 31.086 145.931 29.5128 148.549 28.3241C151.238 27.1355 153.998 26.5412 156.828 26.5412ZM156.828 51.2929C157.748 51.2929 158.526 50.9433 159.163 50.2441C159.871 49.5449 160.225 48.7408 160.225 47.8318C160.225 46.9229 159.871 46.1537 159.163 45.5245C158.526 44.8253 157.748 44.4757 156.828 44.4757C155.837 44.4757 154.988 44.8253 154.281 45.5245C153.644 46.1537 153.325 46.9229 153.325 47.8318C153.325 48.7408 153.644 49.5449 154.281 50.2441C154.988 50.9433 155.837 51.2929 156.828 51.2929Z"/>
<path d="M206.996 26.5412C209.756 26.5412 212.445 27.1355 215.063 28.3241C217.752 29.5128 220.122 31.086 222.174 33.0437C224.297 35.0015 225.995 37.2739 227.269 39.8609C228.542 42.448 229.179 45.1049 229.179 47.8318C229.179 50.6286 228.542 53.3205 227.269 55.9076C225.995 58.4247 224.297 60.6971 222.174 62.7248C220.122 64.6825 217.752 66.2557 215.063 67.4444C212.445 68.633 209.756 69.2273 206.996 69.2273C204.166 69.2273 201.406 68.633 198.717 67.4444C196.099 66.2557 193.728 64.6825 191.606 62.7248C189.554 60.6971 187.891 58.4247 186.617 55.9076C185.414 53.3205 184.813 50.6286 184.813 47.8318C184.813 45.1049 185.414 42.448 186.617 39.8609C187.891 37.2739 189.554 35.0015 191.606 33.0437C193.728 31.086 196.099 29.5128 198.717 28.3241C201.406 27.1355 204.166 26.5412 206.996 26.5412ZM206.996 51.2929C207.916 51.2929 208.694 50.9433 209.331 50.2441C210.039 49.5449 210.392 48.7408 210.392 47.8318C210.392 46.9229 210.039 46.1537 209.331 45.5245C208.694 44.8253 207.916 44.4757 206.996 44.4757C206.005 44.4757 205.156 44.8253 204.449 45.5245C203.812 46.1537 203.493 46.9229 203.493 47.8318C203.493 48.7408 203.812 49.5449 204.449 50.2441C205.156 50.9433 206.005 51.2929 206.996 51.2929Z"/>
<path d="M257.164 26.5412C259.924 26.5412 262.612 27.1355 265.231 28.3241C267.919 29.5128 270.29 31.086 272.342 33.0437C274.465 35.0015 276.163 37.2739 277.437 39.8609C278.71 42.448 279.347 45.1049 279.347 47.8318C279.347 50.6286 278.71 53.3205 277.437 55.9076C276.163 58.4247 274.465 60.6971 272.342 62.7248C270.29 64.6825 267.919 66.2557 265.231 67.4444C262.612 68.633 259.924 69.2273 257.164 69.2273C254.333 69.2273 251.574 68.633 248.885 67.4444C246.267 66.2557 243.896 64.6825 241.774 62.7248C239.721 60.6971 238.059 58.4247 236.785 55.9076C235.582 53.3205 234.981 50.6286 234.981 47.8318C234.981 45.1049 235.582 42.448 236.785 39.8609C238.059 37.2739 239.721 35.0015 241.774 33.0437C243.896 31.086 246.267 29.5128 248.885 28.3241C251.574 27.1355 254.333 26.5412 257.164 26.5412ZM257.164 51.2929C258.084 51.2929 258.862 50.9433 259.499 50.2441C260.207 49.5449 260.56 48.7408 260.56 47.8318C260.56 46.9229 260.207 46.1537 259.499 45.5245C258.862 44.8253 258.084 44.4757 257.164 44.4757C256.173 44.4757 255.324 44.8253 254.617 45.5245C253.98 46.1537 253.661 46.9229 253.661 47.8318C253.661 48.7408 253.98 49.5449 254.617 50.2441C255.324 50.9433 256.173 51.2929 257.164 51.2929Z"/>
<path d="M307.332 26.5412C310.091 26.5412 312.78 27.1355 315.398 28.3241C318.087 29.5128 320.458 31.086 322.51 33.0437C324.633 35.0015 326.331 37.2739 327.605 39.8609C328.878 42.448 329.515 45.1049 329.515 47.8318C329.515 50.6286 328.878 53.3205 327.605 55.9076C326.331 58.4247 324.633 60.6971 322.51 62.7248C320.458 64.6825 318.087 66.2557 315.398 67.4444C312.78 68.633 310.091 69.2273 307.332 69.2273C304.501 69.2273 301.742 68.633 299.053 67.4444C296.435 66.2557 294.064 64.6825 291.941 62.7248C289.889 60.6971 288.227 58.4247 286.953 55.9076C285.75 53.3205 285.148 50.6286 285.148 47.8318C285.148 45.1049 285.75 42.448 286.953 39.8609C288.227 37.2739 289.889 35.0015 291.941 33.0437C294.064 31.086 296.435 29.5128 299.053 28.3241C301.742 27.1355 304.501 26.5412 307.332 26.5412ZM307.332 51.2929C308.252 51.2929 309.03 50.9433 309.667 50.2441C310.375 49.5449 310.728 48.7408 310.728 47.8318C310.728 46.9229 310.375 46.1537 309.667 45.5245C309.03 44.8253 308.252 44.4757 307.332 44.4757C306.341 44.4757 305.492 44.8253 304.784 45.5245C304.148 46.1537 303.829 46.9229 303.829 47.8318C303.829 48.7408 304.148 49.5449 304.784 50.2441C305.492 50.9433 306.341 51.2929 307.332 51.2929Z"/>
</mask>
<path d="M9.30702 77.3031V51.9221C9.30702 48.6359 9.20088 45.6293 8.9886 42.9025C8.77632 40.1057 8.42252 37.4137 7.92719 34.8267C7.50263 32.2397 6.93655 29.6876 6.22895 27.1705C5.59211 24.5834 4.84912 21.8565 4 18.9898L22.6807 12.697C23.8129 16.193 24.7681 19.4443 25.5465 22.4509C26.3249 25.3875 26.9263 28.3591 27.3509 31.3657C27.7754 34.3722 28.0585 37.4837 28.2 40.7C28.4123 43.9163 28.5184 47.4473 28.5184 51.2929V77.3031H9.30702Z" fill="#FFAF20"/>
<path d="M56.4922 26.5412C59.2519 26.5412 61.9408 27.1355 64.5589 28.3241C67.2478 29.5128 69.6183 31.086 71.6703 33.0437C73.7931 35.0015 75.4914 37.2739 76.765 39.8609C78.0387 42.448 78.6756 45.1049 78.6756 47.8318C78.6756 50.6286 78.0387 53.3205 76.765 55.9076C75.4914 58.4247 73.7931 60.6971 71.6703 62.7248C69.6183 64.6825 67.2478 66.2557 64.5589 67.4444C61.9408 68.633 59.2519 69.2273 56.4922 69.2273C53.6618 69.2273 50.9022 68.633 48.2133 67.4444C45.5951 66.2557 43.2247 64.6825 41.1019 62.7248C39.0498 60.6971 37.387 58.4247 36.1133 55.9076C34.9103 53.3205 34.3089 50.6286 34.3089 47.8318C34.3089 45.1049 34.9103 42.448 36.1133 39.8609C37.387 37.2739 39.0498 35.0015 41.1019 33.0437C43.2247 31.086 45.5951 29.5128 48.2133 28.3241C50.9022 27.1355 53.6618 26.5412 56.4922 26.5412ZM56.4922 51.2929C57.4121 51.2929 58.1905 50.9433 58.8273 50.2441C59.5349 49.5449 59.8887 48.7408 59.8887 47.8318C59.8887 46.9229 59.5349 46.1537 58.8273 45.5245C58.1905 44.8253 57.4121 44.4757 56.4922 44.4757C55.5016 44.4757 54.6525 44.8253 53.9449 45.5245C53.308 46.1537 52.9896 46.9229 52.9896 47.8318C52.9896 48.7408 53.308 49.5449 53.9449 50.2441C54.6525 50.9433 55.5016 51.2929 56.4922 51.2929Z" fill="#FFAF20"/>
<path d="M106.66 26.5412C109.42 26.5412 112.109 27.1355 114.727 28.3241C117.416 29.5128 119.786 31.086 121.838 33.0437C123.961 35.0015 125.659 37.2739 126.933 39.8609C128.207 42.448 128.843 45.1049 128.843 47.8318C128.843 50.6286 128.207 53.3205 126.933 55.9076C125.659 58.4247 123.961 60.6971 121.838 62.7248C119.786 64.6825 117.416 66.2557 114.727 67.4444C112.109 68.633 109.42 69.2273 106.66 69.2273C103.83 69.2273 101.07 68.633 98.3812 67.4444C95.7631 66.2557 93.3926 64.6825 91.2698 62.7248C89.2177 60.6971 87.5549 58.4247 86.2812 55.9076C85.0783 53.3205 84.4768 50.6286 84.4768 47.8318C84.4768 45.1049 85.0783 42.448 86.2812 39.8609C87.5549 37.2739 89.2177 35.0015 91.2698 33.0437C93.3926 31.086 95.7631 29.5128 98.3812 28.3241C101.07 27.1355 103.83 26.5412 106.66 26.5412ZM106.66 51.2929C107.58 51.2929 108.358 50.9433 108.995 50.2441C109.703 49.5449 110.057 48.7408 110.057 47.8318C110.057 46.9229 109.703 46.1537 108.995 45.5245C108.358 44.8253 107.58 44.4757 106.66 44.4757C105.669 44.4757 104.82 44.8253 104.113 45.5245C103.476 46.1537 103.158 46.9229 103.158 47.8318C103.158 48.7408 103.476 49.5449 104.113 50.2441C104.82 50.9433 105.669 51.2929 106.66 51.2929Z" fill="#FFAF20"/>
<path d="M156.828 26.5412C159.588 26.5412 162.277 27.1355 164.895 28.3241C167.584 29.5128 169.954 31.086 172.006 33.0437C174.129 35.0015 175.827 37.2739 177.101 39.8609C178.375 42.448 179.011 45.1049 179.011 47.8318C179.011 50.6286 178.375 53.3205 177.101 55.9076C175.827 58.4247 174.129 60.6971 172.006 62.7248C169.954 64.6825 167.584 66.2557 164.895 67.4444C162.277 68.633 159.588 69.2273 156.828 69.2273C153.998 69.2273 151.238 68.633 148.549 67.4444C145.931 66.2557 143.561 64.6825 141.438 62.7248C139.386 60.6971 137.723 58.4247 136.449 55.9076C135.246 53.3205 134.645 50.6286 134.645 47.8318C134.645 45.1049 135.246 42.448 136.449 39.8609C137.723 37.2739 139.386 35.0015 141.438 33.0437C143.561 31.086 145.931 29.5128 148.549 28.3241C151.238 27.1355 153.998 26.5412 156.828 26.5412ZM156.828 51.2929C157.748 51.2929 158.526 50.9433 159.163 50.2441C159.871 49.5449 160.225 48.7408 160.225 47.8318C160.225 46.9229 159.871 46.1537 159.163 45.5245C158.526 44.8253 157.748 44.4757 156.828 44.4757C155.837 44.4757 154.988 44.8253 154.281 45.5245C153.644 46.1537 153.325 46.9229 153.325 47.8318C153.325 48.7408 153.644 49.5449 154.281 50.2441C154.988 50.9433 155.837 51.2929 156.828 51.2929Z" fill="#FFAF20"/>
<path d="M206.996 26.5412C209.756 26.5412 212.445 27.1355 215.063 28.3241C217.752 29.5128 220.122 31.086 222.174 33.0437C224.297 35.0015 225.995 37.2739 227.269 39.8609C228.542 42.448 229.179 45.1049 229.179 47.8318C229.179 50.6286 228.542 53.3205 227.269 55.9076C225.995 58.4247 224.297 60.6971 222.174 62.7248C220.122 64.6825 217.752 66.2557 215.063 67.4444C212.445 68.633 209.756 69.2273 206.996 69.2273C204.166 69.2273 201.406 68.633 198.717 67.4444C196.099 66.2557 193.728 64.6825 191.606 62.7248C189.554 60.6971 187.891 58.4247 186.617 55.9076C185.414 53.3205 184.813 50.6286 184.813 47.8318C184.813 45.1049 185.414 42.448 186.617 39.8609C187.891 37.2739 189.554 35.0015 191.606 33.0437C193.728 31.086 196.099 29.5128 198.717 28.3241C201.406 27.1355 204.166 26.5412 206.996 26.5412ZM206.996 51.2929C207.916 51.2929 208.694 50.9433 209.331 50.2441C210.039 49.5449 210.392 48.7408 210.392 47.8318C210.392 46.9229 210.039 46.1537 209.331 45.5245C208.694 44.8253 207.916 44.4757 206.996 44.4757C206.005 44.4757 205.156 44.8253 204.449 45.5245C203.812 46.1537 203.493 46.9229 203.493 47.8318C203.493 48.7408 203.812 49.5449 204.449 50.2441C205.156 50.9433 206.005 51.2929 206.996 51.2929Z" fill="#FFAF20"/>
<path d="M257.164 26.5412C259.924 26.5412 262.612 27.1355 265.231 28.3241C267.919 29.5128 270.29 31.086 272.342 33.0437C274.465 35.0015 276.163 37.2739 277.437 39.8609C278.71 42.448 279.347 45.1049 279.347 47.8318C279.347 50.6286 278.71 53.3205 277.437 55.9076C276.163 58.4247 274.465 60.6971 272.342 62.7248C270.29 64.6825 267.919 66.2557 265.231 67.4444C262.612 68.633 259.924 69.2273 257.164 69.2273C254.333 69.2273 251.574 68.633 248.885 67.4444C246.267 66.2557 243.896 64.6825 241.774 62.7248C239.721 60.6971 238.059 58.4247 236.785 55.9076C235.582 53.3205 234.981 50.6286 234.981 47.8318C234.981 45.1049 235.582 42.448 236.785 39.8609C238.059 37.2739 239.721 35.0015 241.774 33.0437C243.896 31.086 246.267 29.5128 248.885 28.3241C251.574 27.1355 254.333 26.5412 257.164 26.5412ZM257.164 51.2929C258.084 51.2929 258.862 50.9433 259.499 50.2441C260.207 49.5449 260.56 48.7408 260.56 47.8318C260.56 46.9229 260.207 46.1537 259.499 45.5245C258.862 44.8253 258.084 44.4757 257.164 44.4757C256.173 44.4757 255.324 44.8253 254.617 45.5245C253.98 46.1537 253.661 46.9229 253.661 47.8318C253.661 48.7408 253.98 49.5449 254.617 50.2441C255.324 50.9433 256.173 51.2929 257.164 51.2929Z" fill="#FFAF20"/>
<path d="M307.332 26.5412C310.091 26.5412 312.78 27.1355 315.398 28.3241C318.087 29.5128 320.458 31.086 322.51 33.0437C324.633 35.0015 326.331 37.2739 327.605 39.8609C328.878 42.448 329.515 45.1049 329.515 47.8318C329.515 50.6286 328.878 53.3205 327.605 55.9076C326.331 58.4247 324.633 60.6971 322.51 62.7248C320.458 64.6825 318.087 66.2557 315.398 67.4444C312.78 68.633 310.091 69.2273 307.332 69.2273C304.501 69.2273 301.742 68.633 299.053 67.4444C296.435 66.2557 294.064 64.6825 291.941 62.7248C289.889 60.6971 288.227 58.4247 286.953 55.9076C285.75 53.3205 285.148 50.6286 285.148 47.8318C285.148 45.1049 285.75 42.448 286.953 39.8609C288.227 37.2739 289.889 35.0015 291.941 33.0437C294.064 31.086 296.435 29.5128 299.053 28.3241C301.742 27.1355 304.501 26.5412 307.332 26.5412ZM307.332 51.2929C308.252 51.2929 309.03 50.9433 309.667 50.2441C310.375 49.5449 310.728 48.7408 310.728 47.8318C310.728 46.9229 310.375 46.1537 309.667 45.5245C309.03 44.8253 308.252 44.4757 307.332 44.4757C306.341 44.4757 305.492 44.8253 304.784 45.5245C304.148 46.1537 303.829 46.9229 303.829 47.8318C303.829 48.7408 304.148 49.5449 304.784 50.2441C305.492 50.9433 306.341 51.2929 307.332 51.2929Z" fill="#FFAF20"/>
<path d="M9.30702 77.3031V51.9221C9.30702 48.6359 9.20088 45.6293 8.9886 42.9025C8.77632 40.1057 8.42252 37.4137 7.92719 34.8267C7.50263 32.2397 6.93655 29.6876 6.22895 27.1705C5.59211 24.5834 4.84912 21.8565 4 18.9898L22.6807 12.697C23.8129 16.193 24.7681 19.4443 25.5465 22.4509C26.3249 25.3875 26.9263 28.3591 27.3509 31.3657C27.7754 34.3722 28.0585 37.4837 28.2 40.7C28.4123 43.9163 28.5184 47.4473 28.5184 51.2929V77.3031H9.30702Z" stroke="#7100A6" stroke-width="6" mask="url(#path-2-outside-2_29_1589)"/>
<path d="M56.4922 26.5412C59.2519 26.5412 61.9408 27.1355 64.5589 28.3241C67.2478 29.5128 69.6183 31.086 71.6703 33.0437C73.7931 35.0015 75.4914 37.2739 76.765 39.8609C78.0387 42.448 78.6756 45.1049 78.6756 47.8318C78.6756 50.6286 78.0387 53.3205 76.765 55.9076C75.4914 58.4247 73.7931 60.6971 71.6703 62.7248C69.6183 64.6825 67.2478 66.2557 64.5589 67.4444C61.9408 68.633 59.2519 69.2273 56.4922 69.2273C53.6618 69.2273 50.9022 68.633 48.2133 67.4444C45.5951 66.2557 43.2247 64.6825 41.1019 62.7248C39.0498 60.6971 37.387 58.4247 36.1133 55.9076C34.9103 53.3205 34.3089 50.6286 34.3089 47.8318C34.3089 45.1049 34.9103 42.448 36.1133 39.8609C37.387 37.2739 39.0498 35.0015 41.1019 33.0437C43.2247 31.086 45.5951 29.5128 48.2133 28.3241C50.9022 27.1355 53.6618 26.5412 56.4922 26.5412ZM56.4922 51.2929C57.4121 51.2929 58.1905 50.9433 58.8273 50.2441C59.5349 49.5449 59.8887 48.7408 59.8887 47.8318C59.8887 46.9229 59.5349 46.1537 58.8273 45.5245C58.1905 44.8253 57.4121 44.4757 56.4922 44.4757C55.5016 44.4757 54.6525 44.8253 53.9449 45.5245C53.308 46.1537 52.9896 46.9229 52.9896 47.8318C52.9896 48.7408 53.308 49.5449 53.9449 50.2441C54.6525 50.9433 55.5016 51.2929 56.4922 51.2929Z" stroke="#7100A6" stroke-width="6" mask="url(#path-2-outside-2_29_1589)"/>
<path d="M106.66 26.5412C109.42 26.5412 112.109 27.1355 114.727 28.3241C117.416 29.5128 119.786 31.086 121.838 33.0437C123.961 35.0015 125.659 37.2739 126.933 39.8609C128.207 42.448 128.843 45.1049 128.843 47.8318C128.843 50.6286 128.207 53.3205 126.933 55.9076C125.659 58.4247 123.961 60.6971 121.838 62.7248C119.786 64.6825 117.416 66.2557 114.727 67.4444C112.109 68.633 109.42 69.2273 106.66 69.2273C103.83 69.2273 101.07 68.633 98.3812 67.4444C95.7631 66.2557 93.3926 64.6825 91.2698 62.7248C89.2177 60.6971 87.5549 58.4247 86.2812 55.9076C85.0783 53.3205 84.4768 50.6286 84.4768 47.8318C84.4768 45.1049 85.0783 42.448 86.2812 39.8609C87.5549 37.2739 89.2177 35.0015 91.2698 33.0437C93.3926 31.086 95.7631 29.5128 98.3812 28.3241C101.07 27.1355 103.83 26.5412 106.66 26.5412ZM106.66 51.2929C107.58 51.2929 108.358 50.9433 108.995 50.2441C109.703 49.5449 110.057 48.7408 110.057 47.8318C110.057 46.9229 109.703 46.1537 108.995 45.5245C108.358 44.8253 107.58 44.4757 106.66 44.4757C105.669 44.4757 104.82 44.8253 104.113 45.5245C103.476 46.1537 103.158 46.9229 103.158 47.8318C103.158 48.7408 103.476 49.5449 104.113 50.2441C104.82 50.9433 105.669 51.2929 106.66 51.2929Z" stroke="#7100A6" stroke-width="6" mask="url(#path-2-outside-2_29_1589)"/>
<path d="M156.828 26.5412C159.588 26.5412 162.277 27.1355 164.895 28.3241C167.584 29.5128 169.954 31.086 172.006 33.0437C174.129 35.0015 175.827 37.2739 177.101 39.8609C178.375 42.448 179.011 45.1049 179.011 47.8318C179.011 50.6286 178.375 53.3205 177.101 55.9076C175.827 58.4247 174.129 60.6971 172.006 62.7248C169.954 64.6825 167.584 66.2557 164.895 67.4444C162.277 68.633 159.588 69.2273 156.828 69.2273C153.998 69.2273 151.238 68.633 148.549 67.4444C145.931 66.2557 143.561 64.6825 141.438 62.7248C139.386 60.6971 137.723 58.4247 136.449 55.9076C135.246 53.3205 134.645 50.6286 134.645 47.8318C134.645 45.1049 135.246 42.448 136.449 39.8609C137.723 37.2739 139.386 35.0015 141.438 33.0437C143.561 31.086 145.931 29.5128 148.549 28.3241C151.238 27.1355 153.998 26.5412 156.828 26.5412ZM156.828 51.2929C157.748 51.2929 158.526 50.9433 159.163 50.2441C159.871 49.5449 160.225 48.7408 160.225 47.8318C160.225 46.9229 159.871 46.1537 159.163 45.5245C158.526 44.8253 157.748 44.4757 156.828 44.4757C155.837 44.4757 154.988 44.8253 154.281 45.5245C153.644 46.1537 153.325 46.9229 153.325 47.8318C153.325 48.7408 153.644 49.5449 154.281 50.2441C154.988 50.9433 155.837 51.2929 156.828 51.2929Z" stroke="#7100A6" stroke-width="6" mask="url(#path-2-outside-2_29_1589)"/>
<path d="M206.996 26.5412C209.756 26.5412 212.445 27.1355 215.063 28.3241C217.752 29.5128 220.122 31.086 222.174 33.0437C224.297 35.0015 225.995 37.2739 227.269 39.8609C228.542 42.448 229.179 45.1049 229.179 47.8318C229.179 50.6286 228.542 53.3205 227.269 55.9076C225.995 58.4247 224.297 60.6971 222.174 62.7248C220.122 64.6825 217.752 66.2557 215.063 67.4444C212.445 68.633 209.756 69.2273 206.996 69.2273C204.166 69.2273 201.406 68.633 198.717 67.4444C196.099 66.2557 193.728 64.6825 191.606 62.7248C189.554 60.6971 187.891 58.4247 186.617 55.9076C185.414 53.3205 184.813 50.6286 184.813 47.8318C184.813 45.1049 185.414 42.448 186.617 39.8609C187.891 37.2739 189.554 35.0015 191.606 33.0437C193.728 31.086 196.099 29.5128 198.717 28.3241C201.406 27.1355 204.166 26.5412 206.996 26.5412ZM206.996 51.2929C207.916 51.2929 208.694 50.9433 209.331 50.2441C210.039 49.5449 210.392 48.7408 210.392 47.8318C210.392 46.9229 210.039 46.1537 209.331 45.5245C208.694 44.8253 207.916 44.4757 206.996 44.4757C206.005 44.4757 205.156 44.8253 204.449 45.5245C203.812 46.1537 203.493 46.9229 203.493 47.8318C203.493 48.7408 203.812 49.5449 204.449 50.2441C205.156 50.9433 206.005 51.2929 206.996 51.2929Z" stroke="#7100A6" stroke-width="6" mask="url(#path-2-outside-2_29_1589)"/>
<path d="M257.164 26.5412C259.924 26.5412 262.612 27.1355 265.231 28.3241C267.919 29.5128 270.29 31.086 272.342 33.0437C274.465 35.0015 276.163 37.2739 277.437 39.8609C278.71 42.448 279.347 45.1049 279.347 47.8318C279.347 50.6286 278.71 53.3205 277.437 55.9076C276.163 58.4247 274.465 60.6971 272.342 62.7248C270.29 64.6825 267.919 66.2557 265.231 67.4444C262.612 68.633 259.924 69.2273 257.164 69.2273C254.333 69.2273 251.574 68.633 248.885 67.4444C246.267 66.2557 243.896 64.6825 241.774 62.7248C239.721 60.6971 238.059 58.4247 236.785 55.9076C235.582 53.3205 234.981 50.6286 234.981 47.8318C234.981 45.1049 235.582 42.448 236.785 39.8609C238.059 37.2739 239.721 35.0015 241.774 33.0437C243.896 31.086 246.267 29.5128 248.885 28.3241C251.574 27.1355 254.333 26.5412 257.164 26.5412ZM257.164 51.2929C258.084 51.2929 258.862 50.9433 259.499 50.2441C260.207 49.5449 260.56 48.7408 260.56 47.8318C260.56 46.9229 260.207 46.1537 259.499 45.5245C258.862 44.8253 258.084 44.4757 257.164 44.4757C256.173 44.4757 255.324 44.8253 254.617 45.5245C253.98 46.1537 253.661 46.9229 253.661 47.8318C253.661 48.7408 253.98 49.5449 254.617 50.2441C255.324 50.9433 256.173 51.2929 257.164 51.2929Z" stroke="#7100A6" stroke-width="6" mask="url(#path-2-outside-2_29_1589)"/>
<path d="M307.332 26.5412C310.091 26.5412 312.78 27.1355 315.398 28.3241C318.087 29.5128 320.458 31.086 322.51 33.0437C324.633 35.0015 326.331 37.2739 327.605 39.8609C328.878 42.448 329.515 45.1049 329.515 47.8318C329.515 50.6286 328.878 53.3205 327.605 55.9076C326.331 58.4247 324.633 60.6971 322.51 62.7248C320.458 64.6825 318.087 66.2557 315.398 67.4444C312.78 68.633 310.091 69.2273 307.332 69.2273C304.501 69.2273 301.742 68.633 299.053 67.4444C296.435 66.2557 294.064 64.6825 291.941 62.7248C289.889 60.6971 288.227 58.4247 286.953 55.9076C285.75 53.3205 285.148 50.6286 285.148 47.8318C285.148 45.1049 285.75 42.448 286.953 39.8609C288.227 37.2739 289.889 35.0015 291.941 33.0437C294.064 31.086 296.435 29.5128 299.053 28.3241C301.742 27.1355 304.501 26.5412 307.332 26.5412ZM307.332 51.2929C308.252 51.2929 309.03 50.9433 309.667 50.2441C310.375 49.5449 310.728 48.7408 310.728 47.8318C310.728 46.9229 310.375 46.1537 309.667 45.5245C309.03 44.8253 308.252 44.4757 307.332 44.4757C306.341 44.4757 305.492 44.8253 304.784 45.5245C304.148 46.1537 303.829 46.9229 303.829 47.8318C303.829 48.7408 304.148 49.5449 304.784 50.2441C305.492 50.9433 306.341 51.2929 307.332 51.2929Z" stroke="#7100A6" stroke-width="6" mask="url(#path-2-outside-2_29_1589)"/>
<mask id="path-3-outside-3_29_1589" maskUnits="userSpaceOnUse" x="0" y="0" width="333" height="72" fill="black">
<rect fill="white" width="333" height="72"/>
<path d="M9.30702 68.6061V43.2251C9.30702 39.9389 9.20088 36.9323 8.9886 34.2054C8.77632 31.4086 8.42252 28.7167 7.92719 26.1297C7.50263 23.5426 6.93655 20.9906 6.22895 18.4734C5.59211 15.8864 4.84912 13.1595 4 10.2928L22.6807 4C23.8129 7.496 24.7681 10.7473 25.5465 13.7538C26.3249 16.6905 26.9263 19.6621 27.3509 22.6686C27.7754 25.6752 28.0585 28.7866 28.2 32.003C28.4123 35.2193 28.5184 38.7502 28.5184 42.5958V68.6061H9.30702Z"/>
<path d="M56.4922 17.8442C59.2519 17.8442 61.9408 18.4385 64.5589 19.6271C67.2478 20.8158 69.6183 22.389 71.6703 24.3467C73.7931 26.3045 75.4914 28.5769 76.765 31.1639C78.0387 33.751 78.6756 36.4079 78.6756 39.1348C78.6756 41.9316 78.0387 44.6235 76.765 47.2106C75.4914 49.7277 73.7931 52.0001 71.6703 54.0277C69.6183 55.9855 67.2478 57.5587 64.5589 58.7473C61.9408 59.936 59.2519 60.5303 56.4922 60.5303C53.6618 60.5303 50.9022 59.936 48.2133 58.7473C45.5951 57.5587 43.2247 55.9855 41.1019 54.0277C39.0498 52.0001 37.387 49.7277 36.1133 47.2106C34.9103 44.6235 34.3089 41.9316 34.3089 39.1348C34.3089 36.4079 34.9103 33.751 36.1133 31.1639C37.387 28.5769 39.0498 26.3045 41.1019 24.3467C43.2247 22.389 45.5951 20.8158 48.2133 19.6271C50.9022 18.4385 53.6618 17.8442 56.4922 17.8442ZM56.4922 42.5958C57.4121 42.5958 58.1905 42.2462 58.8273 41.547C59.5349 40.8478 59.8887 40.0438 59.8887 39.1348C59.8887 38.2258 59.5349 37.4567 58.8273 36.8274C58.1905 36.1282 57.4121 35.7786 56.4922 35.7786C55.5016 35.7786 54.6525 36.1282 53.9449 36.8274C53.308 37.4567 52.9896 38.2258 52.9896 39.1348C52.9896 40.0438 53.308 40.8478 53.9449 41.547C54.6525 42.2462 55.5016 42.5958 56.4922 42.5958Z"/>
<path d="M106.66 17.8442C109.42 17.8442 112.109 18.4385 114.727 19.6271C117.416 20.8158 119.786 22.389 121.838 24.3467C123.961 26.3045 125.659 28.5769 126.933 31.1639C128.207 33.751 128.843 36.4079 128.843 39.1348C128.843 41.9316 128.207 44.6235 126.933 47.2106C125.659 49.7277 123.961 52.0001 121.838 54.0277C119.786 55.9855 117.416 57.5587 114.727 58.7473C112.109 59.936 109.42 60.5303 106.66 60.5303C103.83 60.5303 101.07 59.936 98.3812 58.7473C95.7631 57.5587 93.3926 55.9855 91.2698 54.0277C89.2177 52.0001 87.5549 49.7277 86.2812 47.2106C85.0783 44.6235 84.4768 41.9316 84.4768 39.1348C84.4768 36.4079 85.0783 33.751 86.2812 31.1639C87.5549 28.5769 89.2177 26.3045 91.2698 24.3467C93.3926 22.389 95.7631 20.8158 98.3812 19.6271C101.07 18.4385 103.83 17.8442 106.66 17.8442ZM106.66 42.5958C107.58 42.5958 108.358 42.2462 108.995 41.547C109.703 40.8478 110.057 40.0438 110.057 39.1348C110.057 38.2258 109.703 37.4567 108.995 36.8274C108.358 36.1282 107.58 35.7786 106.66 35.7786C105.669 35.7786 104.82 36.1282 104.113 36.8274C103.476 37.4567 103.158 38.2258 103.158 39.1348C103.158 40.0438 103.476 40.8478 104.113 41.547C104.82 42.2462 105.669 42.5958 106.66 42.5958Z"/>
<path d="M156.828 17.8442C159.588 17.8442 162.277 18.4385 164.895 19.6271C167.584 20.8158 169.954 22.389 172.006 24.3467C174.129 26.3045 175.827 28.5769 177.101 31.1639C178.375 33.751 179.011 36.4079 179.011 39.1348C179.011 41.9316 178.375 44.6235 177.101 47.2106C175.827 49.7277 174.129 52.0001 172.006 54.0277C169.954 55.9855 167.584 57.5587 164.895 58.7473C162.277 59.936 159.588 60.5303 156.828 60.5303C153.998 60.5303 151.238 59.936 148.549 58.7473C145.931 57.5587 143.561 55.9855 141.438 54.0277C139.386 52.0001 137.723 49.7277 136.449 47.2106C135.246 44.6235 134.645 41.9316 134.645 39.1348C134.645 36.4079 135.246 33.751 136.449 31.1639C137.723 28.5769 139.386 26.3045 141.438 24.3467C143.561 22.389 145.931 20.8158 148.549 19.6271C151.238 18.4385 153.998 17.8442 156.828 17.8442ZM156.828 42.5958C157.748 42.5958 158.526 42.2462 159.163 41.547C159.871 40.8478 160.225 40.0438 160.225 39.1348C160.225 38.2258 159.871 37.4567 159.163 36.8274C158.526 36.1282 157.748 35.7786 156.828 35.7786C155.837 35.7786 154.988 36.1282 154.281 36.8274C153.644 37.4567 153.325 38.2258 153.325 39.1348C153.325 40.0438 153.644 40.8478 154.281 41.547C154.988 42.2462 155.837 42.5958 156.828 42.5958Z"/>
<path d="M206.996 17.8442C209.756 17.8442 212.445 18.4385 215.063 19.6271C217.752 20.8158 220.122 22.389 222.174 24.3467C224.297 26.3045 225.995 28.5769 227.269 31.1639C228.542 33.751 229.179 36.4079 229.179 39.1348C229.179 41.9316 228.542 44.6235 227.269 47.2106C225.995 49.7277 224.297 52.0001 222.174 54.0277C220.122 55.9855 217.752 57.5587 215.063 58.7473C212.445 59.936 209.756 60.5303 206.996 60.5303C204.166 60.5303 201.406 59.936 198.717 58.7473C196.099 57.5587 193.728 55.9855 191.606 54.0277C189.554 52.0001 187.891 49.7277 186.617 47.2106C185.414 44.6235 184.813 41.9316 184.813 39.1348C184.813 36.4079 185.414 33.751 186.617 31.1639C187.891 28.5769 189.554 26.3045 191.606 24.3467C193.728 22.389 196.099 20.8158 198.717 19.6271C201.406 18.4385 204.166 17.8442 206.996 17.8442ZM206.996 42.5958C207.916 42.5958 208.694 42.2462 209.331 41.547C210.039 40.8478 210.392 40.0438 210.392 39.1348C210.392 38.2258 210.039 37.4567 209.331 36.8274C208.694 36.1282 207.916 35.7786 206.996 35.7786C206.005 35.7786 205.156 36.1282 204.449 36.8274C203.812 37.4567 203.493 38.2258 203.493 39.1348C203.493 40.0438 203.812 40.8478 204.449 41.547C205.156 42.2462 206.005 42.5958 206.996 42.5958Z"/>
<path d="M257.164 17.8442C259.924 17.8442 262.612 18.4385 265.231 19.6271C267.919 20.8158 270.29 22.389 272.342 24.3467C274.465 26.3045 276.163 28.5769 277.437 31.1639C278.71 33.751 279.347 36.4079 279.347 39.1348C279.347 41.9316 278.71 44.6235 277.437 47.2106C276.163 49.7277 274.465 52.0001 272.342 54.0277C270.29 55.9855 267.919 57.5587 265.231 58.7473C262.612 59.936 259.924 60.5303 257.164 60.5303C254.333 60.5303 251.574 59.936 248.885 58.7473C246.267 57.5587 243.896 55.9855 241.774 54.0277C239.721 52.0001 238.059 49.7277 236.785 47.2106C235.582 44.6235 234.981 41.9316 234.981 39.1348C234.981 36.4079 235.582 33.751 236.785 31.1639C238.059 28.5769 239.721 26.3045 241.774 24.3467C243.896 22.389 246.267 20.8158 248.885 19.6271C251.574 18.4385 254.333 17.8442 257.164 17.8442ZM257.164 42.5958C258.084 42.5958 258.862 42.2462 259.499 41.547C260.207 40.8478 260.56 40.0438 260.56 39.1348C260.56 38.2258 260.207 37.4567 259.499 36.8274C258.862 36.1282 258.084 35.7786 257.164 35.7786C256.173 35.7786 255.324 36.1282 254.617 36.8274C253.98 37.4567 253.661 38.2258 253.661 39.1348C253.661 40.0438 253.98 40.8478 254.617 41.547C255.324 42.2462 256.173 42.5958 257.164 42.5958Z"/>
<path d="M307.332 17.8442C310.091 17.8442 312.78 18.4385 315.398 19.6271C318.087 20.8158 320.458 22.389 322.51 24.3467C324.633 26.3045 326.331 28.5769 327.605 31.1639C328.878 33.751 329.515 36.4079 329.515 39.1348C329.515 41.9316 328.878 44.6235 327.605 47.2106C326.331 49.7277 324.633 52.0001 322.51 54.0277C320.458 55.9855 318.087 57.5587 315.398 58.7473C312.78 59.936 310.091 60.5303 307.332 60.5303C304.501 60.5303 301.742 59.936 299.053 58.7473C296.435 57.5587 294.064 55.9855 291.941 54.0277C289.889 52.0001 288.227 49.7277 286.953 47.2106C285.75 44.6235 285.148 41.9316 285.148 39.1348C285.148 36.4079 285.75 33.751 286.953 31.1639C288.227 28.5769 289.889 26.3045 291.941 24.3467C294.064 22.389 296.435 20.8158 299.053 19.6271C301.742 18.4385 304.501 17.8442 307.332 17.8442ZM307.332 42.5958C308.252 42.5958 309.03 42.2462 309.667 41.547C310.375 40.8478 310.728 40.0438 310.728 39.1348C310.728 38.2258 310.375 37.4567 309.667 36.8274C309.03 36.1282 308.252 35.7786 307.332 35.7786C306.341 35.7786 305.492 36.1282 304.784 36.8274C304.148 37.4567 303.829 38.2258 303.829 39.1348C303.829 40.0438 304.148 40.8478 304.784 41.547C305.492 42.2462 306.341 42.5958 307.332 42.5958Z"/>
</mask>
<path d="M9.30702 68.6061V43.2251C9.30702 39.9389 9.20088 36.9323 8.9886 34.2054C8.77632 31.4086 8.42252 28.7167 7.92719 26.1297C7.50263 23.5426 6.93655 20.9906 6.22895 18.4734C5.59211 15.8864 4.84912 13.1595 4 10.2928L22.6807 4C23.8129 7.496 24.7681 10.7473 25.5465 13.7538C26.3249 16.6905 26.9263 19.6621 27.3509 22.6686C27.7754 25.6752 28.0585 28.7866 28.2 32.003C28.4123 35.2193 28.5184 38.7502 28.5184 42.5958V68.6061H9.30702Z" fill="#F2F2F7"/>
<path d="M56.4922 17.8442C59.2519 17.8442 61.9408 18.4385 64.5589 19.6271C67.2478 20.8158 69.6183 22.389 71.6703 24.3467C73.7931 26.3045 75.4914 28.5769 76.765 31.1639C78.0387 33.751 78.6756 36.4079 78.6756 39.1348C78.6756 41.9316 78.0387 44.6235 76.765 47.2106C75.4914 49.7277 73.7931 52.0001 71.6703 54.0277C69.6183 55.9855 67.2478 57.5587 64.5589 58.7473C61.9408 59.936 59.2519 60.5303 56.4922 60.5303C53.6618 60.5303 50.9022 59.936 48.2133 58.7473C45.5951 57.5587 43.2247 55.9855 41.1019 54.0277C39.0498 52.0001 37.387 49.7277 36.1133 47.2106C34.9103 44.6235 34.3089 41.9316 34.3089 39.1348C34.3089 36.4079 34.9103 33.751 36.1133 31.1639C37.387 28.5769 39.0498 26.3045 41.1019 24.3467C43.2247 22.389 45.5951 20.8158 48.2133 19.6271C50.9022 18.4385 53.6618 17.8442 56.4922 17.8442ZM56.4922 42.5958C57.4121 42.5958 58.1905 42.2462 58.8273 41.547C59.5349 40.8478 59.8887 40.0438 59.8887 39.1348C59.8887 38.2258 59.5349 37.4567 58.8273 36.8274C58.1905 36.1282 57.4121 35.7786 56.4922 35.7786C55.5016 35.7786 54.6525 36.1282 53.9449 36.8274C53.308 37.4567 52.9896 38.2258 52.9896 39.1348C52.9896 40.0438 53.308 40.8478 53.9449 41.547C54.6525 42.2462 55.5016 42.5958 56.4922 42.5958Z" fill="#F2F2F7"/>
<path d="M106.66 17.8442C109.42 17.8442 112.109 18.4385 114.727 19.6271C117.416 20.8158 119.786 22.389 121.838 24.3467C123.961 26.3045 125.659 28.5769 126.933 31.1639C128.207 33.751 128.843 36.4079 128.843 39.1348C128.843 41.9316 128.207 44.6235 126.933 47.2106C125.659 49.7277 123.961 52.0001 121.838 54.0277C119.786 55.9855 117.416 57.5587 114.727 58.7473C112.109 59.936 109.42 60.5303 106.66 60.5303C103.83 60.5303 101.07 59.936 98.3812 58.7473C95.7631 57.5587 93.3926 55.9855 91.2698 54.0277C89.2177 52.0001 87.5549 49.7277 86.2812 47.2106C85.0783 44.6235 84.4768 41.9316 84.4768 39.1348C84.4768 36.4079 85.0783 33.751 86.2812 31.1639C87.5549 28.5769 89.2177 26.3045 91.2698 24.3467C93.3926 22.389 95.7631 20.8158 98.3812 19.6271C101.07 18.4385 103.83 17.8442 106.66 17.8442ZM106.66 42.5958C107.58 42.5958 108.358 42.2462 108.995 41.547C109.703 40.8478 110.057 40.0438 110.057 39.1348C110.057 38.2258 109.703 37.4567 108.995 36.8274C108.358 36.1282 107.58 35.7786 106.66 35.7786C105.669 35.7786 104.82 36.1282 104.113 36.8274C103.476 37.4567 103.158 38.2258 103.158 39.1348C103.158 40.0438 103.476 40.8478 104.113 41.547C104.82 42.2462 105.669 42.5958 106.66 42.5958Z" fill="#F2F2F7"/>
<path d="M156.828 17.8442C159.588 17.8442 162.277 18.4385 164.895 19.6271C167.584 20.8158 169.954 22.389 172.006 24.3467C174.129 26.3045 175.827 28.5769 177.101 31.1639C178.375 33.751 179.011 36.4079 179.011 39.1348C179.011 41.9316 178.375 44.6235 177.101 47.2106C175.827 49.7277 174.129 52.0001 172.006 54.0277C169.954 55.9855 167.584 57.5587 164.895 58.7473C162.277 59.936 159.588 60.5303 156.828 60.5303C153.998 60.5303 151.238 59.936 148.549 58.7473C145.931 57.5587 143.561 55.9855 141.438 54.0277C139.386 52.0001 137.723 49.7277 136.449 47.2106C135.246 44.6235 134.645 41.9316 134.645 39.1348C134.645 36.4079 135.246 33.751 136.449 31.1639C137.723 28.5769 139.386 26.3045 141.438 24.3467C143.561 22.389 145.931 20.8158 148.549 19.6271C151.238 18.4385 153.998 17.8442 156.828 17.8442ZM156.828 42.5958C157.748 42.5958 158.526 42.2462 159.163 41.547C159.871 40.8478 160.225 40.0438 160.225 39.1348C160.225 38.2258 159.871 37.4567 159.163 36.8274C158.526 36.1282 157.748 35.7786 156.828 35.7786C155.837 35.7786 154.988 36.1282 154.281 36.8274C153.644 37.4567 153.325 38.2258 153.325 39.1348C153.325 40.0438 153.644 40.8478 154.281 41.547C154.988 42.2462 155.837 42.5958 156.828 42.5958Z" fill="#F2F2F7"/>
<path d="M206.996 17.8442C209.756 17.8442 212.445 18.4385 215.063 19.6271C217.752 20.8158 220.122 22.389 222.174 24.3467C224.297 26.3045 225.995 28.5769 227.269 31.1639C228.542 33.751 229.179 36.4079 229.179 39.1348C229.179 41.9316 228.542 44.6235 227.269 47.2106C225.995 49.7277 224.297 52.0001 222.174 54.0277C220.122 55.9855 217.752 57.5587 215.063 58.7473C212.445 59.936 209.756 60.5303 206.996 60.5303C204.166 60.5303 201.406 59.936 198.717 58.7473C196.099 57.5587 193.728 55.9855 191.606 54.0277C189.554 52.0001 187.891 49.7277 186.617 47.2106C185.414 44.6235 184.813 41.9316 184.813 39.1348C184.813 36.4079 185.414 33.751 186.617 31.1639C187.891 28.5769 189.554 26.3045 191.606 24.3467C193.728 22.389 196.099 20.8158 198.717 19.6271C201.406 18.4385 204.166 17.8442 206.996 17.8442ZM206.996 42.5958C207.916 42.5958 208.694 42.2462 209.331 41.547C210.039 40.8478 210.392 40.0438 210.392 39.1348C210.392 38.2258 210.039 37.4567 209.331 36.8274C208.694 36.1282 207.916 35.7786 206.996 35.7786C206.005 35.7786 205.156 36.1282 204.449 36.8274C203.812 37.4567 203.493 38.2258 203.493 39.1348C203.493 40.0438 203.812 40.8478 204.449 41.547C205.156 42.2462 206.005 42.5958 206.996 42.5958Z" fill="#F2F2F7"/>
<path d="M257.164 17.8442C259.924 17.8442 262.612 18.4385 265.231 19.6271C267.919 20.8158 270.29 22.389 272.342 24.3467C274.465 26.3045 276.163 28.5769 277.437 31.1639C278.71 33.751 279.347 36.4079 279.347 39.1348C279.347 41.9316 278.71 44.6235 277.437 47.2106C276.163 49.7277 274.465 52.0001 272.342 54.0277C270.29 55.9855 267.919 57.5587 265.231 58.7473C262.612 59.936 259.924 60.5303 257.164 60.5303C254.333 60.5303 251.574 59.936 248.885 58.7473C246.267 57.5587 243.896 55.9855 241.774 54.0277C239.721 52.0001 238.059 49.7277 236.785 47.2106C235.582 44.6235 234.981 41.9316 234.981 39.1348C234.981 36.4079 235.582 33.751 236.785 31.1639C238.059 28.5769 239.721 26.3045 241.774 24.3467C243.896 22.389 246.267 20.8158 248.885 19.6271C251.574 18.4385 254.333 17.8442 257.164 17.8442ZM257.164 42.5958C258.084 42.5958 258.862 42.2462 259.499 41.547C260.207 40.8478 260.56 40.0438 260.56 39.1348C260.56 38.2258 260.207 37.4567 259.499 36.8274C258.862 36.1282 258.084 35.7786 257.164 35.7786C256.173 35.7786 255.324 36.1282 254.617 36.8274C253.98 37.4567 253.661 38.2258 253.661 39.1348C253.661 40.0438 253.98 40.8478 254.617 41.547C255.324 42.2462 256.173 42.5958 257.164 42.5958Z" fill="#F2F2F7"/>
<path d="M307.332 17.8442C310.091 17.8442 312.78 18.4385 315.398 19.6271C318.087 20.8158 320.458 22.389 322.51 24.3467C324.633 26.3045 326.331 28.5769 327.605 31.1639C328.878 33.751 329.515 36.4079 329.515 39.1348C329.515 41.9316 328.878 44.6235 327.605 47.2106C326.331 49.7277 324.633 52.0001 322.51 54.0277C320.458 55.9855 318.087 57.5587 315.398 58.7473C312.78 59.936 310.091 60.5303 307.332 60.5303C304.501 60.5303 301.742 59.936 299.053 58.7473C296.435 57.5587 294.064 55.9855 291.941 54.0277C289.889 52.0001 288.227 49.7277 286.953 47.2106C285.75 44.6235 285.148 41.9316 285.148 39.1348C285.148 36.4079 285.75 33.751 286.953 31.1639C288.227 28.5769 289.889 26.3045 291.941 24.3467C294.064 22.389 296.435 20.8158 299.053 19.6271C301.742 18.4385 304.501 17.8442 307.332 17.8442ZM307.332 42.5958C308.252 42.5958 309.03 42.2462 309.667 41.547C310.375 40.8478 310.728 40.0438 310.728 39.1348C310.728 38.2258 310.375 37.4567 309.667 36.8274C309.03 36.1282 308.252 35.7786 307.332 35.7786C306.341 35.7786 305.492 36.1282 304.784 36.8274C304.148 37.4567 303.829 38.2258 303.829 39.1348C303.829 40.0438 304.148 40.8478 304.784 41.547C305.492 42.2462 306.341 42.5958 307.332 42.5958Z" fill="#F2F2F7"/>
<path d="M9.30702 68.6061V43.2251C9.30702 39.9389 9.20088 36.9323 8.9886 34.2054C8.77632 31.4086 8.42252 28.7167 7.92719 26.1297C7.50263 23.5426 6.93655 20.9906 6.22895 18.4734C5.59211 15.8864 4.84912 13.1595 4 10.2928L22.6807 4C23.8129 7.496 24.7681 10.7473 25.5465 13.7538C26.3249 16.6905 26.9263 19.6621 27.3509 22.6686C27.7754 25.6752 28.0585 28.7866 28.2 32.003C28.4123 35.2193 28.5184 38.7502 28.5184 42.5958V68.6061H9.30702Z" stroke="#7100A6" stroke-width="6" mask="url(#path-3-outside-3_29_1589)"/>
<path d="M56.4922 17.8442C59.2519 17.8442 61.9408 18.4385 64.5589 19.6271C67.2478 20.8158 69.6183 22.389 71.6703 24.3467C73.7931 26.3045 75.4914 28.5769 76.765 31.1639C78.0387 33.751 78.6756 36.4079 78.6756 39.1348C78.6756 41.9316 78.0387 44.6235 76.765 47.2106C75.4914 49.7277 73.7931 52.0001 71.6703 54.0277C69.6183 55.9855 67.2478 57.5587 64.5589 58.7473C61.9408 59.936 59.2519 60.5303 56.4922 60.5303C53.6618 60.5303 50.9022 59.936 48.2133 58.7473C45.5951 57.5587 43.2247 55.9855 41.1019 54.0277C39.0498 52.0001 37.387 49.7277 36.1133 47.2106C34.9103 44.6235 34.3089 41.9316 34.3089 39.1348C34.3089 36.4079 34.9103 33.751 36.1133 31.1639C37.387 28.5769 39.0498 26.3045 41.1019 24.3467C43.2247 22.389 45.5951 20.8158 48.2133 19.6271C50.9022 18.4385 53.6618 17.8442 56.4922 17.8442ZM56.4922 42.5958C57.4121 42.5958 58.1905 42.2462 58.8273 41.547C59.5349 40.8478 59.8887 40.0438 59.8887 39.1348C59.8887 38.2258 59.5349 37.4567 58.8273 36.8274C58.1905 36.1282 57.4121 35.7786 56.4922 35.7786C55.5016 35.7786 54.6525 36.1282 53.9449 36.8274C53.308 37.4567 52.9896 38.2258 52.9896 39.1348C52.9896 40.0438 53.308 40.8478 53.9449 41.547C54.6525 42.2462 55.5016 42.5958 56.4922 42.5958Z" stroke="#7100A6" stroke-width="6" mask="url(#path-3-outside-3_29_1589)"/>
<path d="M106.66 17.8442C109.42 17.8442 112.109 18.4385 114.727 19.6271C117.416 20.8158 119.786 22.389 121.838 24.3467C123.961 26.3045 125.659 28.5769 126.933 31.1639C128.207 33.751 128.843 36.4079 128.843 39.1348C128.843 41.9316 128.207 44.6235 126.933 47.2106C125.659 49.7277 123.961 52.0001 121.838 54.0277C119.786 55.9855 117.416 57.5587 114.727 58.7473C112.109 59.936 109.42 60.5303 106.66 60.5303C103.83 60.5303 101.07 59.936 98.3812 58.7473C95.7631 57.5587 93.3926 55.9855 91.2698 54.0277C89.2177 52.0001 87.5549 49.7277 86.2812 47.2106C85.0783 44.6235 84.4768 41.9316 84.4768 39.1348C84.4768 36.4079 85.0783 33.751 86.2812 31.1639C87.5549 28.5769 89.2177 26.3045 91.2698 24.3467C93.3926 22.389 95.7631 20.8158 98.3812 19.6271C101.07 18.4385 103.83 17.8442 106.66 17.8442ZM106.66 42.5958C107.58 42.5958 108.358 42.2462 108.995 41.547C109.703 40.8478 110.057 40.0438 110.057 39.1348C110.057 38.2258 109.703 37.4567 108.995 36.8274C108.358 36.1282 107.58 35.7786 106.66 35.7786C105.669 35.7786 104.82 36.1282 104.113 36.8274C103.476 37.4567 103.158 38.2258 103.158 39.1348C103.158 40.0438 103.476 40.8478 104.113 41.547C104.82 42.2462 105.669 42.5958 106.66 42.5958Z" stroke="#7100A6" stroke-width="6" mask="url(#path-3-outside-3_29_1589)"/>
<path d="M156.828 17.8442C159.588 17.8442 162.277 18.4385 164.895 19.6271C167.584 20.8158 169.954 22.389 172.006 24.3467C174.129 26.3045 175.827 28.5769 177.101 31.1639C178.375 33.751 179.011 36.4079 179.011 39.1348C179.011 41.9316 178.375 44.6235 177.101 47.2106C175.827 49.7277 174.129 52.0001 172.006 54.0277C169.954 55.9855 167.584 57.5587 164.895 58.7473C162.277 59.936 159.588 60.5303 156.828 60.5303C153.998 60.5303 151.238 59.936 148.549 58.7473C145.931 57.5587 143.561 55.9855 141.438 54.0277C139.386 52.0001 137.723 49.7277 136.449 47.2106C135.246 44.6235 134.645 41.9316 134.645 39.1348C134.645 36.4079 135.246 33.751 136.449 31.1639C137.723 28.5769 139.386 26.3045 141.438 24.3467C143.561 22.389 145.931 20.8158 148.549 19.6271C151.238 18.4385 153.998 17.8442 156.828 17.8442ZM156.828 42.5958C157.748 42.5958 158.526 42.2462 159.163 41.547C159.871 40.8478 160.225 40.0438 160.225 39.1348C160.225 38.2258 159.871 37.4567 159.163 36.8274C158.526 36.1282 157.748 35.7786 156.828 35.7786C155.837 35.7786 154.988 36.1282 154.281 36.8274C153.644 37.4567 153.325 38.2258 153.325 39.1348C153.325 40.0438 153.644 40.8478 154.281 41.547C154.988 42.2462 155.837 42.5958 156.828 42.5958Z" stroke="#7100A6" stroke-width="6" mask="url(#path-3-outside-3_29_1589)"/>
<path d="M206.996 17.8442C209.756 17.8442 212.445 18.4385 215.063 19.6271C217.752 20.8158 220.122 22.389 222.174 24.3467C224.297 26.3045 225.995 28.5769 227.269 31.1639C228.542 33.751 229.179 36.4079 229.179 39.1348C229.179 41.9316 228.542 44.6235 227.269 47.2106C225.995 49.7277 224.297 52.0001 222.174 54.0277C220.122 55.9855 217.752 57.5587 215.063 58.7473C212.445 59.936 209.756 60.5303 206.996 60.5303C204.166 60.5303 201.406 59.936 198.717 58.7473C196.099 57.5587 193.728 55.9855 191.606 54.0277C189.554 52.0001 187.891 49.7277 186.617 47.2106C185.414 44.6235 184.813 41.9316 184.813 39.1348C184.813 36.4079 185.414 33.751 186.617 31.1639C187.891 28.5769 189.554 26.3045 191.606 24.3467C193.728 22.389 196.099 20.8158 198.717 19.6271C201.406 18.4385 204.166 17.8442 206.996 17.8442ZM206.996 42.5958C207.916 42.5958 208.694 42.2462 209.331 41.547C210.039 40.8478 210.392 40.0438 210.392 39.1348C210.392 38.2258 210.039 37.4567 209.331 36.8274C208.694 36.1282 207.916 35.7786 206.996 35.7786C206.005 35.7786 205.156 36.1282 204.449 36.8274C203.812 37.4567 203.493 38.2258 203.493 39.1348C203.493 40.0438 203.812 40.8478 204.449 41.547C205.156 42.2462 206.005 42.5958 206.996 42.5958Z" stroke="#7100A6" stroke-width="6" mask="url(#path-3-outside-3_29_1589)"/>
<path d="M257.164 17.8442C259.924 17.8442 262.612 18.4385 265.231 19.6271C267.919 20.8158 270.29 22.389 272.342 24.3467C274.465 26.3045 276.163 28.5769 277.437 31.1639C278.71 33.751 279.347 36.4079 279.347 39.1348C279.347 41.9316 278.71 44.6235 277.437 47.2106C276.163 49.7277 274.465 52.0001 272.342 54.0277C270.29 55.9855 267.919 57.5587 265.231 58.7473C262.612 59.936 259.924 60.5303 257.164 60.5303C254.333 60.5303 251.574 59.936 248.885 58.7473C246.267 57.5587 243.896 55.9855 241.774 54.0277C239.721 52.0001 238.059 49.7277 236.785 47.2106C235.582 44.6235 234.981 41.9316 234.981 39.1348C234.981 36.4079 235.582 33.751 236.785 31.1639C238.059 28.5769 239.721 26.3045 241.774 24.3467C243.896 22.389 246.267 20.8158 248.885 19.6271C251.574 18.4385 254.333 17.8442 257.164 17.8442ZM257.164 42.5958C258.084 42.5958 258.862 42.2462 259.499 41.547C260.207 40.8478 260.56 40.0438 260.56 39.1348C260.56 38.2258 260.207 37.4567 259.499 36.8274C258.862 36.1282 258.084 35.7786 257.164 35.7786C256.173 35.7786 255.324 36.1282 254.617 36.8274C253.98 37.4567 253.661 38.2258 253.661 39.1348C253.661 40.0438 253.98 40.8478 254.617 41.547C255.324 42.2462 256.173 42.5958 257.164 42.5958Z" stroke="#7100A6" stroke-width="6" mask="url(#path-3-outside-3_29_1589)"/>
<path d="M307.332 17.8442C310.091 17.8442 312.78 18.4385 315.398 19.6271C318.087 20.8158 320.458 22.389 322.51 24.3467C324.633 26.3045 326.331 28.5769 327.605 31.1639C328.878 33.751 329.515 36.4079 329.515 39.1348C329.515 41.9316 328.878 44.6235 327.605 47.2106C326.331 49.7277 324.633 52.0001 322.51 54.0277C320.458 55.9855 318.087 57.5587 315.398 58.7473C312.78 59.936 310.091 60.5303 307.332 60.5303C304.501 60.5303 301.742 59.936 299.053 58.7473C296.435 57.5587 294.064 55.9855 291.941 54.0277C289.889 52.0001 288.227 49.7277 286.953 47.2106C285.75 44.6235 285.148 41.9316 285.148 39.1348C285.148 36.4079 285.75 33.751 286.953 31.1639C288.227 28.5769 289.889 26.3045 291.941 24.3467C294.064 22.389 296.435 20.8158 299.053 19.6271C301.742 18.4385 304.501 17.8442 307.332 17.8442ZM307.332 42.5958C308.252 42.5958 309.03 42.2462 309.667 41.547C310.375 40.8478 310.728 40.0438 310.728 39.1348C310.728 38.2258 310.375 37.4567 309.667 36.8274C309.03 36.1282 308.252 35.7786 307.332 35.7786C306.341 35.7786 305.492 36.1282 304.784 36.8274C304.148 37.4567 303.829 38.2258 303.829 39.1348C303.829 40.0438 304.148 40.8478 304.784 41.547C305.492 42.2462 306.341 42.5958 307.332 42.5958Z" stroke="#7100A6" stroke-width="6" mask="url(#path-3-outside-3_29_1589)"/>
</svg>
