<svg width="1102" height="1102" viewBox="0 0 1102 1102" fill="none" xmlns="http://www.w3.org/2000/svg">
<path opacity="0.1" fill-rule="evenodd" clip-rule="evenodd" d="M0 0H1102V1102H0V0ZM2 102L1.99999 200H100V102H2ZM100 100H2L2 2H100L100 100ZM102 102V200H200L200 102H102ZM200 100H102L102 2H200V100ZM202 102L202 200H300V102H202ZM300 100H202V2H300V100ZM302 102V200H400V102H302ZM400 100H302V2H400V100ZM402 102V200H500V102H402ZM500 100H402V2H500V100ZM502 102V200H600V102H502ZM600 100H502V2H600V100ZM602 102V200H700V102H602ZM700 100H602V2H700V100ZM702 102V200H800V102H702ZM800 100H702V2H800V100ZM802 102V200H900V102H802ZM900 100H802V2H900V100ZM902 102V200H1000V102H902ZM1000 100H902V2H1000V100ZM1002 102V200H1100V102H1002ZM1100 100H1002V2H1100V100ZM1100 202H1002V300H1100V202ZM1100 302H1002V400H1100V302ZM1100 402H1002V500H1100V402ZM1100 502H1002L1002 600H1100L1100 502ZM1100 602H1002V700H1100V602ZM1100 702H1002V800H1100V702ZM1100 802H1002V900H1100V802ZM1100 902H1002V1000H1100V902ZM1100 1002H1002V1100H1100V1002ZM1000 1000V902H902V1000H1000ZM902 1002H1000V1100H902V1002ZM900 1000V902H802V1000H900ZM802 1002H900V1100H802V1002ZM800 1000V902H702V1000H800ZM702 1002H800V1100H702V1002ZM700 1000V902H602V1000H700ZM602 1002H700V1100H602V1002ZM600 1000V902H502V1000H600ZM502 1002H600V1100H502V1002ZM500 1000V902H402V1000H500ZM402 1002H500V1100H402V1002ZM400 1000V902H302V1000H400ZM302 1002H400V1100H302V1002ZM300 1000V902H202L202 1000H300ZM202 1002H300V1100H202V1002ZM200 1000L200 902H102V1000H200ZM102 1002H200V1100H102L102 1002ZM100 1000V902H1.99996L1.99996 1000H100ZM1.99996 1002H100L99.9999 1100H1.99995L1.99996 1002ZM1.99996 900H100L100 802H1.99996L1.99996 900ZM1.99996 800H100L100 702H1.99997L1.99996 800ZM1.99997 700H100V602H1.99997L1.99997 700ZM1.99997 600H100L100 502H1.99998L1.99997 600ZM1.99998 500H100V402H1.99998L1.99998 500ZM1.99998 400H100L100 302H1.99999L1.99998 400ZM1.99999 300H100L100 202H1.99999L1.99999 300ZM102 202L102 300H200V202H102ZM202 202V300H300V202H202ZM302 202V300H400V202H302ZM402 202V300H500V202H402ZM502 202V300H600V202H502ZM602 202V300H700V202H602ZM702 202V300H800V202H702ZM802 202V300H900V202H802ZM902 202V300H1000V202H902ZM1000 302H902V400H1000V302ZM1000 402H902V500H1000V402ZM1000 502H902L902 600H1000L1000 502ZM1000 602H902V700H1000V602ZM1000 702H902V800H1000V702ZM1000 802H902V900H1000V802ZM900 900V802H802V900H900ZM800 900V802H702V900H800ZM700 900V802H602V900H700ZM600 900V802H502V900H600ZM500 900V802H402V900H500ZM400 900V802H302V900H400ZM300 900V802H202V900H300ZM200 900V802H102L102 900H200ZM102 800H200V702H102L102 800ZM102 700H200V602H102V700ZM102 600H200L200 502H102L102 600ZM102 500H200V402H102V500ZM102 400H200V302H102L102 400ZM202 302V400H300V302H202ZM302 302V400H400V302H302ZM402 302V400H500V302H402ZM502 302V400H600V302H502ZM602 302V400H700V302H602ZM702 302V400H800V302H702ZM802 302V400H900V302H802ZM900 402H802V500H900V402ZM900 502H802L802 600H900L900 502ZM900 602H802V700H900V602ZM900 702H802V800H900V702ZM800 800V702H702V800H800ZM700 800V702H602V800H700ZM600 800V702H502V800H600ZM500 800V702H402V800H500ZM400 800V702H302V800H400ZM300 800V702H202V800H300ZM202 700H300V602H202V700ZM202 600H300L300 502H202L202 600ZM202 500H300V402H202V500ZM302 402V500H400V402H302ZM402 402V500H500V402H402ZM502 402V500H600V402H502ZM602 402V500H700V402H602ZM702 402V500H800V402H702ZM800 502H702L702 600H800L800 502ZM800 602H702V700H800V602ZM700 700V602H602V700H700ZM600 700V602H502V700H600ZM500 700V602H402V700H500ZM400 700V602H302V700H400ZM302 600H400L400 502H302L302 600ZM402 502L402 600H500L500 502H402ZM502 502L502 600H600L600 502H502ZM602 502L602 600H700L700 502H602Z" fill="white"/>
</svg>
