<svg width="303" height="295" viewBox="0 0 303 295" fill="none" xmlns="http://www.w3.org/2000/svg">
<path fill-rule="evenodd" clip-rule="evenodd" d="M169.131 0.67857L161.65 0.339285L154.17 0L155.543 134.966L133.479 1.80768L126.169 3.44066L118.862 5.07272L155.543 134.966L99.8036 12.0386L93.165 15.505L86.5282 18.9705L155.543 134.966L69.918 30.6285L64.4011 35.693L58.8852 40.7574L155.543 134.966L45.8545 56.3131L41.8345 62.6317L37.8155 68.9503L155.543 134.966L29.2488 87.3452L26.9998 94.4877L24.7507 101.63L155.543 134.966L21.231 121.615L20.9055 129.098L20.5791 136.577L155.543 134.966L22.3464 156.793L23.9646 164.104L25.5847 171.415L155.543 134.966L32.5175 190.487L35.972 197.131L39.4264 203.775L155.543 134.966L51.0541 220.406L56.1093 225.931L61.1637 231.455L155.543 134.966L76.6954 244.514L83.0067 248.545L89.3179 252.575L155.543 134.966L107.698 261.174L114.837 263.436L121.976 265.698L155.543 134.966L141.955 269.253L149.435 269.592L156.916 269.931L155.543 134.966L177.606 268.123L184.915 266.491L192.222 264.858L155.543 134.966L211.28 257.892L217.92 254.426L224.557 250.959L155.543 134.966L241.167 239.302L246.684 234.237L252.2 229.173L155.543 134.966L265.229 213.618L269.25 207.3L273.268 200.981L155.543 134.966L281.835 182.586L284.085 175.443L286.334 168.3L155.543 134.966L289.853 148.315L290.179 140.835L290.505 133.354L155.543 134.966L288.739 113.138L287.119 105.827L285.5 98.5159L155.543 134.966L278.566 79.4442L275.113 72.8001L271.658 66.156L155.543 134.966L260.031 49.5264L254.975 44.0013L249.921 38.4753L155.543 134.966L234.389 25.417L228.077 21.3869L221.767 17.3559L155.543 134.966L203.387 8.75705L196.248 6.49515L189.109 4.23417L155.543 134.966L169.131 0.67857Z" fill="url(#paint0_radial_51_8859)"/>
<path d="M21.8304 258.995C21.835 261.473 20.8728 263.965 19.1395 265.79C17.4306 267.629 14.9447 268.808 12.3458 268.922C11.0528 268.979 9.72251 268.787 8.47957 268.328C7.23897 267.865 6.07408 267.162 5.10256 266.239C4.1357 265.314 3.33542 264.197 2.79841 262.952C2.2579 261.708 1.98415 260.346 1.97949 258.996C1.98532 257.646 2.2579 256.283 2.79841 255.04C3.33542 253.795 4.1357 252.678 5.10256 251.753C6.07524 250.83 7.23897 250.127 8.47957 249.664C9.72368 249.206 11.0528 249.013 12.3458 249.07C14.9447 249.184 17.4317 250.363 19.1395 252.202C20.8728 254.025 21.835 256.519 21.8304 258.996V258.995ZM18.2169 258.995C18.2099 258.221 18.0538 257.458 17.7404 256.761C17.4306 256.063 16.9635 255.442 16.4101 254.929C15.2814 253.91 13.7728 253.437 12.3447 253.563C10.9107 253.686 9.62233 254.37 8.72886 255.378C7.8249 256.385 7.35895 257.682 7.35429 258.994C7.35895 260.307 7.8249 261.602 8.72886 262.609C9.62233 263.618 10.9107 264.302 12.3447 264.424C13.7728 264.551 15.2814 264.077 16.4101 263.058C16.9635 262.547 17.4306 261.926 17.7404 261.227C18.0526 260.53 18.2099 259.766 18.2169 258.993V258.995Z" fill="white"/>
<g opacity="0.3">
<path d="M19.1381 252.201C17.4292 250.362 14.9433 249.183 12.3445 249.069C11.0514 249.012 9.72113 249.204 8.47819 249.663C8.09727 249.805 7.728 249.977 7.36572 250.164C8.39082 250.688 9.3239 251.373 10.0939 252.201C10.5482 252.679 10.9454 253.204 11.2902 253.761C11.6292 253.662 11.9822 253.594 12.3445 253.564C13.7726 253.437 15.2811 253.911 16.4099 254.931C16.9632 255.443 17.4304 256.064 17.7402 256.762C18.0524 257.459 18.2097 258.223 18.2167 258.996C18.2097 259.769 18.0536 260.534 17.7402 261.23C17.4304 261.928 16.9632 262.549 16.4099 263.061C15.2811 264.081 13.7726 264.555 12.3445 264.428C11.9822 264.396 11.6304 264.33 11.2902 264.231C10.9454 264.788 10.547 265.314 10.0939 265.792C9.3239 266.62 8.39082 267.306 7.36572 267.829C7.728 268.016 8.09727 268.188 8.47819 268.33C9.72229 268.788 11.0514 268.981 12.3445 268.924C14.9433 268.81 17.4304 267.631 19.1381 265.792C20.8714 263.968 21.8336 261.475 21.829 258.997C21.8336 256.519 20.8714 254.027 19.1381 252.204V252.201Z" fill="#000072"/>
</g>
<path d="M11.909 270.434C10.5577 270.434 9.20294 270.196 7.95883 269.739C6.49806 269.193 5.15378 268.362 4.06694 267.33C2.93117 266.242 2.01673 264.936 1.41798 263.547C0.808744 262.143 0.482575 260.571 0.475586 259.002C0.48141 257.42 0.808745 255.847 1.41915 254.441C2.01673 253.056 2.93117 251.749 4.06228 250.667C5.15262 249.631 6.4969 248.8 7.95301 248.256C9.3567 247.738 10.8967 247.501 12.411 247.568C15.3745 247.698 18.2273 249.014 20.2391 251.178C22.2054 253.245 23.3365 256.099 23.333 258.995C23.3377 261.891 22.2054 264.745 20.2274 266.824C18.2273 268.976 15.3745 270.292 12.411 270.422C12.2445 270.429 12.0767 270.433 11.909 270.433V270.434ZM11.9031 250.562C10.9072 250.562 9.91002 250.737 8.99791 251.074C7.92272 251.474 6.9314 252.087 6.13578 252.842C5.29706 253.644 4.61793 254.611 4.17644 255.635C3.72563 256.673 3.48449 257.837 3.47984 259.002C3.48449 260.155 3.72446 261.319 4.17411 262.354C4.61677 263.381 5.2959 264.347 6.13928 265.156C6.9314 265.907 7.92272 266.52 9.00257 266.922C10.023 267.298 11.1576 267.472 12.2782 267.423C14.4286 267.328 16.5813 266.337 18.0375 264.769C19.5006 263.229 20.3311 261.131 20.3276 258.999V258.994C20.3311 256.862 19.5017 254.764 18.0503 253.238C16.5813 251.657 14.4286 250.666 12.2794 250.571C12.1548 250.566 12.029 250.563 11.9031 250.563V250.562ZM12.8118 265.95C12.6126 265.95 12.4122 265.941 12.2118 265.924C10.4284 265.77 8.79056 264.947 7.60471 263.608C6.48292 262.358 5.85854 260.719 5.85271 259.002C5.85854 257.275 6.48292 255.636 7.6117 254.378C8.77542 253.064 10.4564 252.221 12.2177 252.07C14.1036 251.903 16.0024 252.539 17.4177 253.817C18.1539 254.497 18.7352 255.301 19.1138 256.151C19.5064 257.028 19.7114 257.983 19.7196 258.983V259.009C19.7114 260.011 19.5064 260.966 19.1126 261.845C18.7364 262.693 18.1539 263.496 17.4305 264.165C16.1527 265.319 14.4997 265.95 12.8129 265.95H12.8118ZM12.8001 255.047C12.6918 255.047 12.5846 255.052 12.4774 255.061C11.4721 255.147 10.5169 255.626 9.85411 256.376C9.21225 257.093 8.86046 258.022 8.85696 259.001C8.86046 259.97 9.21226 260.899 9.84828 261.609C10.5181 262.366 11.4721 262.845 12.4739 262.931C13.5247 263.025 14.6173 262.656 15.4036 261.947C15.816 261.565 16.155 261.102 16.3693 260.62C16.5895 260.128 16.7095 259.568 16.7153 258.996C16.7083 258.417 16.593 257.872 16.3705 257.376C16.155 256.891 15.816 256.427 15.3897 256.034C14.6966 255.408 13.7448 255.047 12.8001 255.047Z" fill="#000072"/>
<path d="M46.0984 273.215H21.6952C17.2057 266.705 15.1729 257.066 13.9673 245.078C19.1767 241.371 48.1172 241.371 53.8263 245.078C52.6206 257.067 50.5879 266.706 46.0984 273.215Z" fill="white"/>
<path d="M46.0986 275.318H21.6954C21.0034 275.318 20.3569 274.978 19.9643 274.41C15.73 268.27 13.3105 259.561 11.8754 245.289C11.7996 244.537 12.1328 243.802 12.749 243.365C16.8821 240.424 29.8379 240.196 33.71 240.196C37.5821 240.196 50.5147 240.421 54.9728 243.315C55.6333 243.744 55.999 244.506 55.9198 245.29C54.4847 259.563 52.0652 268.272 47.8308 274.411C47.4383 274.981 46.7906 275.32 46.0998 275.32L46.0986 275.318ZM22.83 271.113H44.9629C48.2315 265.871 50.3004 258.113 51.5829 246.31C44.9605 243.798 22.4654 243.767 16.2053 246.265C17.4866 258.093 19.5566 265.864 22.83 271.114V271.113Z" fill="#000072"/>
<path d="M46.0984 273.215H21.6952C17.2057 266.705 15.1729 257.066 13.9673 245.078C19.1767 241.371 48.1172 241.371 53.8263 245.078C52.6206 257.067 50.5879 266.706 46.0984 273.215Z" fill="white"/>
<g opacity="0.6">
<path d="M45.558 209.094C45.558 209.094 46.2336 212.399 42.0284 218.633C37.822 224.866 41.503 230.199 41.503 230.199C41.503 230.199 41.8909 228.359 44.8824 224.491C49.2379 218.857 45.558 209.094 45.558 209.094Z" fill="white"/>
</g>
<g opacity="0.6">
<path d="M23.9271 216.99C23.9271 216.99 20.1214 221.248 22.125 227.306C24.1274 233.365 23.3271 237.321 23.3271 237.321C23.3271 237.321 16.8888 235.561 16.4927 228.358C16.0419 220.171 23.9282 216.99 23.9282 216.99H23.9271Z" fill="white"/>
</g>
<g opacity="0.6">
<path d="M32.2922 201.771C32.2922 201.771 35.675 206.821 28.5331 216.291C19.32 228.508 31.6375 235.518 31.6375 235.518C31.6375 235.518 30.0602 231.965 36.3437 222.5C44.2544 210.583 32.291 201.771 32.291 201.771H32.2922Z" fill="white"/>
</g>
<path d="M37.8709 251.552C36.7573 250.721 35.0857 250.772 33.2463 251.663L33.1065 251.733C30.821 252.894 29.0038 254.642 28.2187 256.469C27.6409 257.816 27.5966 259.197 28.1313 260.481C28.412 261.16 28.8896 261.715 29.514 262.069C30.0522 262.381 30.6358 262.566 31.2392 262.625C32.0325 262.701 32.8573 262.561 33.6785 262.198C35.7427 261.281 37.603 259.02 38.5908 256.302C38.5908 256.296 38.5908 256.291 38.5908 256.291L38.6421 256.148C39.3375 254.084 39.0347 252.427 37.8698 251.552H37.8709ZM35.6646 253.611C35.0158 254.014 34.3786 254.788 34.0186 255.929C33.7927 256.614 33.4607 257.33 33.011 257.889C32.5602 258.464 32.0139 258.889 31.5235 259.108C30.524 259.55 29.9229 259.299 29.966 259.111C29.9928 258.912 30.5158 258.756 31.1355 258.243C31.4442 257.985 31.7588 257.646 32.036 257.209C32.3167 256.771 32.5346 256.265 32.7454 255.661C32.9807 254.965 33.3593 254.305 33.8358 253.798C34.304 253.296 34.8667 252.963 35.3443 252.808C36.3181 252.501 36.8982 252.727 36.8621 252.888C36.8435 253.07 36.31 253.198 35.6658 253.611H35.6646Z" fill="#A55942"/>
<path d="M46.0986 275.318H21.6954C21.0034 275.318 20.3569 274.978 19.9643 274.41C15.73 268.27 13.3105 259.561 11.8754 245.289C11.7996 244.537 12.1328 243.802 12.749 243.365C16.8821 240.424 29.8379 240.196 33.71 240.196C37.5821 240.196 50.5147 240.421 54.9728 243.315C55.6333 243.744 55.999 244.506 55.9198 245.29C54.4847 259.562 52.0652 268.272 47.8308 274.411C47.4383 274.981 46.7906 275.32 46.0998 275.32L46.0986 275.318ZM22.83 271.113H44.9629C48.2315 265.871 50.3004 258.112 51.5829 246.31C44.9594 243.797 22.4654 243.767 16.2053 246.265C17.4866 258.093 19.5566 265.864 22.83 271.114V271.113Z" fill="#000072"/>
<path d="M54.325 280.087H13.018C11.4419 280.087 10.1641 278.81 10.1641 277.233C10.1641 275.657 11.4419 274.379 13.018 274.379H54.3262C55.9023 274.379 57.1801 275.657 57.1801 277.233C57.1801 278.81 55.9023 280.087 54.3262 280.087H54.325Z" fill="white"/>
<g opacity="0.3">
<path d="M54.325 280.087H13.018C11.4419 280.087 10.1641 278.81 10.1641 277.233C10.1641 275.657 11.4419 274.379 13.018 274.379H54.3262C55.9023 274.379 57.1801 275.657 57.1801 277.233C57.1801 278.81 55.9023 280.087 54.3262 280.087H54.325Z" fill="#000072"/>
</g>
<path d="M54.3248 281.835H13.0178C10.4807 281.835 8.4165 279.771 8.4165 277.233C8.4165 274.696 10.4807 272.632 13.0178 272.632H54.3259C56.8631 272.632 58.9272 274.696 58.9272 277.233C58.9272 279.771 56.8631 281.835 54.3259 281.835H54.3248ZM13.0166 276.127C12.4062 276.127 11.91 276.623 11.91 277.233C11.91 277.844 12.4062 278.34 13.0166 278.34H54.3248C54.9352 278.34 55.4314 277.844 55.4314 277.233C55.4314 276.623 54.9352 276.127 54.3248 276.127H13.0178H13.0166Z" fill="#000072"/>
<path d="M222.173 280.22H76.3306V221.546C76.3306 206.406 88.6038 194.133 103.744 194.133H194.76C209.9 194.133 222.173 206.406 222.173 221.546V280.22Z" fill="#5F5272"/>
<g opacity="0.3">
<path d="M183.066 274.873H116.045C94.1117 274.873 76.332 257.093 76.332 235.16V280.221H222.175V235.767C222.175 257.365 204.665 274.875 183.067 274.875L183.066 274.873Z" fill="#000072"/>
</g>
<g opacity="0.3">
<path d="M194.76 194.131H103.744C88.6038 194.131 76.3306 206.405 76.3306 221.545V227.581C76.3306 212.441 88.6038 200.168 103.744 200.168H194.76C209.9 200.168 222.173 212.441 222.173 227.581V221.545C222.173 206.405 209.9 194.131 194.76 194.131Z" fill="white"/>
</g>
<path d="M222.174 282.323H76.3307C75.1693 282.323 74.228 281.382 74.228 280.22V221.546C74.228 205.27 87.4682 192.029 103.744 192.029H194.76C211.036 192.029 224.277 205.27 224.277 221.546V280.22C224.277 281.382 223.336 282.323 222.175 282.323H222.174ZM78.4333 278.118H220.07V221.546C220.07 207.589 208.716 196.235 194.759 196.235H103.743C89.7874 196.235 78.4321 207.589 78.4321 221.546V278.118H78.4333Z" fill="#000072"/>
<path d="M192.902 271.574V244.026C197.6 247.24 205.483 243.906 205.483 243.906C212.705 239.424 216.13 236.137 217.536 233.757C217.536 233.757 250.846 265.716 192.902 271.574Z" fill="#F9C4B2"/>
<path d="M192.902 273.677C192.384 273.677 191.881 273.485 191.492 273.134C191.051 272.736 190.8 272.169 190.8 271.574V244.026C190.8 243.245 191.232 242.53 191.922 242.166C192.611 241.801 193.446 241.85 194.091 242.29C197.073 244.33 202.491 242.842 204.523 242.027C211.953 237.399 214.717 234.396 215.727 232.687C216.055 232.134 216.616 231.761 217.252 231.673C217.889 231.585 218.53 231.795 218.994 232.24C219.545 232.768 232.442 245.322 228.38 257.105C225.3 266.04 213.436 271.612 193.116 273.665C193.045 273.672 192.975 273.676 192.904 273.676L192.902 273.677ZM195.005 247.178V269.227C211.892 267.221 222.037 262.576 224.4 255.744C226.838 248.694 220.778 240.549 217.718 237.035C215.462 239.611 211.79 242.466 206.592 245.692C206.5 245.749 206.402 245.799 206.302 245.842C206.004 245.969 200.174 248.387 195.005 247.178Z" fill="#000072"/>
<path d="M147.155 241.484C162.585 241.484 175.094 231.78 175.094 219.81C175.094 207.84 162.585 198.136 147.155 198.136C131.725 198.136 119.216 207.84 119.216 219.81C119.216 231.78 131.725 241.484 147.155 241.484Z" fill="#F9C4B2"/>
<path d="M106.298 235.223C106.387 239.97 104.988 242.625 102.993 244.025V244.031C98.4381 247.239 90.8023 243.905 90.8023 243.905C83.7966 239.422 80.4802 236.136 79.1161 233.756C76.6291 229.436 80.5641 228.115 80.5641 228.115C80.5641 228.115 88.9757 216.897 97.5854 212.692C98.3962 212.294 99.4958 211.929 100.83 211.592C100.83 211.592 105.997 219.655 106.298 235.223Z" fill="white"/>
<path d="M97.9452 247.517C93.8891 247.517 90.1929 245.934 89.9599 245.832C89.8585 245.787 89.7607 245.735 89.6687 245.675C83.1406 241.498 79.0915 237.942 77.2917 234.802C75.8706 232.334 76.0849 230.462 76.5147 229.327C77.1263 227.714 78.4123 226.83 79.2161 226.416C80.9122 224.234 88.5841 214.748 96.6626 210.802C97.5922 210.348 98.7874 209.939 100.316 209.553C101.192 209.332 102.113 209.696 102.601 210.457C102.825 210.807 108.093 219.204 108.401 235.182C108.494 240.096 107.126 243.617 104.331 245.654C104.29 245.688 104.248 245.72 104.205 245.75C102.322 247.077 100.084 247.517 97.9464 247.517H97.9452ZM91.7864 242.039C93.7155 242.837 98.8189 244.287 101.687 242.378C101.718 242.353 101.751 242.329 101.785 242.304C103.45 241.136 104.261 238.766 104.195 235.264C103.979 224.081 101.14 216.903 99.7776 214.08C99.2767 214.246 98.8526 214.413 98.5102 214.58C90.4643 218.51 82.3275 229.268 82.246 229.376C81.9909 229.716 81.6368 229.972 81.2337 230.108C81.0997 230.159 80.5849 230.433 80.4439 230.83C80.3018 231.228 80.4823 231.912 80.939 232.707C81.921 234.419 84.5991 237.421 91.7876 242.037L91.7864 242.039Z" fill="#000072"/>
<path d="M102.993 244.032V271.574C46.8149 265.716 79.115 233.757 79.115 233.757C80.479 236.136 83.7955 239.424 90.8011 243.906C90.8011 243.906 98.4381 247.241 102.992 244.032H102.993Z" fill="#F9C4B2"/>
<g opacity="0.3">
<path d="M192.902 262.467V271.574C225.191 268.31 229.141 256.942 226.311 247.515C223.891 254.152 215.091 260.224 192.902 262.467Z" fill="#000072"/>
</g>
<g opacity="0.3">
<path d="M70.6051 247.517C67.8618 256.943 71.692 268.309 102.993 271.574V262.467C81.4828 260.224 72.9512 254.155 70.6051 247.517Z" fill="#000072"/>
</g>
<path d="M102.993 273.677C102.921 273.677 102.847 273.674 102.775 273.665C83.2024 271.625 71.7061 266.118 68.6064 257.301C64.4536 245.489 77.0973 232.798 77.6366 232.263C78.1002 231.804 78.7526 231.587 79.3991 231.674C80.0456 231.761 80.6152 232.145 80.9402 232.711C81.9211 234.42 84.5991 237.422 91.7877 242.039C93.7377 242.846 98.9343 244.32 101.782 242.312C102.424 241.86 103.265 241.803 103.962 242.165C104.659 242.527 105.097 243.246 105.097 244.032V271.574C105.097 272.17 104.844 272.738 104.401 273.137C104.013 273.486 103.511 273.677 102.994 273.677H102.993ZM78.9401 237.094C75.93 240.678 70.0893 248.858 72.5775 255.915C74.9504 262.644 84.7203 267.226 100.891 269.219V247.201C95.8671 248.364 90.2512 245.96 89.9611 245.834C89.8598 245.79 89.7619 245.737 89.6699 245.678C84.6795 242.485 81.1371 239.653 78.9413 237.094H78.9401Z" fill="#000072"/>
<path d="M90.1683 245.911C89.9808 245.783 89.6698 245.631 89.4042 245.502C89.1281 245.368 88.8439 245.24 88.5561 245.123C87.9818 244.889 87.3912 244.673 86.7948 244.514C85.5996 244.193 84.3625 244.023 83.1615 244.321L83.1243 244.33C82.8691 244.393 82.6105 244.238 82.5476 243.983C82.501 243.794 82.5744 243.603 82.7189 243.491C83.3141 243.034 84.0061 242.697 84.719 242.448C85.4354 242.201 86.1693 242.054 86.9101 241.944C87.6522 241.836 88.3907 241.796 89.1362 241.785C89.509 241.778 89.8806 241.785 90.2569 241.802C90.6448 241.822 90.9826 241.835 91.4346 241.901L91.7165 241.943C92.9117 242.119 93.7376 243.229 93.5617 244.423C93.3858 245.618 92.2756 246.444 91.0816 246.268C90.745 246.22 90.4304 246.089 90.166 245.911H90.1683Z" fill="#000072"/>
<path d="M205.221 241.9C205.673 241.834 206.012 241.821 206.399 241.801C206.774 241.785 207.145 241.777 207.519 241.784C208.265 241.795 209.005 241.836 209.745 241.943C210.486 242.053 211.22 242.198 211.937 242.446C212.651 242.697 213.341 243.032 213.937 243.49C214.145 243.65 214.184 243.949 214.024 244.158C213.905 244.313 213.711 244.373 213.532 244.33L213.495 244.321C212.294 244.023 211.056 244.193 209.862 244.514C209.266 244.671 208.674 244.888 208.101 245.123C207.814 245.24 207.53 245.369 207.253 245.502C206.987 245.631 206.677 245.783 206.488 245.911C205.491 246.591 204.131 246.335 203.45 245.338C202.77 244.341 203.026 242.98 204.024 242.3C204.304 242.109 204.613 241.991 204.929 241.943L205.221 241.901V241.9Z" fill="#000072"/>
<path d="M192.902 244.026V280.087H102.993V244.026C104.988 242.626 106.387 239.97 106.297 235.223C105.997 219.655 100.831 211.592 100.831 211.592C106.148 210.24 115.112 209.333 123.752 208.738C123.752 208.738 124.22 228.265 147.257 228.265C170.294 228.265 171.495 208.738 171.495 208.738C180.411 209.333 189.659 210.24 195.145 211.592C195.145 211.592 189.809 219.655 189.503 235.223C189.406 239.963 190.849 242.62 192.903 244.026H192.902Z" fill="#11B6EF"/>
<path d="M192.903 282.191H102.993C101.832 282.191 100.89 281.25 100.89 280.089V244.027C100.89 243.342 101.225 242.699 101.785 242.305C103.451 241.136 104.261 238.768 104.195 235.265C103.912 220.578 99.1045 212.799 99.0556 212.722C98.6956 212.152 98.6292 211.443 98.8785 210.817C99.1278 210.192 99.659 209.721 100.311 209.556C105 208.364 112.837 207.383 123.607 206.642C124.179 206.6 124.744 206.8 125.168 207.186C125.592 207.573 125.84 208.116 125.854 208.69C125.876 209.397 126.625 226.165 147.256 226.165C167.888 226.165 169.369 209.395 169.392 208.681C169.409 208.11 169.658 207.568 170.081 207.185C170.504 206.802 171.063 206.6 171.633 206.641C182.735 207.382 190.815 208.362 195.646 209.551C196.31 209.715 196.853 210.191 197.102 210.828C197.35 211.465 197.274 212.183 196.897 212.753C196.85 212.824 191.893 220.595 191.604 235.265C191.533 238.75 192.369 241.114 194.09 242.29C194.663 242.682 195.005 243.332 195.005 244.026V280.087C195.005 281.249 194.064 282.19 192.903 282.19V282.191ZM105.096 277.986H190.8V245.045C188.451 242.941 187.309 239.631 187.4 235.182C187.616 224.151 190.275 216.728 191.979 213.07C187.605 212.258 181.258 211.544 173.33 210.975C172.353 216.458 167.841 230.37 147.256 230.37C126.672 230.37 122.861 216.469 121.91 210.98C114.282 211.548 108.172 212.257 103.953 213.063C105.601 216.706 108.187 224.132 108.4 235.184C108.485 239.625 107.374 242.93 105.096 245.029V277.987V277.986Z" fill="#000072"/>
<g opacity="0.3">
<path d="M82.9403 226.513C82.9403 226.513 95.7727 215.873 126.921 218.589C126.921 218.589 123.822 228.717 137.741 231.521C151.661 234.325 173.491 217.101 173.491 217.101C173.491 217.101 192.195 214.51 206.676 219.811C206.676 219.811 203.163 212.996 195.142 211.593C187.122 210.191 171.493 208.739 171.493 208.739C171.493 208.739 117.031 205.521 100.828 211.593C89.8726 215.699 82.938 226.514 82.938 226.514L82.9403 226.513Z" fill="#000072"/>
</g>
<path d="M217.537 233.757C216.131 236.137 212.706 239.424 205.483 243.906C205.483 243.906 197.601 247.241 192.901 244.026C190.847 242.62 189.404 239.964 189.501 235.224C189.808 219.657 195.143 211.593 195.143 211.593C196.513 211.93 197.648 212.296 198.484 212.693C207.364 216.899 216.04 228.116 216.04 228.116C216.04 228.116 220.102 229.438 217.535 233.757H217.537Z" fill="white"/>
<path d="M198.121 247.516C195.932 247.516 193.642 247.079 191.715 245.762C188.751 243.734 187.298 240.174 187.399 235.181C187.714 219.188 193.159 210.781 193.391 210.432C193.881 209.691 194.784 209.338 195.647 209.55C197.216 209.935 198.44 210.342 199.387 210.793C207.712 214.735 215.625 224.229 217.364 226.398C218.193 226.809 219.547 227.705 220.172 229.365C220.6 230.502 220.805 232.374 219.347 234.829C217.493 237.963 213.322 241.516 206.593 245.692C206.501 245.749 206.403 245.799 206.303 245.842C206.064 245.943 202.275 247.516 198.121 247.516ZM196.179 214.06C194.784 216.843 191.825 224.032 191.604 235.266C191.533 238.751 192.369 241.115 194.089 242.291C197.072 244.331 202.491 242.844 204.522 242.028C211.953 237.4 214.716 234.397 215.726 232.689C215.726 232.688 215.727 232.687 215.728 232.686C216.19 231.909 216.376 231.244 216.239 230.86C216.092 230.448 215.506 230.16 215.357 230.107C214.956 229.976 214.635 229.739 214.376 229.404C214.292 229.296 205.894 218.531 197.583 214.594C197.207 214.416 196.737 214.237 196.178 214.06H196.179Z" fill="#000072"/>
<path d="M299.961 238.99L283.046 280.087H238.392L259.121 229.72H294.733L299.961 238.99Z" fill="#8C7969"/>
<g opacity="0.3">
<path d="M261.239 232.912H296.532L294.733 229.72H259.121L238.392 280.087H241.823L261.239 232.912Z" fill="white"/>
</g>
<path d="M283.046 282.191H238.391C237.69 282.191 237.034 281.842 236.644 281.258C236.254 280.676 236.179 279.936 236.446 279.287L257.175 228.919C257.5 228.13 258.268 227.616 259.119 227.616H294.731C295.491 227.616 296.19 228.025 296.564 228.686L301.79 237.957C302.107 238.518 302.148 239.194 301.903 239.79L284.989 280.888C284.664 281.676 283.897 282.19 283.045 282.19L283.046 282.191ZM241.531 277.986H281.637L297.626 239.135L293.503 231.823H260.529L241.531 277.985V277.986Z" fill="#000072"/>
<path d="M277.536 282.191C277.286 282.191 277.032 282.146 276.784 282.051C275.699 281.636 275.157 280.419 275.573 279.335L287.847 247.342H268.768L255.917 280.841C255.501 281.926 254.285 282.467 253.2 282.051C252.116 281.636 251.574 280.419 251.99 279.335L265.358 244.486C265.671 243.673 266.451 243.136 267.322 243.136H290.906C291.598 243.136 292.246 243.476 292.639 244.047C293.031 244.618 293.118 245.345 292.87 245.991L279.501 280.84C279.18 281.676 278.383 282.19 277.537 282.19L277.536 282.191Z" fill="#000072"/>
<path d="M299.96 241.094H299.947L263.704 240.883C262.543 240.876 261.606 239.929 261.613 238.768C261.62 237.611 262.56 236.677 263.716 236.677H263.729L299.972 236.888C301.133 236.895 302.07 237.842 302.063 239.003C302.056 240.16 301.116 241.094 299.96 241.094Z" fill="#000072"/>
<path d="M246.743 282.191C246.476 282.191 246.206 282.14 245.945 282.033C244.871 281.591 244.357 280.362 244.798 279.288L261.406 238.872L257.245 230.67C256.72 229.635 257.133 228.369 258.169 227.843C259.203 227.318 260.471 227.732 260.996 228.767L265.593 237.828C265.87 238.373 265.896 239.012 265.663 239.578L248.689 280.885C248.355 281.698 247.571 282.19 246.744 282.19L246.743 282.191Z" fill="#000072"/>
<path d="M272.129 280.087L268.374 259.133L270.251 257.256H280.466L290.558 280.22L272.129 280.087Z" fill="#8C7969"/>
<path d="M290.558 282.323H290.542L272.114 282.191C271.102 282.184 270.237 281.456 270.059 280.459L266.303 259.505C266.182 258.828 266.4 258.134 266.886 257.647L268.764 255.769C269.159 255.375 269.693 255.153 270.251 255.153H280.466C281.3 255.153 282.056 255.646 282.392 256.41L292.483 279.373C292.77 280.026 292.707 280.779 292.314 281.375C291.925 281.966 291.265 282.322 290.558 282.322V282.323ZM273.891 277.998L287.326 278.094L279.093 259.359H271.123L270.638 259.844L273.891 277.998Z" fill="#000072"/>
<g opacity="0.3">
<path d="M272.129 280.087L285.886 280.186L275.809 257.256H270.251L268.373 259.133L272.129 280.087Z" fill="#000072"/>
</g>
<path d="M272.214 256.5L276.56 273.629L268.29 258.012L272.214 256.5Z" fill="#000072"/>
<path d="M226.267 253.952C225.09 252.125 224.399 249.896 224.399 247.487C224.399 241.322 228.923 236.33 234.511 236.33C240.099 236.33 244.629 241.322 244.629 247.487C244.629 248.887 244.384 250.221 243.956 251.458C244.852 251.464 245.747 251.626 246.599 251.987C250.721 253.717 252.391 259.107 250.33 264.027C248.744 267.8 245.416 270.203 242.093 270.336L222.274 267.747C220.161 266.429 218.755 264.084 218.755 261.411C218.755 257.291 222.095 253.951 226.215 253.951" fill="#0FD15D"/>
<g opacity="0.3">
<path d="M246.599 251.987C245.746 251.626 244.851 251.464 243.955 251.458C244.381 250.22 244.628 248.886 244.628 247.487C244.628 241.322 240.098 236.33 234.51 236.33C231.81 236.33 229.365 237.503 227.551 239.404C228.105 239.3 228.671 239.234 229.253 239.234C234.841 239.234 239.371 244.226 239.371 250.391C239.371 251.791 239.125 253.125 238.698 254.362C239.593 254.368 240.488 254.53 241.342 254.891C245.463 256.622 247.134 262.011 245.073 266.931C244.537 268.207 243.799 269.322 242.931 270.249C245.963 269.783 248.878 267.482 250.33 264.027C252.391 259.107 250.72 253.717 246.599 251.987Z" fill="#000072"/>
</g>
<path d="M232.216 259.739C231.401 257.536 229.095 256.055 226.48 256.055C225.172 256.055 224.111 255.113 224.111 253.952C224.111 252.791 225.186 251.677 226.48 251.849C234.927 252.976 232.545 260.626 232.216 259.739Z" fill="#000072"/>
<path d="M241.998 272.445L221.548 269.774L221.16 269.532C218.336 267.772 216.651 264.737 216.651 261.412C216.651 257.213 219.371 253.637 223.142 252.355C222.584 250.817 222.295 249.174 222.295 247.487C222.295 240.175 227.774 234.226 234.51 234.226C241.245 234.226 246.731 240.175 246.731 247.487C246.731 248.239 246.67 248.992 246.549 249.737C246.844 249.826 247.134 249.931 247.417 250.051C252.595 252.224 254.773 258.86 252.269 264.841C250.399 269.288 246.437 272.27 242.175 272.439L241.997 272.446L241.998 272.445ZM223.037 265.726L242.172 268.225C244.714 268.046 247.198 266.052 248.392 263.212C250 259.371 248.831 255.203 245.785 253.925C245.221 253.686 244.602 253.564 243.941 253.561L241.013 253.54L241.967 250.772C242.338 249.698 242.525 248.592 242.525 247.486C242.525 242.493 238.929 238.431 234.51 238.431C230.09 238.431 226.501 242.493 226.501 247.486C226.501 249.415 227.031 251.255 228.034 252.812C228.664 253.788 228.382 255.089 227.406 255.718C227.043 255.952 226.637 256.065 226.232 256.053H226.215C223.26 256.053 220.857 258.457 220.857 261.411C220.857 263.132 221.665 264.716 223.037 265.726Z" fill="#000072"/>
<path d="M242.888 280.087H224.862C221.207 280.087 218.13 277.352 217.702 273.723C217.195 269.435 220.545 265.667 224.862 265.667H242.888C247.205 265.667 250.554 269.436 250.048 273.723C249.62 277.352 246.543 280.087 242.888 280.087Z" fill="#EAD9B9"/>
<path d="M242.888 282.191H224.862C220.142 282.191 216.166 278.657 215.614 273.971C215.302 271.331 216.136 268.679 217.902 266.691C219.668 264.704 222.205 263.566 224.862 263.566H242.888C245.545 263.566 248.082 264.705 249.848 266.691C251.614 268.677 252.448 271.331 252.137 273.971C251.584 278.658 247.607 282.191 242.888 282.191ZM224.862 267.771C223.383 267.771 222.028 268.38 221.045 269.486C220.062 270.591 219.617 272.009 219.79 273.478C220.094 276.048 222.274 277.986 224.862 277.986H242.888C245.476 277.986 247.657 276.048 247.96 273.478C248.133 272.009 247.687 270.591 246.704 269.486C245.722 268.38 244.366 267.772 242.886 267.772H224.861L224.862 267.771Z" fill="#000072"/>
<path d="M242.889 265.667H224.863C220.595 265.667 217.279 269.353 217.694 273.58H250.059C250.474 269.353 247.158 265.667 242.89 265.667H242.889Z" fill="white"/>
<path d="M250.057 275.684H217.693C216.612 275.684 215.706 274.864 215.6 273.788C215.344 271.177 216.207 268.564 217.968 266.62C219.728 264.678 222.24 263.566 224.861 263.566H242.886C245.507 263.566 248.019 264.679 249.779 266.62C251.541 268.564 252.405 271.177 252.148 273.788C252.042 274.864 251.137 275.685 250.055 275.685L250.057 275.684ZM219.951 271.479H247.799C247.588 270.735 247.205 270.041 246.664 269.445C245.686 268.366 244.345 267.772 242.888 267.772H224.862C223.405 267.772 222.063 268.366 221.085 269.446C220.545 270.043 220.162 270.736 219.951 271.48V271.479Z" fill="#000072"/>
<g opacity="0.3">
<path d="M242.887 265.667H236.528C240.845 265.667 244.194 269.436 243.689 273.723C243.26 277.352 240.184 280.087 236.528 280.087H242.887C246.543 280.087 249.619 277.352 250.048 273.723C250.554 269.435 247.205 265.667 242.887 265.667Z" fill="#000072"/>
</g>
<path d="M288.056 292.405H10.0568C8.38872 292.405 6.90932 291.331 6.39327 289.744L4.89289 285.13C4.08329 282.641 5.93896 280.087 8.55647 280.087H289.557C292.174 280.087 294.03 282.642 293.22 285.13L291.72 289.744C291.204 291.331 289.726 292.405 288.056 292.405Z" fill="#D19D71"/>
<g opacity="0.3">
<path d="M291.72 284.337C291.204 285.924 289.726 286.998 288.056 286.998H10.0567C8.38861 286.998 6.9092 285.924 6.39315 284.337L5.50318 281.598C4.7693 282.557 4.47691 283.851 4.89394 285.13L6.39432 289.744C6.91036 291.331 8.38977 292.405 10.0579 292.405H288.056C289.726 292.405 291.204 291.331 291.72 289.744L293.22 285.13C293.636 283.85 293.345 282.556 292.611 281.597L291.72 284.336V284.337Z" fill="#000072"/>
</g>
<path d="M288.056 294.508H10.058C7.47074 294.508 5.19454 292.855 4.39427 290.394L2.89389 285.781C2.29747 283.947 2.60616 282 3.7396 280.439C4.87304 278.879 6.62852 277.985 8.55758 277.985H289.558C291.487 277.985 293.242 278.879 294.376 280.44C295.509 282.001 295.817 283.948 295.22 285.781L293.72 290.396C292.921 292.856 290.645 294.509 288.058 294.509L288.056 294.508ZM8.55641 282.19C7.99027 282.19 7.47423 282.453 7.14107 282.911C6.80791 283.37 6.71705 283.942 6.89295 284.48L8.39333 289.094C8.62863 289.817 9.29612 290.302 10.0568 290.302H288.056C288.817 290.302 289.484 289.818 289.72 289.096L291.22 284.481C291.395 283.943 291.305 283.371 290.972 282.912C290.639 282.454 290.123 282.191 289.557 282.191H8.55641V282.19Z" fill="#000072"/>
<path d="M194.953 280.087H102.995C101.022 280.087 99.4214 278.487 99.4214 276.514C99.4214 274.54 101.022 272.94 102.995 272.94H194.953C196.926 272.94 198.527 274.539 198.527 276.514C198.527 278.488 196.926 280.087 194.953 280.087Z" fill="#A8A8A8"/>
<g opacity="0.3">
<path d="M194.953 280.087H102.995C101.022 280.087 99.4214 278.487 99.4214 276.514C99.4214 274.54 101.022 272.94 102.995 272.94H194.953C196.926 272.94 198.527 274.539 198.527 276.514C198.527 278.488 196.926 280.087 194.953 280.087Z" fill="#000072"/>
</g>
<path d="M194.953 282.191H102.995C99.8653 282.191 97.3188 279.645 97.3188 276.515C97.3188 273.385 99.8653 270.838 102.995 270.838H194.953C198.083 270.838 200.629 273.385 200.629 276.515C200.629 279.645 198.083 282.191 194.953 282.191ZM102.995 275.045C102.185 275.045 101.525 275.704 101.525 276.515C101.525 277.325 102.185 277.985 102.995 277.985H194.953C195.764 277.985 196.423 277.325 196.423 276.515C196.423 275.704 195.764 275.045 194.953 275.045H102.995Z" fill="#000072"/>
<path d="M193.627 273.58H102.93C98.1341 273.58 94.0372 270.161 93.1391 265.451C91.4267 256.465 90.1243 244.01 90.9689 229.265C91.2706 224.005 95.6447 219.901 100.912 219.901H195.646C200.913 219.901 205.288 224.004 205.589 229.263C206.436 244.009 205.131 256.466 203.418 265.452C202.52 270.163 198.423 273.58 193.627 273.58Z" fill="#A8A8A8"/>
<g opacity="0.6">
<path d="M90.9687 233.471C91.2704 228.211 95.6446 224.108 100.912 224.108H195.646C200.913 224.108 205.287 228.21 205.589 233.47C205.73 235.914 205.806 238.289 205.836 240.601C205.885 236.999 205.816 233.217 205.589 229.263C205.287 224.005 200.913 219.901 195.646 219.901H100.912C95.6446 219.901 91.2693 224.005 90.9687 229.265C90.7427 233.216 90.674 236.996 90.7229 240.595C90.7532 238.284 90.8289 235.913 90.9687 233.471Z" fill="white"/>
</g>
<g opacity="0.3">
<path d="M205.589 229.263C205.393 225.857 203.484 222.944 200.735 221.308C201.512 222.626 201.995 224.139 202.09 225.763C202.259 228.712 202.343 231.57 202.353 234.326C202.433 254.058 186.422 270.08 166.689 270.08H99.4293C97.5887 270.08 95.8542 269.573 94.3608 268.687C96.114 271.648 99.3233 273.58 102.929 273.58H193.626C198.422 273.58 202.517 270.161 203.417 265.452C205.13 256.466 206.435 244.009 205.588 229.263H205.589Z" fill="#000072"/>
</g>
<path d="M129.179 226.802C146.186 226.802 159.972 226.432 159.972 225.976C159.972 225.52 146.186 225.15 129.179 225.15C112.173 225.15 98.3867 225.52 98.3867 225.976C98.3867 226.432 112.173 226.802 129.179 226.802Z" fill="#000072"/>
<path d="M198.526 225.976C198.526 226.433 192.743 226.802 185.608 226.802C178.473 226.802 172.69 226.433 172.69 225.976C172.69 225.519 178.474 225.15 185.608 225.15C192.742 225.15 198.526 225.521 198.526 225.976Z" fill="#000072"/>
<path d="M159.809 236.169L160.961 232.313L165.317 233.315L163.615 238.071L163.754 238.206C164.583 239.006 164.806 240.242 164.308 241.282C161.844 246.412 160.184 257.197 144.788 261.354C135.937 263.743 130.474 259.202 130.368 254.298C130.325 252.327 131.796 250.639 133.752 250.398C138.977 249.754 150.4 247.445 154.876 239.393C155.423 238.409 156.206 237.568 157.201 237.039C157.979 236.625 158.923 236.236 159.808 236.169H159.809Z" fill="#FFC43F"/>
<path d="M193.627 275.684H102.93C97.1465 275.684 92.1607 271.546 91.0739 265.846C89.5642 257.921 87.9555 245.121 88.8699 229.146C89.2345 222.783 94.5243 217.8 100.914 217.8H195.647C202.035 217.8 207.325 222.783 207.69 229.143C208.607 245.114 206.997 257.917 205.485 265.846C204.398 271.546 199.411 275.683 193.628 275.683L193.627 275.684ZM100.913 222.005C96.7504 222.005 93.3047 225.247 93.0682 229.386C92.1782 244.932 93.7392 257.365 95.2046 265.057C95.914 268.778 99.1629 271.478 102.93 271.478H193.627C197.393 271.478 200.642 268.778 201.352 265.058C202.819 257.363 204.381 244.928 203.489 229.384C203.252 225.247 199.806 222.005 195.645 222.005H100.911H100.913Z" fill="#000072"/>
<path d="M67.5439 110.051C67.5439 110.051 65.2549 150.78 77.9079 167.431C90.5609 184.082 223.761 167.431 223.761 167.431C223.761 167.431 234.175 118.463 231.772 110.051C229.369 101.639 224.162 97.5331 224.162 97.5331C224.162 97.5331 228.744 95.7054 233.099 96.2564C233.099 96.2564 228.493 89.1214 220.607 89.3718C220.607 89.3718 226.365 85.3157 227.116 80.8099C227.116 80.8099 219.256 82.0121 213.848 75.703C213.848 75.703 152.662 23.2295 91.3274 76.7049V65.2889C91.3274 65.2889 86.8461 68.0684 84.7435 75.5784C84.7435 75.5784 83.666 72.6149 82.4906 64.1625C82.4906 64.1625 76.1816 72.2736 80.8388 84.3652C80.8388 84.3652 71.4509 87.2191 68.8218 93.6027L74.9805 93.3022C74.9805 93.3022 72.8395 95.1427 69.8737 100.437L74.0044 99.235L67.5451 110.05L67.5439 110.051Z" fill="#494963"/>
<g opacity="0.5">
<path d="M82.3521 72.1071C84.3778 80.3976 86.1554 82.4326 86.1554 82.4326C87.4869 74.7479 91.2577 72.333 91.2577 72.333L90.4818 64.7112C90.4818 64.7112 86.3045 67.9298 84.9731 75.6145C84.9731 75.6145 83.6008 72.7757 81.5751 64.4852C81.5751 64.4852 77.5877 70.8641 80.1038 79.9456C80.4685 75.1183 82.3509 72.1071 82.3509 72.1071H82.3521Z" fill="white"/>
</g>
<g opacity="0.5">
<path d="M213.888 80.4511C216.446 83.4356 219.553 84.7379 222.116 85.2831C223.274 84.2801 224.867 82.7122 225.969 80.8938C223.592 80.9614 217.999 80.5455 213.848 75.7019C213.848 75.7019 152.689 23.2528 91.3682 76.6687V81.4518C152.704 27.9776 213.889 80.45 213.889 80.45L213.888 80.4511Z" fill="white"/>
</g>
<g opacity="0.3">
<path d="M209.416 130.254L197.024 117.862L197.243 113.753L199.428 106.896C199.428 106.896 193.42 108.249 192.518 116.51C192.518 116.51 180.652 113.957 175.244 102.09C175.244 102.09 178.549 113.205 172.39 119.515L153.314 106.896C153.314 106.896 149.558 113.055 152.262 119.515C152.262 119.515 134.838 118.112 133.336 108.524C133.336 108.524 133.286 113.915 137.742 117.766C137.742 117.766 109.402 112.855 101.491 101.84V118.463C101.491 118.463 81.2259 139.064 67.8774 131.167C68.807 143.709 71.3511 158.803 77.9083 167.431C90.5613 184.082 223.762 167.431 223.762 167.431C223.762 167.431 228.178 146.665 230.595 129.855C220.296 132.413 209.417 130.254 209.417 130.254H209.416Z" fill="#000072"/>
</g>
<path d="M121.345 176.933C115.684 176.933 110.536 176.807 105.921 176.554C89.036 175.631 79.6028 173.136 76.2339 168.703C63.2605 151.632 65.3492 111.627 65.4447 109.932L65.4738 109.416L69.4566 102.748L65.5263 103.891L68.0378 99.4085C68.8835 97.8988 69.6686 96.6512 70.3675 95.632L65.6148 95.8638L66.8764 92.8013C69.0605 87.4987 75.0061 84.4188 78.1793 83.1048C74.532 71.1681 80.5568 63.2189 80.8294 62.8695L83.8861 58.9391L84.5722 63.8701C84.8436 65.8213 85.1092 67.472 85.3573 68.8535C87.6137 65.1527 90.0716 63.5905 90.2184 63.4997L93.43 61.5089V72.1909C106.733 61.439 121.025 54.6244 135.973 51.9172C148.995 49.5595 162.515 50.3015 176.157 54.1235C199.302 60.6084 214.58 73.5562 215.218 74.1048L215.445 74.3331C219.992 79.6381 226.533 78.7679 226.809 78.7283L229.654 78.3194L229.192 81.1536C228.755 83.7757 227.065 86.1521 225.407 87.9274C231.354 89.7761 234.696 94.8468 234.868 95.1136L237.318 98.9076L232.838 98.3415C231.218 98.1365 229.529 98.3205 228.13 98.5966C229.979 100.825 232.358 104.435 233.797 109.472C236.272 118.136 226.897 162.803 225.821 167.867L225.51 169.331L224.025 169.516C223.691 169.558 190.257 173.711 155.707 175.773C142.763 176.545 131.268 176.932 121.348 176.932L121.345 176.933ZM69.6197 110.675C69.4193 115.378 68.2882 151.295 79.5818 166.158C82.282 169.711 95.7307 175.138 155.455 171.575C185.745 169.768 215.169 166.347 222.015 165.524C226.118 145.989 231.367 116.285 229.751 110.628C227.583 103.038 222.902 99.2163 222.854 99.1791L220.039 96.9215L223.384 95.5796C223.518 95.526 225.617 94.7012 228.389 94.2854C226.552 92.8036 223.921 91.3685 220.675 91.4733L213.657 91.6958L219.398 87.6525C220.41 86.9361 222.648 85.0513 223.998 82.9417C220.85 82.6831 216.13 81.5054 212.369 77.2058C210.945 76.0246 196.157 64.0612 174.873 58.133C145.179 49.8635 117.535 56.6443 92.7089 78.2879L89.2248 81.326V70.5845C88.3325 71.9591 87.4285 73.7845 86.7692 76.1434L85.0044 82.4466L82.7678 76.2948C82.7375 76.211 82.2599 74.8725 81.6029 71.6236C80.9785 74.6943 80.9436 78.7842 82.8004 83.608L83.6135 85.7176L81.4503 86.3758C81.3862 86.3956 76.2234 88.0136 72.9268 91.2963L80.996 90.9025L76.3516 94.8958C76.3516 94.8958 75.7155 95.4701 74.6741 96.8493L78.5509 95.7217L69.6208 110.675H69.6197Z" fill="#000072"/>
<path d="M91.3264 169.658C91.3264 177.47 84.9941 183.804 77.1824 183.804C69.3706 183.804 63.0371 177.471 63.0371 169.658C63.0371 161.845 69.3694 155.514 77.1824 155.514C84.9953 155.514 91.3264 161.847 91.3264 169.658Z" fill="#F9C4B2"/>
<g opacity="0.6">
<path d="M76.3308 161.798C83.7092 161.798 89.7655 167.449 90.4143 174.658C91.0014 173.103 91.3264 171.42 91.3264 169.658C91.3264 161.847 84.9941 155.514 77.1824 155.514C69.3706 155.514 63.0371 161.847 63.0371 169.658C63.0371 170.092 63.0592 170.519 63.0977 170.943C65.1176 165.599 70.2792 161.798 76.3308 161.798Z" fill="white"/>
</g>
<path d="M77.1824 185.906C68.2233 185.906 60.9346 178.617 60.9346 169.658C60.9346 160.699 68.2233 153.41 77.1824 153.41C86.1416 153.41 93.4303 160.699 93.4303 169.658C93.4303 178.617 86.1416 185.906 77.1824 185.906ZM77.1824 157.617C70.5426 157.617 65.141 163.018 65.141 169.658C65.141 176.298 70.5426 181.7 77.1824 181.7C83.8223 181.7 89.2239 176.298 89.2239 169.658C89.2239 163.018 83.8223 157.617 77.1824 157.617Z" fill="#000072"/>
<path d="M234.967 169.658C234.967 177.47 228.634 183.804 220.823 183.804C213.011 183.804 206.677 177.471 206.677 169.658C206.677 161.845 213.01 155.514 220.823 155.514C228.635 155.514 234.967 161.847 234.967 169.658Z" fill="#F9C4B2"/>
<g opacity="0.6">
<path d="M220.821 161.798C227.552 161.798 233.182 166.501 234.611 172.8C234.84 171.789 234.965 170.738 234.965 169.658C234.965 161.847 228.633 155.514 220.821 155.514C213.009 155.514 206.676 161.847 206.676 169.658C206.676 170.738 206.8 171.789 207.03 172.8C208.459 166.501 214.089 161.798 220.82 161.798H220.821Z" fill="white"/>
</g>
<path d="M220.821 185.906C211.862 185.906 204.573 178.617 204.573 169.658C204.573 160.699 211.862 153.41 220.821 153.41C229.78 153.41 237.068 160.699 237.068 169.658C237.068 178.617 229.779 185.906 220.821 185.906ZM220.821 157.617C214.181 157.617 208.778 163.018 208.778 169.658C208.778 176.298 214.18 181.7 220.821 181.7C227.462 181.7 232.863 176.298 232.863 169.658C232.863 163.018 227.461 157.617 220.821 157.617Z" fill="#000072"/>
<path d="M216.623 137.238V169.185C216.623 194.54 186.677 215.096 149.743 215.096C112.809 215.096 82.8633 194.542 82.8633 169.185C82.8633 166.013 83.3316 162.918 84.2215 159.933C84.2215 159.933 87.3702 149.105 86.0178 132.582L103.442 117.862V106.896C103.442 106.896 114.257 119.814 139.191 121.317C139.191 121.317 137.719 119.568 136.277 117.057L136.488 116.937C136.488 116.937 144.347 123.168 161.951 123.468C161.951 123.468 155.745 117.664 155.541 109.75C155.541 109.75 173.188 113.656 176.192 125.174C176.192 125.174 180.452 119.213 178.698 110.55C178.698 110.55 186.358 121.166 197.623 123.269C197.623 123.269 197.089 120.421 197.095 116.81H197.1L216.622 137.238H216.623Z" fill="#F9C4B2"/>
<g opacity="0.3">
<path d="M157.664 115.19C157.664 115.19 172.29 118.761 175.294 130.279C175.294 130.279 182.574 124.654 180.82 115.99C180.82 115.99 188.48 126.606 199.746 128.709C199.746 128.709 199.211 125.861 199.217 122.25H199.223L216.623 140.458V137.238L197.102 116.81H197.096C197.09 120.421 197.625 123.269 197.625 123.269C186.359 121.166 178.699 110.55 178.699 110.55C180.453 119.214 176.193 125.174 176.193 125.174C173.189 113.655 155.542 109.75 155.542 109.75C155.627 113.058 156.762 115.995 158.053 118.296C157.833 117.306 157.691 116.269 157.663 115.19H157.664Z" fill="#000072"/>
<path d="M138.612 122.377C138.612 122.377 146.471 128.608 164.075 128.908C164.075 128.908 161.828 126.804 159.993 123.406C143.768 122.7 136.489 116.937 136.489 116.937L136.278 117.057C137.721 119.568 139.193 121.317 139.193 121.317C122.23 120.295 111.816 113.999 106.885 110.074L105.133 111.403C107.987 116.21 121.343 125.554 141.314 126.757C141.314 126.757 139.842 125.008 138.4 122.497L138.611 122.377H138.612Z" fill="#000072"/>
</g>
<g opacity="0.3">
<path d="M178.965 110.901C178.793 110.679 178.699 110.55 178.699 110.55C178.767 110.887 178.823 111.219 178.875 111.549C178.908 111.337 178.939 111.12 178.965 110.9V110.901Z" fill="#000072"/>
<path d="M86.3324 132.317L86.019 132.582C86.1623 134.326 86.252 136.002 86.3033 137.615C86.358 135.955 86.3732 134.185 86.3324 132.318V132.317Z" fill="#000072"/>
<path d="M149.744 208.738C114.362 208.738 85.4052 189.878 83.0276 166.006C82.9228 167.057 82.8657 168.116 82.8657 169.185C82.8657 194.54 112.806 215.096 149.745 215.096C186.685 215.096 216.625 194.542 216.625 169.185V162.829C216.625 188.184 186.679 208.739 149.745 208.739L149.744 208.738Z" fill="#000072"/>
</g>
<path d="M137.794 115.287C137.891 115.359 138.127 115.524 138.319 115.646C138.515 115.779 138.741 115.905 138.95 116.035C139.388 116.285 139.829 116.537 140.295 116.764C141.211 117.236 142.176 117.645 143.149 118.034C145.106 118.798 147.149 119.393 149.222 119.88L150.785 120.22C151.308 120.325 151.838 120.406 152.364 120.499C153.414 120.702 154.484 120.806 155.547 120.949C156.612 121.079 157.689 121.136 158.758 121.235L161.99 121.366L160.517 125.003C160.194 124.692 159.979 124.463 159.729 124.19C159.489 123.927 159.257 123.663 159.032 123.392C158.581 122.854 158.154 122.301 157.748 121.73C156.939 120.59 156.207 119.388 155.586 118.115C154.964 116.845 154.445 115.507 154.077 114.112C153.698 112.721 153.491 111.266 153.443 109.802L153.355 107.071L156 107.694C157.238 107.986 158.313 108.312 159.443 108.683C160.557 109.054 161.657 109.462 162.742 109.912C164.913 110.814 167.033 111.88 169.051 113.179C171.063 114.481 172.983 116.023 174.62 117.924C176.252 119.814 177.578 122.109 178.232 124.639L174.486 123.947L174.658 123.676L174.858 123.331C174.991 123.094 175.118 122.847 175.24 122.598C175.483 122.095 175.704 121.575 175.899 121.044C176.288 119.98 176.584 118.877 176.766 117.757C177.145 115.514 177.088 113.209 176.637 110.965L174.778 101.701L180.404 109.318C180.626 109.618 180.933 110.002 181.218 110.341C181.509 110.69 181.81 111.036 182.119 111.377C182.735 112.058 183.378 112.72 184.042 113.358C185.373 114.631 186.783 115.818 188.277 116.867C189.765 117.919 191.333 118.844 192.965 119.577C194.594 120.325 196.291 120.865 198.013 121.2L195.56 123.653C195.305 122.846 195.173 122.131 195.066 121.363C194.964 120.606 194.917 119.845 194.904 119.082C194.889 117.555 195.047 116.023 195.281 114.502C195.534 112.982 195.91 111.469 196.478 110.013C197.046 108.562 197.816 107.157 198.86 105.994C199.11 105.714 199.54 105.691 199.82 105.941C200.029 106.129 200.096 106.419 200.009 106.669L200.001 106.694C199.548 108.007 199.29 109.335 199.158 110.685C199.028 112.034 199.009 113.394 199.069 114.756C199.109 116.118 199.277 117.481 199.414 118.839C199.479 119.518 199.547 120.198 199.599 120.879C199.648 121.547 199.7 122.266 199.695 122.881V125.808L197.242 125.334C195.154 124.931 193.13 124.279 191.23 123.409C189.323 122.55 187.532 121.489 185.854 120.304C184.171 119.122 182.604 117.802 181.13 116.393C180.395 115.687 179.685 114.955 179 114.198C178.657 113.819 178.32 113.434 177.991 113.038C177.654 112.631 177.351 112.262 176.996 111.781L180.762 110.134C181.311 112.855 181.382 115.696 180.917 118.451C180.691 119.829 180.329 121.184 179.848 122.498C179.606 123.155 179.333 123.802 179.024 124.44C178.868 124.758 178.705 125.075 178.528 125.39L178.249 125.866C178.145 126.036 178.066 126.164 177.908 126.393L175.31 130.135L174.162 125.701C173.689 123.874 172.725 122.17 171.429 120.665C170.134 119.158 168.525 117.848 166.771 116.713C165.012 115.581 163.106 114.617 161.13 113.797C160.142 113.387 159.136 113.013 158.119 112.675C157.117 112.343 156.038 112.024 155.091 111.802L157.648 109.696C157.688 110.81 157.841 111.931 158.142 113.032C158.432 114.134 158.85 115.216 159.364 116.264C159.876 117.313 160.491 118.325 161.174 119.29C161.517 119.772 161.88 120.24 162.258 120.692C162.447 120.918 162.64 121.14 162.834 121.353C163.02 121.557 163.249 121.795 163.391 121.932L167.415 125.792L161.919 125.57L158.496 125.431C157.356 125.327 156.214 125.266 155.076 125.127C153.939 124.976 152.798 124.863 151.667 124.645C151.1 124.543 150.532 124.457 149.967 124.344L148.277 123.976C146.03 123.448 143.799 122.801 141.619 121.949C140.531 121.516 139.452 121.057 138.393 120.512C137.86 120.251 137.336 119.955 136.812 119.653C136.55 119.491 136.29 119.346 136.026 119.167C135.752 118.988 135.527 118.842 135.182 118.579C134.259 117.876 134.081 116.556 134.785 115.633C135.485 114.715 136.794 114.533 137.717 115.225L137.795 115.284L137.794 115.287Z" fill="#000072"/>
<path d="M198.62 115.357L218.16 135.767L218.749 136.382V137.238L218.779 168.184V169.15L218.746 170.18C218.707 170.866 218.729 171.558 218.632 172.241C218.555 172.925 218.488 173.61 218.399 174.292L218.026 176.322C217.443 179.009 216.553 181.621 215.413 184.104C214.282 186.597 212.829 188.913 211.241 191.107C209.655 193.308 207.848 195.327 205.92 197.199C204.005 199.089 201.927 200.792 199.771 202.37C197.627 203.971 195.347 205.359 193.04 206.683C188.384 209.255 183.49 211.367 178.438 212.941C168.346 216.148 157.739 217.475 147.209 217.22C141.94 217.098 136.676 216.551 131.491 215.554C126.309 214.554 121.185 213.17 116.251 211.237L114.403 210.506C113.792 210.252 113.188 209.976 112.58 209.712C111.357 209.198 110.178 208.584 108.983 208.009C106.631 206.774 104.299 205.487 102.093 203.984L101.256 203.435L100.443 202.851C99.9026 202.458 99.3562 202.076 98.8227 201.673C97.7766 200.839 96.7108 200.03 95.7183 199.127C94.6909 198.266 93.7461 197.307 92.7758 196.377C91.859 195.391 90.9155 194.431 90.0697 193.374C86.5832 189.258 83.8376 184.423 82.2172 179.178C80.6644 173.918 80.2824 168.27 81.3214 162.862C81.4472 162.187 81.5975 161.516 81.7629 160.849L82.0262 159.855L82.1671 159.367L82.2743 158.968C82.569 157.804 82.816 156.573 83.035 155.348C83.4625 152.886 83.7595 150.385 83.9552 147.876C84.3478 142.854 84.2907 137.79 83.9028 132.756L83.8189 131.661L84.6507 130.96L102.08 116.245L101.328 117.863L101.332 106.898L101.334 101.493L105.069 105.539L105.397 105.895C105.513 106.024 105.658 106.157 105.786 106.287C106.044 106.553 106.333 106.808 106.612 107.067C106.887 107.329 107.188 107.573 107.484 107.823C107.78 108.071 108.07 108.323 108.384 108.555L109.31 109.265C109.621 109.499 109.95 109.713 110.269 109.938C110.593 110.158 110.905 110.391 111.237 110.6L112.236 111.221C114.91 112.865 117.768 114.225 120.713 115.372C122.213 115.879 123.688 116.453 125.23 116.842C125.996 117.047 126.75 117.295 127.526 117.465L129.855 117.971C130.244 118.051 130.63 118.148 131.021 118.217L132.201 118.397L134.562 118.761C136.143 118.954 137.738 119.059 139.325 119.222L137.594 122.668C137.196 122.172 136.883 121.746 136.553 121.278C136.234 120.815 135.93 120.344 135.653 119.857C135.087 118.889 134.606 117.867 134.189 116.819C133.783 115.764 133.472 114.66 133.282 113.534C133.108 112.402 133.063 111.233 133.265 110.102C133.303 109.886 133.51 109.741 133.726 109.781C133.85 109.803 133.95 109.88 134.006 109.981L134.016 110.001C134.536 110.963 135.032 111.848 135.562 112.713C136.112 113.57 136.662 114.403 137.234 115.225C137.808 116.047 138.407 116.848 139.004 117.648L139.91 118.838C140.2 119.228 140.529 119.644 140.803 119.965L144.129 123.877L139.071 123.411C137.389 123.256 135.703 123.135 134.026 122.933L131.515 122.55L130.261 122.358C129.844 122.286 129.431 122.184 129.017 122.098L126.531 121.559C125.703 121.377 124.892 121.114 124.072 120.894C122.425 120.476 120.831 119.864 119.22 119.317C116.043 118.083 112.947 116.614 110.022 114.817L108.928 114.136C108.566 113.907 108.218 113.65 107.862 113.409C107.51 113.161 107.151 112.925 106.805 112.666L105.775 111.878C105.428 111.621 105.097 111.337 104.764 111.056C104.43 110.776 104.095 110.502 103.773 110.198C103.45 109.901 103.123 109.611 102.808 109.287C102.648 109.125 102.491 108.98 102.33 108.805C102.166 108.627 102.025 108.485 101.826 108.252L105.563 106.895L105.566 117.86V118.844L104.815 119.478L87.3952 134.205L88.1419 132.408C88.5496 137.655 88.6136 142.937 88.2048 148.201C87.9997 150.834 87.691 153.461 87.2379 156.08C87.0038 157.394 86.7463 158.693 86.4085 160.029L86.264 160.565L86.1371 161.006L85.9064 161.88C85.7608 162.465 85.6304 163.053 85.5197 163.646C84.6134 168.385 84.9547 173.311 86.3165 177.935C87.7493 182.548 90.1827 186.872 93.3641 190.618C94.1294 191.579 94.9996 192.456 95.8359 193.36C96.7306 194.212 97.5949 195.095 98.5478 195.889C99.4622 196.723 100.455 197.471 101.424 198.246C101.92 198.62 102.432 198.974 102.934 199.34L103.691 199.884L104.472 200.395C106.532 201.796 108.725 203.003 110.938 204.165C112.066 204.705 113.175 205.285 114.332 205.769C114.906 206.018 115.476 206.279 116.055 206.52L117.805 207.21C122.478 209.04 127.357 210.353 132.298 211.304C137.243 212.254 142.275 212.774 147.318 212.886C157.4 213.125 167.542 211.844 177.122 208.79C181.919 207.294 186.541 205.29 190.911 202.874C193.072 201.63 195.208 200.331 197.195 198.841C199.198 197.373 201.12 195.796 202.874 194.06C204.642 192.341 206.297 190.508 207.728 188.524C209.162 186.546 210.471 184.473 211.476 182.266C212.49 180.065 213.275 177.771 213.791 175.419L214.122 173.645L214.328 171.853C214.419 171.258 214.394 170.653 214.431 170.053L214.466 169.149V168.182L214.496 137.237L215.086 138.708L195.583 118.262C194.782 117.421 194.813 116.091 195.653 115.289C196.494 114.488 197.822 114.516 198.623 115.357H198.62Z" fill="#000072"/>
<path d="M213.17 166.342C212.751 166.342 212.327 166.217 211.959 165.956C211.011 165.286 210.785 163.974 211.455 163.025L217.827 154.007C218.496 153.059 220.386 152.854 221.333 153.523C222.281 154.193 222.431 154.778 221.762 155.726L214.89 165.452C214.48 166.032 213.83 166.342 213.17 166.342Z" fill="#000072"/>
<path d="M85.3344 166.342C85.7538 166.342 86.1778 166.217 86.5459 165.956C87.4941 165.286 87.7201 163.974 87.0503 163.025L80.6784 154.007C80.0086 153.059 78.1191 152.854 77.1721 153.523C76.2238 154.193 76.0736 154.778 76.7434 155.726L83.615 165.452C84.0251 166.032 84.6751 166.342 85.3344 166.342Z" fill="#000072"/>
<path d="M84.987 171.074C87.5482 171.074 89.6245 168.997 89.6245 166.436C89.6245 163.875 87.5482 161.799 84.987 161.799C82.4258 161.799 80.3496 163.875 80.3496 166.436C80.3496 168.997 82.4258 171.074 84.987 171.074Z" fill="#000072"/>
<path d="M84.9871 173.176C81.27 173.176 78.2471 170.152 78.2471 166.436C78.2471 162.72 81.2711 159.695 84.9871 159.695C88.7031 159.695 91.7272 162.719 91.7272 166.436C91.7272 170.153 88.7031 173.176 84.9871 173.176ZM84.9871 163.9C83.5892 163.9 82.4523 165.037 82.4523 166.435C82.4523 167.833 83.5892 168.97 84.9871 168.97C86.385 168.97 87.5219 167.833 87.5219 166.435C87.5219 165.037 86.385 163.9 84.9871 163.9Z" fill="#000072"/>
<path d="M213.566 171.074C216.127 171.074 218.204 168.997 218.204 166.436C218.204 163.875 216.127 161.799 213.566 161.799C211.005 161.799 208.929 163.875 208.929 166.436C208.929 168.997 211.005 171.074 213.566 171.074Z" fill="#000072"/>
<path d="M213.566 173.176C209.849 173.176 206.826 170.152 206.826 166.436C206.826 162.72 209.85 159.695 213.566 159.695C217.282 159.695 220.306 162.719 220.306 166.436C220.306 170.153 217.282 173.176 213.566 173.176ZM213.566 163.9C212.168 163.9 211.031 165.037 211.031 166.435C211.031 167.833 212.168 168.97 213.566 168.97C214.964 168.97 216.101 167.833 216.101 166.435C216.101 165.037 214.964 163.9 213.566 163.9Z" fill="#000072"/>
<path d="M112.206 196.071C126.309 196.071 137.741 184.638 137.741 170.535C137.741 156.433 126.309 145 112.206 145C98.1031 145 86.6704 156.433 86.6704 170.535C86.6704 184.638 98.1031 196.071 112.206 196.071Z" fill="#88DBFF"/>
<path d="M121.552 146.765L101.592 174.641L111.004 171.036L96.0479 190.307L102.43 194.131L127.628 159.42L118.215 162.824L127.628 150.181L121.552 146.765Z" fill="url(#paint1_linear_51_8859)"/>
<path d="M185.508 196.071C199.611 196.071 211.043 184.638 211.043 170.535C211.043 156.433 199.611 145 185.508 145C171.405 145 159.972 156.433 159.972 170.535C159.972 184.638 171.405 196.071 185.508 196.071Z" fill="#88DBFF"/>
<path d="M185.508 198.174C170.268 198.174 157.87 185.775 157.87 170.535C157.87 155.296 170.268 142.897 185.508 142.897C200.748 142.897 213.146 155.295 213.146 170.535C213.146 185.776 200.747 198.174 185.508 198.174ZM185.508 147.103C172.587 147.103 162.075 157.615 162.075 170.535C162.075 183.456 172.587 193.968 185.508 193.968C198.429 193.968 208.941 183.456 208.941 170.535C208.941 157.615 198.429 147.103 185.508 147.103Z" fill="#000072"/>
<path d="M185.875 145.225L168.984 168.814L176.949 165.763L164.293 182.071L169.695 185.307L191.016 155.934L183.05 158.814L191.016 148.116L185.875 145.225Z" fill="url(#paint2_linear_51_8859)"/>
<path d="M112.206 198.174C96.9658 198.174 84.5679 185.775 84.5679 170.535C84.5679 155.296 96.9669 142.897 112.206 142.897C127.445 142.897 139.844 155.295 139.844 170.535C139.844 185.776 127.445 198.174 112.206 198.174ZM112.206 147.103C99.2851 147.103 88.7731 157.615 88.7731 170.535C88.7731 183.456 99.2851 193.968 112.206 193.968C125.127 193.968 135.639 183.456 135.639 170.535C135.639 157.615 125.127 147.103 112.206 147.103Z" fill="#000072"/>
<path d="M197.625 150.608L172.39 187.559L176.896 192.215L201.982 154.063L197.625 150.608Z" fill="url(#paint3_linear_51_8859)"/>
<path d="M159.231 168.034C147.988 161.628 138.657 167.876 138.564 167.94L136.183 164.473C136.651 164.152 147.805 156.684 161.314 164.379L159.231 168.033V168.034Z" fill="#000072"/>
<path d="M138.048 194.189C140.116 194.617 142.162 195.054 144.153 195.388C146.149 195.722 148.111 195.95 149.995 195.953C151.882 195.95 153.654 195.719 155.287 195.166C156.101 194.882 156.887 194.511 157.669 194.042C158.447 193.564 159.177 192.954 159.989 192.292L160.053 192.24C160.444 191.922 161.018 191.98 161.338 192.371C161.53 192.608 161.583 192.916 161.51 193.19C161.198 194.327 160.653 195.433 159.873 196.405C159.087 197.368 158.098 198.196 156.994 198.821C154.761 200.054 152.214 200.434 149.869 200.295C147.507 200.166 145.264 199.603 143.184 198.758C141.1 197.908 139.162 196.826 137.435 195.35C137.153 195.109 137.12 194.685 137.361 194.403C137.525 194.211 137.775 194.134 138.007 194.182L138.049 194.19L138.048 194.189Z" fill="#000072"/>
<path d="M97.7033 142.403C98.1681 141.275 98.7563 140.311 99.4587 139.364C100.165 138.435 100.964 137.55 101.89 136.783C103.713 135.225 106.022 134.069 108.51 133.624C109.747 133.391 111.023 133.329 112.269 133.423C113.511 133.536 114.744 133.751 115.901 134.132C118.236 134.853 120.353 136.005 122.175 137.434C123.092 138.153 123.253 139.48 122.534 140.396C121.893 141.214 120.769 141.431 119.883 140.958L119.864 140.947C118.076 139.996 116.305 139.151 114.508 138.576C112.714 137.992 110.896 137.709 109.088 137.837C107.276 137.945 105.481 138.524 103.772 139.457C102.081 140.39 100.445 141.72 99.0708 143.187L99.0161 143.246C98.7167 143.566 98.2147 143.582 97.8943 143.283C97.6474 143.051 97.5821 142.697 97.7033 142.401V142.403Z" fill="#000072"/>
<path d="M199.602 143.19C198.227 141.722 196.592 140.393 194.9 139.46C193.191 138.527 191.396 137.948 189.585 137.839C187.777 137.711 185.96 137.994 184.165 138.578C182.367 139.152 180.597 139.998 178.808 140.95L178.79 140.959C177.761 141.506 176.483 141.116 175.936 140.088C175.448 139.171 175.706 138.055 176.497 137.436C178.32 136.007 180.437 134.855 182.771 134.134C183.928 133.753 185.162 133.539 186.404 133.426C187.649 133.331 188.924 133.393 190.163 133.626C192.651 134.071 194.958 135.228 196.783 136.785C197.708 137.553 198.507 138.437 199.214 139.367C199.916 140.314 200.504 141.277 200.969 142.406C201.136 142.811 200.942 143.275 200.537 143.441C200.224 143.571 199.875 143.484 199.656 143.251L199.601 143.192L199.602 143.19Z" fill="#000072"/>
<path d="M46.0986 275.318H21.6954C21.0034 275.318 20.3569 274.978 19.9643 274.41C15.73 268.27 13.3105 259.561 11.8754 245.289C11.7996 244.537 12.1328 243.802 12.749 243.365C16.8821 240.424 29.8379 240.196 33.71 240.196C37.5821 240.196 50.5147 240.421 54.9728 243.315C55.6333 243.744 55.999 244.506 55.9198 245.29C54.4847 259.563 52.0652 268.272 47.8308 274.411C47.4383 274.981 46.7906 275.32 46.0998 275.32L46.0986 275.318ZM22.83 271.113H44.9629C48.2315 265.871 50.3004 258.113 51.5829 246.31C44.9605 243.798 22.4654 243.767 16.2053 246.265C17.4866 258.093 19.5566 265.864 22.83 271.114V271.113Z" fill="#000072"/>
<g opacity="0.3">
<path d="M21.6756 273.184H41.7373C46.0893 266.874 48.0603 257.531 49.2287 245.908C48.4878 245.427 47.3416 245.011 45.9041 244.66C44.3513 258.375 33.6553 269.045 20.3057 270.949C20.7367 271.728 21.1887 272.477 21.6756 273.184Z" fill="#000072"/>
</g>
<defs>
<radialGradient id="paint0_radial_51_8859" cx="0" cy="0" r="1" gradientUnits="userSpaceOnUse" gradientTransform="translate(155.542 134.966) rotate(90) scale(134.966 134.963)">
<stop stop-color="white"/>
<stop offset="1" stop-color="white" stop-opacity="0"/>
</radialGradient>
<linearGradient id="paint1_linear_51_8859" x1="101.213" y1="185.803" x2="124.36" y2="153.366" gradientUnits="userSpaceOnUse">
<stop stop-color="white"/>
<stop offset="0.56" stop-color="white"/>
<stop offset="1" stop-color="white"/>
</linearGradient>
<linearGradient id="paint2_linear_51_8859" x1="168.664" y1="178.259" x2="188.251" y2="150.812" gradientUnits="userSpaceOnUse">
<stop stop-color="white"/>
<stop offset="0.56" stop-color="white"/>
<stop offset="1" stop-color="white"/>
</linearGradient>
<linearGradient id="paint3_linear_51_8859" x1="177.413" y1="185.212" x2="198.247" y2="156.016" gradientUnits="userSpaceOnUse">
<stop stop-color="white"/>
<stop offset="0.56" stop-color="white"/>
<stop offset="1" stop-color="white"/>
</linearGradient>
</defs>
</svg>
