<svg width="294" height="310" viewBox="0 0 294 310" fill="none" xmlns="http://www.w3.org/2000/svg">
<path d="M75.1623 262.738C76.0005 262.738 76.8312 262.375 77.4019 261.675C83.7157 253.924 82.1335 241.533 73.7208 232.852C67.3409 226.265 58.3283 223.356 50.7561 225.444C49.2193 225.868 48.3172 227.458 48.7417 228.994C49.1652 230.531 50.755 231.431 52.2917 231.009C57.855 229.472 64.6421 231.773 69.5751 236.868C75.8478 243.341 77.3196 252.635 72.9259 258.027C71.9198 259.264 72.105 261.081 73.3407 262.088C73.8768 262.524 74.5212 262.737 75.1623 262.737V262.738Z" fill="#3B2A44"/>
<path d="M111.277 162.54C117.116 151.325 127.822 143.391 140.305 141.598C141.105 141.483 168.782 141.298 179.554 146.96C183.505 149.037 188.964 152.791 190.787 157.072C192.174 160.327 192.256 165.159 192.574 168.708C192.574 168.708 193.564 174.691 185.092 183.923C185.092 183.923 183.424 180.015 181.022 177.026C181.022 181.683 179.578 186.125 177.854 189.767C175.315 195.143 172.168 198.775 172.168 198.775C175.795 206.39 172.168 213.638 172.168 213.638C165.745 218.351 157.61 220.024 149.343 220.043C129.614 220.094 109.099 210.735 109.099 210.735C109.099 210.735 107.956 209.327 106.706 206.598C103.58 199.773 99.7493 184.675 111.277 162.539V162.54Z" fill="#A9EDE6"/>
<path d="M119.846 56.1115H119.852C120.168 56.1472 132.828 57.58 134.699 70.9647C134.699 70.9647 139.106 61.1864 144.181 56.1115C144.181 56.1115 161.487 53.612 156.403 30.2205C156.214 29.3584 157.3 28.8072 157.871 29.4754C162.012 34.3261 171.066 40.2219 188.423 32.6941C188.423 32.6941 202.96 41.1403 217.497 36.2852C217.497 36.2852 229.371 58.0544 251.125 57.5595C251.125 57.5595 262.52 76.8551 261.286 86.8424C261.286 86.8424 277.536 93.0501 283.856 74.4075C283.856 74.4075 276.272 76.6211 272.798 69.9857C272.798 69.9857 275.955 17.842 223.184 12.1552C223.184 12.1552 228.238 4.88183 225.398 2.04115C225.398 2.04115 207.352 6.46841 194.885 4.25478C182.415 2.04115 168.827 2.67362 158.084 13.4158C158.084 13.4158 142.283 12.7833 134.698 25.7434C134.698 25.7434 123.64 34.0272 119.845 56.1126L119.846 56.1115Z" fill="#563F2A"/>
<path d="M89.6352 299.501C88.4775 303.409 91.3539 307.341 95.4249 307.356L115.097 307.437C117.556 307.447 119.53 305.392 119.397 302.939C119.045 296.568 118.443 294.635 116.342 290.243C116.342 290.243 106.544 293.364 96.4082 285.739C96.4082 285.739 91.7611 292.303 89.6341 299.5L89.6352 299.501Z" fill="#371A45"/>
<g opacity="0.4">
<path d="M116.689 305.733C116.337 299.362 115.735 297.429 113.634 293.037C113.634 293.037 104.057 296.081 94.0473 288.783C94.8108 287.55 95.3252 286.823 95.3252 286.823C105.46 294.448 115.259 291.327 115.259 291.327C117.36 295.718 117.962 297.651 118.314 304.022C118.403 305.672 117.537 307.138 116.214 307.921C116.554 307.269 116.733 306.522 116.689 305.733Z" fill="white"/>
</g>
<path d="M156.427 282.364C154.586 291.749 157.228 303.822 157.228 303.822C161.043 306.051 187.862 305.287 187.862 305.287C187.862 305.287 198.023 303.318 193.897 293.917C191.418 288.266 186.537 287.659 180.533 289.286C178.447 289.853 177.63 284.186 177.63 284.186C177.63 284.186 168.23 288.164 156.427 282.365V282.364Z" fill="#371A45"/>
<g opacity="0.4">
<path d="M191.731 296.624C189.252 290.973 184.371 290.365 178.367 291.993C176.281 292.559 175.464 286.892 175.464 286.892C175.464 286.892 166.734 290.582 155.538 285.662C155.63 284.912 155.743 284.17 155.885 283.446C167.687 289.245 177.089 285.266 177.089 285.266C177.089 285.266 177.904 290.933 179.991 290.367C185.994 288.741 190.876 289.347 193.355 294.998C195.533 299.96 193.731 302.85 191.543 304.474C192.79 302.747 193.316 300.235 191.731 296.623V296.624Z" fill="white"/>
</g>
<path d="M180.288 253.764C180.175 255.244 180.058 256.769 179.931 258.309C180.145 258.931 180.501 259.512 181.022 260.033C184.827 263.837 195.202 253.923 198.268 245.281C203.282 231.138 203.16 209.572 203.16 209.572C200.298 211.276 194.61 213.729 187.756 211.744C187.756 211.744 186.313 225.598 186.313 230.626C186.313 235.655 185.338 234.896 182.757 238.721C181.854 240.057 181.466 241.118 181.426 241.964C181.247 245.279 186.313 245.279 186.313 245.279C184.037 247.549 181.441 250.732 180.289 253.761L180.288 253.764Z" fill="#FCD2B4"/>
<path d="M141.977 232.673C148.567 238.111 157.151 249.883 157.151 249.883L156.426 282.364C168.229 288.163 177.629 284.185 177.629 284.185C177.629 284.185 178.94 270.643 179.929 258.309C180.133 256.275 179.929 256.045 180.287 253.764C180.644 249.011 180.914 244.752 180.996 241.957C181.011 241.396 181.022 240.895 181.022 240.462C181.022 231.76 172.168 213.638 172.168 213.638C165.746 218.351 157.61 220.024 149.343 220.043C129.614 220.094 109.099 210.735 109.099 210.735C109.099 210.735 107.956 209.327 106.706 206.598C103.07 219.539 105.656 237.967 107.008 245.633C107.436 248.051 107.278 250.53 106.554 252.876L96.4083 285.74C106.543 293.365 116.342 290.244 116.342 290.244L133.424 265.511C137.463 258.732 139.978 251.152 140.799 243.307C141.268 238.834 141.671 235.279 141.977 232.672V232.673Z" fill="#534741"/>
<path d="M177.854 189.762V189.767C181.369 197.847 185.021 210.736 185.021 210.736C185.949 211.154 186.862 211.491 187.754 211.747C194.609 213.731 200.296 211.278 203.157 209.574C204.437 208.814 205.152 208.202 205.152 208.202C204.642 182.102 196.19 169.014 196.19 169.014L196.196 168.937C195.008 168.886 193.798 168.809 192.574 168.708C192.574 168.708 193.564 174.691 185.092 183.923C185.092 183.923 183.424 180.015 181.022 177.026C181.022 181.683 179.579 186.125 177.854 189.762Z" fill="#A9EDE6"/>
<path d="M177.854 166.529C176.666 170.053 170.096 176.618 170.096 176.618V176.623C171.244 175.985 172.549 175.206 174.034 174.261C176.513 172.685 179.016 174.532 181.021 177.021V177.026C183.423 180.015 185.091 183.923 185.091 183.923C193.563 174.69 192.573 168.708 192.573 168.708C188.829 168.397 184.922 167.836 180.837 166.999C179.837 166.795 178.858 166.575 177.899 166.34L177.853 166.529H177.854Z" fill="#A9EDE6"/>
<path d="M140.34 141.633C138.493 155.823 149.072 177.429 149.072 177.429C153.857 172.644 158.248 168.702 158.248 168.702C153.887 161.51 154.657 156.247 154.657 156.247L154.738 156.145C148.689 151.886 143.986 146.882 140.339 141.634L140.34 141.633Z" fill="#A9EDE6"/>
<path d="M154.658 156.247C154.658 156.247 153.888 161.51 158.249 168.702C158.249 173.777 163.11 179.567 163.11 179.567C163.11 179.567 164.986 179.47 170.097 176.623V176.618C170.097 176.618 176.666 170.054 177.856 166.529L177.901 166.34C168.546 164.081 160.936 160.505 154.739 156.144L154.658 156.246V156.247Z" fill="#FCD2B4"/>
<path d="M127.884 104.419C128.445 112.581 130.817 127.943 140.34 141.633C143.986 146.881 148.689 151.886 154.739 156.144C160.936 160.505 168.546 164.08 177.901 166.34C178.859 166.575 179.839 166.794 180.839 166.999C184.925 167.835 188.832 168.396 192.575 168.708C193.799 168.809 195.009 168.886 196.197 168.937C244.785 171.019 263.147 130.51 259.051 112.331C256.236 99.8447 261.286 86.8424 261.286 86.8424C262.52 76.8551 251.125 57.5595 251.125 57.5595C229.371 58.0544 217.497 36.2852 217.497 36.2852C202.96 41.1414 188.423 32.694 188.423 32.694C171.066 40.223 162.012 34.3261 157.871 29.4754C157.3 28.8072 156.213 29.3584 156.403 30.2205C161.488 53.612 144.181 56.1115 144.181 56.1115C139.106 61.1864 134.699 70.9647 134.699 70.9647C132.828 57.5811 120.168 56.1472 119.852 56.1115H119.846C119.637 56.183 114.837 57.7696 111.645 62.7166C102.495 76.8659 108.595 102.665 127.722 104.429L127.885 104.419H127.884Z" fill="#FCD2B4"/>
<path d="M257.022 166.143C260.111 169.522 265.895 169.957 269.457 167.08C271.4 165.507 272.633 163.192 274.595 161.639C277.89 159.034 283.09 159.253 286.155 162.127C289.217 165.001 289.77 170.173 287.385 173.63C290.369 175.032 291.931 178.889 290.76 181.973C289.594 185.058 285.866 186.913 282.699 185.979C283.331 189.112 281.088 192.539 277.967 193.217C274.843 193.889 271.382 191.695 270.664 188.586C268.37 188.618 266.146 187.043 265.421 184.868C264.691 182.693 265.523 180.094 267.376 178.742C262.503 176.05 258.717 171.444 257.021 166.142L257.022 166.143Z" fill="#FCEFE3"/>
<path d="M4.51027 243.909L34.078 221.809L34.2621 222.048C34.6238 221.533 35.0787 221.058 35.6083 220.661L36.4855 220.008C40.6734 216.876 46.6158 217.728 49.7424 221.926L55.9349 230.204L76.8214 258.145L84.7478 268.744C87.8798 272.937 87.0232 278.875 82.8298 282.011L81.9526 282.659C81.6721 282.873 81.3765 283.052 81.07 283.21L81.2584 283.455L50.8492 305.954C48.1201 307.973 44.2744 307.407 42.2394 304.683L3.2605 252.55C1.22015 249.817 1.78114 245.951 4.51027 243.91V243.909Z" fill="#B2581B"/>
<path d="M138.307 182.901C138.307 182.901 129.407 213.54 108.494 219.917C108.494 219.917 97.1501 213.982 91.9831 203.688V202.667C91.9831 202.667 114.269 173.841 117.629 165.511C117.629 165.511 137.005 163.994 138.306 182.902L138.307 182.901Z" fill="#A9EDE6"/>
<path d="M109.645 219.917C109.645 219.917 97.3255 213.684 93.3466 205.579C93.3466 205.579 77.4256 222.916 75.4611 222.916C73.4965 222.916 57.2745 224.991 66.0023 240.975C73.3027 254.346 85.0293 243.9 85.0293 239.304C85.0293 239.304 104.67 226.802 109.645 219.917Z" fill="#FCD2B4"/>
<path d="M222.25 146.171C222.25 146.171 227.493 92.8714 189.425 103.153C159.252 111.303 161.458 134.676 161.458 134.676C161.458 134.676 187.411 130.054 204.12 136.809C218.435 142.596 222.252 146.171 222.252 146.171H222.25Z" fill="#8E3869"/>
<path d="M220.341 121.64C220.341 121.64 195.751 106.309 174.949 109.811C174.949 109.811 188.978 97.8823 204.716 102.665C220.455 107.448 220.34 121.64 220.34 121.64H220.341Z" fill="#F2F2F2"/>
<path d="M187.755 133.389C187.755 133.389 172.578 126.475 162.088 127.929L161.458 134.676C161.458 134.676 182.854 133.061 187.755 133.389Z" fill="#F2F2F2"/>
<path d="M194.249 68.7651C191.425 69.9337 179.837 73.7696 172.154 61.86C171.975 61.5838 171.551 61.6564 171.477 61.977C170.834 64.7234 169.566 73.435 178.22 76.7977C191.102 81.8021 194.162 71.9729 194.759 69.1886C194.822 68.894 194.528 68.6514 194.25 68.7662L194.249 68.7651Z" fill="#371A45"/>
<path d="M231.173 86.0735C232.841 88.834 240.217 99.5794 250.431 92.7739C250.704 92.592 251.061 92.8248 251.006 93.1486C250.498 96.1279 248.045 105.601 237.687 101.765C226.561 97.6452 229.444 88.6336 230.508 86.1168C230.627 85.8352 231.014 85.8103 231.172 86.0724L231.173 86.0735Z" fill="#371A45"/>
<path d="M187.294 56.8674C183.585 56.8013 179.916 56.001 176.508 54.5357C175.58 54.1361 174.653 53.6553 174.024 52.8679C173.637 52.3849 173.395 51.7568 173.382 51.1449C173.368 50.4778 173.935 49.9504 174.601 49.9265C179.122 49.7641 183.609 48.7309 187.744 46.8953C189.175 46.2606 190.576 45.5264 192.097 45.1581C194.462 44.5863 197.257 45.0033 198.38 47.8905C198.599 48.4537 198.716 49.058 198.716 49.6623C198.712 52.3795 196.773 54.5617 194.439 55.6718C192.238 56.719 189.708 56.9107 187.294 56.8674Z" fill="#371A45"/>
<path d="M242.686 80.9033C245.273 83.4136 248.447 85.3099 251.941 86.4341C252.852 86.7276 253.825 86.9702 254.814 86.7731C255.24 86.6875 255.67 86.4991 256.037 86.2316C256.75 85.7128 256.827 84.6699 256.215 84.0353C253.475 81.1924 251.323 77.7713 249.909 74.0014C249.406 72.6617 248.99 71.2657 248.245 70.0647C247.5 68.8637 246.36 67.8532 244.921 67.6616C243.007 67.4071 240.925 68.7348 239.928 70.5423C238.931 72.3498 238.908 74.5028 239.527 76.306C240.147 78.1091 241.348 79.6037 242.686 80.9033Z" fill="#371A45"/>
<path d="M44.3339 243.264L33.8181 228.367C33.8181 228.367 10.3735 242.615 13.2749 255.366C13.2749 255.366 21.2359 259.067 29.3009 251.002L36.9176 242.29C36.9176 242.29 30.4575 257.916 35.5584 270.158L41.047 268.373C41.047 268.373 40.1026 253.604 44.3339 243.264Z" fill="#E93B47"/>
<g opacity="0.3">
<path d="M19.3829 239.758C19.3829 239.758 25.9891 249.079 26.4797 254.466L22.9232 256.276C22.9232 256.276 19.8573 245.457 16.696 243.135L19.384 239.757L19.3829 239.758Z" fill="white"/>
</g>
<g opacity="0.3">
<path d="M26.4754 233.553C26.4754 233.553 33.0817 242.874 33.5723 248.261L30.0157 250.07C30.0157 250.07 26.9498 239.251 23.7885 236.929L26.4765 233.552L26.4754 233.553Z" fill="white"/>
</g>
<g opacity="0.3">
<path d="M32.6473 229.625C32.6473 229.625 38.9557 235.497 39.8633 240.83L36.7573 242.697C36.7573 242.697 32.5596 234.013 29.2273 231.944L32.6473 229.625Z" fill="white"/>
</g>
<g opacity="0.3">
<path d="M33.1445 256.811C33.1445 256.811 37.8457 255.601 41.0903 259.93L41.2864 264.563C41.2864 264.563 36.2981 260.699 32.3886 260.383L33.1445 256.812V256.811Z" fill="white"/>
</g>
<g opacity="0.3">
<path d="M34.3358 245.464C34.3358 245.464 39.037 244.255 42.2816 248.583L42.4777 253.216C42.4777 253.216 37.4894 249.352 33.5798 249.036L34.3358 245.466V245.464Z" fill="white"/>
</g>
<path d="M46.3655 257.13L51.1762 263.562L56.6842 259.446L56.8478 259.323L60.6274 256.498L62.5248 255.08L57.7152 248.648L55.7507 250.117L52.0426 252.887L50.7885 253.825L46.3655 257.13Z" fill="#F7C714"/>
<path d="M51.1209 263.941L62.9038 255.134L57.7694 248.268L45.9865 257.075L51.1209 263.94V263.941ZM62.1457 255.025L51.2314 263.183L46.7456 257.185L57.6611 249.026L62.1457 255.025Z" fill="#66142E"/>
<path d="M260.431 90.191C256.878 98.3448 256.654 107.892 259.817 116.205C264.829 113.133 267.922 107.173 267.55 101.306C267.177 95.4381 265.793 92.6039 260.431 90.191Z" fill="#FCD2B4"/>
<path d="M64.7817 237.571C65.4943 237.273 66.0477 236.96 66.6412 236.61C67.2195 236.261 67.7729 235.883 68.3014 235.478C68.831 235.078 69.3248 234.63 69.784 234.167C70.2454 233.703 70.6483 233.189 71.0078 232.669C70.4674 233.008 69.9237 233.305 69.3508 233.536C68.779 233.767 68.2061 233.965 67.617 234.11C67.0311 234.259 66.4409 234.375 65.8517 234.456C65.2767 234.532 64.6409 234.593 64.1417 234.579C63.2731 234.554 62.5486 235.239 62.5237 236.107C62.4988 236.976 63.1832 237.7 64.0518 237.725C64.2803 237.732 64.498 237.69 64.6962 237.607L64.7817 237.572V237.571Z" fill="#371A45"/>
<path d="M66.8221 243.181C67.5347 242.884 68.0881 242.571 68.6816 242.221C69.2599 241.872 69.8133 241.494 70.3418 241.089C70.8714 240.688 71.3652 240.241 71.8244 239.778C72.2858 239.314 72.6887 238.8 73.0482 238.28C72.5078 238.619 71.9631 238.916 71.3912 239.147C70.8194 239.378 70.2465 239.576 69.6574 239.721C69.0715 239.871 68.4823 239.986 67.8921 240.067C67.317 240.143 66.6802 240.204 66.1821 240.19C65.3135 240.165 64.589 240.85 64.5641 241.718C64.5392 242.587 65.2236 243.311 66.0922 243.336C66.3196 243.343 66.5384 243.301 66.7366 243.218L66.8232 243.183L66.8221 243.181Z" fill="#371A45"/>
<path d="M70.3928 246.752C71.1054 246.454 71.6588 246.141 72.2523 245.791C72.8306 245.443 73.384 245.065 73.9125 244.66C74.4421 244.259 74.9359 243.812 75.3951 243.348C75.8565 242.885 76.2593 242.37 76.6189 241.85C76.0785 242.189 75.5337 242.486 74.9619 242.718C74.3901 242.949 73.8172 243.147 73.2281 243.292C72.6422 243.44 72.0519 243.556 71.4628 243.637C70.8877 243.713 70.252 243.775 69.7528 243.761C68.8842 243.736 68.1597 244.42 68.1348 245.289C68.1098 246.158 68.7943 246.882 69.6629 246.907C69.8914 246.913 70.1091 246.871 70.3072 246.789L70.3928 246.753V246.752Z" fill="#371A45"/>
<path d="M190.616 238.534C189.86 239.637 189.016 240.66 188.121 241.587C187.227 242.511 186.255 243.33 185.274 243.903C184.393 244.416 184.097 245.546 184.609 246.425C185.122 247.304 186.252 247.602 187.131 247.089C187.383 246.943 187.587 246.746 187.738 246.518L187.797 246.427C188.649 245.135 189.212 243.819 189.654 242.501C190.088 241.182 190.411 239.86 190.615 238.533L190.616 238.534Z" fill="#371A45"/>
<path d="M191.636 247.715C189.902 249.657 188.076 251.513 186.161 253.235C185.207 254.097 184.212 254.906 183.196 255.637C182.194 256.358 181.088 257.022 180.13 257.264C179.443 257.436 179.027 258.132 179.199 258.818C179.372 259.504 180.068 259.92 180.754 259.748C180.829 259.728 180.909 259.699 180.979 259.669C182.46 258.984 183.459 258.045 184.431 257.097C185.387 256.138 186.265 255.142 187.087 254.111C188.734 252.053 190.239 249.914 191.638 247.714L191.636 247.715Z" fill="#371A45"/>
<g opacity="0.3">
<path d="M257.022 95.1229C257.022 95.1229 258.867 74.4844 246.743 64.7949C246.743 64.7949 225.726 60.2691 214.674 42.2471C214.674 42.2471 205.322 47.0079 186.96 39.1866C186.96 39.1866 161.627 47.7508 157.206 29.1797C157.206 29.1797 168.257 39.975 189.34 32.6951C189.34 32.6951 194.12 27.6993 194.501 23.4962C194.501 23.4962 201.07 37.6563 213.822 36.2852C213.822 36.2852 223.476 33.3092 225.721 30.9537C225.721 30.9537 226.716 48.1223 239.107 53.3932C239.107 53.3932 249.525 59.3096 256.624 53.6629C256.624 53.6629 255.477 64.5187 259.216 70.9798C259.216 70.9798 262.3 81.292 261.454 86.1168C261.408 86.3756 261.352 86.6182 261.282 86.8424C259.925 91.2588 258.805 93.337 257.02 95.1218L257.022 95.1229Z" fill="#371A45"/>
</g>
<g opacity="0.3">
<path d="M158.248 42.0435C158.248 42.0435 156.748 56.3573 148.052 60.268C148.052 60.268 138.371 65.2671 134.953 70.4189C134.953 70.4189 138.295 59.0951 144.181 56.1115C144.181 56.1115 156.576 48.9291 158.248 42.0446V42.0435Z" fill="#371A45"/>
</g>
<g opacity="0.3">
<path d="M135.854 47.6707C135.854 47.6707 135.711 57.3688 139.898 61.5546L144.181 56.1115C144.181 56.1115 138.728 51.4785 135.854 47.6707Z" fill="#371A45"/>
</g>
<g opacity="0.3">
<path d="M211.444 104.429C211.444 104.429 199.092 103.213 188.511 109.811C188.511 109.811 195.242 108.314 193.931 111.587C190.426 120.349 189.633 128.465 196.682 134.602C196.682 134.602 169.447 130.873 161.457 134.675C161.457 134.675 162.87 105.321 191.958 102.548C202.603 101.533 211.443 104.428 211.443 104.428L211.444 104.429Z" fill="#371A45"/>
</g>
<g opacity="0.3">
<path d="M222.25 146.171C222.25 146.171 208.772 138.137 202.943 138.137C202.943 138.137 218.879 135.258 223.142 136.437C223.142 136.437 223.978 144.443 222.251 146.171H222.25Z" fill="#371A45"/>
</g>
<g opacity="0.3">
<path d="M134.953 70.4189C134.953 70.4189 120.739 52.4109 109.645 67.6313C109.645 67.6313 112.317 56.1115 122.266 56.1115C132.214 56.1115 134.952 70.4189 134.952 70.4189H134.953Z" fill="#371A45"/>
</g>
<g opacity="0.3">
<path d="M128.214 100.169C128.214 100.169 119.148 101.064 111.197 93.1118C111.197 93.1118 119.658 104.43 127.722 104.43L128.214 100.169Z" fill="#390075"/>
</g>
<g opacity="0.3">
<path d="M242.135 153.705C242.135 153.705 210.159 176.465 165.113 154.334C136.647 140.348 129.315 94.6984 131.402 84.7522C131.402 84.7522 123.34 96.5178 132.361 125.995C141.383 155.472 174.952 167.295 192.574 168.708C228.361 171.574 242.135 153.705 242.135 153.705Z" fill="#371A45"/>
</g>
<g opacity="0.3">
<path d="M165.114 178.568C165.114 178.568 168.597 174.924 168.597 170.482C168.597 170.482 161.422 165.851 157.572 166.34C156.43 166.485 154.577 160.159 154.658 156.246C154.658 156.246 167.512 164.279 178.044 166.34C178.044 166.34 172.629 176.885 165.114 178.568Z" fill="#371A45"/>
</g>
<g opacity="0.3">
<path d="M177.854 172.992C177.854 172.992 182.643 172.163 191.308 174.757L194.766 167.855C194.766 167.855 183.067 164.789 178.043 166.34C178.043 166.34 171.955 171.693 177.854 172.992Z" fill="#390075"/>
</g>
<g opacity="0.3">
<path d="M157.572 166.34C157.572 166.34 147.398 161.906 140.572 151L140.124 141.878C140.124 141.878 146.752 151.743 154.658 156.246C154.658 156.246 156.054 164.821 157.572 166.34Z" fill="#371A45"/>
</g>
<g opacity="0.3">
<path d="M187.755 180.737C187.755 180.737 195.078 195.63 191.417 203.688L197.646 202.418C197.646 202.418 192.313 207.827 193.634 212.47C193.634 212.47 189.373 212.777 185.023 210.737C185.023 210.737 181.162 196.599 177.857 189.769C177.857 189.769 181.024 181.165 181.024 177.027L185.026 182.429L187.757 180.739L187.755 180.737Z" fill="#371A45"/>
</g>
<g opacity="0.3">
<path d="M172.522 176.315C172.522 176.315 174.162 185.372 168.938 190.596C168.938 190.596 172.253 195.746 165.113 200.69C165.113 200.69 172.168 206.849 172.168 213.639C172.168 220.428 172.766 212.486 172.766 212.486C172.766 212.486 176.594 205.479 172.766 198.038C172.766 198.038 180.252 191.497 181.354 179.567C181.354 179.567 180.194 172.063 174.949 173.162C169.704 174.262 172.522 176.315 172.522 176.315Z" fill="#371A45"/>
</g>
<g opacity="0.3">
<path d="M137.252 189.767C137.252 189.767 135.276 198.775 144.201 203.675L134.212 203.687C134.212 203.687 133.999 213.056 144.201 219.802C144.201 219.802 127.709 220.419 117.593 212.517L120.313 209.857C120.313 209.857 133.906 198.924 137.252 189.767Z" fill="#371A45"/>
</g>
<g opacity="0.3">
<path d="M111.724 160.599C117.733 150.544 138.872 133.182 140.538 147.258L140.646 147.234C140.646 147.234 143.143 165.802 147.625 174.243C147.625 174.243 141.08 170.279 136.609 155.146C135.946 152.904 133.399 151.794 131.335 152.892C125.63 155.925 117.849 163.168 109.645 180.035L104.192 187.626C104.192 187.626 105.26 171.416 111.724 160.6V160.599Z" fill="#371A45"/>
</g>
<g opacity="0.3">
<path d="M159.986 218.953C160.854 218.872 144.184 226.698 111.101 220.473C111.101 220.473 106.434 236.784 113.592 253.215C113.592 253.215 106.966 263.561 105.692 280.614C105.33 285.446 113.097 290.799 113.097 290.799C113.097 290.799 101.917 292.762 96.4094 283.882C96.4094 283.882 108.105 254.175 107.557 247.629C107.009 241.084 104.193 224.777 104.193 224.777L117.594 212.517C117.594 212.517 140.322 220.793 159.987 218.952L159.986 218.953Z" fill="#371A45"/>
</g>
<g opacity="0.3">
<path d="M149.186 227.849C149.186 227.849 154.655 243.04 165.566 251.002L161.421 250.445C161.421 250.445 160.913 275.279 162.152 279.36C163.391 283.441 175.328 282.994 175.328 282.994C175.328 282.994 163.669 286.617 156.426 280.869L157.207 249.883L142.049 232.072C142.049 232.072 145.735 229.135 149.186 227.849Z" fill="#371A45"/>
</g>
<g opacity="0.3">
<path d="M197.645 212.517C197.645 212.517 194.689 213.419 192.61 219.813C190.531 226.207 193.974 239.652 182.647 244.321C182.647 244.321 180.33 240.495 183.901 235.22C187.471 229.947 187.744 211 187.744 211L197.645 212.516V212.517Z" fill="#371A45"/>
</g>
<g opacity="0.3">
<path d="M98.0404 198.775C98.0404 198.775 101.302 206.967 104.192 209.857C104.192 209.857 97.7003 207.416 94.4698 201.765L98.0404 198.775Z" fill="#371A45"/>
</g>
<g opacity="0.3">
<path d="M96.4082 211.703C96.4082 211.703 82.1171 222.212 77.3595 227.715C77.3595 227.715 69.8176 225.529 67.0972 232.072C66.2741 234.053 69.0725 236.367 69.0725 236.367C69.0725 236.367 68.9783 239.829 71.6879 240.76C71.6879 240.76 73.0482 243.564 75.9387 244.322C75.9387 244.322 75.6484 245.643 78.7284 246.935C78.7284 246.935 70.2432 252.391 64.1341 237.394C58.5816 223.765 74.3889 223.809 74.3889 223.809L93.3466 206.27L96.4093 211.704L96.4082 211.703Z" fill="#371A45"/>
</g>
<g opacity="0.3">
<path d="M76.4153 283.592C76.4153 283.592 68.36 279.444 53.7873 261.837L57.1749 258.997C57.1749 258.997 70.0917 278.749 76.4153 283.592Z" fill="#371A45"/>
</g>
<g opacity="0.3">
<path d="M49.4846 254.092C49.4846 254.092 34.1137 241.813 23.7874 228.368L35.6094 220.662C35.6094 220.662 31.4008 222.978 36.8374 230.629C42.274 238.28 51.9657 251.751 51.9657 251.751L49.4846 254.092Z" fill="#371A45"/>
</g>
<g opacity="0.3">
<path d="M16.6949 236.16C16.6949 236.16 6.74005 243.644 6.74005 248.017C6.74005 252.39 45.6746 305.947 45.6746 305.947C45.6746 305.947 4.37479 263.522 2.58244 246.31C2.58244 246.31 12.5384 237.103 16.6949 236.16Z" fill="#390075"/>
</g>
<g opacity="0.3">
<path d="M57.1738 249.577C57.7618 250.165 57.2864 253.215 57.2864 253.215L48.6366 259.943L47.0013 256.655L57.1748 249.577H57.1738Z" fill="#390075"/>
</g>
<g opacity="0.3">
<path d="M58.4376 233.553C58.4376 233.553 50.2719 223.782 43.6343 222.807C33.3329 221.294 38.9558 234.538 38.9558 234.538C38.9558 234.538 30.4727 227.186 35.6082 220.661C40.7438 214.136 45.653 217.731 49.2821 221.36C52.9112 224.989 58.4365 233.553 58.4365 233.553H58.4376Z" fill="#371A45"/>
</g>
<g opacity="0.3">
<path d="M177.1 285.741C177.1 285.741 170.638 291.326 160.778 289.455C160.778 289.455 160.024 296.062 163.108 299.147C166.193 302.233 190.701 302.548 190.701 302.548C190.701 302.548 175.269 309.009 157.228 303.822C157.228 303.822 151.242 289.765 156.427 282.364C156.427 282.364 171.15 287.296 177.101 285.741H177.1Z" fill="#371A45"/>
</g>
<g opacity="0.3">
<path d="M116.342 290.244C116.342 290.244 107.93 297.527 100.251 294.895C92.5713 292.265 91.5695 304.909 93.7864 307.125C93.7864 307.125 87.1834 304.854 89.3765 298.685C91.5695 292.515 96.4083 283.882 96.4083 283.882C96.4083 283.882 99.7883 291.202 116.342 290.244Z" fill="#371A45"/>
</g>
<g opacity="0.3">
<path d="M153.32 173.285C153.32 173.285 160.689 178.025 162.153 180.804C162.153 180.804 158.368 173.977 158.368 170.143C158.368 170.143 154.919 171.749 153.32 173.284V173.285Z" fill="#390075"/>
</g>
<g opacity="0.3">
<path d="M113.79 76.919C113.79 80.56 116.029 84.7511 118.74 84.7511C121.45 84.7511 125.028 82.5137 125.028 78.8727C125.028 75.2317 121.409 70.3257 118.698 70.3257C115.988 70.3257 113.79 73.2769 113.79 76.9179V76.919Z" fill="#371A45"/>
</g>
<g opacity="0.3">
<path d="M257.936 99.0964C257.936 99.0964 261.866 104.429 267.046 104.429C267.046 104.429 265.665 115.614 259.892 115.614C259.892 115.614 256.784 103.148 257.935 99.0964H257.936Z" fill="#390075"/>
</g>
<g opacity="0.3">
<path d="M158.084 13.4147C158.084 13.4147 142.525 17.1456 142.525 29.1798C142.525 39.8667 135.272 32.0984 129.45 42.0446C123.628 51.9907 125.424 57.8486 125.424 57.8486L119.142 56.1115C119.142 56.1115 122.818 33.6287 135.614 24.3041C135.614 24.3041 143.15 13.4147 158.084 13.4147Z" fill="#371A45"/>
</g>
<g opacity="0.3">
<path d="M32.3885 246.961C32.3885 246.961 27.1577 259.447 34.5458 270.158C34.5458 270.158 33.1033 250.874 35.4783 244.321L32.3874 246.961H32.3885Z" fill="#390075"/>
</g>
<g opacity="0.3">
<path d="M226.391 92.6569C226.391 92.6569 219.526 97.4686 216.681 92.4533C216.681 92.4533 217.154 96.2146 220.341 96.9347C226.057 98.2267 226.391 92.6569 226.391 92.6569Z" fill="#390075"/>
</g>
<path d="M127.016 80.469C126.8 78.8207 126.247 77.2698 125.464 75.9042C124.681 74.5364 123.674 73.3429 122.524 72.3574C120.231 70.3885 117.307 69.2384 114.46 69.3088C117.257 69.8394 119.641 71.4997 121.235 73.5931C122.839 75.6854 123.662 78.2683 123.447 80.6141C123.357 81.6039 124.086 82.4801 125.076 82.57C126.066 82.6599 126.942 81.931 127.032 80.9412C127.044 80.809 127.042 80.6802 127.025 80.5545L127.015 80.47L127.016 80.469Z" fill="#371A45"/>
<path d="M113.416 78.8911C114.016 78.0788 114.779 77.4399 115.627 76.985C116.465 76.5161 117.382 76.2139 118.311 76.0525C119.242 75.8988 120.181 75.8457 121.109 75.9291C121.341 75.941 121.572 75.9713 121.801 76.0092C122.031 76.0428 122.259 76.0731 122.485 76.1294C122.71 76.1847 122.937 76.2182 123.158 76.2886L123.491 76.3872L123.656 76.4359C123.709 76.4598 123.772 76.4359 123.879 76.2377L124.314 74.3761C124.296 74.1519 124.236 74.1053 124.166 74.1043L123.962 74.0793L123.553 74.0317C123.283 73.9949 123.005 73.997 122.733 73.9786C122.461 73.958 122.186 73.9667 121.913 73.9732C121.64 73.9743 121.368 73.9862 121.096 74.0165C120.012 74.1129 118.938 74.323 117.932 74.7216C116.927 75.1125 115.982 75.6518 115.177 76.345C114.384 77.0489 113.721 77.9001 113.35 78.8564L113.417 78.8921L113.416 78.8911Z" fill="#371A45"/>
<g opacity="0.3">
<path d="M269.41 189.063C267.751 187.692 266.061 185.99 265.948 183.841C265.897 182.868 266.184 181.897 266.11 180.925C265.986 179.277 264.853 177.884 263.629 176.773C262.406 175.662 261.018 174.689 260.092 173.32C259.166 171.951 258.815 170.008 259.803 168.684C263.057 172.084 267.436 175.822 272.082 176.581C269.76 179.914 271.506 180.194 271.624 182.31C271.747 184.539 273.232 184.837 274.861 186.361C275.946 187.377 277.57 187.782 279.004 187.395C280.439 187.007 281.887 186.5 282.314 185.076C283.589 186.727 282.313 190.03 280.696 191.349C279.079 192.668 276.75 192.839 274.749 192.245C272.749 191.652 271.017 190.393 269.409 189.063H269.41Z" fill="#371A45"/>
</g>
<g opacity="0.3">
<path d="M201.818 147.898C201.818 147.898 200.62 142.06 192.938 141.974C185.258 141.889 183.028 147.688 183.028 147.688C183.028 147.688 192.911 143.644 201.817 147.898H201.818Z" fill="#371A45"/>
</g>
<g opacity="0.4">
<path d="M219.151 7.22648C217.784 9.68378 215.285 13.2739 213.918 15.7323C226.15 16.2608 239.309 19.6614 248.846 27.3376C258.384 35.0138 265.385 45.7917 268.517 57.6277C269.86 62.6993 270.519 67.9735 272.458 72.8491C274.966 58.4637 271.024 43.0756 261.906 31.6684C252.788 20.2613 238.648 13.0237 224.063 12.3003C226.583 10.1473 227.708 6.49113 226.831 3.29415C213.271 3.25516 199.712 3.21617 186.152 3.17719C180.736 3.16203 175.224 3.15986 170.047 4.75293C164.87 6.34601 159.988 9.80832 158.04 14.8615C162.699 9.54191 170.009 7.21782 177.07 6.8496C184.132 6.48138 191.155 7.81887 198.18 8.62354C205.205 9.42928 212.514 9.67187 219.15 7.22648H219.151Z" fill="white"/>
</g>
<g opacity="0.5">
<path d="M258.87 94.9453C262.713 96.9272 265.869 100.213 267.696 104.132C268.779 98.8776 266.253 93.0717 261.671 90.282C260.737 91.836 259.803 93.3912 258.868 94.9453H258.87Z" fill="white"/>
</g>
<g opacity="0.5">
<path d="M226.369 162.876C238.884 158.925 249.598 149.594 255.231 137.741C260.862 125.887 261.328 111.686 256.486 99.4895C256.422 123.657 249.884 142.743 226.37 162.876H226.369Z" fill="white"/>
</g>
<g opacity="0.5">
<path d="M221.007 90.191C219.716 90.191 218.67 89.6634 218.67 89.0127C218.67 88.3619 219.716 87.8344 221.007 87.8344C222.298 87.8344 223.344 88.3619 223.344 89.0127C223.344 89.6634 222.298 90.191 221.007 90.191Z" fill="white"/>
</g>
<g opacity="0.4">
<path d="M265.701 169.491C268.269 168.409 270.838 167.327 273.405 166.245C275.52 165.354 277.772 164.444 280.041 164.792C282.311 165.139 284.321 166.841 285.037 169.023C285.753 171.205 285.143 173.766 283.521 175.392C285.519 176.136 287.085 177.942 287.538 180.025C287.992 182.107 287.32 184.401 285.812 185.91C288.6 185.383 290.947 183.019 291.452 180.227C291.958 177.435 290.589 174.399 288.163 172.928C289.72 169.98 289.433 166.153 287.455 163.469C285.477 160.786 281.907 159.379 278.63 159.992C273.304 160.988 270.12 166.352 265.702 169.491H265.701Z" fill="white"/>
</g>
<g opacity="0.5">
<path d="M192.49 172.553C194.765 177.809 196.673 183.223 198.198 188.742C198.887 191.233 200.267 194.523 200.238 197.109C200.208 199.605 195.361 201.81 193.677 203.686C195.128 202.068 202.83 200.495 204.898 199.513C203.406 188.825 200.54 178.62 196.159 168.757C194.366 169.439 193.328 170.827 192.49 172.552V172.553Z" fill="white"/>
</g>
<g opacity="0.5">
<path d="M201.253 210.196C203.371 210.495 205.171 208.302 205.285 206.167C205.4 204.033 204.348 202.029 203.325 200.151C202.187 200.524 201.05 200.897 199.913 201.27C201.519 203.794 200.86 207.23 201.253 210.196Z" fill="white"/>
</g>
<g opacity="0.5">
<path d="M198.802 219.646C199.093 233.324 195.114 247.062 187.559 258.468C200.279 246.176 206.233 227.279 202.856 209.916C200.997 210.359 199.684 212.108 199.164 213.947C198.643 215.786 198.76 217.736 198.802 219.646Z" fill="white"/>
</g>
<g opacity="0.4">
<path d="M181.247 241.35C180.369 231.43 176.756 221.765 170.91 213.703C169.571 214.931 168.231 216.16 166.891 217.388C172.311 225.581 174.95 234.708 174.95 246.523C174.95 256.346 177.654 264.59 177.504 274.413C179.86 263.529 182.23 252.442 181.249 241.349L181.247 241.35Z" fill="white"/>
</g>
<g opacity="0.4">
<path d="M149.473 219.094C157.112 220.169 165.175 217.744 170.955 212.634C163.911 213.372 156.697 212.45 150.067 209.959C149.869 213.004 149.672 216.048 149.474 219.094H149.473Z" fill="white"/>
<path d="M153.097 219.617C159.662 219.617 166.201 217.198 171.133 212.836L171.767 212.276L170.927 212.365C163.929 213.099 156.749 212.18 150.161 209.706L149.82 209.579L149.187 219.329L149.436 219.363C150.65 219.534 151.875 219.618 153.097 219.618V219.617ZM170.127 212.985C164.515 217.622 156.984 219.803 149.76 218.86L150.313 210.339C156.616 212.648 163.442 213.556 170.127 212.985Z" fill="#371A45"/>
</g>
<g opacity="0.4">
<path d="M117.094 286.23C131.969 272.294 140.779 252.096 140.874 231.713C135.192 250.758 127.188 269.11 117.094 286.23Z" fill="white"/>
</g>
<g opacity="0.4">
<path d="M78.9202 266.325C80.1212 269.28 80.8695 273.114 78.54 275.293C76.9751 276.756 74.4961 276.844 72.4969 276.074C70.4977 275.304 68.8679 273.826 67.2878 272.38C69.0758 274.297 70.2227 276.713 71.7475 278.845C73.2724 280.978 75.4026 282.937 78.0115 283.191C82.0078 283.581 85.3932 279.587 85.6737 275.581C85.9542 271.575 83.9582 267.767 81.6655 264.471C78.6602 260.151 75.0366 256.262 70.9385 252.96C74.2568 256.976 76.9589 261.499 78.9202 266.326V266.325Z" fill="white"/>
</g>
<g opacity="0.4">
<path d="M48.9528 248.456C47.0532 245.836 45.1536 243.216 43.2541 240.596C46.1619 241.487 49.4509 241.034 52.01 239.391C54.5691 237.748 56.3507 234.946 56.7514 231.932C57.777 233.695 58.8025 235.455 59.8281 237.217C55.1789 239.748 51.3299 243.725 48.9528 248.456Z" fill="white"/>
<path d="M48.995 248.974L49.1954 248.577C51.5422 243.905 55.3641 239.955 59.9581 237.455L60.2029 237.321L56.589 231.112L56.4839 231.896C56.0919 234.84 54.3645 237.558 51.8639 239.163C49.3633 240.767 46.1738 241.206 43.3343 240.336L42.561 240.099L48.9961 248.973L48.995 248.974ZM59.4545 237.113C55.0035 239.599 51.2812 243.423 48.9138 247.939L43.9202 241.052C46.7143 241.686 49.7401 241.168 52.1563 239.618C54.5757 238.064 56.3084 235.523 56.8933 232.713L59.4545 237.115V237.113Z" fill="#371A45"/>
</g>
<g opacity="0.4">
<path d="M48.2911 305.936C51.1794 305.975 53.6974 304.099 55.9662 302.312C63.5558 296.332 71.1443 290.353 78.7339 284.374C75.838 282.342 71.7454 282.844 68.6968 284.637C65.6471 286.431 63.3999 289.289 61.196 292.057C58.9921 294.825 56.6712 297.642 53.5468 299.301C48.8889 301.774 42.7537 301.116 38.7272 297.709C40.9083 301.546 43.8779 305.876 48.2922 305.935L48.2911 305.936Z" fill="white"/>
</g>
<g opacity="0.5">
<path d="M97.3895 231.255C100.91 228.988 103.859 225.841 105.895 222.182C106.228 221.586 106.544 220.941 106.519 220.258C106.495 219.576 106.012 218.862 105.33 218.816C97.0018 224.919 89.5563 229.629 81.227 235.732C81.0418 239.07 79.974 243.801 79.7899 247.14C81.1144 243.126 83.7222 239.546 87.1358 237.054C90.31 234.736 94.0843 233.383 97.3885 231.255H97.3895Z" fill="white"/>
</g>
<g opacity="0.5">
<path d="M119.728 211.13C123.984 206.506 128.242 201.881 132.498 197.256C135.29 194.223 138.266 190.707 138.044 186.591C129.561 196.295 119.258 204.402 107.832 210.364C109.548 212.459 111.698 214.755 114.401 214.578C116.567 214.436 118.259 212.728 119.729 211.13H119.728Z" fill="white"/>
</g>
<path d="M222.25 148.203C222.496 148.203 222.743 148.159 222.979 148.068C223.698 147.791 224.205 147.138 224.281 146.371C224.399 145.165 227.025 116.694 213.011 104.831C206.974 99.7202 198.86 98.4932 188.892 101.185C172.551 105.599 165.4 114.454 162.279 121.106C158.861 128.388 159.401 134.609 159.426 134.87C159.479 135.437 159.769 135.956 160.222 136.301C160.675 136.647 161.252 136.788 161.815 136.686C162.069 136.64 187.394 132.25 203.354 138.702C216.931 144.191 220.831 147.64 220.869 147.674C221.252 148.02 221.748 148.206 222.249 148.206L222.25 148.203ZM198.459 103.886C203.194 103.886 207.183 105.241 210.375 107.944C220.074 116.155 220.64 134.622 220.414 142.406C217.651 140.707 212.831 138.131 204.885 134.918C190.637 129.159 170.399 131.316 163.488 132.295C163.815 126.577 166.905 111.35 189.958 105.123C193.013 104.298 195.849 103.886 198.46 103.886H198.459Z" fill="#371A45"/>
<path d="M219.532 82.1422L216.44 85.8157C216.045 86.2857 216.105 86.9875 216.575 87.3828C216.743 87.5247 216.943 87.6081 217.146 87.6351L217.654 87.7023C219.366 87.6654 221.031 87.6481 222.402 88.0488C223.072 88.2633 223.666 88.5394 224.107 88.9834C224.557 89.3928 224.866 89.9343 225.031 90.5744C225.177 91.2101 225.205 91.9173 225.034 92.5833C224.881 93.2569 224.535 93.8461 224.07 94.4103C223.12 95.5225 221.675 96.3348 219.93 96.7582C219.875 96.7701 219.841 96.8243 219.853 96.8784C219.86 96.9131 219.886 96.9391 219.918 96.951C221.681 97.578 223.85 97.1936 225.468 95.8777C226.267 95.2225 226.924 94.2933 227.266 93.2721C227.622 92.2584 227.737 91.1527 227.542 90.0632C227.348 88.9867 226.849 87.8745 226.024 87.0622C225.232 86.237 224.205 85.6933 223.2 85.3912C221.17 84.8042 219.243 84.9428 217.46 85.1605L218.674 87.046L220.121 82.4671C220.179 82.2873 220.078 82.0946 219.898 82.0372C219.763 81.9938 219.619 82.0404 219.533 82.1433L219.532 82.1422Z" fill="#371A45"/>
<path d="M219.825 123.68C220.478 123.68 221.118 123.368 221.513 122.789C222.147 121.859 221.907 120.589 220.977 119.956C220.03 119.309 197.509 104.183 173.179 108.556C172.07 108.756 171.333 109.816 171.532 110.926C171.731 112.035 172.791 112.775 173.9 112.573C196.56 108.501 218.46 123.179 218.679 123.328C219.03 123.568 219.429 123.682 219.825 123.682V123.68Z" fill="#371A45"/>
<path d="M187.743 135.43C188.522 135.43 189.266 134.981 189.606 134.224C190.067 133.196 189.608 131.989 188.58 131.528C174.09 125.023 162.527 125.582 162.041 125.607C160.915 125.67 160.054 126.632 160.117 127.758C160.18 128.882 161.148 129.738 162.266 129.682C162.446 129.672 173.425 129.198 186.909 135.251C187.18 135.372 187.465 135.431 187.744 135.431L187.743 135.43Z" fill="#371A45"/>
<path d="M199.651 171.051C219.89 171.051 237.3 163.479 248.963 149.518C260.088 136.203 263.023 120.675 261.042 111.882C258.394 100.138 263.139 87.7055 263.186 87.5821C263.595 86.5316 263.074 85.3489 262.023 84.9417C260.972 84.5324 259.791 85.0544 259.383 86.1049C259.167 86.6593 254.142 99.835 257.061 112.78C258.828 120.625 256.069 134.65 245.831 146.903C237.693 156.645 222.488 168.022 196.284 166.899C195.129 166.849 193.938 166.774 192.744 166.675C189.037 166.367 185.169 165.804 181.247 165.001C180.273 164.801 179.31 164.586 178.385 164.359C169.866 162.302 162.308 158.977 155.912 154.477C150.501 150.668 145.826 145.955 142.014 140.47C132.738 127.134 130.454 112.072 129.919 104.281C129.682 100.837 129.783 98.7087 129.784 98.687C129.839 97.5618 128.973 96.6044 127.849 96.5481C126.707 96.4994 125.766 97.3571 125.709 98.4812C125.704 98.5765 125.594 100.85 125.848 104.56C126.412 112.771 128.829 128.659 138.664 142.799C142.748 148.677 147.761 153.729 153.564 157.814C160.382 162.611 168.409 166.147 177.421 168.325C178.391 168.562 179.405 168.79 180.43 168.999C184.508 169.834 188.538 170.42 192.405 170.741C193.653 170.845 194.9 170.924 196.108 170.976C197.297 171.027 198.479 171.053 199.65 171.053L199.651 171.051Z" fill="#371A45"/>
<path d="M127.724 106.469C128.766 106.469 129.655 105.674 129.754 104.616C129.857 103.494 129.031 102.501 127.909 102.397C121.176 101.777 115.668 97.7297 112.4 91.0032C108.202 82.3642 108.595 71.1878 113.358 63.8235C116.054 59.6464 120.048 58.1962 120.494 58.0457L119.187 54.1805L119.845 56.1115L119.182 54.1816C118.229 54.5054 113.303 56.3844 109.93 61.6098C104.434 70.1091 103.939 82.9306 108.729 92.7869C112.647 100.847 119.325 105.703 127.534 106.461C127.598 106.466 127.661 106.469 127.724 106.469Z" fill="#371A45"/>
<path d="M267.402 89.8758C269.76 89.8758 272.495 89.4751 275.217 88.1939C280.046 85.9229 283.603 81.5043 285.787 75.0616C286.032 74.3414 285.854 73.5444 285.328 72.9953C284.802 72.4451 284.011 72.235 283.283 72.4484C283.054 72.5123 277.598 73.9841 274.86 69.4897C274.945 66.6706 274.935 54.8975 269.659 42.4085C264.356 29.8534 252.582 14.385 226.529 10.5253C228.027 7.60337 229.496 3.253 226.84 0.597517C226.337 0.0939276 225.608 -0.110757 224.911 0.0581891C224.735 0.101509 207.133 4.35549 195.243 2.24474C179.093 -0.620845 166.658 2.36495 157.255 11.3711C153.626 11.4393 140.306 12.5212 133.135 24.381C131.147 26.0304 121.395 35.0495 117.835 55.7649C117.733 56.3573 117.898 56.9649 118.286 57.4252C118.632 57.8367 119.126 58.0923 119.657 58.1421C120.475 58.2428 131.073 59.7677 132.678 71.2463C132.803 72.1462 133.509 72.8545 134.408 72.9834C135.306 73.1101 136.184 72.6314 136.558 71.8029C136.599 71.712 140.627 62.8488 145.203 57.9862C147.109 57.5454 152.283 55.9209 155.848 50.7843C158.923 46.3538 159.994 40.5425 159.046 33.4727C164.122 37.6227 173.287 41.1782 188.316 34.9564C191.714 36.7087 203.846 42.1962 216.56 38.7025C219.671 43.6452 231.043 59.3702 249.95 59.6074C253.314 65.5465 260.146 79.4196 259.259 86.5933C259.145 87.5247 259.68 88.4149 260.556 88.7495C260.744 88.821 263.577 89.8769 267.401 89.8769L267.402 89.8758ZM280.684 76.8128C278.917 80.4885 276.516 83.0628 273.519 84.4836C269.602 86.342 265.504 85.8114 263.415 85.3305C263.443 74.5375 253.335 57.2909 252.882 56.522C252.507 55.8862 251.838 55.4877 251.078 55.5202C250.855 55.5256 250.629 55.5278 250.408 55.5278C230.601 55.5278 219.399 35.5109 219.286 35.3062C218.812 34.4409 217.786 34.0369 216.85 34.3499C203.391 38.8465 189.583 31.0089 189.446 30.9288C188.885 30.606 188.203 30.566 187.611 30.8226C171.985 37.6 163.656 33.111 159.422 28.1509C158.562 27.1448 157.134 26.8546 155.949 27.4448C154.757 28.0372 154.124 29.3584 154.409 30.6569C156.054 38.2249 155.424 44.1965 152.534 48.4039C149.227 53.2188 143.933 54.0852 143.88 54.0928C143.451 54.1589 143.045 54.3614 142.738 54.6679C139.785 57.6212 137.096 61.9781 135.268 65.3169C132.168 58.0154 125.622 55.4 122.218 54.5098C126.094 35.0528 135.828 27.4459 135.929 27.369C136.141 27.2076 136.325 27.0008 136.46 26.7712C143.315 15.0587 157.859 15.4485 158.008 15.4518C158.571 15.4724 159.126 15.2568 159.528 14.8551C168.107 6.27562 179.228 3.54433 194.53 6.26046C205.187 8.15353 219.421 5.44172 224.237 4.39556C224.246 5.95506 223.006 8.83473 221.51 10.9877C221.098 11.579 221.03 12.3436 221.329 12.9988C221.628 13.654 222.25 14.1035 222.966 14.1804C244.06 16.4536 258.505 26.4842 265.901 43.9939C271.458 57.1479 270.769 69.7333 270.762 69.859C270.739 70.2293 270.818 70.5997 270.99 70.9279C273.325 75.3887 277.368 76.7219 280.684 76.8096V76.8128ZM158.395 29.7873C158.395 29.7873 158.395 29.7895 158.395 29.7906C158.395 29.7906 158.395 29.7884 158.395 29.7873Z" fill="#371A45"/>
<path d="M163.11 181.606C163.144 181.606 163.179 181.606 163.215 181.604C163.766 181.576 165.963 181.261 171.089 178.406C172.292 177.738 173.652 176.922 175.129 175.983C176.2 175.304 177.645 176.083 179.432 178.301C180.14 179.179 181.424 179.317 182.301 178.61C183.179 177.903 183.317 176.619 182.611 175.742C178.278 170.36 174.692 171.426 172.94 172.54C171.531 173.436 170.241 174.209 169.106 174.839C166.527 176.276 164.856 176.953 163.911 177.269C162.473 175.284 160.288 171.639 160.288 168.702C160.288 167.896 159.815 167.168 159.08 166.839C158.343 166.511 157.485 166.647 156.886 167.185C156.848 167.218 153.619 170.122 149.716 173.927C147.061 167.859 140.983 152.501 142.363 141.897C142.508 140.779 141.721 139.756 140.603 139.611C139.49 139.466 138.462 140.253 138.317 141.371C136.413 156.002 146.797 177.422 147.239 178.328C147.53 178.919 148.086 179.335 148.736 179.443C149.384 179.552 150.048 179.339 150.514 178.874C152.909 176.479 155.219 174.284 156.913 172.704C158.325 177.003 161.38 180.681 161.547 180.88C161.936 181.343 162.508 181.608 163.11 181.608V181.606Z" fill="#371A45"/>
<path d="M185.093 185.962C185.658 185.962 186.206 185.726 186.596 185.301C195.483 175.617 194.706 169.087 194.589 168.374C194.405 167.262 193.353 166.509 192.243 166.694C191.143 166.876 190.394 167.906 190.557 169.005C190.573 169.159 190.95 173.451 185.552 180.251C184.805 178.88 183.797 177.222 182.613 175.749C181.907 174.87 180.624 174.732 179.745 175.437C178.867 176.143 178.727 177.428 179.433 178.306C181.623 181.031 183.202 184.689 183.217 184.726C183.49 185.363 184.067 185.818 184.751 185.935C184.866 185.954 184.98 185.964 185.094 185.964L185.093 185.962Z" fill="#371A45"/>
<path d="M158.25 170.743C158.611 170.743 158.975 170.647 159.306 170.447C160.27 169.862 160.576 168.608 159.993 167.644C156.122 161.261 156.672 156.572 156.678 156.525C156.821 155.414 156.043 154.387 154.934 154.235C153.831 154.079 152.801 154.843 152.638 155.951C152.602 156.196 151.816 162.03 156.503 169.76C156.887 170.393 157.56 170.743 158.25 170.743Z" fill="#371A45"/>
<path d="M170.097 178.658C170.619 178.658 171.141 178.459 171.539 178.061C172.247 177.354 178.486 171.047 179.789 167.181C180.149 166.113 179.575 164.955 178.507 164.596C177.436 164.235 176.282 164.81 175.922 165.877C175.17 168.11 171.065 172.765 168.655 175.174C167.858 175.971 167.858 177.262 168.655 178.059C169.054 178.458 169.577 178.657 170.099 178.657L170.097 178.658Z" fill="#371A45"/>
<path d="M177.853 191.803C178.618 191.803 179.35 191.372 179.699 190.637C181.932 185.928 183.062 181.348 183.062 177.027C183.062 175.9 182.15 174.985 181.022 174.985C179.895 174.985 178.982 175.895 178.982 177.023C178.982 180.741 177.982 184.732 176.011 188.89C175.528 189.908 175.962 191.124 176.98 191.607C177.263 191.742 177.561 191.805 177.853 191.805V191.803Z" fill="#371A45"/>
<path d="M149.219 222.085C149.262 222.085 149.305 222.085 149.348 222.085C159.175 222.061 167.258 219.773 173.375 215.284C173.636 215.092 173.848 214.842 173.992 214.552C174.151 214.235 177.659 207.051 174.531 199.095C175.682 197.605 177.84 194.576 179.701 190.639C180.182 189.62 179.746 188.404 178.727 187.923C177.709 187.441 176.493 187.878 176.011 188.897C173.633 193.93 170.656 197.407 170.625 197.441C170.097 198.054 169.979 198.923 170.327 199.653C172.997 205.261 171.147 210.764 170.525 212.308C165.168 216.067 158.044 217.984 149.339 218.005H149.22C141.519 218.005 131.737 216.075 119.321 212.108C118.248 211.765 117.1 212.357 116.756 213.431C116.413 214.504 117.006 215.652 118.079 215.995C130.901 220.092 141.092 222.086 149.221 222.086L149.219 222.085Z" fill="#371A45"/>
<path d="M104.194 189.666C105.237 189.666 106.127 188.87 106.223 187.81C106.863 180.791 108.138 172.984 113.086 163.482C122.63 145.153 139.756 143.72 140.48 143.668C141.602 143.588 142.45 142.613 142.372 141.491C142.294 140.369 141.315 139.523 140.203 139.597C139.388 139.652 120.101 141.174 109.468 161.598C104.18 171.753 102.807 180.36 102.161 187.44C102.058 188.562 102.886 189.555 104.008 189.657C104.07 189.662 104.133 189.666 104.195 189.666H104.194Z" fill="#371A45"/>
<path d="M169.547 287.563C174.778 287.563 178.185 286.165 178.425 286.063C179.114 285.772 179.588 285.127 179.661 284.382C179.674 284.246 180.985 270.682 181.964 258.472C182.092 256.932 182.21 255.402 182.322 253.918C182.72 248.614 182.961 244.61 183.037 242.016C183.053 241.43 183.062 240.912 183.062 240.462C183.062 231.393 174.37 213.5 174.001 212.742C173.506 211.73 172.286 211.309 171.272 211.805C170.259 212.3 169.839 213.522 170.334 214.534C170.421 214.712 178.982 232.334 178.982 240.463C178.982 240.88 178.972 241.362 178.957 241.901C178.883 244.43 178.646 248.371 178.253 253.612C178.14 255.085 178.024 256.605 177.897 258.141C177.097 268.109 176.076 278.983 175.724 282.677C173.186 283.407 166.587 284.649 158.495 281.077L159.19 249.928C159.2 249.481 159.062 249.043 158.799 248.681C158.443 248.191 149.986 236.637 143.275 231.1C142.407 230.383 141.121 230.505 140.403 231.375C139.686 232.243 139.809 233.53 140.678 234.247C146.201 238.804 153.332 248.173 155.094 250.535L154.386 282.317C154.368 283.111 154.813 283.843 155.526 284.194C160.832 286.801 165.686 287.563 169.546 287.563H169.547Z" fill="#371A45"/>
<path d="M111.223 292.925C114.564 292.925 116.764 292.251 116.96 292.188C117.39 292.051 117.763 291.775 118.02 291.404L135.102 266.67C135.128 266.633 135.152 266.595 135.176 266.556C139.335 259.577 141.982 251.611 142.827 243.52C143.217 239.808 143.613 236.238 144.002 232.911L144.071 232.336C144.217 231.219 143.43 230.194 142.312 230.048C141.192 229.902 140.17 230.689 140.024 231.806C140.008 231.925 139.994 232.046 139.98 232.17L139.951 232.422C139.558 235.779 139.16 239.365 138.768 243.095C137.984 250.579 135.542 257.948 131.704 264.408L115.093 288.46C113.016 288.92 106.176 289.889 98.792 284.933L108.502 253.479C109.32 250.831 109.496 247.994 109.015 245.277C108.939 244.841 108.849 244.339 108.748 243.785C107.963 239.428 106.503 231.319 106.229 224.693C106.182 223.566 105.216 222.696 104.106 222.738C102.98 222.784 102.105 223.734 102.151 224.861C102.436 231.767 103.93 240.055 104.731 244.508C104.83 245.057 104.918 245.553 104.995 245.987C105.365 248.07 105.228 250.244 104.601 252.274L94.4557 285.138C94.2023 285.959 94.4915 286.852 95.1781 287.37C101.184 291.888 107.078 292.924 111.219 292.924L111.223 292.925Z" fill="#371A45"/>
<path d="M192.909 214.526C197.912 214.526 201.933 212.678 204.202 211.326C205.592 210.501 206.393 209.824 206.481 209.75C206.944 209.353 207.205 208.771 207.193 208.161C206.677 181.785 198.263 168.461 197.905 167.906C197.294 166.96 196.031 166.688 195.085 167.299C194.139 167.909 193.866 169.17 194.475 170.116C194.555 170.241 202.4 182.776 203.088 207.198C202.827 207.378 202.501 207.59 202.118 207.819C199.601 209.318 194.464 211.564 188.323 209.786C187.794 209.635 187.256 209.452 186.712 209.236C185.797 206.096 182.756 195.935 179.746 189.002C179.444 188.253 178.71 187.724 177.854 187.724C176.727 187.724 175.814 188.635 175.814 189.762C175.814 190.042 175.872 190.324 175.983 190.581C179.401 198.439 183.021 211.164 183.057 211.292C183.221 211.871 183.633 212.349 184.182 212.596C185.194 213.051 186.206 213.425 187.194 213.707C189.201 214.287 191.119 214.525 192.909 214.525V214.526Z" fill="#371A45"/>
<path d="M149.34 222.085C149.433 222.085 149.529 222.078 149.624 222.065C150.741 221.911 151.519 220.88 151.364 219.764C150.731 215.208 151.316 209.925 153.1 204.062C156.847 191.686 164.678 180.877 164.757 180.77C165.421 179.86 165.222 178.583 164.313 177.92C163.403 177.255 162.127 177.453 161.462 178.362C161.124 178.824 153.147 189.82 149.195 202.877C147.237 209.307 146.607 215.179 147.322 220.326C147.464 221.347 148.337 222.086 149.34 222.086V222.085Z" fill="#371A45"/>
<path d="M171.359 196.902C170.78 197.184 170.081 197.488 169.418 197.759C168.745 198.036 168.062 198.3 167.373 198.554C165.995 199.057 164.596 199.528 163.181 199.951C160.351 200.803 157.46 201.48 154.533 202.002C151.606 202.519 148.643 202.886 145.657 203.039C142.672 203.203 139.669 203.174 136.669 202.945C136.569 202.938 136.481 203.012 136.472 203.113C136.465 203.207 136.532 203.291 136.622 203.307C139.598 203.844 142.619 204.187 145.659 204.334C148.699 204.49 151.755 204.428 154.806 204.208C157.857 203.983 160.905 203.594 163.926 203.013C165.438 202.728 166.943 202.389 168.443 202.008C169.193 201.816 169.942 201.612 170.69 201.39C171.45 201.166 172.162 200.943 172.974 200.648C174.035 200.263 174.583 199.091 174.197 198.03C173.812 196.969 172.639 196.421 171.578 196.807C171.511 196.831 171.447 196.858 171.386 196.888L171.358 196.902H171.359Z" fill="#371A45"/>
<path d="M183.165 262.907C183.645 262.907 184.143 262.85 184.654 262.734C190.109 261.501 197.514 253.508 200.19 245.964C205.265 231.648 205.204 210.456 205.199 209.56C205.192 208.437 204.28 207.532 203.158 207.532H203.148C202.02 207.538 201.113 208.457 201.118 209.583C201.118 209.795 201.178 230.962 196.343 244.599C193.994 251.221 187.457 257.916 183.753 258.753C182.834 258.961 182.564 258.691 182.464 258.589C182.177 258.302 181.979 257.994 181.858 257.644C181.514 256.644 181.848 255.381 182.19 254.498C183.058 252.217 185.083 249.387 187.751 246.725C188.336 246.141 188.511 245.264 188.195 244.502C187.88 243.738 187.135 243.241 186.309 243.241C185.469 243.235 184.043 242.959 183.574 242.459C183.514 242.396 183.447 242.325 183.461 242.076C183.476 241.765 183.622 241.082 184.445 239.864C185.102 238.891 185.637 238.252 186.108 237.687C187.734 235.74 188.35 234.627 188.35 230.627C188.35 225.761 189.768 212.094 189.782 211.957C189.899 210.836 189.085 209.833 187.965 209.716C186.844 209.602 185.841 210.412 185.724 211.533C185.665 212.103 184.27 225.55 184.27 230.627C184.27 233.524 184.047 233.791 182.977 235.071C182.469 235.679 181.837 236.436 181.064 237.581C179.999 239.159 179.449 240.562 179.386 241.868C179.316 243.166 179.74 244.347 180.614 245.268C181.136 245.82 181.766 246.223 182.417 246.518C180.9 248.344 179.289 250.644 178.379 253.038C177.529 255.235 177.402 257.235 178 258.973C178.321 259.908 178.853 260.75 179.577 261.475C180.521 262.419 181.761 262.907 183.163 262.907H183.165Z" fill="#371A45"/>
<path d="M177.57 307.475C181.889 307.475 185.752 307.386 187.921 307.325C188.032 307.321 188.142 307.31 188.251 307.289C188.476 307.246 193.78 306.174 195.988 301.963C197.314 299.435 197.238 296.453 195.765 293.096C193.217 287.286 188.115 285.291 180.594 287.162C180.24 286.508 179.827 285.109 179.651 283.894C179.491 282.779 178.462 282.004 177.341 282.166C176.226 282.326 175.451 283.361 175.613 284.476C175.826 285.955 176.535 289.536 178.514 290.836C179.285 291.343 180.193 291.493 181.068 291.254C188.495 289.241 190.778 291.885 192.029 294.736C192.975 296.892 193.093 298.681 192.382 300.052C191.244 302.244 188.286 303.085 187.607 303.252C176.072 303.572 162.719 303.303 159.017 302.339C158.451 299.268 156.998 290.054 158.43 282.756C158.647 281.65 157.926 280.578 156.821 280.362C155.711 280.146 154.643 280.865 154.426 281.971C152.525 291.66 155.125 303.749 155.236 304.259C155.359 304.815 155.707 305.296 156.2 305.584C158.854 307.135 169.093 307.476 177.57 307.476V307.475Z" fill="#371A45"/>
<path d="M276.814 195.379C277.341 195.379 277.872 195.325 278.397 195.213C281.717 194.491 284.25 191.538 284.754 188.252C288.15 188.107 291.446 185.928 292.668 182.695C293.953 179.313 292.766 175.281 290.06 172.958C291.764 168.864 290.816 163.703 287.551 160.64C283.772 157.098 277.391 156.828 273.328 160.039C272.162 160.962 271.271 162.048 270.409 163.097C269.668 163.998 268.969 164.849 268.172 165.494C265.47 167.677 260.872 167.331 258.528 164.767C257.882 164.058 256.83 163.897 256.001 164.377C255.171 164.858 254.788 165.851 255.079 166.764C256.678 171.766 259.962 176.183 264.257 179.195C263.12 181.066 262.783 183.421 263.487 185.518C264.327 188.034 266.59 189.95 269.168 190.481C270.501 193.389 273.613 195.379 276.815 195.379H276.814ZM282.699 183.94C282.195 183.94 281.702 184.126 281.32 184.476C280.792 184.959 280.556 185.682 280.698 186.384C281.111 188.429 279.573 190.781 277.534 191.224C275.499 191.662 273.122 190.158 272.652 188.128C272.437 187.202 271.613 186.548 270.664 186.548C270.641 186.548 270.619 186.548 270.596 186.548C269.211 186.548 267.793 185.534 267.356 184.224C266.911 182.898 267.449 181.216 268.58 180.391C269.143 179.98 269.457 179.31 269.413 178.615C269.369 177.92 268.974 177.295 268.363 176.957C265.672 175.47 263.351 173.348 261.598 170.832C264.764 171.43 268.178 170.735 270.737 168.668C271.858 167.76 272.723 166.706 273.56 165.687C274.319 164.763 275.036 163.89 275.858 163.24C278.358 161.264 282.434 161.436 284.758 163.616C287.08 165.794 287.513 169.85 285.704 172.471C285.364 172.965 285.257 173.583 285.412 174.162C285.568 174.741 285.971 175.222 286.514 175.476C288.525 176.422 289.638 179.173 288.85 181.249C288.063 183.33 285.402 184.651 283.272 184.022C283.083 183.966 282.888 183.939 282.696 183.939L282.699 183.94Z" fill="#371A45"/>
<path d="M69.8188 306.811C68.0048 306.502 66.1918 306.315 64.3778 306.142C62.5638 305.983 60.7509 305.842 58.9369 305.758C55.3089 305.578 51.682 305.526 48.055 305.561C44.4281 305.594 40.8001 305.679 37.1732 305.885C33.5462 306.081 29.9182 306.336 26.2913 306.814C25.9426 306.859 25.6967 307.18 25.7422 307.528C25.7812 307.821 26.0119 308.039 26.2913 308.076C29.9182 308.554 33.5462 308.808 37.1732 309.004C40.8012 309.21 44.4281 309.296 48.055 309.329C51.682 309.364 55.31 309.312 58.9369 309.132C60.7509 309.048 62.5638 308.907 64.3778 308.748C66.1918 308.573 68.0058 308.387 69.8188 308.078C70.1675 308.019 70.4025 307.688 70.3429 307.339C70.2964 307.064 70.0787 306.86 69.8188 306.815V306.811Z" fill="#371A45"/>
<path d="M115.115 309.479C116.842 309.479 118.514 308.762 119.705 307.51C120.898 306.258 121.527 304.552 121.434 302.829C121.069 296.227 120.414 294.027 118.182 289.363C117.697 288.348 116.478 287.918 115.461 288.404C114.444 288.89 114.015 290.108 114.502 291.125C116.485 295.27 117.025 296.983 117.36 303.052C117.392 303.664 117.177 304.249 116.75 304.697C116.32 305.15 115.74 305.398 115.116 305.398H115.106L95.4325 305.317C94.1556 305.311 92.9871 304.722 92.2268 303.699C91.4514 302.656 91.2197 301.337 91.5922 300.082C93.5936 293.309 98.0306 286.982 98.075 286.918C98.7248 285.999 98.506 284.725 97.5865 284.075C96.666 283.424 95.3946 283.643 94.7437 284.561C94.5455 284.841 89.8757 291.487 87.6794 298.923C86.9386 301.42 87.4032 304.049 88.953 306.132C90.4876 308.197 92.8441 309.387 95.4173 309.395L115.09 309.477C115.098 309.477 115.107 309.477 115.116 309.477L115.115 309.479Z" fill="#371A45"/>
<path d="M137.968 187.16C136.093 190.377 133.92 193.359 131.632 196.232C129.342 199.103 126.9 201.84 124.342 204.459C123.039 205.747 121.747 207.042 120.396 208.278L119.393 209.214L118.359 210.119C117.668 210.72 117.006 211.351 116.293 211.926C113.518 214.321 110.594 216.53 107.69 218.793L109.736 218.637C109.389 218.46 108.946 218.221 108.547 217.985C108.138 217.751 107.734 217.495 107.329 217.243C106.523 216.728 105.735 216.182 104.962 215.613C103.415 214.475 101.956 213.218 100.592 211.876C99.8922 211.22 99.2663 210.498 98.6121 209.802C98.0143 209.06 97.3645 208.357 96.823 207.575C95.6512 206.072 94.7069 204.425 93.8047 202.765L93.4398 205.117C94.8011 203.814 95.9848 202.511 97.1739 201.15C97.7641 200.474 98.3414 199.785 98.9024 199.089C99.472 198.397 100.035 197.7 100.572 196.984C101.669 195.57 102.729 194.129 103.743 192.657C104.249 191.919 104.766 191.19 105.261 190.448L106.711 188.195C107.656 186.681 108.606 185.17 109.469 183.607C109.906 182.83 110.353 182.059 110.773 181.271L111.999 178.893C113.596 175.706 115.023 172.432 116.192 169.057C116.249 168.895 116.163 168.716 116 168.66C115.868 168.614 115.729 168.661 115.649 168.765L115.642 168.773C114.559 170.195 113.581 171.663 112.562 173.103C111.53 174.536 110.568 176.004 109.532 177.422C107.55 180.315 105.482 183.136 103.451 185.97L100.316 190.155C99.798 190.855 99.2478 191.529 98.7193 192.22C98.1941 192.914 97.6569 193.597 97.1122 194.274C96.0379 195.639 94.9419 196.986 93.8427 198.325C92.7478 199.65 91.6106 201.008 90.5309 202.252L90.3857 202.42C89.8443 203.045 89.7836 203.924 90.1659 204.605V204.608C91.1796 206.484 92.2528 208.336 93.5557 210.015C94.1654 210.887 94.8791 211.671 95.5484 212.492C96.2696 213.264 96.9671 214.061 97.736 214.784C99.2403 216.264 100.84 217.639 102.535 218.888C103.383 219.512 104.248 220.112 105.139 220.681C105.589 220.962 106.035 221.244 106.5 221.51C106.968 221.785 107.409 222.029 107.959 222.307C108.622 222.642 109.384 222.569 109.959 222.182L110.005 222.15C113.217 220.089 116.308 217.822 119.202 215.315C119.938 214.704 120.626 214.036 121.34 213.398L122.395 212.425L123.409 211.408C124.08 210.723 124.777 210.068 125.418 209.354C126.062 208.643 126.714 207.943 127.342 207.22L129.195 205.023L130.944 202.742C131.502 201.963 132.063 201.185 132.6 200.393L134.14 197.965C135.1 196.303 136.035 194.63 136.804 192.869C137.583 191.119 138.285 189.326 138.714 187.445C138.764 187.228 138.627 187.011 138.41 186.962C138.233 186.922 138.058 187.004 137.971 187.152L137.969 187.157L137.968 187.16Z" fill="#371A45"/>
<path d="M76.595 249.76C78.4057 249.76 80.0768 249.208 81.4911 248.134C84.4466 245.889 85.6195 241.872 86.0354 239.889C97.9071 234.231 109.777 222.429 110.29 221.916C111.086 221.119 111.086 219.828 110.29 219.031C109.493 218.234 108.2 218.235 107.405 219.031C107.28 219.155 94.8769 231.483 83.3777 236.622C82.7225 236.915 82.2687 237.532 82.1843 238.245C82.024 239.545 81.1413 243.284 79.0154 244.89C78.1101 245.575 77.0498 245.81 75.7708 245.613C70.9212 244.861 67.5563 240.481 66.1474 236.959C64.9474 233.957 64.8619 231.004 65.934 229.614C69.2545 225.304 74.0976 225.828 74.1452 225.834C74.7387 225.906 75.3343 225.712 75.773 225.306L94.7307 207.767C95.5581 207.001 95.6079 205.711 94.8433 204.884C94.0787 204.056 92.7878 204.005 91.9604 204.771L73.6232 221.735C71.4854 221.739 66.4149 222.304 62.7024 227.122C60.6902 229.733 60.5613 233.976 62.3591 238.472C64.2521 243.207 68.6057 248.63 75.1459 249.644C75.6376 249.719 76.1206 249.757 76.595 249.757V249.76Z" fill="#371A45"/>
<path d="M78.2725 285.93C79.5342 285.93 80.8111 285.636 82.0023 285.024C82.4507 284.792 82.8373 284.549 83.1915 284.279L84.0416 283.652C89.136 279.841 90.1811 272.608 86.382 267.523L51.3765 220.703C49.543 218.242 46.8572 216.642 43.814 216.2C40.7665 215.756 37.7298 216.529 35.2638 218.373L34.3909 219.023C33.6913 219.549 33.0881 220.169 32.5932 220.874C30.5517 223.769 30.607 227.624 32.7296 230.466L50.4083 254.108C51.083 255.01 52.361 255.194 53.2631 254.52L57.3026 251.503L59.6679 254.667L55.6262 257.689C55.1919 258.014 54.9049 258.498 54.828 259.034C54.7511 259.571 54.8919 260.116 55.2168 260.549L55.5428 260.983L71.7389 282.645C73.3309 284.773 75.7708 285.928 78.2715 285.929L78.2725 285.93ZM42.144 220.16C42.5036 220.16 42.8664 220.186 43.2281 220.239C45.1905 220.524 46.9233 221.556 48.107 223.145L83.1146 269.966C85.5675 273.25 84.8918 277.92 81.6081 280.378L80.7407 281.018C80.5522 281.162 80.3616 281.279 80.1331 281.398C78.3635 282.308 76.2062 281.806 75.0084 280.203L59.7058 259.736L63.7464 256.716C64.1796 256.392 64.4666 255.909 64.5446 255.373C64.6215 254.838 64.4828 254.293 64.159 253.86L59.3495 247.428C59.0257 246.995 58.5426 246.708 58.0066 246.631C57.4694 246.553 56.9257 246.693 56.4936 247.016L52.4563 250.034L35.9992 228.026C34.9368 226.603 34.9086 224.674 35.9299 223.226C36.18 222.87 36.4843 222.558 36.8331 222.295L37.7038 221.647C39.0055 220.674 40.551 220.163 42.144 220.163V220.16Z" fill="#371A45"/>
<path d="M47.1974 309.196C48.8933 309.196 50.6023 308.675 52.0632 307.593L82.4724 285.094C82.9121 284.768 83.2035 284.28 83.2793 283.737C83.3551 283.195 83.21 282.645 82.8764 282.21L82.688 281.965C82.0869 281.185 81.0147 280.944 80.1386 281.395C78.3636 282.307 76.2063 281.805 75.0085 280.202L58.8092 258.535C58.65 258.321 58.4485 258.141 58.22 258.004C57.0244 257.293 56.5674 257.592 53.0022 259.914C52.5376 260.217 52.074 260.521 51.6571 260.796L49.2236 257.543L53.2664 254.52C53.6996 254.197 53.9866 253.714 54.0646 253.177C54.1415 252.641 54.0028 252.098 53.679 251.665L36.0003 228.024C34.9379 226.602 34.9098 224.673 35.9321 223.224C36.4465 222.495 36.427 221.516 35.8844 220.808L35.7014 220.569C35.0224 219.682 33.7553 219.506 32.8597 220.174L3.29192 242.275C-0.332848 244.986 -1.07901 250.142 1.62846 253.77C1.62846 253.77 1.62846 253.77 1.62846 253.771L40.6074 305.904C42.2156 308.057 44.6935 309.195 47.1984 309.195L47.1974 309.196ZM75.263 285.353L49.6362 304.313C47.8168 305.66 45.2317 305.278 43.8747 303.462L4.89583 251.328C3.53234 249.503 3.90813 246.907 5.73189 245.543L31.1561 226.54C31.3218 227.93 31.8471 229.286 32.7297 230.466L49.1868 252.475L45.144 255.497C44.7108 255.821 44.4238 256.304 44.3458 256.84C44.269 257.376 44.4076 257.92 44.7314 258.353L49.5409 264.785C50.1907 265.653 51.4069 265.861 52.3091 265.259C53.7917 264.267 55.4746 263.164 56.6248 262.433L71.7389 282.647C72.6736 283.896 73.9017 284.812 75.2619 285.353H75.263Z" fill="#371A45"/>
<path d="M57.1727 261.798C57.737 261.798 58.2936 261.564 58.6922 261.121C59.3441 260.396 59.3907 259.31 58.8048 258.532L58.4788 258.099C57.802 257.2 56.5251 257.018 55.6251 257.692L55.4616 257.815C54.9288 258.213 54.6245 258.847 54.6461 259.512C54.6667 260.177 55.01 260.79 55.5667 261.155C55.7551 261.278 55.9436 261.401 56.1309 261.512C56.4558 261.706 56.8164 261.8 57.1738 261.8L57.1727 261.798Z" fill="#371A45"/>
<path d="M51.1772 265.603C51.6018 265.603 52.0306 265.47 52.3967 265.196L63.7464 256.715C64.1796 256.391 64.4666 255.908 64.5446 255.372C64.6214 254.836 64.4828 254.292 64.159 253.859L59.3495 247.427C59.0257 246.994 58.5426 246.707 58.0065 246.63C57.4694 246.552 56.9257 246.691 56.4936 247.015L45.145 255.497C44.7118 255.821 44.4248 256.304 44.3468 256.84C44.2699 257.376 44.4086 257.92 44.7324 258.353L49.5419 264.785C49.9426 265.321 50.5567 265.604 51.1772 265.604V265.603ZM59.6679 254.668L51.5877 260.707L49.2214 257.543L57.3026 251.504L59.6679 254.668Z" fill="#371A45"/>
<path d="M19.3721 258.125C22.7304 258.125 26.6758 257.382 29.5078 254.549C29.6789 254.377 29.8186 254.177 29.9193 253.957C29.9442 253.905 32.8391 247.887 42.3163 240.348C43.1978 239.647 43.344 238.363 42.6423 237.482C41.9427 236.6 40.6582 236.453 39.7756 237.155C30.7153 244.362 27.2108 250.33 26.4007 251.875C23.3055 254.693 17.9772 254.144 15.3715 253.656C15.8307 247.296 18.8782 243.308 19.3439 242.733C24.7816 237.748 35.3483 231.037 35.4545 230.97C36.4064 230.366 36.6891 229.106 36.0859 228.154C35.4837 227.202 34.222 226.919 33.2712 227.522C32.8206 227.807 22.1608 234.577 16.4794 239.822C16.4253 239.873 16.3733 239.926 16.3235 239.982C16.1156 240.222 11.2324 245.942 11.2324 255.269C11.2324 256.173 11.828 256.97 12.6955 257.226C12.924 257.293 15.8199 258.125 19.371 258.125H19.3721Z" fill="#371A45"/>
<path d="M35.5595 273.219C35.8476 273.219 36.14 273.159 36.4183 273.029L41.9058 270.478C42.8112 270.057 43.279 269.043 43.0115 268.082C42.9812 267.969 39.885 256.249 46.1436 244.205C46.6623 243.205 46.2735 241.973 45.2739 241.454C44.2732 240.935 43.0419 241.324 42.522 242.324C36.9057 253.132 37.9746 263.478 38.7045 267.466L36.6522 268.421C33.0914 257.575 39.8351 242.267 39.9077 242.104C40.368 241.076 39.9077 239.869 38.88 239.408C37.8511 238.947 36.6457 239.407 36.1844 240.435C35.8378 241.207 27.7685 259.491 33.7141 272.052C34.0628 272.788 34.7949 273.219 35.5595 273.219Z" fill="#371A45"/>
<path d="M152.299 226.728C150.342 227.005 148.403 227.396 146.459 227.954C145.488 228.241 144.512 228.551 143.54 228.974C142.566 229.397 141.585 229.882 140.607 230.629L140.502 230.709C139.589 231.405 139.413 232.709 140.109 233.622C140.805 234.535 142.109 234.71 143.022 234.015C143.209 233.873 143.368 233.699 143.492 233.515C143.899 232.904 144.515 232.277 145.187 231.689C145.862 231.094 146.625 230.548 147.406 230.018C148.98 228.964 150.68 228.013 152.426 227.171L152.432 227.167C152.548 227.111 152.597 226.972 152.541 226.857C152.495 226.763 152.396 226.714 152.299 226.728Z" fill="#371A45"/>
<path d="M115.648 212.987C115.641 212.996 115.546 212.977 115.48 212.967C115.412 212.96 115.327 212.937 115.249 212.921C115.092 212.89 114.928 212.846 114.764 212.799C114.435 212.716 114.101 212.596 113.769 212.481C113.438 212.351 113.1 212.233 112.776 212.075C112.444 211.931 112.116 211.777 111.796 211.6C110.503 210.921 109.27 210.071 108.12 209.089C107.575 208.571 106.986 208.076 106.487 207.497C106.23 207.213 105.959 206.937 105.711 206.641L104.992 205.732L104.631 205.273L104.305 204.788L103.649 203.814C103.234 203.149 102.864 202.454 102.465 201.766C102.706 202.516 102.922 203.285 103.191 204.038L103.634 205.154L103.857 205.717L104.119 206.26L104.652 207.353C104.84 207.713 105.056 208.057 105.26 208.412C105.653 209.133 106.151 209.786 106.619 210.472C107.618 211.792 108.765 213.03 110.071 214.129C110.393 214.411 110.732 214.673 111.082 214.926C111.422 215.192 111.79 215.423 112.154 215.666C112.528 215.897 112.9 216.128 113.303 216.335C113.501 216.441 113.703 216.546 113.918 216.643C114.026 216.692 114.125 216.742 114.245 216.79C114.367 216.839 114.458 216.882 114.643 216.942L117.429 217.843C119.155 218.401 121.008 217.453 121.566 215.727C122.124 214 121.176 212.147 119.45 211.59C117.983 211.115 116.423 211.731 115.645 212.987H115.648Z" fill="#371A45"/>
<path d="M202.993 198.657C202.275 198.794 201.979 198.959 201.63 199.1C201.301 199.246 200.988 199.392 200.688 199.537L198.901 200.394C197.721 200.951 196.537 201.476 195.331 201.943C194.124 202.413 192.896 202.826 191.638 203.12C190.379 203.415 189.088 203.616 187.768 203.595C187.716 203.593 187.673 203.634 187.671 203.686C187.67 203.73 187.7 203.768 187.74 203.78C189.036 204.127 190.401 204.255 191.762 204.274C193.128 204.296 194.492 204.187 195.845 204.015C197.198 203.846 198.543 203.611 199.868 203.347L201.833 202.944C202.158 202.876 202.471 202.816 202.771 202.764C203.051 202.711 203.389 202.684 203.324 202.724C204.447 202.632 205.283 201.648 205.191 200.525C205.099 199.402 204.115 198.566 202.992 198.658L202.993 198.657Z" fill="#371A45"/>
<path d="M123.796 210.627C125.068 210.899 126.245 211.07 127.471 211.225C128.686 211.37 129.9 211.483 131.119 211.528C132.339 211.568 133.555 211.573 134.766 211.47C135.974 211.363 137.174 211.175 138.309 210.825C135.932 210.837 133.672 210.252 131.484 209.521C130.39 209.154 129.317 208.723 128.262 208.269C127.22 207.813 126.144 207.312 125.203 206.797C124.203 206.25 122.949 206.618 122.403 207.617C121.856 208.617 122.223 209.871 123.223 210.418C123.401 210.514 123.586 210.582 123.773 210.624L123.798 210.628L123.796 210.627Z" fill="#371A45"/>
<path d="M165.113 190.749C166.497 190.853 167.904 190.803 169.307 190.648C170.713 190.494 172.116 190.211 173.504 189.813C174.205 189.629 174.882 189.368 175.574 189.122C176.241 188.827 176.939 188.57 177.588 188.208C178.932 187.558 180.17 186.686 181.387 185.752C182.289 185.059 182.458 183.765 181.765 182.863C181.072 181.961 179.779 181.792 178.877 182.485C178.745 182.587 178.629 182.701 178.528 182.825L178.473 182.896C177.704 183.86 176.885 184.837 175.896 185.659C175.43 186.105 174.892 186.465 174.377 186.871C173.833 187.231 173.294 187.614 172.712 187.934C171.565 188.601 170.347 189.185 169.072 189.657C167.799 190.13 166.476 190.515 165.112 190.751L165.113 190.749Z" fill="#371A45"/>
<path d="M194.836 22.2291C193.966 24.1373 192.843 25.9069 191.564 27.4556C190.926 28.2321 190.22 28.9263 189.498 29.548C188.769 30.1663 187.984 30.6559 187.208 31.0555C186.193 31.5796 185.796 32.8262 186.32 33.8409C186.844 34.8557 188.091 35.2531 189.106 34.729C189.303 34.6272 189.477 34.4983 189.625 34.3488L189.638 34.3348C190.506 33.4532 191.254 32.5208 191.859 31.5363C192.456 30.5486 192.966 29.5436 193.369 28.5137C193.774 27.4859 194.104 26.4484 194.365 25.4034C194.622 24.3583 194.824 23.3099 194.936 22.2551C194.94 22.227 194.919 22.201 194.891 22.1977C194.868 22.1955 194.847 22.2107 194.837 22.2302L194.836 22.2291Z" fill="#371A45"/>
<path d="M144.817 54.173C144.671 54.16 144.394 54.0907 144.17 54.0322C143.933 53.9672 143.694 53.8968 143.454 53.8145C142.975 53.6575 142.502 53.4658 142.036 53.2557C141.105 52.829 140.219 52.2972 139.405 51.6593C138.578 51.0301 137.869 50.2569 137.262 49.3883C136.621 48.5284 136.23 47.5137 135.872 46.4599L135.864 46.435C135.817 46.2975 135.669 46.2238 135.531 46.2704C135.416 46.3094 135.347 46.4199 135.354 46.5346C135.425 47.6837 135.554 48.8923 135.998 50.0197C136.406 51.1536 136.984 52.2647 137.735 53.2438C138.475 54.2336 139.343 55.1379 140.303 55.935C140.785 56.3314 141.284 56.7104 141.811 57.058C142.072 57.2346 142.343 57.4024 142.622 57.566C142.913 57.7327 143.158 57.8768 143.543 58.0501L143.78 58.1573C144.832 58.6305 146.068 58.1616 146.54 57.11C147.013 56.0584 146.544 54.8228 145.493 54.3495C145.275 54.252 145.041 54.1935 144.816 54.174L144.817 54.173Z" fill="#371A45"/>
<path d="M228.785 25.4998C228.249 26.7517 227.49 27.8726 226.637 28.8798C225.776 29.8804 224.825 30.7793 223.768 31.5114C223.521 31.7118 223.231 31.8612 222.967 32.0377C222.7 32.2089 222.436 32.38 222.146 32.5175L221.309 32.9529L220.44 33.3168C219.878 33.5799 219.256 33.7261 218.674 33.9243C218.079 34.0954 217.459 34.2037 216.867 34.3456L216.694 34.3878C215.586 34.6553 214.903 35.7697 215.171 36.8776C215.438 37.9855 216.553 38.6678 217.661 38.4003C217.823 38.3613 217.985 38.2985 218.128 38.2259C218.795 37.8805 219.466 37.5707 220.106 37.1949C220.734 36.7899 221.38 36.4412 221.958 35.9733L222.835 35.3073L223.656 34.5741C223.933 34.3391 224.184 34.0716 224.433 33.8063C224.677 33.5355 224.943 33.294 225.163 33.0027C226.107 31.911 226.873 30.6916 227.495 29.4342C228.109 28.1736 228.577 26.8513 228.788 25.4998H228.787H228.785Z" fill="#371A45"/>
<path d="M259.219 47.2613C258.878 48.3746 258.39 49.4241 257.823 50.3998C257.253 51.3734 256.578 52.2626 255.825 53.0217C255.086 53.7972 254.211 54.3776 253.331 54.8184L252.663 55.1206L251.967 55.3274C251.852 55.3599 251.742 55.4011 251.627 55.4281L251.269 55.4823L250.575 55.5949L250.428 55.6188C249.298 55.8029 248.531 56.8674 248.715 57.997C248.9 59.1266 249.964 59.8933 251.094 59.7092C251.297 59.6756 251.498 59.6096 251.674 59.524L252.612 59.0637L253.071 58.8309C253.22 58.7443 253.361 58.6425 253.506 58.5482L254.351 57.9721L255.116 57.3028C256.086 56.3779 256.904 55.3426 257.477 54.2174C258.066 53.1019 258.487 51.9442 258.771 50.7756C259.048 49.6071 259.213 48.4288 259.218 47.2603L259.219 47.2613Z" fill="#371A45"/>
<path d="M166.642 250.948C165.13 250.642 163.654 250.222 162.237 249.721C161.527 249.473 160.835 249.195 160.165 248.896C159.491 248.604 158.852 248.266 158.237 247.925C157.227 247.364 155.954 247.728 155.393 248.738C154.832 249.748 155.196 251.021 156.207 251.582C156.477 251.732 156.765 251.816 157.055 251.839L157.089 251.841C157.933 251.905 158.759 251.945 159.576 251.928C160.391 251.917 161.196 251.876 161.99 251.801C163.577 251.655 165.131 251.413 166.647 251.056C166.677 251.049 166.694 251.019 166.688 250.99C166.682 250.968 166.664 250.952 166.643 250.948H166.642Z" fill="#371A45"/>
<path d="M115.94 253.905C115.138 253.52 114.37 253.04 113.661 252.521C112.952 251.999 112.301 251.42 111.725 250.802C111.14 250.193 110.657 249.517 110.259 248.835C109.843 248.159 109.597 247.422 109.385 246.725L109.379 246.708C109.046 245.614 107.889 244.997 106.795 245.33C105.701 245.664 105.084 246.82 105.418 247.914C105.487 248.14 105.596 248.353 105.727 248.535C106.377 249.421 107.067 250.247 107.878 250.905C108.673 251.576 109.514 252.149 110.396 252.595C111.273 253.05 112.172 253.414 113.082 253.693C113.996 253.969 114.909 254.173 115.846 254.277C115.952 254.289 116.047 254.212 116.059 254.106C116.069 254.022 116.022 253.945 115.951 253.911L115.939 253.905H115.94Z" fill="#371A45"/>
<path d="M259.892 117.656C260.107 117.656 260.326 117.621 260.542 117.548C263.051 116.705 265.289 114.606 266.845 111.636C268.897 107.718 269.573 103.166 268.744 98.8213C267.917 94.4764 265.618 90.491 262.269 87.6005C261.416 86.864 260.127 86.9593 259.391 87.8116C258.655 88.665 258.75 89.9527 259.603 90.6892C262.257 92.9808 264.08 96.1387 264.736 99.5837C265.391 103.028 264.856 106.636 263.23 109.742C262.18 111.746 260.727 113.181 259.242 113.679C258.174 114.037 257.599 115.195 257.958 116.263C258.244 117.115 259.04 117.654 259.892 117.654V117.656Z" fill="#371A45"/>
</svg>
