<svg width="274" height="379" viewBox="0 0 274 379" fill="none" xmlns="http://www.w3.org/2000/svg">
<g opacity="0.2">
<path d="M156.893 378.999C200.43 378.999 235.724 374.439 235.724 368.814C235.724 363.188 200.43 358.628 156.893 358.628C113.355 358.628 78.0612 363.188 78.0612 368.814C78.0612 374.439 113.355 378.999 156.893 378.999Z" fill="#000072"/>
</g>
<path d="M98.1777 263.398C105.541 263.398 111.51 260.036 111.51 255.89C111.51 251.743 105.541 248.382 98.1777 248.382C90.8147 248.382 84.8458 251.743 84.8458 255.89C84.8458 260.036 90.8147 263.398 98.1777 263.398Z" fill="#FDC7A3"/>
<path d="M91.948 264.544C91.3501 264.544 90.7579 264.278 90.3612 263.77C89.6763 262.893 89.8311 261.626 90.7059 260.94C92.3424 259.658 93.2918 256.602 93.5201 255.532C93.7518 254.445 94.8198 253.749 95.9059 253.978C96.9921 254.208 97.6883 255.273 97.4611 256.362C97.3481 256.901 96.2721 261.699 93.1889 264.115C92.8205 264.404 92.3831 264.543 91.9491 264.543L91.948 264.544Z" fill="#000072"/>
<path d="M99.9544 264.655C99.5509 264.655 99.1508 264.487 98.866 264.157C98.3461 263.555 98.4128 262.646 99.014 262.126C100.988 260.417 100.63 256.132 100.626 256.089C100.548 255.298 101.126 254.593 101.918 254.516C102.709 254.441 103.412 255.017 103.488 255.81C103.512 256.045 104.016 261.604 100.895 264.306C100.623 264.541 100.288 264.656 99.9544 264.656V264.655Z" fill="#000072"/>
<path d="M98.1777 265.414C89.5723 265.414 82.8329 261.231 82.8329 255.89C82.8329 250.549 89.5734 246.366 98.1777 246.366C106.782 246.366 113.522 250.549 113.522 255.89C113.522 261.231 106.782 265.414 98.1777 265.414ZM98.1777 250.399C91.5072 250.399 86.8598 253.292 86.8598 255.89C86.8598 258.487 91.5083 261.381 98.1777 261.381C104.847 261.381 109.496 258.487 109.496 255.89C109.496 253.292 104.847 250.399 98.1777 250.399Z" fill="#000072"/>
<path d="M232.86 238.58C230.025 240.912 225.594 242.56 218.979 242.877L218.439 224.461L218.364 221.875C218.364 221.875 224.445 215.452 230.388 216.414C234.897 217.139 241.778 231.241 232.862 238.581L232.86 238.58Z" fill="#F28B51"/>
<g opacity="0.3">
<path d="M230.409 240.952C227.573 243.284 223.143 244.932 216.528 245.249L215.988 226.833L215.913 224.247C215.913 224.247 221.994 217.824 227.936 218.786C232.446 219.512 239.326 233.613 230.41 240.953L230.409 240.952Z" fill="#000072"/>
</g>
<path d="M234.179 249.145C226.362 247.634 218.363 257.724 218.363 257.724L218.462 261.789L219.173 286.634C226.79 290.338 233.837 289.907 237.433 283.971C249.162 272.441 240.112 250.285 234.179 249.145Z" fill="#F28B51"/>
<g opacity="0.3">
<path d="M230.537 253.501C222.719 252.097 214.721 261.469 214.721 261.469L214.819 265.244L215.53 288.322C223.147 291.762 230.194 291.362 233.789 285.849C245.519 275.139 236.468 254.56 230.536 253.501H230.537Z" fill="#000072"/>
</g>
<path d="M232.86 239.995C232.549 239.995 232.237 239.892 231.978 239.685C230.751 238.703 230.193 237.134 230.317 235.025C230.65 229.487 229.617 225.396 227.552 224.081C226.061 223.131 223.822 223.457 220.897 225.048C220.106 225.478 219.352 225.751 218.656 225.86C218.256 225.922 217.847 225.809 217.536 225.55C217.224 225.289 217.039 224.909 217.027 224.503L216.953 221.917C216.942 221.541 217.082 221.175 217.339 220.903C217.608 220.617 224.011 213.947 230.612 215.019C233.478 215.479 236.641 219.533 237.97 224.448C239.622 230.562 238.088 236.112 233.758 239.675C233.498 239.889 233.179 239.997 232.86 239.997V239.995ZM225.602 220.719C226.891 220.719 228.048 221.044 229.067 221.693C233.158 224.298 233.374 231.268 233.137 235.192C233.112 235.622 233.125 235.999 233.177 236.323C236.662 232.404 235.82 227.328 235.242 225.186C234.049 220.771 231.482 218.023 230.163 217.811C225.879 217.118 221.284 221.047 219.845 222.402C221.982 221.281 223.906 220.719 225.602 220.719Z" fill="#000072"/>
<path d="M218.979 244.894C218.473 244.894 217.985 244.702 217.612 244.357C217.215 243.989 216.983 243.478 216.966 242.937L216.352 221.934C216.336 221.397 216.535 220.878 216.903 220.488C217.181 220.194 223.796 213.302 230.709 214.424C234.26 214.996 237.342 219.821 238.55 224.29C240.267 230.643 238.659 236.419 234.14 240.138C230.686 242.979 225.618 244.578 219.076 244.891C219.045 244.893 219.012 244.894 218.98 244.894H218.979ZM220.402 222.695L220.93 240.715C225.581 240.256 229.158 239.018 231.582 237.022C236.02 233.369 235.417 228.136 234.662 225.342C233.511 221.087 231.059 218.563 230.068 218.404C226.504 217.829 222.317 220.912 220.402 222.694V222.695Z" fill="#000072"/>
<path d="M237.433 285.669C237.012 285.669 236.59 285.513 236.262 285.198C234.776 283.775 234.098 281.498 234.249 278.43C234.728 268.94 233.129 262.189 229.976 260.369C228.057 259.261 225.284 259.871 221.73 262.18C220.69 262.856 219.695 263.285 218.771 263.457C218.284 263.547 217.779 263.419 217.394 263.106C217.008 262.792 216.779 262.326 216.766 261.828L216.668 257.764C216.658 257.367 216.788 256.979 217.035 256.667C217.388 256.223 225.777 245.793 234.5 247.476C238.336 248.214 241.731 254.106 243.393 259.618C246.433 269.698 244.648 279.255 238.62 285.18C238.29 285.504 237.862 285.667 237.432 285.667L237.433 285.669ZM227.882 256.434C229.257 256.434 230.521 256.765 231.669 257.428C237.615 260.858 237.96 272.165 237.636 278.6C237.589 279.541 237.638 280.355 237.778 281.027C243.429 273.654 241.072 263.67 240.147 260.601C238.273 254.388 235.287 251.087 233.86 250.813C228.024 249.686 221.676 256.477 220.073 258.327L220.095 259.198C222.981 257.358 225.585 256.435 227.882 256.435V256.434Z" fill="#000072"/>
<path d="M228.259 291.04C225.239 291.04 221.866 290.184 218.294 288.447C217.62 288.119 217.183 287.442 217.162 286.691L216.451 261.845L216.353 257.772C216.326 256.658 217.205 255.735 218.317 255.708C219.449 255.684 220.351 256.562 220.379 257.675L220.477 261.739L221.152 285.321C224.973 286.962 232.083 288.919 235.713 282.924C236.289 281.972 237.527 281.669 238.479 282.246C239.429 282.824 239.733 284.064 239.156 285.016C236.743 289.001 232.92 291.04 228.259 291.04Z" fill="#000072"/>
<path d="M98.8112 139.328C103.402 134.731 103.402 127.277 98.8112 122.68C94.2204 118.083 86.7774 118.083 82.1867 122.68C77.596 127.277 77.596 134.731 82.1867 139.328C86.7774 143.925 94.2204 143.925 98.8112 139.328Z" fill="#FDC7A3"/>
<path d="M90.4991 144.793C82.9064 144.793 76.7298 138.608 76.7298 131.004C76.7298 123.401 82.9064 117.216 90.4991 117.216C98.0918 117.216 104.268 123.401 104.268 131.004C104.268 138.608 98.0918 144.793 90.4991 144.793ZM90.4991 121.25C85.1272 121.25 80.7567 125.626 80.7567 131.006C80.7567 136.385 85.1272 140.761 90.4991 140.761C95.8709 140.761 100.241 136.385 100.241 131.006C100.241 125.626 95.8709 121.25 90.4991 121.25Z" fill="#000072"/>
<path d="M197.885 211.347C197.885 211.347 176.781 221.79 175.834 241.085C174.887 260.381 175.834 284.996 175.834 284.996C175.834 284.996 183.12 288.679 195.009 284.996" fill="#F28B51"/>
<g opacity="0.3">
<path d="M197.885 211.347C197.885 211.347 176.781 221.79 175.834 241.085C174.887 260.381 175.834 284.996 175.834 284.996C175.834 284.996 183.12 288.679 195.009 284.996" fill="#000072"/>
</g>
<g opacity="0.3">
<path d="M175.833 284.996C175.833 284.996 183.119 288.679 195.008 284.996H175.833Z" fill="#000072"/>
</g>
<path d="M182.163 288.728C175.552 288.728 170.238 285.111 169.992 284.941C169.076 284.308 168.847 283.053 169.479 282.137C170.109 281.221 171.362 280.991 172.276 281.62C172.33 281.658 177.806 285.352 183.829 284.594C184.935 284.458 185.939 285.24 186.077 286.344C186.215 287.449 185.432 288.457 184.328 288.595C183.595 288.687 182.872 288.729 182.163 288.729V288.728Z" fill="#000072"/>
<path d="M152.44 340.07C152.44 340.07 162.219 349.671 161.644 360.233C161.644 360.233 147.071 371.562 143.811 371.754C140.551 371.946 126.745 368.49 126.745 368.49C126.745 368.49 124.636 359.849 134.798 359.657C134.798 359.657 137.252 348.328 136.217 343.143" fill="white"/>
<path d="M143.548 372.913C139.782 372.913 127.853 369.956 126.465 369.608C126.051 369.504 125.729 369.179 125.627 368.764C125.586 368.599 124.668 364.696 126.973 361.697C128.411 359.827 130.722 358.769 133.85 358.545C134.386 355.833 135.904 347.453 135.088 343.369C134.963 342.746 135.367 342.138 135.991 342.014C136.615 341.886 137.219 342.294 137.345 342.917C138.414 348.274 136.025 359.427 135.922 359.9C135.809 360.422 135.352 360.797 134.819 360.808C131.959 360.862 129.936 361.63 128.806 363.089C127.641 364.594 127.654 366.548 127.76 367.554C132.015 368.599 141.363 370.742 143.742 370.603C145.697 370.488 154.571 364.239 160.513 359.651C160.711 349.943 151.724 340.984 151.632 340.893C151.178 340.447 151.172 339.717 151.617 339.264C152.061 338.811 152.789 338.803 153.243 339.249C153.658 339.656 163.388 349.341 162.791 360.296C162.773 360.629 162.612 360.938 162.348 361.144C159.867 363.072 147.319 372.702 143.877 372.905C143.776 372.911 143.665 372.914 143.547 372.914L143.548 372.913Z" fill="#000072"/>
<g opacity="0.3">
<path d="M141.791 360.801C141.612 360.732 138.753 359.633 134.797 359.657C134.861 359.328 135.106 358.105 135.199 357.61C139.444 358.354 141.659 360.658 141.791 360.802V360.801Z" fill="#000072"/>
</g>
<g opacity="0.3">
<path d="M161.643 360.231C161.643 360.231 147.071 371.563 143.81 371.753C140.548 371.949 126.741 368.492 126.741 368.492C126.741 368.492 126.108 365.9 127.207 363.527C131.751 364.892 139.701 367.202 141.985 367.34C145.247 367.53 153.013 361.193 153.686 358.988C153.961 358.078 153.717 356.181 153.336 354.265C152.77 351.421 149.905 349.711 147.104 350.446C142.883 351.555 138.799 351.776 136.107 351.718C136.47 348.642 136.654 345.341 136.217 343.146L152.439 340.07C152.439 340.07 162.218 349.673 161.643 360.233V360.231Z" fill="#000072"/>
</g>
<path d="M143.577 373.775C139.675 373.775 127.654 370.795 126.256 370.446C125.532 370.265 124.967 369.695 124.789 368.969C124.745 368.788 123.736 364.494 126.29 361.17C127.78 359.232 130.076 358.082 133.131 357.744C133.855 353.956 134.919 346.93 134.242 343.539C134.024 342.447 134.732 341.385 135.821 341.167C136.913 340.95 137.973 341.657 138.19 342.749C139.294 348.281 136.869 359.606 136.765 360.084C136.567 360.998 135.768 361.655 134.836 361.673C132.257 361.722 130.46 362.375 129.496 363.611C128.698 364.635 128.555 365.941 128.579 366.866C133.889 368.157 141.712 369.862 143.692 369.742C145.419 369.521 153.157 364.222 159.654 359.224C159.593 350.028 151.117 341.598 151.029 341.511C150.235 340.732 150.222 339.456 151.001 338.66C151.78 337.865 153.055 337.853 153.848 338.632C154.274 339.049 164.271 349.001 163.654 360.344C163.622 360.928 163.338 361.467 162.878 361.826C158.348 365.348 147.433 373.561 143.928 373.767C143.82 373.774 143.702 373.776 143.577 373.776V373.775Z" fill="#000072"/>
<path d="M179.86 310.308C179.86 310.308 187.242 306.468 200.905 311.268C200.905 311.268 205.169 336.614 203.637 342.183C202.104 347.752 195.776 342.183 195.776 342.183C195.776 342.183 185.038 327.398 178.135 322.597" fill="white"/>
<path d="M200.929 345.808C198.239 345.808 195.374 343.364 195.016 343.049C194.952 342.994 194.895 342.93 194.845 342.861C194.739 342.715 184.141 328.178 177.478 323.544C176.956 323.182 176.827 322.463 177.189 321.941C177.552 321.419 178.268 321.289 178.79 321.652C185.537 326.343 195.555 339.93 196.626 341.398C197.673 342.285 200.06 343.842 201.383 343.445C201.575 343.388 202.16 343.212 202.526 341.879C203.691 337.646 201.111 319.597 199.881 312.137C187.342 307.925 180.453 311.301 180.384 311.336C179.819 311.625 179.126 311.401 178.838 310.836C178.549 310.271 178.767 309.581 179.328 309.289C179.648 309.122 187.313 305.274 201.285 310.184C201.68 310.323 201.969 310.666 202.039 311.079C202.215 312.125 206.327 336.743 204.744 342.491C204.161 344.611 202.952 345.381 202.04 345.653C201.677 345.762 201.304 345.809 200.928 345.811L200.929 345.808Z" fill="#000072"/>
<g opacity="0.3">
<path d="M203.637 342.183C202.101 347.754 195.773 342.183 195.773 342.183C195.773 342.183 195.572 341.902 195.198 341.406C196.026 339.782 196.791 337.823 197.406 335.461C199.141 328.804 195.363 324.17 192.092 321.542C190.325 320.123 187.692 320.778 186.826 322.875C186.027 324.811 185.004 326.496 183.996 327.88C181.954 325.738 179.917 323.836 178.134 322.598L179.86 310.311C179.86 310.311 187.24 306.468 200.903 311.267C200.903 311.267 205.166 336.613 203.636 342.183H203.637Z" fill="#000072"/>
</g>
<path d="M200.925 346.673C197.996 346.673 195.074 344.251 194.446 343.699C194.334 343.6 194.234 343.491 194.147 343.369C194.041 343.225 183.528 328.804 176.986 324.254C176.072 323.618 175.846 322.363 176.48 321.448C177.115 320.533 178.37 320.309 179.282 320.942C186.026 325.634 195.903 338.951 197.261 340.804C198.533 341.862 200.404 342.84 201.136 342.617C201.432 342.527 201.639 341.853 201.695 341.648C202.684 338.056 200.708 322.548 199.116 312.793C187.299 308.966 180.838 312.073 180.773 312.106C179.783 312.598 178.573 312.205 178.073 311.219C177.571 310.233 177.951 309.029 178.932 308.52C179.265 308.346 187.251 304.335 201.572 309.367C202.264 309.61 202.769 310.21 202.891 310.934C203.335 313.574 207.183 336.889 205.577 342.72C204.889 345.22 203.41 346.144 202.288 346.481C201.84 346.615 201.382 346.673 200.925 346.673Z" fill="#000072"/>
<path d="M185.468 306.852L174.947 302.051C175.211 296.675 173.023 290.338 173.023 290.338C177.116 285.73 176.217 267.346 176.217 267.346L156.57 267.469C144.535 267.545 132.622 265.067 121.613 260.201L113.515 256.621C113.515 256.621 96.2531 306.622 132.687 348.711C132.687 348.711 144.729 350.439 156.734 341.415L149.605 319.86C162.301 330.868 178.134 329.126 178.134 329.126C185.804 322.213 185.468 306.852 185.468 306.852ZM136.147 296.279L136.188 296.29C136.197 296.328 136.207 296.363 136.216 296.401L136.146 296.279H136.147Z" fill="#5065C2"/>
<g opacity="0.6">
<path d="M113.513 256.622C113.513 256.622 96.2518 306.624 132.686 348.713C132.686 348.713 132.767 348.724 132.909 348.739C111.259 313.946 110.393 277.378 113.513 256.622Z" fill="white"/>
</g>
<g opacity="0.3">
<path d="M161.668 278.673C172.431 289.859 171.136 316.453 171.136 316.453C174.491 312.42 173.724 307.236 173.724 307.236L184.984 313.524C185.53 309.715 185.468 306.852 185.468 306.852L174.947 302.051C175.211 296.675 173.023 290.338 173.023 290.338C177.115 285.73 176.217 267.346 176.217 267.346L156.57 267.469C144.535 267.545 132.622 265.067 121.612 260.201L113.514 256.621C113.514 256.621 111.902 261.301 110.703 268.995C122.107 268.928 152.951 269.612 161.669 278.672L161.668 278.673Z" fill="#000072"/>
</g>
<g opacity="0.3">
<path d="M139.975 289.57C131.155 289.09 120.224 284.996 120.224 284.996C120.113 290.841 124.372 294.69 127.94 296.883C131.604 299.134 134.545 302.391 136.281 306.329C137.12 308.233 137.979 310.314 138.84 312.502C138.92 312.734 145.521 331.864 143.235 340.07C140.935 348.326 133.081 348.737 133.081 348.737C133.081 348.737 149.138 349.863 156.733 341.415L149.605 319.86C162.301 330.868 178.134 329.126 178.134 329.126C179.723 327.693 180.965 325.896 181.941 323.949C148.361 326.067 139.976 289.571 139.976 289.571L139.975 289.57ZM136.147 296.279L136.187 296.29C136.196 296.328 136.207 296.363 136.216 296.401L136.146 296.279H136.147Z" fill="#000072"/>
</g>
<path d="M135.903 298.287C133.299 297.57 130.781 296.502 128.579 295.018C126.373 293.542 124.518 291.661 123.101 289.57C125.022 291.217 127.202 292.455 129.481 293.215C131.761 293.983 134.126 294.291 136.473 294.295C137.597 294.296 138.506 295.21 138.503 296.335C138.501 297.459 137.59 298.369 136.467 298.367C136.285 298.367 136.108 298.342 135.941 298.297L135.903 298.286V298.287Z" fill="#000072"/>
<path d="M175.615 331.247C172.28 331.247 166.293 330.811 159.758 328.269C150.755 324.768 139.019 316.458 134.232 296.769C133.969 295.687 134.632 294.596 135.713 294.334C136.794 294.071 137.883 294.734 138.145 295.816C141.658 310.269 149.421 319.924 161.217 324.512C168.571 327.373 175.221 327.284 177.269 327.17C182.525 321.89 183.323 311.685 183.438 308.142L174.113 303.887C173.362 303.545 172.895 302.778 172.936 301.953C173.178 297.023 171.141 291.057 171.12 290.998C170.881 290.309 171.034 289.544 171.519 289C174.099 286.094 174.536 274.237 174.206 267.445C174.152 266.333 175.009 265.388 176.119 265.333C177.222 265.273 178.173 266.137 178.228 267.248C178.318 269.102 178.958 284.669 175.248 290.696C175.812 292.568 176.914 296.723 176.979 300.764L186.303 305.019C187.007 305.339 187.465 306.035 187.481 306.809C187.495 307.474 187.742 323.18 179.481 330.626C179.168 330.909 178.773 331.085 178.354 331.131C178.237 331.144 177.241 331.248 175.615 331.248V331.247Z" fill="#000072"/>
<path d="M135.254 350.866C133.576 350.866 132.545 350.728 132.401 350.708C131.922 350.639 131.484 350.399 131.165 350.032C111.946 327.829 107.645 303.451 107.423 286.91C107.182 269.002 111.428 256.486 111.61 255.963C111.973 254.911 113.119 254.352 114.171 254.716C115.222 255.08 115.779 256.228 115.417 257.281C115.352 257.469 111.196 269.815 111.453 287.009C111.687 302.684 115.751 325.712 133.682 346.778C136.226 346.939 145.213 346.968 154.358 340.645L147.694 320.495C147.345 319.438 147.917 318.297 148.972 317.948C150.028 317.598 151.167 318.171 151.516 319.228L158.645 340.782C158.916 341.605 158.633 342.508 157.942 343.029C148.827 349.88 139.734 350.867 135.253 350.867L135.254 350.866Z" fill="#000072"/>
<path d="M177.995 188.149C169.678 179.91 156.662 173.406 139.497 184.347C107.858 204.51 117.614 260.049 117.614 260.049C140.601 273.251 178.614 265.089 178.614 265.089V248.095C181.394 245.887 179.093 242.716 179.093 242.716C199.394 208.46 192.01 190.758 177.995 188.149Z" fill="#FF3E3E"/>
<g opacity="0.6">
<path d="M138.885 214.175L143.138 216.316C143.138 216.316 160.828 190.105 179.944 189.242C179.944 189.242 154.238 186.977 138.884 214.175H138.885Z" fill="white"/>
</g>
<path d="M171.415 231.418C164.325 217.043 152.013 211.966 145.584 210.241C143.19 209.599 140.665 210.656 139.406 212.792L139.013 213.459C137.726 215.642 138.256 218.443 140.252 220.004L163.569 238.242C165.636 239.86 168.589 239.656 170.417 237.77C172.057 236.077 172.458 233.531 171.415 231.417V231.418Z" fill="white"/>
<path d="M141.406 175.559C141.406 175.559 122.055 184.961 119.414 214.175L141.406 175.559Z" fill="#FA9B27"/>
<path d="M119.416 216.192C119.355 216.192 119.294 216.19 119.232 216.184C118.125 216.084 117.309 215.103 117.408 213.994C120.121 183.99 139.695 174.15 140.526 173.745C141.527 173.26 142.731 173.678 143.216 174.679C143.701 175.68 143.285 176.883 142.288 177.37C141.539 177.739 123.917 186.725 121.418 214.358C121.323 215.404 120.445 216.192 119.415 216.192H119.416Z" fill="#000072"/>
<path d="M112.556 231.006C112.418 231.006 112.278 230.991 112.137 230.962C111.05 230.731 110.354 229.661 110.585 228.571C118.57 190.836 142.975 179.756 144.011 179.302C145.029 178.855 146.216 179.322 146.662 180.342C147.107 181.361 146.644 182.548 145.628 182.995C145.393 183.099 122.057 193.81 114.524 229.408C114.324 230.356 113.487 231.006 112.556 231.006Z" fill="#000072"/>
<path d="M124.68 219.408C130.689 215.236 124.163 210.913 124.163 210.913L124.315 208.478C100.671 202.062 71.4032 202.041 71.4032 202.041L70.9703 209.001L80.915 210.858L71.2935 212.181L71.0246 216.508L124.681 219.406L124.68 219.408Z" fill="white"/>
<path d="M72.5515 202.111L72.1073 209.511L71.1206 208.302L80.9319 210.74C80.9975 210.757 81.0382 210.823 81.0212 210.89C81.0099 210.935 80.9737 210.969 80.9308 210.979L71.4495 213.324L72.4407 212.255L72.1717 216.582C72.1322 217.216 71.5863 217.7 70.9522 217.66C70.3182 217.62 69.8356 217.074 69.8752 216.439L70.1441 212.112L70.1509 211.998C70.1837 211.469 70.6177 211.06 71.1353 211.043L80.8969 210.742V210.98L70.7951 210.584C70.2233 210.562 69.778 210.08 69.8006 209.508V209.491L69.8085 209.374L70.2526 201.974C70.2911 201.339 70.8358 200.855 71.4699 200.893C72.1039 200.932 72.5876 201.477 72.5492 202.112L72.5515 202.111Z" fill="#000072"/>
<path d="M124.553 221.783C123.849 221.738 123.172 221.363 122.748 220.708C122.026 219.59 122.313 218.074 123.389 217.324C124.343 216.658 124.889 215.991 124.884 215.493C124.879 214.677 123.725 213.467 122.894 212.907C122.183 212.427 121.766 211.58 121.819 210.702L121.844 210.295C98.9168 204.564 68.4319 204.5 68.1177 204.5C66.818 204.499 66.6338 203.464 66.6338 202.116C66.6338 200.77 66.8214 199.622 68.1177 199.621C69.4581 199.621 101.221 199.691 124.897 206.057C125.985 206.35 126.721 207.404 126.651 208.57L126.583 209.705C127.813 210.806 129.546 212.818 129.579 215.424C129.598 216.987 128.995 219.286 126.007 221.371C125.561 221.682 125.051 221.813 124.554 221.781L124.553 221.783Z" fill="#FF3E3E"/>
<path d="M124.706 223.203C124.624 223.203 124.543 223.201 124.462 223.196C123.275 223.119 122.218 222.493 121.563 221.477C120.432 219.728 120.89 217.343 122.582 216.164C123.04 215.845 123.294 215.587 123.416 215.435C123.229 215.093 122.688 214.474 122.106 214.083C121.196 213.468 120.597 212.487 120.443 211.409C97.8171 205.98 68.4172 205.916 68.1188 205.916C66.1963 205.914 65.2221 204.636 65.2221 202.118C65.2221 198.886 66.7976 198.208 68.1188 198.208H68.1267C69.5836 198.208 101.444 198.288 125.264 204.693C126.996 205.16 128.172 206.827 128.062 208.658L128.034 209.133C129.465 210.555 130.959 212.686 130.993 215.41C131.017 217.315 130.312 220.097 126.815 222.536C126.186 222.975 125.462 223.205 124.707 223.205L124.706 223.203ZM68.1211 203.086C68.4782 203.086 99.118 203.158 122.187 208.923C122.847 209.088 123.295 209.7 123.255 210.381L123.23 210.788C123.207 211.161 123.386 211.533 123.684 211.734C124.583 212.34 126.286 213.903 126.297 215.483C126.305 216.497 125.599 217.506 124.196 218.485C123.746 218.799 123.626 219.465 123.934 219.941C124.099 220.196 124.358 220.354 124.642 220.372C124.778 220.38 124.985 220.36 125.195 220.214C127.161 218.844 128.186 217.195 128.164 215.445C128.138 213.317 126.571 211.598 125.639 210.763C125.318 210.475 125.145 210.056 125.171 209.625L125.239 208.489C125.269 207.993 124.97 207.547 124.528 207.428C101.146 201.14 69.7836 201.04 68.1403 201.04C68.0985 201.178 68.0453 201.48 68.0453 202.12C68.0453 202.676 68.086 202.953 68.1199 203.089L68.1211 203.086Z" fill="#000072"/>
<path d="M78.6817 210.737C78.6817 210.737 96.8949 212.03 111.313 214.175L78.6817 210.737Z" fill="white"/>
<path d="M111.313 214.175C111.245 214.599 103.951 213.86 94.9478 212.958C85.9468 212.034 78.6525 211.165 78.683 210.737C78.7124 210.308 86.0768 210.484 95.106 211.409C104.14 212.315 111.382 213.75 111.313 214.175Z" fill="#000072"/>
<path d="M125.961 235.146C132.3 230.308 124.831 226.17 124.831 226.17L124.837 223.578C98.3868 218.398 66.1692 220.389 66.1692 220.389L66.1523 227.802L77.2215 229.089L66.7185 231.153L66.7083 235.761L125.961 235.146Z" fill="white"/>
<path d="M67.3198 220.389V228.269L66.254 227.12L77.2305 228.969C77.2972 228.98 77.3424 229.043 77.3311 229.11C77.3232 229.158 77.2882 229.194 77.2452 229.207L66.9411 232.285L67.8702 231.156L67.86 235.765C67.8589 236.401 67.3424 236.916 66.7072 236.915C66.072 236.914 65.5578 236.396 65.5589 235.76L65.5691 231.152V231.047C65.5702 230.513 65.9805 230.075 66.4981 230.023L77.2 228.971L77.2147 229.209L66.0856 229.418C65.5081 229.429 65.0311 228.969 65.0198 228.39V228.376V228.269V220.389C65.0198 219.753 65.5352 219.237 66.1704 219.237C66.8055 219.237 67.3209 219.753 67.3209 220.389H67.3198Z" fill="#000072"/>
<path d="M125.98 237.674C125.202 237.674 124.432 237.324 123.923 236.658C123.053 235.52 123.269 233.894 124.404 233.024C125.41 232.252 125.966 231.506 125.93 230.979C125.87 230.114 124.519 228.91 123.569 228.373C122.755 227.914 122.24 227.044 122.24 226.109V225.675C96.6236 221.174 63.0634 223.202 62.7176 223.224C61.2867 223.312 61.0155 222.228 60.9262 220.798C60.8369 219.369 60.968 218.139 62.3943 218.049C63.8704 217.957 98.8377 215.847 125.318 220.972C126.536 221.207 127.416 222.274 127.416 223.517V224.726C128.842 225.81 130.883 227.824 131.091 230.586C131.216 232.242 130.704 234.724 127.552 237.14C127.083 237.501 126.529 237.674 125.98 237.674Z" fill="#4881FF"/>
<path d="M125.98 239.089C124.723 239.089 123.564 238.516 122.801 237.519C121.46 235.764 121.793 233.244 123.545 231.901C124.068 231.499 124.342 231.188 124.463 231.014C124.24 230.657 123.578 230.003 122.874 229.606C121.84 229.022 121.125 228.018 120.9 226.882C95.7059 222.675 63.1335 224.616 62.8024 224.636C60.7793 224.757 59.6762 223.499 59.5135 220.887C59.3451 218.194 60.2843 216.765 62.3039 216.638C63.7868 216.545 98.9372 214.425 125.585 219.583C127.463 219.946 128.826 221.601 128.826 223.517V224.045C130.49 225.443 132.282 227.595 132.499 230.48C132.65 232.484 132.062 235.462 128.408 238.264C127.705 238.804 126.864 239.09 125.977 239.09L125.98 239.089ZM81.2416 221.343C93.2048 221.343 108.978 221.908 122.483 224.281C123.159 224.4 123.651 224.987 123.651 225.674V226.108C123.651 226.525 123.891 226.93 124.262 227.14C124.291 227.157 127.193 228.818 127.338 230.879C127.411 231.934 126.713 233.033 125.262 234.145C124.746 234.54 124.649 235.28 125.044 235.797C125.267 236.09 125.609 236.257 125.98 236.257C126.16 236.257 126.432 236.215 126.692 236.015C128.79 234.406 129.823 232.564 129.682 230.689C129.511 228.413 127.653 226.68 126.56 225.848C126.209 225.581 126.002 225.165 126.002 224.722V223.514C126.002 222.95 125.602 222.464 125.049 222.358C98.7518 217.268 63.9495 219.367 62.4814 219.458C62.443 219.461 62.4136 219.465 62.3921 219.469C62.3525 219.58 62.2847 219.895 62.3356 220.707C62.3797 221.411 62.461 221.697 62.5096 221.809C62.5379 221.811 62.5786 221.811 62.6306 221.809C62.7911 221.799 70.473 221.341 81.2416 221.341V221.343Z" fill="#000072"/>
<path d="M68.164 226.205C68.164 226.205 88.2986 226.323 104.309 227.608L68.164 226.205Z" fill="white"/>
<path d="M104.309 227.608C104.291 227.831 102.26 227.845 98.9892 227.785C95.7184 227.718 91.2055 227.573 86.2201 227.393C76.2495 227.032 68.1618 226.635 68.164 226.206C68.1652 225.776 76.2789 225.477 86.2766 225.838C91.2755 226.019 95.7963 226.338 99.0592 226.687C102.323 227.029 104.327 227.405 104.31 227.609L104.309 227.608Z" fill="#000072"/>
<path d="M122.669 237.341H65.5273C61.4763 237.341 58.1923 240.63 58.1923 244.686C58.1923 248.742 61.4763 252.031 65.5273 252.031H122.669C126.72 252.031 130.004 248.742 130.004 244.686C130.004 240.63 126.72 237.341 122.669 237.341Z" fill="white"/>
<path d="M122.669 253.759H65.5273C60.5318 253.759 56.4676 249.689 56.4676 244.687C56.4676 239.684 60.5318 235.613 65.5273 235.613H122.669C127.665 235.613 131.73 239.683 131.73 244.687C131.73 249.69 127.666 253.759 122.669 253.759ZM65.5273 239.07C62.435 239.07 59.9181 241.589 59.9181 244.687C59.9181 247.784 62.4339 250.303 65.5273 250.303H122.669C125.762 250.303 128.278 247.784 128.278 244.687C128.278 241.589 125.762 239.07 122.669 239.07H65.5273Z" fill="#000072"/>
<path d="M130.004 237.341H65.1441V252.031H130.004V237.341Z" fill="white"/>
<path d="M130.004 253.471H65.1441C64.3496 253.471 63.7065 252.826 63.7065 252.032V237.343C63.7065 236.547 64.3507 235.903 65.1441 235.903H130.004C130.799 235.903 131.442 236.548 131.442 237.343V252.032C131.442 252.827 130.798 253.471 130.004 253.471ZM66.5817 250.591H128.567V238.782H66.5817V250.591Z" fill="#000072"/>
<path d="M127.541 255.95H66.5252C58.8647 255.95 52.6328 251.091 52.6328 245.119C52.6328 239.147 58.8647 234.288 66.5252 234.288H131.057C132.938 234.288 134.463 235.647 134.463 237.324C134.463 239.002 132.938 240.361 131.057 240.361H66.5252C62.6859 240.361 59.4422 242.54 59.4422 245.119C59.4422 247.698 62.6859 249.877 66.5252 249.877H127.541C129.422 249.877 130.947 251.236 130.947 252.913C130.947 254.591 129.422 255.95 127.541 255.95Z" fill="#99FF22"/>
<path d="M127.541 257.647H66.5252C57.9301 257.647 50.9375 252.027 50.9375 245.119C50.9375 238.211 57.9301 232.59 66.5252 232.59H131.058C133.869 232.59 136.158 234.715 136.158 237.324C136.158 239.934 133.871 242.059 131.058 242.059H66.5252C63.4906 242.059 61.1376 243.703 61.1376 245.119C61.1376 246.535 63.4906 248.179 66.5252 248.179H127.541C130.353 248.179 132.641 250.303 132.641 252.913C132.641 255.523 130.353 257.647 127.541 257.647ZM66.5252 235.986C59.7994 235.986 54.3281 240.083 54.3281 245.119C54.3281 250.155 59.8005 254.252 66.5252 254.252H127.541C128.468 254.252 129.25 253.639 129.25 252.913C129.25 252.188 128.467 251.574 127.541 251.574H66.5252C61.6846 251.574 57.747 248.678 57.747 245.119C57.747 241.56 61.6846 238.663 66.5252 238.663H131.058C131.984 238.663 132.768 238.05 132.768 237.324C132.768 236.599 131.984 235.986 131.058 235.986H66.5252Z" fill="#000072"/>
<path d="M103.639 244.687C103.639 245.123 95.8687 245.479 86.2846 245.479C76.7005 245.479 68.9315 245.125 68.9315 244.687C68.9315 244.249 76.7016 243.894 86.2846 243.894C95.8676 243.894 103.639 244.249 103.639 244.687Z" fill="#000072"/>
<path d="M128.512 193.275L64.2806 187.013C57.8091 198.627 64.2806 202.473 64.2806 202.473L124.97 208.234C129.429 204.057 128.512 193.275 128.512 193.275Z" fill="white"/>
<path d="M124.971 209.386C124.935 209.386 124.899 209.384 124.863 209.38L64.1733 203.619C64.0037 203.604 63.841 203.55 63.6941 203.463C63.39 203.283 56.3387 198.901 63.277 186.451C63.4997 186.051 63.9359 185.822 64.3937 185.865L128.625 192.128C129.178 192.182 129.613 192.623 129.661 193.177C129.7 193.64 130.569 204.568 125.758 209.075C125.544 209.275 125.263 209.386 124.971 209.386ZM64.692 201.355L124.536 207.035C127.46 203.79 127.508 196.861 127.418 194.325L64.9294 188.233C60.2277 197.138 63.7868 200.65 64.692 201.355Z" fill="#000072"/>
<path d="M65.6109 192.798L66.5784 190.271C66.5784 190.271 100.455 192.128 129.515 196.198C130.358 196.316 131.108 195.663 131.108 194.81V193.039C131.108 192.37 130.642 191.791 129.986 191.66C102.549 186.189 63.1188 185.83 63.1188 185.83L60.9036 190.952C60.9036 190.952 58.5279 190.663 57.3774 194.334C56.2268 198.005 59.9655 199.593 59.9655 199.593L61.8349 204.409L128.476 210.398C129.297 210.471 130.003 209.824 130.003 208.999V207.868C130.003 207.168 129.491 206.574 128.797 206.477C108.703 203.661 65.5227 200.114 65.5227 200.114L64.8118 198.182C60.9013 194.48 65.6098 192.798 65.6098 192.798H65.6109Z" fill="#FA9B27"/>
<path d="M128.6 211.818C128.517 211.818 128.434 211.815 128.351 211.807L61.7095 205.818C61.1749 205.771 60.7137 205.423 60.5193 204.922L58.8478 200.613C57.1525 199.656 54.9441 197.378 56.0302 193.911C56.992 190.842 58.7641 189.91 59.9316 189.64L61.8225 185.268C62.0463 184.75 62.556 184.416 63.1188 184.416H63.1312C63.5268 184.419 103.009 184.839 130.262 190.273C131.571 190.533 132.521 191.696 132.521 193.037V194.809C132.521 195.625 132.168 196.4 131.555 196.935C130.941 197.469 130.127 197.71 129.319 197.598C103.462 193.977 73.415 192.091 67.5289 191.743L66.931 193.303C66.7841 193.687 66.4778 193.987 66.0935 194.127C65.6979 194.274 64.796 194.778 64.6864 195.318C64.6016 195.736 65.0119 196.423 65.785 197.155C65.9432 197.304 66.0653 197.489 66.1398 197.694L66.5388 198.779C72.8532 199.306 110.695 202.511 128.995 205.076C130.376 205.27 131.417 206.469 131.417 207.868V208.999C131.417 209.789 131.084 210.546 130.501 211.079C129.982 211.555 129.3 211.817 128.6 211.817V211.818ZM62.8351 203.08L128.603 208.99L128.591 207.869C108.779 205.102 65.8403 201.562 65.4086 201.527C64.8605 201.482 64.388 201.123 64.1982 200.606L63.598 198.972C62.1921 197.552 61.6281 196.127 61.9208 194.734C62.2599 193.118 63.6557 192.178 64.5011 191.747L65.2594 189.767C65.4798 189.193 66.0404 188.826 66.6563 188.86C66.9954 188.878 100.925 190.766 129.711 194.798L129.697 193.04C105.044 188.13 70.1735 187.359 64.0422 187.26L62.2011 191.515C61.9355 192.13 61.3885 192.492 60.7352 192.357C60.6561 192.357 59.4705 192.387 58.7268 194.759C57.982 197.136 60.2571 198.18 60.5193 198.291C60.8708 198.44 61.1466 198.726 61.2845 199.081L62.8363 203.08H62.8351Z" fill="#000072"/>
<path d="M95.0572 197.288C95.0097 197.715 89.1214 197.4 81.9073 196.584C74.6921 195.768 68.8829 194.761 68.9315 194.334C68.9801 193.908 74.8673 194.222 82.0814 195.038C89.2954 195.854 95.1058 196.862 95.0572 197.288Z" fill="#000072"/>
<path d="M128.35 199.761C128.295 200.188 122.377 199.786 115.13 198.865C107.882 197.944 102.051 196.851 102.105 196.425C102.16 195.998 108.078 196.4 115.326 197.321C122.573 198.242 128.405 199.335 128.351 199.761H128.35Z" fill="#000072"/>
<path d="M145.602 186.456C141.697 191.189 137.408 194.097 136.021 192.95C134.635 191.803 136.676 187.036 140.581 182.303C144.485 177.57 148.775 174.662 150.161 175.809C151.548 176.955 149.507 181.723 145.602 186.456Z" fill="#FDC7A3"/>
<path d="M146.727 187.385C145.314 188.944 143.75 190.361 142.036 191.607C141.178 192.231 140.295 192.824 139.314 193.331C138.82 193.586 138.305 193.816 137.699 193.973C137.398 194.054 137.065 194.112 136.679 194.095C136.302 194.08 135.831 193.962 135.447 193.646C135.06 193.334 134.847 192.894 134.753 192.525C134.656 192.148 134.643 191.806 134.657 191.491C134.685 190.858 134.82 190.305 134.974 189.768C135.288 188.701 135.705 187.717 136.177 186.766C137.114 184.865 138.228 183.08 139.456 181.371C140.695 179.668 142.06 178.044 143.669 176.574C144.488 175.849 145.339 175.141 146.383 174.533C146.916 174.236 147.473 173.946 148.217 173.736C148.586 173.635 149.014 173.549 149.561 173.567C150.091 173.582 150.827 173.749 151.444 174.252C152.059 174.758 152.371 175.45 152.494 175.969C152.623 176.505 152.626 176.946 152.604 177.331C152.551 178.11 152.366 178.714 152.178 179.299C151.776 180.445 151.241 181.42 150.662 182.35C149.485 184.192 148.131 185.819 146.727 187.384V187.385ZM144.479 185.526C145.643 183.964 146.645 182.278 147.424 180.571C147.813 179.726 148.16 178.866 148.38 178.083C148.493 177.703 148.562 177.318 148.572 177.085C148.586 176.965 148.569 176.894 148.578 176.937C148.584 176.968 148.656 177.184 148.88 177.363C149.102 177.543 149.327 177.565 149.355 177.557C149.397 177.55 149.318 177.541 149.2 177.571C148.963 177.615 148.597 177.762 148.241 177.942C147.511 178.309 146.73 178.815 145.989 179.377C144.488 180.5 143.048 181.819 141.704 183.232C140.366 184.65 139.122 186.18 138.103 187.826C137.607 188.651 137.143 189.502 136.835 190.364C136.687 190.792 136.568 191.228 136.533 191.607C136.512 191.797 136.519 191.968 136.541 192.083C136.565 192.203 136.591 192.237 136.595 192.252C136.606 192.259 136.645 192.287 136.771 192.295C136.89 192.303 137.065 192.284 137.251 192.234C137.625 192.139 138.033 191.932 138.428 191.709C139.22 191.241 139.969 190.621 140.67 189.957C142.066 188.61 143.307 187.082 144.476 185.525L144.479 185.526Z" fill="#000072"/>
<g opacity="0.3">
<path d="M130.004 181.149C130.004 181.149 127.703 191.69 139.496 193.705C151.288 195.721 178.757 183.378 178.757 183.378L130.003 181.149H130.004Z" fill="#000072"/>
</g>
<g opacity="0.3">
<path d="M184.212 191.031C184.212 191.031 193.33 212.955 168.402 239.333L136.633 216.51L139.496 196.426C139.496 196.426 125.639 214.131 122.371 226.908C119.102 239.683 118.499 262.487 118.499 262.487C118.499 262.487 152.363 273.133 177.606 267.348L178.613 248.993C178.613 248.993 181.489 243.24 178.757 241.089C178.757 241.089 202.562 204.248 184.212 191.033V191.031Z" fill="#000072"/>
</g>
<path d="M151.589 269.979C137.214 269.979 120.685 268.042 111.287 260.415C110.423 259.713 110.29 258.444 110.991 257.578C111.691 256.714 112.96 256.581 113.823 257.282C129.257 269.809 168.023 265.354 176.6 264.183V247.712C176.6 247.201 176.793 246.709 177.141 246.336C178.197 245.203 178.006 244.511 177.659 244.131L177.7 244.172L180.485 241.26C181.85 242.569 182.9 245.48 180.626 248.447V265.929C180.626 266.919 179.908 267.762 178.932 267.919C177.942 268.079 165.82 269.979 151.588 269.979H151.589Z" fill="#000072"/>
<path d="M200.905 204.363C200.905 204.363 199.347 176.424 165.479 181.849C128.278 187.808 109.488 252.127 182.737 279.202L188.682 266.462C188.682 266.462 162.134 262.352 153.352 248.095C144.57 233.839 121.963 213.973 162.339 190.674C180.629 180.121 194.915 197.708 191.514 209.4L200.906 204.363H200.905Z" fill="#F28B51"/>
<g opacity="0.3">
<path d="M192.078 190.321C186.823 186.563 178.864 184.265 166.809 186.196C136.307 191.082 118.182 235.205 153.023 265.86C160.331 271.705 169.689 276.989 181.406 281.321L186.649 267.583C180.418 266.21 167.007 265.082 158.796 257.394C156.087 255.351 153.719 252.973 152.02 250.214C143.239 235.957 120.631 216.091 161.008 192.794C170.917 187.076 179.649 189.621 185.031 195.01C190.1 198.53 193.241 204.387 193.343 209.825L199.575 206.483C199.575 206.483 199.054 197.153 192.078 190.322V190.321Z" fill="#000072"/>
</g>
<path d="M179.091 244.732C178.742 244.732 178.388 244.64 178.066 244.449C177.11 243.881 176.795 242.644 177.362 241.686C189.486 221.229 192.799 204.416 186.457 195.558C182.968 190.686 176.748 188.788 169.396 190.348C153.46 193.733 141.024 213.119 138.441 217.414C144.586 230.687 167.648 239.101 167.885 239.187C168.932 239.563 169.475 240.717 169.1 241.765C168.725 242.813 167.572 243.359 166.526 242.982C165.465 242.601 140.482 233.473 134.319 218.022C134.094 217.459 134.135 216.825 134.429 216.295C135.011 215.247 148.907 190.578 168.561 186.404C177.42 184.522 185.331 187.066 189.73 193.208C194.03 199.213 198.592 213.765 180.826 243.744C180.45 244.379 179.779 244.732 179.092 244.732H179.091Z" fill="#000072"/>
<path d="M180.771 222.076C180.4 224.087 179.787 226.009 179.074 227.886C178.371 229.77 177.52 231.593 176.558 233.37C175.601 235.149 174.493 236.866 173.194 238.495C171.868 240.097 170.419 241.695 168.252 242.808C167.261 243.316 166.046 242.924 165.539 241.933C165.101 241.077 165.331 240.055 166.038 239.465L166.157 239.365C167.331 238.381 168.57 237.031 169.75 235.631C170.943 234.229 172.137 232.756 173.315 231.239L176.923 226.662C178.144 225.122 179.397 223.585 180.772 222.077L180.771 222.076Z" fill="#000072"/>
<path d="M191.94 239.332C193.283 228.413 192.019 221.792 191.211 212.259C191.211 212.259 200.762 199.487 214.567 205.069C228.374 210.651 227.031 279.969 220.895 290.338C214.759 300.708 185.42 288.61 185.42 288.61C185.42 288.61 179.944 286.595 182.736 279.202" fill="#F28B51"/>
<g opacity="0.3">
<path d="M193.477 288.986C193.477 288.986 188.002 286.97 190.793 279.578C190.793 279.578 198.371 262.238 199.998 239.709C200.79 228.735 200.077 222.169 199.269 212.636C199.269 212.636 204.334 205.872 212.416 204.344C199.781 200.814 191.211 212.259 191.211 212.259C192.019 221.792 193.283 228.413 191.94 239.332L182.736 279.201C179.944 286.593 185.42 288.61 185.42 288.61C185.42 288.61 201.932 295.419 212.772 294.442C203.303 293.039 193.476 288.987 193.476 288.987L193.477 288.986Z" fill="#000072"/>
</g>
<path d="M188.682 269.043C188.541 269.043 188.397 269.025 188.254 268.988C168.309 263.788 155.016 255.219 148.74 243.519C148.296 242.692 148.606 241.664 149.431 241.22C150.256 240.775 151.284 241.086 151.727 241.913C157.537 252.747 170.114 260.751 189.107 265.703C190.013 265.94 190.556 266.867 190.321 267.775C190.122 268.538 189.435 269.044 188.681 269.044L188.682 269.043Z" fill="#000072"/>
<path d="M145.463 192.14L154.164 195.88L146.406 203.274L138.885 200.51" fill="#B2A1A1"/>
<path d="M182.736 280.9C182.542 280.9 182.343 280.866 182.149 280.794C163.665 273.962 149.839 264.435 141.058 252.479C133.458 242.132 130.053 230.405 131.209 218.564C132.124 209.193 135.981 200.207 142.068 193.263C148.237 186.224 156.455 181.575 165.211 180.173C176.898 178.301 186.201 180.073 192.856 185.442C201.854 192.702 202.572 203.799 202.598 204.268C202.65 205.204 201.935 206.005 201 206.057C200.062 206.11 199.267 205.395 199.213 204.46C199.208 204.36 198.524 194.35 190.697 188.061C184.822 183.341 176.428 181.814 165.747 183.525C149.437 186.137 136.33 201.013 134.584 218.895C132.182 243.491 150.402 265.441 183.324 277.608C184.202 277.933 184.652 278.909 184.327 279.789C184.074 280.475 183.427 280.9 182.737 280.9H182.736Z" fill="#000072"/>
<path d="M146.406 204.972C146.21 204.972 146.012 204.938 145.821 204.868L138.301 202.104C137.422 201.781 136.971 200.806 137.294 199.925C137.617 199.045 138.59 198.594 139.47 198.917L146 201.317L151.134 196.425L144.795 193.701C143.935 193.331 143.536 192.332 143.906 191.471C144.275 190.61 145.272 190.211 146.132 190.58L154.834 194.32C155.357 194.545 155.733 195.018 155.834 195.581C155.934 196.142 155.747 196.717 155.334 197.111L147.574 204.504C147.253 204.81 146.833 204.972 146.406 204.972Z" fill="#000072"/>
<path d="M141.835 218.086L125.402 240.006C121.167 240.792 117.569 239.359 115.394 238.111C113.963 237.29 112.179 237.43 110.926 238.504L110.765 238.642C109.213 239.973 108.967 242.285 110.204 243.914L114.184 249.149C114.184 249.149 106.897 257.305 105.411 260.094C102.535 265.495 111.164 263.262 111.164 263.262C111.164 263.262 124.97 268.734 129.859 267.006C134.749 265.278 141.508 256.493 141.508 256.493L166.347 236.572C160.508 227.968 152.534 221.601 141.834 218.082L141.835 218.086Z" fill="#FDC7A3"/>
<g opacity="0.6">
<path d="M111.478 245.59C111.516 244.547 111.972 243.525 112.821 242.798L112.982 242.66C114.234 241.586 116.019 241.446 117.45 242.267C119.623 243.514 123.223 244.948 127.458 244.161L143.139 218.515C141.915 218.002 143.139 218.515 141.835 218.086L125.402 240.006C121.167 240.792 117.569 239.359 115.394 238.111C113.963 237.29 112.179 237.43 110.926 238.504L110.765 238.642C109.213 239.973 108.967 242.285 110.204 243.914L111.477 245.589L111.478 245.59Z" fill="white"/>
</g>
<g opacity="0.3">
<path d="M162.5 231.602L139.003 250.447C139.003 250.447 132.243 259.232 127.354 260.96C124.021 262.138 112.539 261.008 106.474 258.458C106.012 259.1 105.642 259.662 105.411 260.095C102.535 265.496 111.164 263.263 111.164 263.263C111.164 263.263 124.97 268.735 129.859 267.007C134.749 265.279 141.508 256.494 141.508 256.494L166.347 236.573C165.157 234.819 163.872 233.163 162.5 231.6V231.602Z" fill="#000072"/>
</g>
<path d="M270.639 175.537L247.213 137.108C221.393 140.224 201.322 146.593 208.906 168.613L231.058 184.536C242.283 187.789 260.106 184.322 267.703 182.557C269.827 182.064 271.326 180.166 271.326 177.984C271.326 177.12 271.088 176.274 270.639 175.537Z" fill="#4881FF"/>
<g opacity="0.6">
<path d="M270.639 174.638L247.213 131.728C237.663 133.014 228.901 134.8 222.033 137.781C227.935 135.893 234.799 134.611 242.127 133.623L265.553 176.534C266.003 177.357 266.24 178.303 266.24 179.267C266.24 180.836 265.617 182.27 264.609 183.241C265.763 182.97 266.807 182.711 267.705 182.478C269.828 181.927 271.327 179.808 271.327 177.372C271.327 176.407 271.09 175.461 270.64 174.638H270.639Z" fill="white"/>
</g>
<g opacity="0.3">
<path d="M238.066 185.722C235.57 185.532 233.194 185.151 231.06 184.535L208.907 168.613C201.326 146.597 221.396 140.225 247.213 137.109L254.686 149.362C251.43 155.111 246.114 161.194 237.433 165.624C229.362 169.742 231.773 177.526 238.066 185.723V185.722Z" fill="#000072"/>
</g>
<path d="M259.6 61.5878C219.04 1.68483 160.383 0.218068 135.787 2.65136C128.325 3.3904 121.39 6.90565 116.402 12.5124C95.7342 35.7463 90.4991 58.4789 90.4991 58.4789L249.85 141.332C261.015 127.195 264.707 101.252 265.929 85.6378C266.595 77.1337 264.382 68.6478 259.601 61.5867L259.6 61.5878Z" fill="#5065C2"/>
<path d="M259.6 61.5878C219.04 1.68483 160.383 0.218068 135.787 2.65136C128.325 3.3904 121.39 6.90565 116.402 12.5124C95.7342 35.7463 90.4991 58.4789 90.4991 58.4789L249.85 141.332C261.015 127.195 264.707 101.252 265.929 85.6378C266.595 77.1337 264.382 68.6478 259.601 61.5867L259.6 61.5878Z" fill="#4881FF"/>
<path d="M128.92 34.962L123.834 40.055V45.1479C123.834 45.1479 123.834 50.2408 128.92 50.2408V55.3337C128.92 55.3337 123.834 50.2408 113.663 55.3337H108.577L113.663 34.962H128.92Z" fill="white"/>
<g opacity="0.6">
<path d="M129.036 6.86717C155.745 4.22337 219.4 5.81576 263.49 70.72C262.411 66.8913 260.731 63.23 258.47 59.8902C217.91 -0.0128123 159.253 -1.47958 134.657 0.953713C127.194 1.69275 120.26 5.20801 115.272 10.8148C114.814 11.3297 114.367 11.8435 113.924 12.3573C118.39 9.31517 123.581 7.40589 129.036 6.86604V6.86717Z" fill="white"/>
</g>
<path d="M114.992 37.3772L122.375 22.6179C122.375 22.6179 146.829 16.3909 152.869 23.0333C158.909 29.6744 154.251 35.9138 154.251 35.9138C154.251 35.9138 132.702 33.8914 114.991 37.3783L114.992 37.3772Z" fill="#A84535"/>
<path d="M98.1731 59.3413C98.1731 59.3413 75.9296 52.3323 69.5056 77.7754L76.3128 74.319C76.3128 74.319 70.7522 79.5206 70.56 87.0004C70.56 87.0004 75.3012 82.6239 82.0451 80.3117C82.0225 80.3298 76.8858 84.3216 76.0246 92.1771C76.0246 92.1771 78.5302 90.1841 81.462 89.7155C81.4834 89.8378 82.3853 95.1831 76.983 97.7454C76.983 97.7454 79.3394 106.45 88.7552 109.731C88.7552 109.731 198.65 155.927 219.557 155.327C240.463 154.726 247.212 137.11 247.212 137.11C208.718 27.85 98.1731 59.3413 98.1731 59.3413Z" fill="#A84535"/>
<path d="M219.558 155.326C233.461 156.19 242.85 145.269 237.386 135.957C231.921 126.644 221.758 134.517 221.758 134.517C222.526 147.287 212.938 150.647 212.938 150.647C206.318 145.967 209.775 135.19 209.775 135.19C209.775 135.19 193.284 128.757 194.435 99.0899L166.823 77.488V57.6142C166.823 57.6142 130.197 46.0929 98.1754 59.3424L99.1338 73.9354L87.0531 91.601L90.4731 127.962C87.3729 132.342 85.7104 137.297 85.7104 142.726C85.7104 164.439 112.306 185.498 151.146 185.498C184.354 185.498 212.186 172.63 219.559 155.326" fill="#FDC7A3"/>
<path d="M219.558 155.326C233.461 156.19 242.85 145.269 237.386 135.957C231.921 126.644 221.758 134.517 221.758 134.517C222.526 147.287 212.938 150.647 212.938 150.647C206.318 145.967 209.775 135.19 209.775 135.19C209.775 135.19 193.284 128.757 194.435 99.0899L169.654 79.7028C167.867 78.3051 166.823 76.1604 166.823 73.8901V57.6142C166.823 57.6142 130.197 46.0929 98.1754 59.3424L99.1338 73.9354L87.0531 91.601L90.4731 127.962C87.3729 132.342 85.7104 137.297 85.7104 142.726C85.7104 164.439 112.306 185.498 151.146 185.498C184.354 185.498 212.186 172.63 219.559 155.326" fill="#FDC7A3"/>
<g opacity="0.3">
<path d="M234.751 132.919C234.505 132.736 234.256 132.567 234.004 132.423C232.57 137.501 227.452 141.809 220.469 143.002C217.995 148.869 212.937 150.647 212.937 150.647C212.372 150.248 211.885 149.801 211.458 149.322C200.836 163.498 175.807 173.463 146.593 173.463C117.38 173.463 95.3375 161.672 85.9975 146.64C86.7468 151.761 88.9451 156.776 92.4057 161.41C103.441 173.398 123.348 182.104 148.319 182.104C181.528 182.104 209.359 169.235 216.732 151.932C230.458 152.785 239.775 142.152 234.751 132.921V132.919Z" fill="#000072"/>
</g>
<path d="M151.145 187.513C132.562 187.513 115.362 182.683 102.715 173.911C90.6279 165.528 83.6953 154.16 83.6953 142.725C83.6953 137.214 85.2775 132.069 88.398 127.42L85.047 91.7889C85.0029 91.3192 85.125 90.8496 85.3906 90.4602L96.4575 74.276C96.8576 73.692 97.0508 72.9813 97.0045 72.2751L96.1636 59.4726C96.1071 58.6102 96.6055 57.8066 97.4035 57.4773C129.729 44.1021 165.899 55.2092 167.423 55.6891C168.261 55.9528 168.833 56.7315 168.833 57.612V73.7543C168.833 75.5006 169.622 77.119 170.997 78.1953L195.672 97.4998C196.182 97.8993 196.47 98.5195 196.444 99.1669C195.37 126.864 209.896 133.063 210.515 133.313C211.493 133.709 212.013 134.798 211.689 135.804C211.662 135.889 209.106 144.174 213.243 148.282C215.392 147.102 220.274 143.429 219.747 134.637C219.707 133.972 219.998 133.329 220.524 132.922C220.759 132.739 226.353 128.472 232.07 129.575C234.992 130.14 237.364 131.943 239.121 134.934C241.655 139.252 241.592 144.2 238.949 148.509C235.549 154.052 228.527 157.425 220.831 157.387C212.197 175.191 183.865 187.512 151.143 187.512L151.145 187.513ZM89.1247 92.1375L92.4769 127.773C92.5221 128.254 92.3933 128.734 92.1153 129.128C89.2016 133.244 87.7233 137.819 87.7233 142.725C87.7233 162.326 111.972 183.481 151.146 183.481C166.778 183.481 182.075 180.49 194.22 175.059C205.964 169.808 214.306 162.518 217.708 154.535C218.042 153.751 218.837 153.266 219.685 153.314C226.474 153.736 232.686 151.022 235.521 146.4C237.386 143.359 237.432 140.012 235.652 136.978C234.495 135.006 233.08 133.88 231.324 133.537C228.423 132.969 225.27 134.636 223.813 135.554C223.963 146.077 217.285 151.258 213.604 152.549C212.99 152.765 212.31 152.669 211.778 152.293C205.687 147.988 206.656 139.793 207.423 136.254C203.092 133.742 191.749 124.778 192.389 100.047L168.519 81.3733C166.162 79.5285 164.809 76.7523 164.809 73.7554V59.1353C157.957 57.2792 127.427 50.0744 100.28 60.6677L101.025 72.0103C101.131 73.614 100.689 75.2278 99.7814 76.5543L89.1259 92.1364L89.1247 92.1375Z" fill="#000072"/>
<path d="M95.776 90.6402L98.5563 94.6727C98.5563 94.6727 99.9464 87.3275 106.801 87.1838C113.656 87.0401 115.766 91.9361 115.766 91.9361L118.642 84.2559C118.642 84.2559 116.125 78.4953 107.209 79.4312C98.2929 80.3672 95.776 90.6402 95.776 90.6402Z" fill="#000072"/>
<path d="M98.5563 95.2385C98.3732 95.2385 98.198 95.1491 98.0918 94.9941L95.3115 90.9616C95.2199 90.8281 95.1894 90.6628 95.2278 90.5055C95.2538 90.3991 97.946 79.8353 107.151 78.8687C116.374 77.8999 119.052 83.7783 119.161 84.0296C119.22 84.1642 119.224 84.317 119.172 84.4551L116.296 92.1352C116.215 92.3514 116.011 92.4963 115.781 92.5019C115.542 92.5166 115.339 92.3718 115.248 92.1601C115.167 91.9757 113.174 87.6071 106.815 87.7497C100.491 87.8821 99.1259 94.7089 99.1124 94.7779C99.0694 95.002 98.8976 95.1786 98.6738 95.2261C98.6354 95.234 98.5959 95.2385 98.5563 95.2385ZM96.3908 90.5361L98.3438 93.3689C99.1056 91.1766 101.321 86.7322 106.789 86.6179C111.965 86.507 114.564 89.1033 115.649 90.6334L118.026 84.2876C117.502 83.3166 114.819 79.2003 107.267 79.9937C99.5983 80.7984 96.835 89.0206 96.3897 90.5361H96.3908Z" fill="#000072"/>
<path d="M140.646 92.7521L143.426 96.7845C143.426 96.7845 144.817 89.4394 151.671 89.2957C158.526 89.1519 160.636 94.0479 160.636 94.0479L165.095 87.9273C165.095 87.9273 160.995 80.6071 152.079 81.5431C143.163 82.4791 140.646 92.7521 140.646 92.7521Z" fill="#000072"/>
<path d="M143.426 97.3504C143.243 97.3504 143.068 97.261 142.962 97.1059L140.182 93.0735C140.09 92.9399 140.06 92.7747 140.098 92.6174C140.124 92.511 142.816 81.9471 152.02 80.9806C161.201 80.0141 165.544 87.5742 165.587 87.6512C165.696 87.8447 165.681 88.0824 165.551 88.2612L161.093 94.3818C160.974 94.5459 160.774 94.6353 160.573 94.6104C160.372 94.5878 160.197 94.4587 160.116 94.272C160.035 94.0875 158.038 89.7053 151.683 89.8615C145.359 89.9939 143.994 96.8207 143.98 96.8898C143.937 97.1139 143.765 97.2904 143.542 97.3379C143.503 97.3459 143.464 97.3504 143.424 97.3504H143.426ZM141.261 92.6491L143.214 95.4819C143.976 93.2896 146.192 88.8452 151.66 88.7309C157.145 88.6177 159.735 91.532 160.697 93.0056L164.415 87.9013C163.539 86.5477 159.643 81.3179 152.138 82.1078C144.47 82.9125 141.706 91.1348 141.261 92.6502V92.6491Z" fill="#000072"/>
<path d="M140.836 147.335C140.601 147.335 140.362 147.293 140.13 147.206C138.305 146.522 136.8 145.543 135.655 144.298C134.902 143.479 134.954 142.203 135.773 141.449C136.591 140.695 137.865 140.748 138.617 141.567C139.331 142.342 140.314 142.969 141.541 143.43C142.582 143.821 143.11 144.983 142.72 146.025C142.417 146.834 141.65 147.335 140.835 147.335H140.836Z" fill="#000072"/>
<path d="M135.162 141.124C134.239 141.124 133.406 140.483 133.198 139.542C132.339 135.653 133.666 131.961 133.723 131.805C134.106 130.759 135.263 130.224 136.306 130.606C137.35 130.99 137.886 132.149 137.503 133.193C137.495 133.214 136.531 135.959 137.13 138.671C137.37 139.759 136.685 140.835 135.599 141.075C135.452 141.108 135.306 141.122 135.162 141.122V141.124Z" fill="#000072"/>
<path d="M137.137 142.932L137.131 142.938C137.131 142.938 136.521 145.265 135.227 148.042C133.587 151.539 130.85 155.749 126.84 156.913C126.771 156.93 126.696 156.953 126.627 156.97C122.295 158.151 118.05 155.075 117.613 150.708C117.584 150.466 117.572 150.218 117.572 149.971C117.561 144.446 116.099 140.5 116.059 140.379C116.323 140.597 123.209 146.151 135.162 139.106C135.456 140.431 136.048 141.768 137.136 142.931L137.137 142.932Z" fill="#000072"/>
<path d="M135.228 148.042C133.588 151.539 130.851 155.749 126.841 156.913C126.772 156.93 126.697 156.953 126.628 156.97C122.296 158.151 118.051 155.075 117.614 150.708C120.421 148.358 124.368 146.901 128.745 146.901C131.063 146.901 133.261 147.31 135.228 148.042Z" fill="#FF668F"/>
<path d="M124.744 159.245C122.776 159.245 120.836 158.598 119.206 157.352C116.893 155.583 115.564 152.894 115.56 149.975C115.55 145.225 114.402 141.731 114.171 141.078C114.167 141.067 114.154 141.03 114.151 141.018C113.867 140.165 114.181 139.227 114.922 138.719C115.663 138.21 116.65 138.253 117.342 138.827C117.587 139.026 123.461 143.667 134.143 137.371C134.698 137.042 135.376 137.002 135.967 137.26C136.558 137.517 136.99 138.042 137.13 138.672C137.384 139.821 137.868 140.765 138.608 141.557C139.133 142.118 139.276 142.903 139.043 143.585C138.64 145.051 135.238 156.572 127.402 158.85C127.378 158.858 127.352 158.865 127.326 158.871L127.113 158.928C126.332 159.141 125.536 159.246 124.745 159.246L124.744 159.245ZM119.054 144.011C119.347 145.66 119.581 147.684 119.586 149.967C119.588 151.623 120.34 153.145 121.65 154.146C122.93 155.125 124.553 155.445 126.099 155.024L126.284 154.974C130.798 153.658 133.797 146.873 134.904 143.385C134.586 142.948 134.305 142.485 134.06 141.998C127.482 145.27 122.361 144.969 119.054 144.01V144.011Z" fill="#000072"/>
<path d="M116.055 142.396C115.542 142.396 115.029 142.2 114.636 141.806L114.63 141.8C113.843 141.013 113.843 139.736 114.63 138.948C115.417 138.162 116.691 138.162 117.478 138.948C118.265 139.736 118.267 141.015 117.48 141.803C117.087 142.198 116.571 142.395 116.055 142.395V142.396Z" fill="#000072"/>
<path d="M234.565 152.637C233.871 152.637 233.197 152.278 232.823 151.635C232.264 150.673 232.589 149.439 233.55 148.878C242.629 143.585 244.731 138.436 245.139 137.109C244.47 134.505 240.629 120.837 230.277 105.476C219.74 89.8434 200.082 69.1842 166.269 59.5518C165.2 59.2474 164.579 58.1326 164.883 57.0608C165.187 55.9902 166.302 55.37 167.371 55.6733C202.426 65.6599 222.796 87.1193 233.71 103.363C245.541 120.971 249.034 136.031 249.176 136.663C249.231 136.907 249.24 137.158 249.204 137.405C249.158 137.718 247.925 145.164 235.575 152.363C235.256 152.549 234.908 152.637 234.564 152.637H234.565Z" fill="#000072"/>
<path d="M70.5601 88.9799C70.2832 88.9799 70.004 88.9222 69.7418 88.8022C69.0196 88.4729 68.563 87.744 68.5822 86.9495C68.6534 84.1552 69.3858 81.6597 70.3306 79.5749C69.6536 79.8862 68.8557 79.7911 68.2703 79.3214C67.6645 78.837 67.3978 78.0414 67.5876 77.2888C69.7508 68.7213 73.8738 62.6857 79.8447 59.3481C88.7337 54.3785 98.3608 57.3234 98.7665 57.4513C99.8086 57.7795 100.387 58.8909 100.059 59.9355C99.7328 60.9778 98.6241 61.5573 97.5832 61.2314C97.4996 61.2065 89.1157 58.6804 81.7378 62.826C77.8148 65.0307 74.8243 68.7372 72.8137 73.8731L75.4177 72.5512C76.2958 72.1042 77.3684 72.3747 77.9335 73.1828C78.4986 73.9908 78.3822 75.092 77.6623 75.7654C77.6283 75.7971 74.9498 78.3708 73.4771 82.3353C76.3659 80.4656 80.5262 78.3017 85.3375 77.3816C86.41 77.1779 87.4464 77.8807 87.651 78.9559C87.8555 80.0299 87.1514 81.0677 86.0789 81.2726C78.1369 82.7903 71.9604 88.4004 71.8993 88.457C71.5264 88.7999 71.046 88.9788 70.5601 88.9788V88.9799Z" fill="#000072"/>
<path d="M76.0268 94.1905C75.6923 94.1905 75.3566 94.1079 75.0515 93.9381C74.3428 93.5443 73.936 92.7645 74.0241 91.9576C74.969 83.3324 80.5782 78.9004 80.8166 78.7159C81.6959 78.0346 82.9606 78.1976 83.641 79.0781C84.3191 79.9564 84.1598 81.2183 83.2861 81.9007C83.1313 82.0229 80.5115 84.145 78.9891 88.2782C80.2854 87.813 81.7796 87.4995 83.3291 87.6229C84.4378 87.7123 85.264 88.6834 85.1758 89.7936C85.0865 90.9039 84.1157 91.7244 83.0081 91.6429C80.7432 91.4596 78.0996 93.1074 77.2768 93.7571C76.9129 94.0434 76.471 94.1905 76.0268 94.1905Z" fill="#000072"/>
<path d="M88.7574 111.746C88.5382 111.746 88.3144 111.71 88.0963 111.634C77.7945 108.046 75.1498 98.67 75.0424 98.2728C74.787 97.33 75.2425 96.3409 76.124 95.9233C80.1476 94.014 79.5124 90.2305 79.483 90.0698C79.2841 88.9742 80.0097 87.9251 81.1037 87.7259C82.1989 87.5256 83.2454 88.2533 83.4444 89.3488C83.8332 91.4947 83.3935 95.8814 79.4604 98.6338C80.5024 100.998 83.2669 105.681 89.4197 107.825C90.4697 108.19 91.0246 109.34 90.6596 110.392C90.3702 111.224 89.5915 111.746 88.7574 111.746Z" fill="#000072"/>
<path d="M249.848 143.35C249.411 143.35 248.97 143.208 248.601 142.915C247.729 142.225 247.581 140.956 248.271 140.083C259.261 126.168 262.794 99.9014 263.922 85.4827C264.551 77.4359 262.424 69.3529 257.934 62.7208C217.768 3.39833 159.271 2.35484 135.985 4.65797C128.985 5.35061 122.564 8.61687 117.905 13.8535C97.8589 36.3892 92.512 58.7109 92.46 58.9339C92.2091 60.0181 91.1275 60.6926 90.0447 60.4425C88.962 60.1913 88.2873 59.1104 88.537 58.0262C88.7552 57.0778 94.127 34.5229 114.899 11.1724C120.232 5.17632 127.58 1.43811 135.59 0.645876C159.591 -1.73082 219.887 -0.65791 261.267 60.4561C266.268 67.842 268.637 76.8406 267.936 85.7962C266.772 100.672 263.081 127.831 251.428 142.585C251.031 143.087 250.442 143.35 249.848 143.35Z" fill="#000072"/>
<path d="M259.837 122.598C258.877 122.598 258.027 121.907 257.856 120.927C254.516 101.726 239.898 80.8108 218.752 64.9775C195.455 47.5348 167.104 37.9284 138.92 37.9284C110.736 37.9284 104.795 41.696 97.269 46.4664L96.2337 47.1205C95.2922 47.7125 94.0502 47.4295 93.4579 46.4868C92.8668 45.544 93.1494 44.2991 94.0908 43.7071L95.1148 43.0586C103.192 37.9397 109.572 33.8959 138.92 33.8959C168.268 33.8959 197.174 43.7875 221.164 61.7474C243.112 78.1806 258.313 100.045 261.824 120.233C262.015 121.33 261.282 122.375 260.186 122.566C260.07 122.586 259.954 122.597 259.838 122.597L259.837 122.598Z" fill="#000072"/>
<path d="M259.838 121.997C259.165 121.997 258.568 121.512 258.448 120.824C255.082 101.476 240.377 80.4181 219.112 64.4965C195.712 46.9768 167.232 37.3274 138.92 37.3274C110.609 37.3274 104.557 41.1358 96.948 45.9582L95.915 46.6113C95.2539 47.0266 94.3825 46.8274 93.9665 46.1665C93.5518 45.5055 93.7507 44.6318 94.4107 44.2153L95.4369 43.5668C103.432 38.4999 109.748 34.4969 138.92 34.4969C168.093 34.4969 196.919 44.3455 220.803 62.2284C242.632 78.5722 257.745 100.295 261.232 120.336C261.365 121.106 260.851 121.838 260.082 121.973C260 121.988 259.919 121.995 259.838 121.995V121.997Z" fill="#000072"/>
<path d="M154.056 36.8113C154.056 36.8113 151.744 49.3467 148.642 53.9609C143.545 53.3215 137.654 52.8835 131.345 52.9819C122.587 49.3411 122.496 44.8638 124.387 41.4334C126.25 38.0529 129.875 36.0315 133.732 35.9602C135.375 35.9297 137.104 35.9138 138.921 35.9138C144.041 35.9138 149.092 36.2251 154.056 36.8125V36.8113Z" fill="white"/>
<path d="M148.642 55.113C148.595 55.113 148.547 55.1096 148.499 55.104C142.68 54.374 136.914 54.0492 131.362 54.1329C131.207 54.1375 131.047 54.1058 130.903 54.0447C126.359 52.1558 123.572 49.8141 122.619 47.0866C121.935 45.1241 122.189 43.0349 123.379 40.8755C125.396 37.2131 129.355 34.8885 133.709 34.807C135.373 34.7764 137.126 34.7606 138.92 34.7606C143.969 34.7606 149.107 35.0661 154.19 35.6671C154.507 35.7045 154.793 35.8708 154.982 36.1277C155.17 36.3847 155.245 36.7072 155.187 37.0207C155.091 37.5424 152.795 49.8458 149.597 54.6038C149.383 54.924 149.023 55.113 148.643 55.113H148.642ZM133.108 51.8151C137.98 51.8151 142.996 52.1218 148.053 52.7273C150.269 48.8838 152.058 40.8653 152.684 37.8141C148.094 37.3161 143.471 37.0637 138.92 37.0637C137.14 37.0637 135.401 37.0796 133.752 37.1101C130.218 37.1758 127.015 39.0454 125.394 41.988C124.534 43.5487 124.332 45.0075 124.792 46.3249C125.506 48.37 127.786 50.2193 131.567 51.8253C132.079 51.8185 132.592 51.8151 133.108 51.8151Z" fill="#000072"/>
<path d="M148.642 55.9777C148.56 55.9777 148.476 55.9721 148.391 55.9619C142.613 55.2364 136.884 54.9127 131.375 54.9976C131.098 55.0078 130.827 54.9501 130.571 54.8437C125.792 52.8563 122.842 50.3427 121.804 47.3729C121.045 45.1999 121.329 42.8085 122.623 40.459C124.789 36.5273 129.031 34.0306 133.692 33.9434C135.36 33.9129 137.119 33.897 138.919 33.897C144.002 33.897 149.173 34.2037 154.291 34.8092C154.844 34.8749 155.346 35.1657 155.676 35.6151C156.006 36.0632 156.136 36.6291 156.035 37.178C155.938 37.7066 153.608 50.182 150.313 55.087C149.935 55.6484 149.307 55.9777 148.642 55.9777ZM133.108 50.9527C137.829 50.9527 142.68 51.2379 147.575 51.8026C149.297 48.4787 150.834 42.3728 151.647 38.5769C147.399 38.1479 143.128 37.9306 138.92 37.9306C137.145 37.9306 135.411 37.9465 133.768 37.977C130.541 38.037 127.622 39.7358 126.149 42.409C125.402 43.7637 125.224 44.9521 125.606 46.0431C126.218 47.7951 128.336 49.4916 131.74 50.9617C132.194 50.9561 132.651 50.9538 133.109 50.9538L133.108 50.9527Z" fill="#000072"/>
<path d="M164.093 30.3716C162.943 37.4112 160.958 46.437 157.593 55.396C155.086 54.9003 152.14 54.4046 148.867 53.9903C152.618 44.5198 154.609 34.8658 155.581 28.9727C156.063 26.0177 154.275 23.1951 151.416 22.4051C139.1 19.0008 127.002 21.4205 122.378 22.6179C121.866 22.756 121.423 23.1012 121.181 23.5742C118.351 28.9603 112.466 41.3282 109.768 55.5974C106.69 56.3354 103.607 57.2623 100.558 58.4031C103.008 41.1211 110.228 25.8615 113.542 19.5486C114.917 16.9274 117.35 14.9978 120.214 14.2553C125.518 12.8836 139.388 10.1187 153.711 14.0765C160.833 16.0469 165.291 23.0514 164.094 30.3727L164.093 30.3716Z" fill="white"/>
<path d="M100.557 59.5552C100.298 59.5552 100.044 59.4681 99.8357 59.3006C99.5192 59.0459 99.3598 58.643 99.4175 58.2401C101.917 40.605 109.414 24.9312 112.521 19.011C114.047 16.1023 116.745 13.9622 119.924 13.1383C125.318 11.7439 139.436 8.93603 154.015 12.964C161.7 15.0894 166.52 22.653 165.228 30.5572C163.733 39.7018 161.527 48.1946 158.669 55.8C158.472 56.3274 157.922 56.6341 157.37 56.5244C154.583 55.9743 151.673 55.5058 148.721 55.1312C148.369 55.0859 148.056 54.881 147.875 54.5743C147.694 54.2676 147.665 53.8941 147.796 53.5637C151.421 44.4088 153.412 35.0345 154.444 28.7826C154.831 26.4116 153.397 24.1458 151.108 23.5143C139.054 20.1824 127.2 22.5568 122.663 23.7327C122.469 23.7847 122.293 23.9228 122.203 24.0982C119.101 30.0015 113.516 41.9552 110.897 55.8102C110.812 56.2561 110.474 56.6104 110.035 56.7168C106.921 57.4626 103.868 58.3929 100.96 59.4817C100.829 59.5303 100.692 59.5541 100.558 59.5541L100.557 59.5552ZM137.917 13.1824C130.157 13.1824 123.721 14.5371 120.501 15.369C117.949 16.0299 115.784 17.7491 114.559 20.0828C111.62 25.6827 104.682 40.1647 101.985 56.6636C104.191 55.9019 106.467 55.2274 108.777 54.6513C111.507 40.8121 117.06 28.9388 120.161 23.0367C120.541 22.2931 121.242 21.7306 122.076 21.5042C126.803 20.2797 139.132 17.8124 151.721 21.2926C155.147 22.2376 157.294 25.6193 156.715 29.1561C155.716 35.2088 153.833 44.1395 150.469 53.0374C152.636 53.3362 154.776 53.6848 156.854 54.0775C159.496 46.8478 161.548 38.8157 162.959 30.1837C164.061 23.4441 159.953 16.9953 153.405 15.1845C148.034 13.7008 142.721 13.1813 137.917 13.1813V13.1824Z" fill="#000072"/>
<path d="M100.557 60.4187C100.105 60.4187 99.6582 60.266 99.2954 59.974C98.7416 59.528 98.4636 58.823 98.5642 58.119C101.083 40.3503 108.631 24.5702 111.759 18.6092C113.398 15.4855 116.296 13.1869 119.71 12.3019C125.171 10.8894 139.467 8.04646 154.248 12.131C162.358 14.3741 167.445 22.3565 166.082 30.6964C164.578 39.8976 162.357 48.4458 159.48 56.1045C159.134 57.0269 158.172 57.5633 157.206 57.3732C154.439 56.8265 151.549 56.3614 148.616 55.9902C147.999 55.9121 147.452 55.5522 147.136 55.0157C146.819 54.4793 146.768 53.8262 146.998 53.2468C150.595 44.1632 152.572 34.8534 153.596 28.6434C153.912 26.7103 152.746 24.8622 150.882 24.3484C139.081 21.0855 127.454 23.392 122.942 24.5543C120.437 29.3304 114.431 41.7752 111.747 55.972C111.6 56.7518 111.009 57.3732 110.237 57.5576C107.157 58.2956 104.138 59.2145 101.263 60.2908C101.035 60.3769 100.795 60.4187 100.559 60.4187H100.557ZM137.914 14.0459C130.254 14.0459 123.898 15.3837 120.716 16.2065C118.4 16.8074 116.434 18.367 115.323 20.4857C112.488 25.8876 105.908 39.6056 103.08 55.3869C104.706 54.8584 106.361 54.3785 108.039 53.9485C110.826 40.2326 116.315 28.5031 119.398 22.636C119.884 21.6842 120.783 20.961 121.852 20.6724C126.656 19.4286 139.162 16.9274 151.952 20.4619C155.802 21.5257 158.217 25.3239 157.568 29.2987C156.6 35.1623 154.808 43.7105 151.652 52.3357C153.221 52.5643 154.771 52.819 156.292 53.0974C158.768 46.1574 160.769 38.2294 162.108 30.0479C163.138 23.7451 159.298 17.714 153.176 16.0209C147.886 14.5598 142.651 14.0482 137.916 14.0482L137.914 14.0459ZM122.972 24.4932C122.972 24.4932 122.971 24.4955 122.97 24.4978C122.97 24.4966 122.971 24.4944 122.972 24.4932Z" fill="#000072"/>
<path d="M130.699 42.0118C128.632 42.0118 128.629 45.2282 130.699 45.2282C132.77 45.2282 132.77 42.0118 130.699 42.0118Z" fill="#000072"/>
<path d="M138.285 41.7209C136.218 41.7209 136.215 44.9374 138.285 44.9374C140.356 44.9374 140.356 41.7209 138.285 41.7209Z" fill="#000072"/>
<path d="M145.464 42.8368C143.397 42.8368 143.394 46.0533 145.464 46.0533C147.535 46.0533 147.535 42.8368 145.464 42.8368Z" fill="#000072"/>
<path d="M215.357 86.1946C215.054 86.1946 214.749 86.0973 214.491 85.897C213.875 85.4171 213.765 84.5287 214.244 83.9119C226.401 68.2596 229.283 54.1046 229.56 44.986C229.861 35.1046 227.256 28.829 227.23 28.7656C226.926 28.047 227.259 27.2162 227.977 26.9107C228.694 26.6051 229.522 26.9367 229.829 27.6542C229.946 27.927 232.677 34.4482 232.39 44.9034C232.128 54.4804 229.153 69.3246 216.475 85.648C216.196 86.0067 215.78 86.1946 215.358 86.1946H215.357Z" fill="#000072"/>
<path d="M242.35 187.879C238.114 187.879 234.005 187.49 230.497 186.473C230.277 186.41 230.069 186.308 229.883 186.174L207.732 170.251C206.829 169.601 206.622 168.341 207.27 167.437C207.919 166.533 209.178 166.326 210.08 166.975L231.944 182.692C242.81 185.671 260.217 182.227 267.248 180.594C268.463 180.311 269.312 179.238 269.312 177.984C269.312 177.49 269.176 177.007 268.92 176.587L245.494 138.158C244.914 137.208 245.214 135.967 246.163 135.387C247.112 134.806 248.351 135.107 248.931 136.057L272.356 174.486C272.998 175.539 273.339 176.749 273.339 177.984C273.339 181.125 271.208 183.812 268.159 184.521C262.961 185.729 252.304 187.878 242.35 187.879Z" fill="#000072"/>
<path d="M167.205 240.414C166.415 240.414 165.665 239.946 165.344 239.169C159.747 225.644 139.123 219.268 138.915 219.206C137.851 218.885 137.248 217.76 137.569 216.694C137.888 215.629 139.011 215.023 140.075 215.344C140.998 215.622 162.73 222.324 169.064 237.625C169.49 238.654 169.002 239.834 167.974 240.26C167.722 240.364 167.461 240.414 167.205 240.414Z" fill="#000072"/>
<path d="M127.408 269.351C121.876 269.351 113.829 266.453 111.019 265.372C108.95 265.828 105.214 266.279 103.542 264.152C102.842 263.262 102.292 261.672 103.635 259.148C104.876 256.819 109.411 251.533 111.581 249.055L108.603 245.137C106.721 242.661 107.096 239.136 109.456 237.113L109.618 236.975C111.498 235.362 114.222 235.116 116.395 236.364C118.22 237.41 121.018 238.521 124.285 238.138L140.225 216.876C140.893 215.985 142.153 215.805 143.043 216.474C143.933 217.143 144.112 218.407 143.445 219.297L127.011 241.217C126.708 241.621 126.264 241.897 125.768 241.988C120.982 242.878 116.939 241.323 114.393 239.861C113.694 239.459 112.826 239.53 112.236 240.036L112.075 240.174C111.333 240.81 111.216 241.916 111.807 242.693L115.786 247.929C116.371 248.697 116.328 249.774 115.684 250.495C113.702 252.713 108.312 258.933 107.188 261.045C107.049 261.306 106.965 261.507 106.914 261.654C107.678 261.795 109.307 261.66 110.663 261.312C111.073 261.207 111.51 261.234 111.905 261.39C116.974 263.398 126.15 266.183 129.189 265.108C132.74 263.853 138.135 257.577 139.914 255.265C140.012 255.137 140.125 255.023 140.251 254.922L165.089 235.002C165.957 234.306 167.224 234.446 167.919 235.316C168.614 236.185 168.474 237.453 167.606 238.149L142.953 257.921C141.728 259.489 135.565 267.132 130.53 268.911C129.654 269.22 128.587 269.352 127.408 269.352V269.351Z" fill="#000072"/>
<path d="M173.023 237.098C172.216 237.098 171.455 236.609 171.146 235.811C162.6 213.788 142.078 211.493 141.209 211.406C140.104 211.295 139.294 210.31 139.403 209.202C139.511 208.096 140.489 207.283 141.598 207.392C142.566 207.484 165.431 209.954 174.898 234.35C175.3 235.388 174.787 236.556 173.751 236.96C173.511 237.054 173.265 237.098 173.022 237.098H173.023Z" fill="#000072"/>
<path d="M165.526 278.673C165.097 278.673 164.669 278.577 164.275 278.387C164.024 278.266 158.083 275.346 154.61 269.843C154.051 268.958 154.016 267.84 154.518 266.922L161.206 254.681C161.579 253.998 162.213 253.495 162.962 253.287C163.711 253.081 164.514 253.185 165.184 253.578L173.525 258.474C174.786 259.214 175.292 260.784 174.701 262.122L168.158 276.955C167.842 277.669 167.251 278.225 166.519 278.495C166.198 278.613 165.861 278.672 165.526 278.672V278.673ZM160.431 268.099C161.626 269.576 163.037 270.76 164.226 271.613L168.403 262.145L164.83 260.048L160.431 268.099Z" fill="#C4B7B7"/>
<path d="M165.526 280.088C164.883 280.088 164.238 279.94 163.659 279.66C163.395 279.532 157.105 276.447 153.415 270.599C152.583 269.281 152.531 267.613 153.278 266.244L159.966 254.003C160.518 252.991 161.472 252.234 162.583 251.925C163.699 251.617 164.905 251.777 165.898 252.36L174.239 257.256C176.121 258.361 176.875 260.7 175.993 262.696L169.449 277.529C168.983 278.588 168.092 279.425 167.006 279.824C166.533 280 166.035 280.088 165.526 280.088ZM163.726 254.599C163.595 254.599 163.464 254.616 163.336 254.651C162.959 254.756 162.633 255.014 162.444 255.36L155.757 267.601C155.501 268.068 155.52 268.638 155.803 269.087C159.066 274.258 164.652 276.998 164.888 277.113C165.243 277.285 165.664 277.305 166.028 277.169C166.401 277.032 166.705 276.746 166.865 276.386L173.408 261.552C173.709 260.871 173.451 260.073 172.809 259.696L164.469 254.8C164.244 254.668 163.985 254.6 163.726 254.6V254.599ZM164.226 273.029C163.933 273.029 163.645 272.939 163.402 272.764C161.792 271.609 160.424 270.339 159.333 268.991C158.972 268.545 158.916 267.925 159.192 267.421L163.59 259.37C163.773 259.034 164.085 258.787 164.453 258.685C164.82 258.582 165.214 258.634 165.544 258.828L169.117 260.925C169.736 261.288 169.985 262.059 169.695 262.717L165.517 272.185C165.346 272.574 165.008 272.866 164.597 272.978C164.475 273.012 164.35 273.028 164.226 273.028V273.029ZM162.141 267.918C162.601 268.42 163.111 268.909 163.666 269.383L166.601 262.729L165.372 262.007L162.141 267.919V267.918Z" fill="#000072"/>
<path d="M186.667 251.743C187.096 252.924 187.339 254.176 187.53 255.435C187.713 256.697 187.807 257.973 187.849 259.258C187.893 260.543 187.856 261.83 187.787 263.122C187.753 263.768 187.686 264.409 187.637 265.057L187.412 266.989L183.525 265.937L184.205 264.258C184.409 263.692 184.63 263.126 184.822 262.551C185.207 261.404 185.565 260.239 185.847 259.054C186.132 257.87 186.372 256.667 186.524 255.446C186.669 254.227 186.767 252.988 186.668 251.743H186.667Z" fill="#000072"/>
<path d="M191.662 239.298C191.913 234.78 191.775 230.285 191.22 225.846C190.68 221.406 189.803 216.975 189.122 212.437C189.052 211.974 189.169 211.525 189.415 211.168L189.532 211.001H189.533C189.879 210.55 190.156 210.235 190.476 209.878C190.785 209.532 191.105 209.201 191.428 208.874C192.078 208.225 192.757 207.61 193.467 207.027C194.885 205.863 196.419 204.824 198.075 203.97C201.365 202.251 205.219 201.314 209.024 201.631C210.921 201.774 212.782 202.198 214.538 202.836L215.195 203.078L215.363 203.142L215.563 203.236L215.961 203.427C216.234 203.549 216.462 203.711 216.702 203.864L217.056 204.099L217.374 204.357C218.233 205.044 218.909 205.827 219.478 206.627C220.634 208.228 221.413 209.908 222.085 211.588C222.749 213.272 223.274 214.97 223.728 216.671C224.633 220.075 225.247 223.498 225.736 226.924C226.221 230.349 226.565 233.78 226.818 237.21C227.321 244.072 227.466 250.937 227.342 257.799C227.2 264.662 226.822 271.519 225.931 278.384C225.704 280.101 225.44 281.819 225.107 283.541C224.764 285.267 224.393 286.987 223.793 288.756C223.485 289.639 223.158 290.541 222.569 291.494C221.97 292.416 221.237 293.276 220.368 293.911C218.645 295.229 216.683 295.866 214.82 296.209C212.943 296.547 211.105 296.602 209.305 296.54C207.504 296.475 205.737 296.285 203.998 296.006C200.52 295.459 197.138 294.627 193.815 293.644C192.154 293.153 190.507 292.621 188.873 292.053C188.056 291.77 187.242 291.475 186.429 291.17L185.21 290.702L184.576 290.447C184.263 290.309 184.009 290.179 183.762 290.027C182.776 289.443 181.936 288.646 181.285 287.687C181.134 287.44 180.966 287.202 180.84 286.943L180.479 286.157C180.302 285.616 180.121 285.069 180.055 284.519C179.695 282.295 180.2 280.271 180.852 278.484C181.234 277.439 182.39 276.901 183.434 277.282C184.479 277.665 185.017 278.823 184.635 279.869L184.631 279.879L184.619 279.91C184.105 281.296 183.823 282.713 184.035 283.869C184.061 284.17 184.168 284.427 184.241 284.699C184.304 284.821 184.361 284.944 184.415 285.07C184.472 285.195 184.56 285.3 184.626 285.42C184.927 285.866 185.347 286.271 185.826 286.549C185.939 286.623 186.068 286.682 186.141 286.717L186.691 286.935L187.85 287.379C188.629 287.67 189.413 287.954 190.201 288.225C191.776 288.772 193.366 289.282 194.963 289.753C198.155 290.695 201.389 291.481 204.623 291.987C206.241 292.245 207.858 292.414 209.452 292.471C211.043 292.525 212.62 292.465 214.088 292.198C215.553 291.933 216.899 291.439 217.88 290.678C218.392 290.315 218.758 289.845 219.096 289.354C219.41 288.864 219.687 288.159 219.931 287.438C220.426 285.983 220.781 284.371 221.097 282.761C221.408 281.144 221.66 279.497 221.877 277.843C222.732 271.211 223.102 264.457 223.232 257.719C223.349 250.976 223.197 244.221 222.699 237.512C222.447 234.159 222.108 230.816 221.635 227.504C221.161 224.196 220.564 220.91 219.716 217.739C219.292 216.155 218.806 214.6 218.221 213.119C217.635 211.646 216.951 210.222 216.107 209.068C215.694 208.483 215.237 207.973 214.765 207.602L214.591 207.456L214.411 207.343C214.292 207.269 214.177 207.175 214.057 207.134L213.881 207.048L213.794 207.002L213.663 206.954L213.124 206.757C211.687 206.237 210.206 205.904 208.714 205.792C205.729 205.549 202.72 206.267 199.996 207.686C198.631 208.391 197.336 209.266 196.129 210.261C195.524 210.756 194.943 211.285 194.391 211.837C194.117 212.116 193.845 212.395 193.589 212.683C193.341 212.956 193.063 213.286 192.889 213.51L193.3 212.074C193.368 216.555 193.65 221.11 193.594 225.71C193.552 230.31 193.073 234.893 192.217 239.358C192.188 239.511 192.041 239.611 191.889 239.581C191.749 239.554 191.654 239.428 191.662 239.289V239.298Z" fill="#000072"/>
<path d="M193.809 256.666C198.481 256.51 208.045 256.628 217.224 259.414C218.257 259.728 218.691 260.954 218.089 261.853C216.383 264.401 212.606 269.004 206.393 271.349C205.918 271.529 205.386 271.456 204.963 271.175C203.076 269.928 197.633 266.004 192.586 259.243C191.808 258.202 192.511 256.708 193.81 256.664L193.809 256.666Z" fill="#F7AE46"/>
<path d="M205.854 273.463C205.154 273.463 204.455 273.258 203.853 272.86C201.704 271.439 196.15 267.386 190.972 260.452C190.159 259.363 190.019 257.926 190.607 256.7C191.192 255.481 192.392 254.696 193.741 254.651C198.697 254.483 208.414 254.632 217.807 257.485C218.915 257.821 219.774 258.641 220.164 259.733C220.548 260.812 220.398 262.024 219.76 262.976C217.926 265.716 213.843 270.691 207.103 273.235C206.701 273.387 206.277 273.462 205.854 273.462V273.463ZM194.668 258.659C199.191 264.531 203.884 268.028 205.898 269.38C211.113 267.343 214.435 263.554 216.103 261.185C207.902 258.793 199.462 258.55 194.666 258.659H194.668Z" fill="#000072"/>
<g opacity="0.3">
<path d="M210.586 268.08C208.749 266.865 203.532 263.098 198.595 256.649C196.712 256.604 195.076 256.623 193.809 256.666C192.511 256.709 191.807 258.203 192.585 259.246C197.633 266.006 203.076 269.93 204.961 271.178C205.385 271.458 205.918 271.53 206.392 271.351C208.558 270.534 210.42 269.439 212.009 268.257C211.536 268.433 211.007 268.361 210.585 268.082L210.586 268.08Z" fill="#000072"/>
</g>
<path d="M208.817 242.877C207.229 242.877 205.94 241.588 205.94 239.997V204.368C205.94 202.776 207.229 203.394 208.817 203.394C210.404 203.394 211.693 202.776 211.693 204.368V239.997C211.693 241.588 210.404 242.877 208.817 242.877Z" fill="white"/>
<path d="M208.817 244.29C206.451 244.29 204.527 242.364 204.527 239.995V204.366C204.527 203.538 204.776 202.891 205.268 202.445C206.041 201.742 207.022 201.837 207.887 201.92C208.498 201.978 209.135 201.978 209.746 201.92C210.611 201.837 211.593 201.742 212.365 202.445C212.857 202.892 213.106 203.538 213.106 204.366V239.995C213.106 242.364 211.182 244.29 208.817 244.29ZM207.353 204.71V239.995C207.353 240.803 208.01 241.461 208.817 241.461C209.623 241.461 210.28 240.803 210.28 239.995V204.71C210.19 204.718 210.098 204.727 210.016 204.735C209.662 204.769 209.26 204.808 208.817 204.808C208.373 204.808 207.971 204.769 207.617 204.735C207.535 204.727 207.443 204.718 207.353 204.71Z" fill="#000072"/>
<path d="M211.693 212.196C211.485 212.196 211.277 212.12 211.113 211.966L205.36 206.565C205.019 206.245 205.001 205.708 205.322 205.366C205.642 205.024 206.178 205.006 206.52 205.327L212.273 210.728C212.614 211.048 212.632 211.586 212.311 211.928C212.144 212.105 211.919 212.196 211.693 212.196Z" fill="#000072"/>
<path d="M211.693 218.81C211.485 218.81 211.277 218.734 211.113 218.58L205.36 213.179C205.019 212.859 205.001 212.322 205.322 211.98C205.642 211.638 206.178 211.62 206.52 211.941L212.273 217.342C212.614 217.662 212.632 218.2 212.311 218.542C212.144 218.719 211.919 218.81 211.693 218.81Z" fill="#000072"/>
<path d="M211.693 225.425C211.485 225.425 211.277 225.349 211.113 225.195L205.36 219.795C205.019 219.474 205.001 218.937 205.322 218.595C205.642 218.252 206.178 218.235 206.52 218.556L212.273 223.957C212.614 224.277 212.632 224.815 212.311 225.157C212.144 225.335 211.919 225.425 211.693 225.425Z" fill="#000072"/>
<path d="M211.693 232.039C211.485 232.039 211.277 231.963 211.113 231.809L205.36 226.409C205.019 226.088 205.001 225.551 205.322 225.209C205.642 224.867 206.178 224.849 206.52 225.17L212.273 230.571C212.614 230.892 212.632 231.429 212.311 231.771C212.144 231.949 211.919 232.039 211.693 232.039Z" fill="#000072"/>
<path d="M211.693 238.653C211.485 238.653 211.277 238.577 211.113 238.423L205.36 233.023C205.019 232.702 205.001 232.165 205.322 231.823C205.642 231.481 206.178 231.463 206.52 231.784L212.273 237.185C212.614 237.505 212.632 238.043 212.311 238.385C212.144 238.563 211.919 238.653 211.693 238.653Z" fill="#000072"/>
<g opacity="0.3">
<path d="M98.1731 66.6864C98.1731 66.6864 187.53 28.674 245.643 140.19C246.731 138.356 247.214 137.109 247.214 137.109C208.718 27.85 98.1731 59.3413 98.1731 59.3413C98.1731 59.3413 75.9296 52.3323 69.5056 77.7754L73.2499 75.8741C81.9965 61.5935 98.172 66.6864 98.172 66.6864H98.1731Z" fill="#000072"/>
</g>
<path d="M111.083 104.844C106.271 103.238 100.809 108.075 98.8829 115.646C96.957 123.218 99.2977 130.658 104.11 132.264C108.922 133.87 114.385 129.033 116.311 121.461C118.236 113.89 115.896 106.45 111.083 104.844Z" fill="#000072"/>
<path d="M110.218 108.003C108.543 108.37 107.446 110.852 107.77 113.546C108.093 116.24 109.714 118.124 111.39 117.756C113.065 117.388 114.161 114.906 113.838 112.213C113.514 109.519 111.894 107.635 110.219 108.003H110.218Z" fill="white"/>
<path d="M102.287 123.459C101.452 123.892 101.129 125.321 101.565 126.651C102.001 127.98 103.031 128.707 103.866 128.275C104.701 127.841 105.024 126.413 104.588 125.083C104.153 123.753 103.122 123.027 102.287 123.459Z" fill="#B199C5"/>
<path d="M143.471 124.684C143.147 123.297 143.596 121.798 144.282 120.593C144.978 119.368 145.929 118.34 146.982 117.472C148.037 116.597 149.215 115.899 150.471 115.348C151.729 114.802 153.064 114.386 154.478 114.192C155.888 114.004 157.381 113.999 158.882 114.332C160.379 114.652 161.869 115.337 163.111 116.357C164.354 117.371 165.331 118.718 165.87 120.186C166.417 121.649 166.582 123.22 166.306 124.682C166.121 125.667 165.175 126.314 164.192 126.129C163.509 126 162.988 125.503 162.796 124.881L162.736 124.682C162.167 122.824 161.206 121.403 159.888 120.54C158.598 119.66 156.901 119.256 154.95 119.286C153.013 119.347 150.932 119.818 149.022 120.662C148.072 121.091 147.155 121.605 146.354 122.246C145.557 122.893 144.882 123.653 144.522 124.682L144.502 124.739C144.404 125.02 144.097 125.167 143.817 125.068C143.639 125.006 143.513 124.854 143.473 124.682L143.471 124.684Z" fill="#000072"/>
<g opacity="0.3">
<path d="M265.858 78.9683C265.804 79.1958 265.75 79.4233 265.696 79.6508C262.095 94.7326 242.951 99.3819 232.832 87.6433C211.025 62.3439 184.822 50.7705 160.608 46.171C162.228 40.4386 163.342 34.9801 164.094 30.3739C165.291 23.0525 160.833 16.0469 153.711 14.0776C147.239 12.2894 140.862 11.8763 135.324 12.0846C139.51 12.2476 143.999 12.8248 148.534 14.0776C155.655 16.048 160.114 23.0525 158.917 30.3739C158.587 32.3918 158.188 34.5727 157.708 36.869C156.728 41.5477 152.398 44.7812 147.647 44.3149C134.545 43.0281 122.445 43.5611 112.479 44.7189C115.38 35.2495 119.103 27.5309 121.181 23.5765C121.423 23.1034 121.866 22.7582 122.378 22.6202C124.876 21.9728 129.559 20.9701 135.278 20.7211C127.262 20.3623 120.42 21.7861 117.2 22.6202C116.688 22.7582 116.245 23.1034 116.003 23.5765C114.398 26.63 112.659 29.8227 110.646 35.4C109.346 39.0002 106.455 41.8499 102.773 42.881C99.587 43.7739 96.5524 45.2135 94.1203 47.8675C91.4462 54.374 90.4991 58.4812 90.4991 58.4812L95.663 61.1657C110.508 55.0961 130.246 50.5079 152.978 53.8477C152.895 54.0786 152.815 54.3084 152.731 54.5392C154.488 54.8143 156.119 55.1051 157.595 55.3971C157.685 55.156 157.771 54.9161 157.859 54.675C162.461 55.5691 167.176 56.7948 171.991 58.4042C232.385 78.5869 249.852 141.334 249.852 141.334C261.017 127.197 264.71 101.254 265.931 85.6401C266.106 83.406 266.077 81.1753 265.86 78.9695L265.858 78.9683Z" fill="#000072"/>
</g>
<path d="M118.499 257.724C117.662 259.064 116.732 260.36 115.695 261.614C114.639 262.859 113.511 264.075 111.938 265.126L111.828 265.2C110.873 265.838 109.581 265.58 108.944 264.623C108.307 263.666 108.564 262.373 109.52 261.734C109.788 261.555 110.092 261.446 110.391 261.404C111.651 261.229 113.083 260.683 114.45 260.031C115.825 259.368 117.187 258.594 118.5 257.726L118.499 257.724Z" fill="#000072"/>
<path d="M41.8688 76.2181C45.2989 72.6678 47.6407 68.0072 48.2657 62.7219C49.7824 49.8945 40.6278 38.2645 27.8192 36.7457C15.0095 35.2269 3.39556 44.3941 1.87883 57.2204C0.3621 70.0478 9.51673 81.6778 22.3253 83.1966C25.8888 83.6187 29.3574 83.2124 32.5446 82.1327L42.5627 86.8658L41.8688 76.2181Z" fill="white"/>
<g opacity="0.5">
<path d="M27.2903 41.2127C39.2557 42.632 48.0295 52.8744 47.8972 64.673C48.0803 63.8695 48.2273 63.049 48.3256 62.2126C49.8423 49.3852 40.6877 37.7552 27.8791 36.2364C15.0694 34.7176 3.45545 43.8848 1.93872 56.7111C1.83926 57.552 1.7884 58.3872 1.77823 59.2157C4.39691 47.7057 15.3203 39.7935 27.2903 41.2127Z" fill="white"/>
</g>
<path d="M42.5616 88.5826C42.3129 88.5826 42.0631 88.5283 41.8303 88.4185L32.4248 83.9752C29.0862 85.0051 25.6232 85.3152 22.123 84.9021C8.39556 83.2735 -1.44963 70.7653 0.175597 57.0189C1.80196 43.2726 14.2963 33.4149 28.0193 35.0413C34.6694 35.8301 40.6142 39.1643 44.7598 44.4303C48.9054 49.6964 50.7544 56.264 49.9666 62.9233C49.3462 68.169 47.1592 72.9666 43.6262 76.8497L44.2716 86.7548C44.3111 87.3615 44.0274 87.9432 43.5256 88.285C43.2363 88.4819 42.8995 88.5826 42.5616 88.5826ZM32.5434 80.4181C32.7944 80.4181 33.0441 80.4736 33.2747 80.5822L40.6617 84.0726L40.1576 76.3313C40.126 75.8481 40.3 75.375 40.6357 75.0264C43.9517 71.5938 46.0008 67.2693 46.5625 62.5216C47.2429 56.7733 45.6459 51.1032 42.0677 46.5569C38.4894 42.0106 33.3561 39.1314 27.6158 38.4512C15.7667 37.0456 4.98235 45.5565 3.57863 57.4241C2.17492 69.2918 10.6752 80.0888 22.5253 81.4944C25.7509 81.8781 28.9358 81.5453 31.993 80.5098C32.1716 80.4498 32.357 80.4192 32.5423 80.4192L32.5434 80.4181Z" fill="#000072"/>
<g opacity="0.3">
<path d="M42.045 76.028C34.6208 79.9167 25.5023 80.3049 17.4383 76.2623C8.495 71.7794 3.12993 62.9924 2.57953 53.6644C2.25968 54.8131 2.02234 56.0004 1.87767 57.2215C0.36094 70.0489 9.51557 81.6789 22.3242 83.1977C25.8877 83.6199 29.3563 83.2136 32.5434 82.1339L42.5615 86.8669L41.8676 76.2193C41.9275 76.157 41.9851 76.0914 42.045 76.0291V76.028Z" fill="#000072"/>
</g>
<path d="M32.4576 53.403C30.4368 51.3794 27.1592 51.7415 25.1384 53.7651L24.8242 54.0797L24.51 53.7651C22.4892 51.7415 19.2116 51.3782 17.1908 53.403C15.17 55.4265 15.17 58.7087 17.1908 60.7322L17.505 61.0469L23.8601 67.4108C24.3924 67.9438 25.2571 67.9438 25.7894 67.4108L32.1445 61.0469L32.4587 60.7322C34.4795 58.7087 34.4795 55.4265 32.4587 53.403H32.4576Z" fill="#FF0068"/>
</svg>
