<?xml version="1.0" encoding="UTF-8"?>
<svg id="Layer_1" data-name="Layer 1" xmlns="http://www.w3.org/2000/svg" width="725.97" height="490" viewBox="0 0 725.97 490">
  <defs>
    <style>
      .cls-1 {
        fill: #69405b;
      }

      .cls-2 {
        fill: #edf2fe;
      }

      .cls-3 {
        fill: #fff;
      }

      .cls-4 {
        fill: #9195c1;
      }

      .cls-5 {
        fill: #6b174f;
      }

      .cls-6 {
        fill: #685162;
      }

      .cls-7 {
        fill: #a7a9d4;
      }

      .cls-8 {
        fill: #da7a26;
      }

      .cls-9 {
        fill: #705d6c;
      }
    </style>
  </defs>
  <polygon class="cls-6" points="358.27 431.22 15.71 431.22 108.01 402.89 450.91 402.89 358.27 431.22"/>
  <path class="cls-2" d="M461.8,248.21H178.48c-3.27,0-5.92-2.65-5.92-5.92V8.12c0-3.27,2.65-5.92,5.92-5.92H461.8V248.21Z"/>
  <path class="cls-3" d="M187.87,248.18c-3.27,0-5.92-2.65-5.92-5.92V8.08c0-3.05,2.31-5.56,5.28-5.88h-8.75c-3.27,0-5.92,2.65-5.92,5.92V242.3c0,3.27,2.65,5.92,5.92,5.92H461.8v-.03H187.87Z"/>
  <path class="cls-5" d="M464,250.41H178.48c-4.48,0-8.12-3.64-8.12-8.12V8.12c0-4.48,3.64-8.12,8.12-8.12H464V250.41ZM178.48,4.41c-2.05,0-3.71,1.67-3.71,3.71V242.3c0,2.05,1.67,3.71,3.71,3.71H459.6V4.41H178.48Z"/>
  <rect class="cls-8" x="197.21" y="23.76" width="238.76" height="196.64"/>
  <rect class="cls-2" x="197.21" y="23.76" width="238.76" height="196.64"/>
  <rect class="cls-3" x="197.12" y="215.73" width="238.76" height="1.98"/>
  <polygon class="cls-7" points="208.54 23.81 435.97 23.81 435.97 23.76 197.21 23.76 197.21 220.4 208.54 220.4 208.54 23.81"/>
  <polygon class="cls-7" points="216.54 39.77 208.54 23.78 208.54 220.39 213.71 209.22 216.54 39.77"/>
  <path class="cls-6" d="M427.64,210.72H218.31c-4.1,0-7.51-3.17-7.79-7.27-3.71-54.25-3.71-108.5,0-162.75,.28-4.09,3.69-7.27,7.79-7.27h201.9c4.16,0,7.6,3.27,7.8,7.42,2.89,59.49,2.76,116.1-.38,169.86Z"/>
  <path class="cls-1" d="M421.53,198.85c-.2,3.7-3.25,6.59-6.95,6.59H224.31c-3.86,0-7.06-2.98-7.32-6.83-.63-9.23-1.15-18.47-1.55-27.7-.16-3.78,3.43-6.6,7.07-5.57,16.93,4.82,34.79,7.4,53.27,7.4,55.25,0,105.1-23.07,140.46-60.1,2.59-2.72,7.18-.88,7.2,2.87,.16,28.54-.47,56.32-1.91,83.34Z"/>
  <path class="cls-1" d="M215.44,208.37c-3.71-54.25-3.71-108.5,0-162.75,.28-4.09,3.69-7.27,7.79-7.27h201.9c.87,0,1.71,.14,2.49,.41-1.04-3.11-3.97-5.32-7.4-5.32H218.31c-4.1,0-7.51,3.17-7.79,7.27-3.71,54.25-3.71,108.5,0,162.75,.22,3.23,2.39,5.88,5.3,6.86-.21-.62-.34-1.27-.39-1.94Z"/>
  <rect class="cls-2" x="288.85" y="248.29" width="112.13" height="22.83"/>
  <path class="cls-2" d="M473.38,402.25H143.33c-3.23,0-5.85-2.62-5.85-5.85v-119.42c0-3.23,2.62-5.85,5.85-5.85H473.38v131.13Z"/>
  <path class="cls-3" d="M146.47,396.67v-119.42c0-3.23,2.62-5.85,5.85-5.85H473.38v-.27H143.33c-3.23,0-5.85,2.62-5.85,5.85v119.42c0,3.23,2.62,5.85,5.85,5.85h7.21c-2.36-.75-4.08-2.96-4.08-5.58Z"/>
  <path class="cls-4" d="M627.74,402.33h-154.44v-131.13h154.44c1.2,0,2.18,.97,2.18,2.18v126.77c0,1.2-.97,2.18-2.18,2.18Z"/>
  <rect class="cls-4" x="400.9" y="248.29" width="82.97" height="22.83"/>
  <path class="cls-7" d="M507.09,248.38h-45.29V2.29h45.29c2.97,0,5.38,2.41,5.38,5.38V242.99c0,2.97-2.41,5.38-5.38,5.38Z"/>
  <path class="cls-5" d="M438.18,222.61H195.01V21.56h243.17V222.61Zm-238.76-4.41h234.36V25.96H199.42V218.2Z"/>
  <path class="cls-7" d="M512.45,236.88l67.41-35.38c5.98-3.14,9.73-9.34,9.73-16.1V65.35c0-6.89-3.9-13.19-10.06-16.27l-67.08-33.47V236.88Z"/>
  <polygon class="cls-4" points="535.14 26.93 512.45 15.62 512.45 236.88 535.14 224.97 535.14 26.93"/>
  <rect class="cls-7" x="154.39" y="285.03" width="114.47" height="39.15"/>
  <path class="cls-5" d="M429.72,212.93H218.31c-5.24,0-9.63-4.09-9.99-9.32-3.7-54.1-3.7-108.95,0-163.05,.36-5.23,4.74-9.32,9.99-9.32h201.9c5.35,0,9.74,4.18,10,9.52,2.88,59.29,2.75,116.51-.38,170.09l-.12,2.07ZM218.31,35.65c-2.94,0-5.39,2.29-5.59,5.21-3.68,53.9-3.68,108.55,0,162.45,.2,2.92,2.66,5.21,5.59,5.21h207.25c3-52.82,3.09-109.18,.25-167.55-.14-2.99-2.6-5.33-5.6-5.33H218.31Z"/>
  <path class="cls-9" d="M246.41,94.07c-3.48,2.25-3.78,6.41-5.89,9.67-.87,.97-1.73,1.78-2.96,2.38-.54,.24-1.08,.45-1.63,.61-2.73,.83-5.5,.69-7.86-.62-5.68-3.14-6.89-11.82-2.7-19.39s12.18-11.16,17.86-8.02c.47,.26,.92,.56,1.33,.9,1.88,2,4.17,3.24,6.44,4.99,4.07,2.97-.58,7.48-3.68,8.99-.28,.14-.58,.3-.9,.49Z"/>
  <path class="cls-9" d="M260.31,68.15c-.78,.21-1.3,.86-1.98,1.34-2.91,2.4-5.27,8.16-9.64,5.9-.48-.26-.92-.57-1.32-.91-2.8-2.39-3.63-6.51-1.77-9.87,1.59-2.88,4.7-4.38,7.77-4.06,.51,.05,1.02,.16,1.52,.31,3.02,.95,6.79,3.08,5.93,6.66-.11,.25-.28,.46-.51,.64Z"/>
  <path class="cls-5" d="M507.09,250.58h-47.5V.08h47.5c4.18,0,7.59,3.4,7.59,7.59V242.99c0,4.18-3.4,7.59-7.59,7.59Zm-43.09-4.41h43.09c1.75,0,3.18-1.43,3.18-3.18V7.67c0-1.75-1.43-3.18-3.18-3.18h-43.09V246.17Z"/>
  <path class="cls-5" d="M510.25,240.53V12.05l70.26,35.06c6.96,3.47,11.28,10.46,11.28,18.24v120.05c0,7.6-4.18,14.52-10.91,18.05l-70.64,37.07Zm4.41-221.35V233.24l64.18-33.69c5.28-2.77,8.55-8.19,8.55-14.15V65.35c0-6.1-3.39-11.58-8.84-14.3l-63.89-31.88Z"/>
  <path class="cls-5" d="M403.19,273.32h-116.54v-27.23h116.54v27.23Zm-112.13-4.41h107.73v-18.42h-107.73v18.42Z"/>
  <path class="cls-5" d="M486.08,273.32h-87.38v-27.23h87.38v27.23Zm-82.97-4.41h78.57v-18.42h-78.57v18.42Z"/>
  <path class="cls-5" d="M475.58,404.45H143.33c-4.44,0-8.06-3.61-8.06-8.06v-119.42c0-4.44,3.61-8.06,8.06-8.06H475.58v135.53ZM143.33,273.32c-2.01,0-3.65,1.64-3.65,3.65v119.42c0,2.01,1.64,3.65,3.65,3.65H471.18v-126.72H143.33Z"/>
  <path class="cls-5" d="M627.74,404.53h-156.65v-135.53h156.65c2.41,0,4.38,1.96,4.38,4.38v126.77c0,2.41-1.96,4.38-4.38,4.38Zm-152.24-4.41h152.21v-126.72h-152.21v126.72Z"/>
  <polygon class="cls-6" points="162.34 295.83 162.34 302.88 224.9 302.88 224.9 309.93 260.36 309.93 260.36 302.88 260.36 295.83 162.34 295.83"/>
  <path class="cls-5" d="M262.57,312.13h-39.87v-7.05h-62.56v-11.45h102.43v18.5Zm-35.46-4.41h31.06v-9.69h-93.62v2.64h62.56v7.05Z"/>
  <path class="cls-5" d="M271.06,326.39h-118.87v-43.56h118.87v43.56Zm-114.47-4.41h110.06v-34.75h-110.06v34.75Z"/>
  <rect class="cls-5" x="493.72" y="271.2" width="4.41" height="131.04"/>
  <rect class="cls-5" x="484.94" y="2.2" width="4.41" height="246.01"/>
  <rect class="cls-7" x="277.99" y="285.03" width="15.64" height="39.21"/>
  <path class="cls-5" d="M295.83,326.45h-20.04v-43.61h20.04v43.61Zm-15.64-4.41h11.23v-34.8h-11.23v34.8Z"/>
  <g>
    <g>
      <path class="cls-2" d="M682,430.49c-15.11,0-30.53-6.35-43.66-11.76-.92-.38-1.83-.75-2.72-1.12-30.43-12.46-63.68-22.65-100.64-12.87-7.82,2.07-14.22,5.26-19.02,9.48l-4.36-4.96c5.58-4.9,12.87-8.57,21.69-10.9,17.28-4.57,34.83-5.33,53.65-2.31,15.09,2.42,31.36,7.33,51.19,15.45,.9,.37,1.81,.74,2.73,1.12,17.16,7.07,38.53,15.87,56.13,8.37,9.69-4.13,17.58-14.56,20.08-26.58,3.96-19-2.3-45.09-21.71-56.02-20.2-11.37-48.38-5.43-65.34,2.69v-7.28c10.76-5.14,22.54-8.14,34.06-8.67,12.82-.59,24.76,2.01,34.52,7.51,10.18,5.73,17.92,15.29,22.38,27.64,4.07,11.28,4.98,23.88,2.56,35.49-1.38,6.6-4.2,12.96-8.16,18.38-4.3,5.89-9.77,10.36-15.8,12.93-5.7,2.43-11.62,3.42-17.58,3.42Z"/>
      <g>
        <path class="cls-4" d="M695.36,338.38c15.05,8.48,22.2,26.07,22.8,42.4,.3-17.21-6.76-36.65-22.84-45.71-20.18-11.36-48.34-5.44-65.3,2.67v3.32c16.96-8.12,45.14-14.06,65.34-2.69Z"/>
        <path class="cls-4" d="M724.83,380.36c-.06,4.09-.5,8.15-1.32,12.1-1.38,6.6-4.2,12.96-8.16,18.38-4.3,5.89-9.77,10.36-15.8,12.93-5.7,2.43-11.62,3.42-17.58,3.42-15.11,0-30.53-6.35-43.66-11.76-.92-.38-1.83-.75-2.72-1.12-30.43-12.46-63.68-22.65-100.64-12.87-7.82,2.07-14.22,5.26-19.02,9.48l-2.67-3.03c-.57,.45-1.12,.9-1.66,1.38l4.36,4.96c4.8-4.22,11.2-7.41,19.02-9.48,36.96-9.78,70.21,.41,100.64,12.87,.9,.37,1.8,.74,2.72,1.12,13.13,5.41,28.55,11.76,43.66,11.76,5.96,0,11.88-.99,17.58-3.42,6.03-2.57,11.5-7.04,15.8-12.93,3.96-5.43,6.79-11.78,8.16-18.38,1.04-5.01,1.47-10.21,1.28-15.4Z"/>
      </g>
    </g>
    <path class="cls-5" d="M682,431.59v0c-15.32,0-30.59-6.29-44.07-11.84-.93-.38-1.83-.76-2.73-1.12-30.25-12.39-63.3-22.52-99.94-12.82-7.65,2.03-13.9,5.13-18.57,9.24l-.83,.73-5.82-6.62,.83-.73c5.7-5.01,13.15-8.76,22.14-11.14,17.43-4.61,35.13-5.38,54.1-2.33,15.18,2.43,31.52,7.37,51.43,15.52,.9,.37,1.81,.74,2.74,1.13,16.98,6.99,38.1,15.69,55.28,8.38,9.37-3.99,17-14.12,19.44-25.8,3.88-18.62-2.22-44.16-21.18-54.84-8.88-5-20.37-7.01-33.24-5.83-10.41,.96-21.74,4.08-31.09,8.55l-1.58,.76,.02-9.73,.62-.3c10.88-5.21,22.8-8.24,34.47-8.77,13.03-.59,25.17,2.05,35.12,7.65,10.41,5.86,18.32,15.62,22.87,28.23,4.14,11.47,5.07,24.28,2.6,36.09-1.41,6.75-4.3,13.25-8.35,18.81-4.42,6.05-10.04,10.65-16.26,13.3-5.46,2.33-11.52,3.51-18.01,3.51Zm-116.87-31.86c25.35,0,48.87,7.83,70.9,16.86,.9,.37,1.8,.74,2.72,1.12,13.29,5.48,28.35,11.68,43.24,11.68h0c6.19,0,11.96-1.12,17.15-3.33,5.85-2.49,11.16-6.84,15.34-12.57,3.87-5.3,6.63-11.51,7.97-17.96,2.38-11.41,1.48-23.8-2.52-34.89-4.37-12.1-11.94-21.46-21.88-27.06-9.58-5.4-21.32-7.94-33.93-7.36-11.16,.51-22.55,3.37-33,8.26v4.86c9.25-4.19,20.17-7.09,30.25-8.02,13.32-1.23,25.25,.88,34.53,6.1,19.87,11.19,26.29,37.82,22.25,57.21-2.58,12.36-10.72,23.11-20.73,27.37-4.92,2.09-10.1,2.96-15.39,2.96-14.1,0-28.97-6.12-41.59-11.32-.92-.38-1.83-.76-2.73-1.12-19.75-8.09-35.94-12.98-50.94-15.38-18.66-2.99-36.06-2.25-53.19,2.29-8.22,2.17-15.08,5.52-20.41,9.95l2.91,3.31c4.82-3.98,11.08-7.01,18.63-9,10.43-2.76,20.57-3.95,30.43-3.95Z"/>
  </g>
  <g>
    <g>
      <polygon class="cls-6" points="468.63 465.58 393.04 465.58 485.34 437.26 561.27 437.26 468.63 465.58"/>
      <polygon class="cls-7" points="545.84 411.91 545.84 434.6 452.22 463.02 452.22 440.33 545.84 411.91"/>
      <rect class="cls-2" x="377.55" y="440.33" width="74.58" height="22.69"/>
      <polygon class="cls-2" points="453.21 440.25 377.62 440.25 469.92 411.93 545.85 411.93 453.21 440.25"/>
      <path class="cls-5" d="M453.21,442.45h-75.59c-1.09,0-2.02-.8-2.18-1.88s.49-2.11,1.53-2.43l92.31-28.32c.21-.06,.43-.1,.65-.1h75.92c1.09,0,2.02,.8,2.18,1.88,.16,1.08-.49,2.11-1.53,2.43l-92.64,28.32c-.21,.06-.43,.1-.64,.1Zm-60.9-4.41h60.57l78.23-23.92h-60.86l-77.95,23.92Z"/>
      <path class="cls-5" d="M452.13,465.22h-74.58c-1.22,0-2.2-.99-2.2-2.2v-22.69c0-1.22,.99-2.2,2.2-2.2h74.58c1.22,0,2.2,.99,2.2,2.2v22.69c0,1.22-.99,2.2-2.2,2.2Zm-72.38-4.41h70.18v-18.28h-70.18v18.28Z"/>
      <path class="cls-5" d="M452.22,465.22c-.47,0-.93-.15-1.31-.43-.56-.42-.89-1.07-.89-1.77v-22.69c0-.97,.63-1.83,1.56-2.11l93.62-28.42c.67-.2,1.39-.08,1.95,.34,.56,.42,.89,1.07,.89,1.77v22.69c0,.97-.63,1.83-1.56,2.11l-93.62,28.42c-.21,.06-.43,.09-.64,.09Zm2.2-23.26v18.08l89.21-27.08v-18.08l-89.21,27.08Z"/>
    </g>
    <g>
      <polygon class="cls-7" points="499.13 411.47 499.13 416.46 478.55 422.71 478.55 417.72 499.13 411.47"/>
      <g>
        <rect class="cls-2" x="462.14" y="417.72" width="16.4" height="4.99"/>
        <path class="cls-5" d="M479.63,423.81h-18.6v-7.19h18.6v7.19Zm-16.4-2.2h14.19v-2.78h-14.19v2.78Z"/>
      </g>
      <polygon class="cls-2" points="478.77 417.7 462.15 417.7 482.44 411.48 499.13 411.48 478.77 417.7"/>
      <path class="cls-5" d="M478.77,418.8h-16.62c-.55,0-1.01-.4-1.09-.94-.08-.54,.24-1.06,.77-1.22l20.29-6.23c.1-.03,.21-.05,.32-.05h16.69c.55,0,1.01,.4,1.09,.94,.08,.54-.25,1.06-.77,1.22l-20.36,6.23c-.1,.03-.21,.05-.32,.05Zm-9.27-2.2h9.11l13.16-4.02h-9.16l-13.11,4.02Z"/>
      <path class="cls-5" d="M478.53,423.19h-16.4c-.27,0-.48-.22-.48-.48v-4.99c0-.27,.22-.48,.48-.48h16.4c.27,0,.48,.22,.48,.48v4.99c0,.27-.22,.48-.48,.48Zm-15.91-.97h15.43v-4.02h-15.43v4.02Z"/>
      <path class="cls-5" d="M478.55,423.81c-.23,0-.46-.07-.66-.22-.28-.21-.45-.54-.45-.88v-4.99c0-.49,.32-.91,.78-1.05l20.58-6.25c.33-.1,.7-.04,.98,.17,.28,.21,.45,.54,.45,.88v4.99c0,.49-.32,.91-.78,1.05l-20.58,6.25c-.1,.03-.21,.05-.32,.05Zm1.1-5.27v2.69l18.38-5.58v-2.69l-18.38,5.58Z"/>
    </g>
  </g>
  <g>
    <g>
      <path class="cls-2" d="M84.41,391.06c15.11,0,30.53-6.35,43.66-11.76,.92-.38,1.83-.75,2.72-1.12,30.43-12.46,63.68-22.65,100.64-12.87,7.82,2.07,14.22,5.26,19.02,9.48l4.36-4.96c-5.58-4.9-12.87-8.57-21.69-10.9-17.28-4.57-34.83-5.33-53.65-2.31-15.09,2.42-31.36,7.33-51.19,15.45-.9,.37-1.81,.74-2.73,1.12-17.16,7.07-38.53,15.87-56.13,8.37-9.69-4.13-17.58-14.56-20.08-26.58-3.96-19,2.3-45.09,21.71-56.02,20.2-11.37,48.38-5.43,65.34,2.69v-7.28c-10.76-5.14-22.54-8.14-34.06-8.67-12.82-.59-24.76,2.01-34.52,7.51-10.18,5.73-17.92,15.29-22.38,27.64-4.07,11.28-4.98,23.88-2.56,35.49,1.38,6.6,4.2,12.96,8.16,18.38,4.3,5.89,9.77,10.36,15.8,12.93,5.7,2.43,11.62,3.42,17.58,3.42Z"/>
      <g>
        <path class="cls-4" d="M71.05,298.95c-15.05,8.48-22.2,26.07-22.8,42.4-.3-17.21,6.76-36.65,22.84-45.71,20.18-11.36,48.34-5.44,65.3,2.67v3.32c-16.96-8.12-45.14-14.06-65.34-2.69Z"/>
        <path class="cls-4" d="M41.58,340.93c.06,4.09,.5,8.15,1.32,12.1,1.38,6.6,4.2,12.96,8.16,18.38,4.3,5.89,9.77,10.36,15.8,12.93,5.7,2.43,11.62,3.42,17.58,3.42,15.11,0,30.53-6.35,43.66-11.76,.92-.38,1.83-.75,2.72-1.12,30.43-12.46,63.68-22.65,100.64-12.87,7.82,2.07,14.22,5.26,19.02,9.48l2.67-3.03c.57,.45,1.12,.9,1.66,1.38l-4.36,4.96c-4.8-4.22-11.2-7.41-19.02-9.48-36.96-9.78-70.21,.41-100.64,12.87-.9,.37-1.8,.74-2.72,1.12-13.13,5.41-28.55,11.76-43.66,11.76-5.96,0-11.88-.99-17.58-3.42-6.03-2.57-11.5-7.04-15.8-12.93-3.96-5.43-6.79-11.78-8.16-18.38-1.04-5.01-1.47-10.21-1.28-15.4Z"/>
      </g>
    </g>
    <path class="cls-5" d="M84.41,392.16s0,0,0,0c-6.49,0-12.55-1.18-18.01-3.51-6.22-2.65-11.84-7.25-16.26-13.3-4.05-5.55-6.94-12.05-8.35-18.81-2.46-11.8-1.54-24.62,2.6-36.09,4.55-12.6,12.46-22.36,22.87-28.23,9.94-5.6,22.08-8.24,35.12-7.65,11.67,.53,23.59,3.57,34.47,8.77l.63,.3,.02,9.73-1.58-.76c-9.35-4.47-20.68-7.59-31.09-8.55-12.87-1.19-24.36,.83-33.24,5.83-14.15,7.97-26.38,29.89-21.18,54.84,2.44,11.68,10.06,21.8,19.44,25.8,17.18,7.32,38.3-1.38,55.28-8.38,.92-.38,1.84-.76,2.74-1.13,19.91-8.15,36.25-13.08,51.43-15.52,18.97-3.04,36.67-2.28,54.1,2.33,8.98,2.38,16.43,6.13,22.14,11.14l.83,.73-5.82,6.62-.83-.73c-4.67-4.11-10.92-7.21-18.57-9.24-36.64-9.69-69.69,.43-99.94,12.82-.89,.37-1.8,.74-2.72,1.12-13.48,5.55-28.75,11.84-44.07,11.84Zm14.38-105.45c-11.29,0-21.75,2.55-30.45,7.45-9.95,5.6-17.51,14.96-21.88,27.06-4,11.09-4.9,23.48-2.52,34.89,1.34,6.45,4.1,12.66,7.97,17.96,4.19,5.73,9.49,10.08,15.34,12.57,5.19,2.21,10.96,3.33,17.15,3.33h0c14.89,0,29.94-6.2,43.23-11.67,.93-.38,1.84-.76,2.73-1.12,30.61-12.53,64.07-22.77,101.34-12.91,7.54,2,13.8,5.02,18.63,9l2.91-3.31c-5.33-4.43-12.19-7.77-20.41-9.95-17.13-4.53-34.53-5.28-53.19-2.29-15.01,2.41-31.19,7.29-50.94,15.38-.9,.37-1.81,.74-2.73,1.12-17.35,7.15-38.95,16.05-56.98,8.37-10.01-4.27-18.15-15.01-20.73-27.37-4.04-19.38,2.38-46.02,22.25-57.21,9.27-5.22,21.21-7.33,34.53-6.1,10.08,.93,21,3.83,30.25,8.02v-4.86c-10.46-4.9-21.85-7.75-33.01-8.26-1.17-.05-2.33-.08-3.49-.08Z"/>
  </g>
  <g>
    <polygon class="cls-7" points="437.46 371.6 437.46 394.29 343.85 422.71 343.85 400.02 437.46 371.6"/>
    <rect class="cls-2" x="2.2" y="400.02" width="341.56" height="22.69"/>
    <polygon class="cls-2" points="344.83 399.94 2.27 399.94 94.58 371.62 437.47 371.62 344.83 399.94"/>
    <path class="cls-5" d="M344.83,402.14H2.27c-1.09,0-2.02-.8-2.18-1.88-.16-1.08,.49-2.11,1.53-2.43l92.31-28.32c.21-.06,.43-.1,.65-.1H437.47c1.09,0,2.02,.8,2.18,1.88,.16,1.08-.49,2.11-1.53,2.43l-92.64,28.32c-.21,.06-.43,.1-.64,.1Zm-327.88-4.41H344.51l78.23-23.92H94.91l-77.95,23.92Z"/>
    <path class="cls-5" d="M343.76,424.91H2.2c-1.22,0-2.2-.99-2.2-2.2v-22.69c0-1.22,.99-2.2,2.2-2.2H343.76c1.22,0,2.2,.99,2.2,2.2v22.69c0,1.22-.99,2.2-2.2,2.2ZM4.41,420.5H341.56v-18.28H4.41v18.28Z"/>
    <path class="cls-5" d="M343.85,424.91c-.47,0-.93-.15-1.31-.43-.56-.42-.89-1.07-.89-1.77v-22.69c0-.97,.63-1.83,1.56-2.11l93.62-28.42c.67-.2,1.39-.08,1.95,.34,.56,.42,.89,1.07,.89,1.77v22.69c0,.97-.63,1.83-1.56,2.11l-93.62,28.42c-.21,.06-.43,.09-.64,.09Zm2.2-23.26v18.08l89.21-27.08v-18.08l-89.21,27.08Z"/>
    <g>
      <g>
        <polygon class="cls-2" points="110.36 382.18 91.63 382.18 93.8 369.4 107.73 369.4 110.36 382.18"/>
        <polygon class="cls-7" points="103.76 369.45 106.38 382.18 109.26 382.18 106.63 369.4 92.7 369.4 92.69 369.45 103.76 369.45"/>
        <path class="cls-5" d="M110.36,383.45h-18.72c-.38,0-.73-.17-.98-.45-.24-.29-.35-.67-.28-1.04l2.17-12.78c.1-.61,.64-1.06,1.26-1.06h13.93c.61,0,1.13,.43,1.25,1.02l2.63,12.78c.08,.38-.02,.77-.26,1.07-.24,.3-.61,.47-.99,.47Zm-17.21-2.56h15.64l-2.1-10.22h-11.8l-1.73,10.22Z"/>
      </g>
      <g>
        <polygon class="cls-2" points="134.37 382.18 115.64 382.18 117.81 369.4 131.74 369.4 134.37 382.18"/>
        <polygon class="cls-7" points="127.77 369.45 130.39 382.18 133.27 382.18 130.64 369.4 116.71 369.4 116.7 369.45 127.77 369.45"/>
        <path class="cls-5" d="M134.37,383.45h-18.72c-.38,0-.73-.17-.98-.45-.24-.29-.35-.67-.28-1.04l2.17-12.78c.1-.61,.64-1.06,1.26-1.06h13.93c.61,0,1.13,.43,1.25,1.02l2.63,12.78c.08,.38-.02,.77-.26,1.07-.24,.3-.61,.47-.99,.47Zm-17.21-2.56h15.64l-2.1-10.22h-11.8l-1.73,10.22Z"/>
      </g>
      <g>
        <polygon class="cls-2" points="158.38 382.18 139.65 382.18 141.82 369.4 155.75 369.4 158.38 382.18"/>
        <polygon class="cls-7" points="151.78 369.45 154.4 382.18 157.28 382.18 154.65 369.4 140.72 369.4 140.71 369.45 151.78 369.45"/>
        <path class="cls-5" d="M158.38,383.45h-18.72c-.38,0-.73-.17-.98-.45-.24-.29-.35-.67-.28-1.04l2.17-12.78c.1-.61,.64-1.06,1.26-1.06h13.93c.61,0,1.13,.43,1.25,1.02l2.63,12.78c.08,.38-.02,.77-.26,1.07-.24,.3-.61,.47-.99,.47Zm-17.21-2.56h15.64l-2.1-10.22h-11.8l-1.73,10.22Z"/>
      </g>
      <g>
        <polygon class="cls-2" points="182.39 382.18 163.66 382.18 165.83 369.4 179.76 369.4 182.39 382.18"/>
        <polygon class="cls-7" points="175.79 369.45 178.41 382.18 181.29 382.18 178.66 369.4 164.73 369.4 164.72 369.45 175.79 369.45"/>
        <path class="cls-5" d="M182.39,383.45h-18.72c-.38,0-.73-.17-.98-.45-.24-.29-.35-.67-.28-1.04l2.17-12.78c.1-.61,.64-1.06,1.26-1.06h13.93c.61,0,1.13,.43,1.25,1.02l2.63,12.78c.08,.38-.02,.77-.26,1.07-.24,.3-.61,.47-.99,.47Zm-17.21-2.56h15.64l-2.1-10.22h-11.8l-1.73,10.22Z"/>
      </g>
      <g>
        <polygon class="cls-2" points="206.4 382.18 187.67 382.18 189.84 369.4 203.77 369.4 206.4 382.18"/>
        <polygon class="cls-7" points="199.8 369.45 202.42 382.18 205.3 382.18 202.67 369.4 188.74 369.4 188.73 369.45 199.8 369.45"/>
        <path class="cls-5" d="M206.4,383.45h-18.72c-.38,0-.73-.17-.98-.45-.24-.29-.35-.67-.28-1.04l2.17-12.78c.1-.61,.64-1.06,1.26-1.06h13.93c.61,0,1.13,.43,1.25,1.02l2.63,12.78c.08,.38-.02,.77-.26,1.07-.24,.3-.61,.47-.99,.47Zm-17.21-2.56h15.64l-2.1-10.22h-11.8l-1.73,10.22Z"/>
      </g>
      <g>
        <polygon class="cls-2" points="230.41 382.18 211.68 382.18 213.85 369.4 227.78 369.4 230.41 382.18"/>
        <polygon class="cls-7" points="223.81 369.45 226.43 382.18 229.31 382.18 226.67 369.4 212.75 369.4 212.74 369.45 223.81 369.45"/>
        <path class="cls-5" d="M230.41,383.45h-18.72c-.38,0-.73-.17-.98-.45-.24-.29-.35-.67-.28-1.04l2.17-12.78c.1-.61,.64-1.06,1.26-1.06h13.93c.61,0,1.13,.43,1.25,1.02l2.63,12.78c.08,.38-.02,.77-.26,1.07-.24,.3-.61,.47-.99,.47Zm-17.21-2.56h15.64l-2.1-10.22h-11.8l-1.73,10.22Z"/>
      </g>
      <g>
        <polygon class="cls-2" points="254.42 382.18 235.69 382.18 237.86 369.4 251.79 369.4 254.42 382.18"/>
        <polygon class="cls-7" points="247.82 369.45 250.44 382.18 253.32 382.18 250.68 369.4 236.76 369.4 236.75 369.45 247.82 369.45"/>
        <path class="cls-5" d="M254.42,383.45h-18.72c-.38,0-.73-.17-.98-.45-.24-.29-.35-.67-.28-1.04l2.17-12.78c.1-.61,.64-1.06,1.26-1.06h13.93c.61,0,1.13,.43,1.25,1.02l2.63,12.78c.08,.38-.02,.77-.26,1.07-.24,.3-.61,.47-.99,.47Zm-17.21-2.56h15.64l-2.1-10.22h-11.8l-1.73,10.22Z"/>
      </g>
      <g>
        <polygon class="cls-2" points="278.43 382.18 259.7 382.18 261.87 369.4 275.8 369.4 278.43 382.18"/>
        <polygon class="cls-7" points="271.83 369.45 274.45 382.18 277.33 382.18 274.69 369.4 260.77 369.4 260.76 369.45 271.83 369.45"/>
        <path class="cls-5" d="M278.43,383.45h-18.72c-.38,0-.73-.17-.98-.45-.24-.29-.35-.67-.28-1.04l2.17-12.78c.1-.61,.64-1.06,1.26-1.06h13.93c.61,0,1.13,.43,1.25,1.02l2.63,12.78c.08,.38-.02,.77-.26,1.07-.24,.3-.61,.47-.99,.47Zm-17.21-2.56h15.64l-2.1-10.22h-11.8l-1.73,10.22Z"/>
      </g>
      <g>
        <polygon class="cls-2" points="302.44 382.18 283.71 382.18 285.88 369.4 299.81 369.4 302.44 382.18"/>
        <polygon class="cls-7" points="295.84 369.45 298.46 382.18 301.34 382.18 298.7 369.4 284.78 369.4 284.77 369.45 295.84 369.45"/>
        <path class="cls-5" d="M302.44,383.45h-18.72c-.38,0-.73-.17-.98-.45-.24-.29-.35-.67-.28-1.04l2.17-12.78c.1-.61,.64-1.06,1.26-1.06h13.93c.61,0,1.13,.43,1.25,1.02l2.63,12.78c.08,.38-.02,.77-.26,1.07-.24,.3-.61,.47-.99,.47Zm-17.21-2.56h15.64l-2.1-10.22h-11.8l-1.73,10.22Z"/>
      </g>
      <g>
        <polygon class="cls-2" points="326.45 382.18 307.72 382.18 309.89 369.4 323.82 369.4 326.45 382.18"/>
        <polygon class="cls-7" points="319.85 369.45 322.47 382.18 325.35 382.18 322.71 369.4 308.79 369.4 308.78 369.45 319.85 369.45"/>
        <path class="cls-5" d="M326.45,383.45h-18.72c-.38,0-.73-.17-.98-.45-.24-.29-.35-.67-.28-1.04l2.17-12.78c.1-.61,.64-1.06,1.26-1.06h13.93c.61,0,1.13,.43,1.25,1.02l2.63,12.78c.08,.38-.02,.77-.26,1.07-.24,.3-.61,.47-.99,.47Zm-17.21-2.56h15.64l-2.1-10.22h-11.8l-1.73,10.22Z"/>
      </g>
      <g>
        <polygon class="cls-2" points="350.46 382.18 331.73 382.18 333.9 369.4 347.83 369.4 350.46 382.18"/>
        <polygon class="cls-7" points="343.86 369.45 346.48 382.18 349.35 382.18 346.72 369.4 332.8 369.4 332.79 369.45 343.86 369.45"/>
        <path class="cls-5" d="M350.46,383.45h-18.72c-.38,0-.73-.17-.98-.45-.24-.29-.35-.67-.28-1.04l2.17-12.78c.1-.61,.64-1.06,1.26-1.06h13.93c.61,0,1.13,.43,1.25,1.02l2.63,12.78c.08,.38-.02,.77-.26,1.07-.24,.3-.61,.47-.99,.47Zm-17.21-2.56h15.64l-2.1-10.22h-11.8l-1.73,10.22Z"/>
      </g>
      <g>
        <polygon class="cls-2" points="374.47 382.18 355.74 382.18 357.91 369.4 371.84 369.4 374.47 382.18"/>
        <polygon class="cls-7" points="367.87 369.45 370.49 382.18 373.36 382.18 370.73 369.4 356.81 369.4 356.8 369.45 367.87 369.45"/>
        <path class="cls-5" d="M374.47,383.45h-18.72c-.38,0-.73-.17-.98-.45-.24-.29-.35-.67-.28-1.04l2.17-12.78c.1-.61,.64-1.06,1.26-1.06h13.93c.61,0,1.13,.43,1.25,1.02l2.63,12.78c.08,.38-.02,.77-.26,1.07-.24,.3-.61,.47-.99,.47Zm-17.21-2.56h15.64l-2.1-10.22h-11.8l-1.73,10.22Z"/>
      </g>
      <g>
        <polygon class="cls-2" points="88.33 390.33 69.61 390.33 71.77 377.55 85.7 377.55 88.33 390.33"/>
        <polygon class="cls-7" points="81.73 377.61 84.35 390.33 87.23 390.33 84.6 377.55 70.67 377.55 70.66 377.61 81.73 377.61"/>
        <path class="cls-5" d="M88.33,391.6h-18.72c-.38,0-.73-.17-.98-.45-.24-.29-.35-.67-.28-1.04l2.17-12.78c.1-.61,.64-1.06,1.26-1.06h13.93c.61,0,1.13,.43,1.25,1.02l2.63,12.78c.08,.38-.02,.77-.26,1.07-.24,.3-.61,.47-.99,.47Zm-17.21-2.56h15.64l-2.1-10.22h-11.8l-1.73,10.22Z"/>
      </g>
      <g>
        <polygon class="cls-2" points="112.34 390.33 93.62 390.33 95.78 377.55 109.71 377.55 112.34 390.33"/>
        <polygon class="cls-7" points="105.74 377.61 108.36 390.33 111.24 390.33 108.61 377.55 94.68 377.55 94.67 377.61 105.74 377.61"/>
        <path class="cls-5" d="M112.34,391.6h-18.72c-.38,0-.73-.17-.98-.45-.24-.29-.35-.67-.28-1.04l2.17-12.78c.1-.61,.64-1.06,1.26-1.06h13.93c.61,0,1.13,.43,1.25,1.02l2.63,12.78c.08,.38-.02,.77-.26,1.07-.24,.3-.61,.47-.99,.47Zm-17.21-2.56h15.64l-2.1-10.22h-11.8l-1.73,10.22Z"/>
      </g>
      <g>
        <polygon class="cls-2" points="136.35 390.33 117.63 390.33 119.79 377.55 133.72 377.55 136.35 390.33"/>
        <polygon class="cls-7" points="129.75 377.61 132.37 390.33 135.25 390.33 132.62 377.55 118.69 377.55 118.68 377.61 129.75 377.61"/>
        <path class="cls-5" d="M136.35,391.6h-18.72c-.38,0-.73-.17-.98-.45-.24-.29-.35-.67-.28-1.04l2.17-12.78c.1-.61,.64-1.06,1.26-1.06h13.93c.61,0,1.13,.43,1.25,1.02l2.63,12.78c.08,.38-.02,.77-.26,1.07-.24,.3-.61,.47-.99,.47Zm-17.21-2.56h15.64l-2.1-10.22h-11.8l-1.73,10.22Z"/>
      </g>
      <g>
        <polygon class="cls-2" points="160.36 390.33 141.64 390.33 143.8 377.55 157.73 377.55 160.36 390.33"/>
        <polygon class="cls-7" points="153.76 377.61 156.38 390.33 159.26 390.33 156.63 377.55 142.7 377.55 142.69 377.61 153.76 377.61"/>
        <path class="cls-5" d="M160.36,391.6h-18.72c-.38,0-.73-.17-.98-.45-.24-.29-.35-.67-.28-1.04l2.17-12.78c.1-.61,.64-1.06,1.26-1.06h13.93c.61,0,1.13,.43,1.25,1.02l2.63,12.78c.08,.38-.02,.77-.26,1.07-.24,.3-.61,.47-.99,.47Zm-17.21-2.56h15.64l-2.1-10.22h-11.8l-1.73,10.22Z"/>
      </g>
      <g>
        <polygon class="cls-2" points="184.37 390.33 165.65 390.33 167.81 377.55 181.74 377.55 184.37 390.33"/>
        <polygon class="cls-7" points="177.77 377.61 180.39 390.33 183.27 390.33 180.64 377.55 166.71 377.55 166.7 377.61 177.77 377.61"/>
        <path class="cls-5" d="M184.37,391.6h-18.72c-.38,0-.73-.17-.98-.45-.24-.29-.35-.67-.28-1.04l2.17-12.78c.1-.61,.64-1.06,1.26-1.06h13.93c.61,0,1.13,.43,1.25,1.02l2.63,12.78c.08,.38-.02,.77-.26,1.07-.24,.3-.61,.47-.99,.47Zm-17.21-2.56h15.64l-2.1-10.22h-11.8l-1.73,10.22Z"/>
      </g>
      <g>
        <polygon class="cls-2" points="208.38 390.33 189.66 390.33 191.82 377.55 205.75 377.55 208.38 390.33"/>
        <polygon class="cls-7" points="201.78 377.61 204.4 390.33 207.28 390.33 204.65 377.55 190.72 377.55 190.71 377.61 201.78 377.61"/>
        <path class="cls-5" d="M208.38,391.6h-18.72c-.38,0-.73-.17-.98-.45-.24-.29-.35-.67-.28-1.04l2.17-12.78c.1-.61,.64-1.06,1.26-1.06h13.93c.61,0,1.13,.43,1.25,1.02l2.63,12.78c.08,.38-.02,.77-.26,1.07-.24,.3-.61,.47-.99,.47Zm-17.21-2.56h15.64l-2.1-10.22h-11.8l-1.73,10.22Z"/>
      </g>
      <g>
        <polygon class="cls-2" points="232.39 390.33 213.67 390.33 215.83 377.55 229.76 377.55 232.39 390.33"/>
        <polygon class="cls-7" points="225.79 377.61 228.41 390.33 231.29 390.33 228.66 377.55 214.73 377.55 214.72 377.61 225.79 377.61"/>
        <path class="cls-5" d="M232.39,391.6h-18.72c-.38,0-.73-.17-.98-.45-.24-.29-.35-.67-.28-1.04l2.17-12.78c.1-.61,.64-1.06,1.26-1.06h13.93c.61,0,1.13,.43,1.25,1.02l2.63,12.78c.08,.38-.02,.77-.26,1.07-.24,.3-.61,.47-.99,.47Zm-17.21-2.56h15.64l-2.1-10.22h-11.8l-1.73,10.22Z"/>
      </g>
      <g>
        <polygon class="cls-2" points="256.4 390.33 237.68 390.33 239.84 377.55 253.77 377.55 256.4 390.33"/>
        <polygon class="cls-7" points="249.8 377.61 252.42 390.33 255.3 390.33 252.67 377.55 238.74 377.55 238.73 377.61 249.8 377.61"/>
        <path class="cls-5" d="M256.4,391.6h-18.72c-.38,0-.73-.17-.98-.45-.24-.29-.35-.67-.28-1.04l2.17-12.78c.1-.61,.64-1.06,1.26-1.06h13.93c.61,0,1.13,.43,1.25,1.02l2.63,12.78c.08,.38-.02,.77-.26,1.07-.24,.3-.61,.47-.99,.47Zm-17.21-2.56h15.64l-2.1-10.22h-11.8l-1.73,10.22Z"/>
      </g>
      <g>
        <polygon class="cls-2" points="280.41 390.33 261.69 390.33 263.85 377.55 277.78 377.55 280.41 390.33"/>
        <polygon class="cls-7" points="273.81 377.61 276.43 390.33 279.31 390.33 276.68 377.55 262.75 377.55 262.74 377.61 273.81 377.61"/>
        <path class="cls-5" d="M280.41,391.6h-18.72c-.38,0-.73-.17-.98-.45-.24-.29-.35-.67-.28-1.04l2.17-12.78c.1-.61,.64-1.06,1.26-1.06h13.93c.61,0,1.13,.43,1.25,1.02l2.63,12.78c.08,.38-.02,.77-.26,1.07-.24,.3-.61,.47-.99,.47Zm-17.21-2.56h15.64l-2.1-10.22h-11.8l-1.73,10.22Z"/>
      </g>
      <g>
        <polygon class="cls-2" points="304.42 390.33 285.7 390.33 287.86 377.55 301.79 377.55 304.42 390.33"/>
        <polygon class="cls-7" points="297.82 377.61 300.44 390.33 303.32 390.33 300.69 377.55 286.76 377.55 286.75 377.61 297.82 377.61"/>
        <path class="cls-5" d="M304.42,391.6h-18.72c-.38,0-.73-.17-.98-.45-.24-.29-.35-.67-.28-1.04l2.17-12.78c.1-.61,.64-1.06,1.26-1.06h13.93c.61,0,1.13,.43,1.25,1.02l2.63,12.78c.08,.38-.02,.77-.26,1.07-.24,.3-.61,.47-.99,.47Zm-17.21-2.56h15.64l-2.1-10.22h-11.8l-1.73,10.22Z"/>
      </g>
      <g>
        <polygon class="cls-2" points="328.43 390.33 309.71 390.33 311.87 377.55 325.8 377.55 328.43 390.33"/>
        <polygon class="cls-7" points="321.83 377.61 324.45 390.33 327.33 390.33 324.7 377.55 310.77 377.55 310.76 377.61 321.83 377.61"/>
        <path class="cls-5" d="M328.43,391.6h-18.72c-.38,0-.73-.17-.98-.45-.24-.29-.35-.67-.28-1.04l2.17-12.78c.1-.61,.64-1.06,1.26-1.06h13.93c.61,0,1.13,.43,1.25,1.02l2.63,12.78c.08,.38-.02,.77-.26,1.07-.24,.3-.61,.47-.99,.47Zm-17.21-2.56h15.64l-2.1-10.22h-11.8l-1.73,10.22Z"/>
      </g>
      <g>
        <polygon class="cls-2" points="352.44 390.33 333.72 390.33 335.88 377.55 349.81 377.55 352.44 390.33"/>
        <polygon class="cls-7" points="345.84 377.61 348.46 390.33 351.34 390.33 348.71 377.55 334.78 377.55 334.77 377.61 345.84 377.61"/>
        <path class="cls-5" d="M352.44,391.6h-18.72c-.38,0-.73-.17-.98-.45-.24-.29-.35-.67-.28-1.04l2.17-12.78c.1-.61,.64-1.06,1.26-1.06h13.93c.61,0,1.13,.43,1.25,1.02l2.63,12.78c.08,.38-.02,.77-.26,1.07-.24,.3-.61,.47-.99,.47Zm-17.21-2.56h15.64l-2.1-10.22h-11.8l-1.73,10.22Z"/>
      </g>
      <g>
        <polygon class="cls-2" points="233.27 396.71 140.09 396.71 142.26 383.94 230.64 383.94 233.27 396.71"/>
        <polygon class="cls-7" points="222.71 383.99 225.33 396.71 233.27 396.71 230.64 383.94 142.26 383.94 142.25 383.99 222.71 383.99"/>
        <path class="cls-5" d="M233.27,397.99h-93.18c-.38,0-.73-.17-.98-.45-.24-.29-.35-.67-.28-1.04l2.17-12.78c.1-.61,.64-1.06,1.26-1.06h88.38c.61,0,1.13,.43,1.25,1.02l2.63,12.78c.08,.38-.02,.77-.26,1.07-.24,.3-.61,.47-.99,.47Zm-91.66-2.56h90.09l-2.1-10.22h-86.26l-1.73,10.22Z"/>
      </g>
    </g>
  </g>
</svg>