<?xml version="1.0" encoding="UTF-8"?>
<svg id="Layer_1" data-name="Layer 1" xmlns="http://www.w3.org/2000/svg" width="36.1" height="63.8" viewBox="0 0 36.1 63.8">
  <defs>
    <style>
      .cls-1 {
        fill: #f2f2f7;
      }

      .cls-2 {
        fill: #ffaf20;
      }

      .cls-3 {
        fill: #d96bd9;
      }

      .cls-4 {
        fill: #421679;
      }
    </style>
  </defs>
  <g>
    <path class="cls-4" d="M22.73,36.74c-1.14-.59-2.7-.89-4.67-.89s-3.53,.3-4.68,.89c-1.15,.59-1.73,1.39-1.73,2.41v.15h12.8v-.15c0-1.02-.57-1.82-1.72-2.41Zm-4.68-4.74c.78,0,1.44-.26,1.96-.79,.53-.52,.79-1.18,.79-1.96s-.26-1.43-.79-1.96c-.53-.52-1.18-.79-1.96-.79s-1.44,.27-1.96,.79-.79,1.18-.79,1.97,.26,1.43,.79,1.96c.53,.52,1.18,.78,1.96,.78Zm17.06-12.31c-.65-.66-1.44-.99-2.36-.99H3.35c-.92,0-1.7,.33-2.36,.99-.66,.66-.99,1.45-.99,2.36v21.5c0,.92,.33,1.71,.99,2.37,.66,.65,1.44,.98,2.36,.98H12.1v4.2h11.9v-4.2h8.75c.92,0,1.71-.33,2.36-.98,.66-.66,.99-1.45,.99-2.37V22.05c0-.91-.33-1.7-.99-2.36Zm-.76,23.86c0,.4-.17,.77-.5,1.1-.33,.34-.7,.5-1.1,.5H3.35c-.4,0-.77-.16-1.1-.5-.33-.33-.5-.7-.5-1.1V22.05c0-.4,.17-.76,.5-1.1,.33-.33,.7-.5,1.1-.5h29.4c.4,0,.77,.17,1.1,.5,.33,.34,.5,.7,.5,1.1v21.5Zm-11.62-6.81c-1.14-.59-2.7-.89-4.67-.89s-3.53,.3-4.68,.89c-1.15,.59-1.73,1.39-1.73,2.41v.15h12.8v-.15c0-1.02-.57-1.82-1.72-2.41Zm-4.68-4.74c.78,0,1.44-.26,1.96-.79,.53-.52,.79-1.18,.79-1.96s-.26-1.43-.79-1.96c-.53-.52-1.18-.79-1.96-.79s-1.44,.27-1.96,.79-.79,1.18-.79,1.97,.26,1.43,.79,1.96c.53,.52,1.18,.78,1.96,.78Zm1.96-4.71c-.53-.52-1.18-.79-1.96-.79s-1.44,.27-1.96,.79-.79,1.18-.79,1.97,.26,1.43,.79,1.96c.53,.52,1.18,.78,1.96,.78s1.44-.26,1.96-.79c.53-.52,.79-1.18,.79-1.96s-.26-1.43-.79-1.96Zm2.72,9.45c-1.14-.59-2.7-.89-4.67-.89s-3.53,.3-4.68,.89c-1.15,.59-1.73,1.39-1.73,2.41v.15h12.8v-.15c0-1.02-.57-1.82-1.72-2.41Z"/>
    <path class="cls-3" d="M33.85,20.95c-.33-.33-.7-.5-1.1-.5H3.35c-.4,0-.77,.17-1.1,.5-.33,.34-.5,.7-.5,1.1v21.5c0,.4,.17,.77,.5,1.1,.33,.34,.7,.5,1.1,.5h29.4c.4,0,.77-.16,1.1-.5,.33-.33,.5-.7,.5-1.1V22.05c0-.4-.17-.76-.5-1.1Zm-17.76,6.34c.52-.52,1.18-.79,1.96-.79s1.43,.27,1.96,.79c.53,.53,.79,1.18,.79,1.96s-.26,1.44-.79,1.96c-.52,.53-1.18,.79-1.96,.79s-1.43-.26-1.96-.78c-.53-.53-.79-1.18-.79-1.96s.26-1.44,.79-1.97Zm8.36,12.01H11.65v-.15c0-1.02,.58-1.82,1.73-2.41,1.15-.59,2.71-.89,4.68-.89s3.53,.3,4.67,.89c1.15,.59,1.72,1.39,1.72,2.41v.15Z"/>
  </g>
  <g>
    <path class="cls-4" d="M22.73,33.74c-1.14-.59-2.7-.89-4.67-.89s-3.53,.3-4.68,.89c-1.15,.59-1.73,1.39-1.73,2.41v.15h12.8v-.15c0-1.02-.57-1.82-1.72-2.41Zm-4.68-4.74c.78,0,1.44-.26,1.96-.79,.53-.52,.79-1.18,.79-1.96s-.26-1.43-.79-1.96c-.53-.52-1.18-.79-1.96-.79s-1.44,.27-1.96,.79-.79,1.18-.79,1.97,.26,1.43,.79,1.96c.53,.52,1.18,.78,1.96,.78Zm17.06-12.31c-.65-.66-1.44-.99-2.36-.99H3.35c-.92,0-1.7,.33-2.36,.99-.66,.66-.99,1.45-.99,2.36v21.5c0,.92,.33,1.71,.99,2.37,.66,.65,1.44,.98,2.36,.98H12.1v4.2h11.9v-4.2h8.75c.92,0,1.71-.33,2.36-.98,.66-.66,.99-1.45,.99-2.37V19.05c0-.91-.33-1.7-.99-2.36Zm-.76,23.86c0,.4-.17,.77-.5,1.1-.33,.34-.7,.5-1.1,.5H3.35c-.4,0-.77-.16-1.1-.5-.33-.33-.5-.7-.5-1.1V19.05c0-.4,.17-.76,.5-1.1,.33-.33,.7-.5,1.1-.5h29.4c.4,0,.77,.17,1.1,.5,.33,.34,.5,.7,.5,1.1v21.5Zm-11.62-6.81c-1.14-.59-2.7-.89-4.67-.89s-3.53,.3-4.68,.89c-1.15,.59-1.73,1.39-1.73,2.41v.15h12.8v-.15c0-1.02-.57-1.82-1.72-2.41Zm-4.68-4.74c.78,0,1.44-.26,1.96-.79,.53-.52,.79-1.18,.79-1.96s-.26-1.43-.79-1.96c-.53-.52-1.18-.79-1.96-.79s-1.44,.27-1.96,.79-.79,1.18-.79,1.97,.26,1.43,.79,1.96c.53,.52,1.18,.78,1.96,.78Zm1.96-4.71c-.53-.52-1.18-.79-1.96-.79s-1.44,.27-1.96,.79-.79,1.18-.79,1.97,.26,1.43,.79,1.96c.53,.52,1.18,.78,1.96,.78s1.44-.26,1.96-.79c.53-.52,.79-1.18,.79-1.96s-.26-1.43-.79-1.96Zm2.72,9.45c-1.14-.59-2.7-.89-4.67-.89s-3.53,.3-4.68,.89c-1.15,.59-1.73,1.39-1.73,2.41v.15h12.8v-.15c0-1.02-.57-1.82-1.72-2.41Z"/>
    <path class="cls-2" d="M33.85,17.95c-.33-.33-.7-.5-1.1-.5H3.35c-.4,0-.77,.17-1.1,.5-.33,.34-.5,.7-.5,1.1v21.5c0,.4,.17,.77,.5,1.1,.33,.34,.7,.5,1.1,.5h29.4c.4,0,.77-.16,1.1-.5,.33-.33,.5-.7,.5-1.1V19.05c0-.4-.17-.76-.5-1.1Zm-17.76,6.34c.52-.52,1.18-.79,1.96-.79s1.43,.27,1.96,.79c.53,.53,.79,1.18,.79,1.96s-.26,1.44-.79,1.96c-.52,.53-1.18,.79-1.96,.79s-1.43-.26-1.96-.78c-.53-.53-.79-1.18-.79-1.96s.26-1.44,.79-1.97Zm8.36,12.01H11.65v-.15c0-1.02,.58-1.82,1.73-2.41,1.15-.59,2.71-.89,4.68-.89s3.53,.3,4.67,.89c1.15,.59,1.72,1.39,1.72,2.41v.15Z"/>
  </g>
  <g>
    <path class="cls-4" d="M22.73,30.74c-1.14-.59-2.7-.89-4.67-.89s-3.53,.3-4.68,.89c-1.15,.59-1.73,1.39-1.73,2.41v.15h12.8v-.15c0-1.02-.57-1.82-1.72-2.41Zm-4.68-4.74c.78,0,1.44-.26,1.96-.79,.53-.52,.79-1.18,.79-1.96s-.26-1.43-.79-1.96c-.53-.52-1.18-.79-1.96-.79s-1.44,.27-1.96,.79-.79,1.18-.79,1.97,.26,1.43,.79,1.96c.53,.52,1.18,.78,1.96,.78Zm17.06-12.31c-.65-.66-1.44-.99-2.36-.99H3.35c-.92,0-1.7,.33-2.36,.99-.66,.66-.99,1.45-.99,2.36v21.5c0,.92,.33,1.71,.99,2.37,.66,.65,1.44,.98,2.36,.98H12.1v4.2h11.9v-4.2h8.75c.92,0,1.71-.33,2.36-.98,.66-.66,.99-1.45,.99-2.37V16.05c0-.91-.33-1.7-.99-2.36Zm-.76,23.86c0,.4-.17,.77-.5,1.1-.33,.34-.7,.5-1.1,.5H3.35c-.4,0-.77-.16-1.1-.5-.33-.33-.5-.7-.5-1.1V16.05c0-.4,.17-.76,.5-1.1,.33-.33,.7-.5,1.1-.5h29.4c.4,0,.77,.17,1.1,.5,.33,.34,.5,.7,.5,1.1v21.5Zm-11.62-6.81c-1.14-.59-2.7-.89-4.67-.89s-3.53,.3-4.68,.89c-1.15,.59-1.73,1.39-1.73,2.41v.15h12.8v-.15c0-1.02-.57-1.82-1.72-2.41Zm-4.68-4.74c.78,0,1.44-.26,1.96-.79,.53-.52,.79-1.18,.79-1.96s-.26-1.43-.79-1.96c-.53-.52-1.18-.79-1.96-.79s-1.44,.27-1.96,.79-.79,1.18-.79,1.97,.26,1.43,.79,1.96c.53,.52,1.18,.78,1.96,.78Zm1.96-4.71c-.53-.52-1.18-.79-1.96-.79s-1.44,.27-1.96,.79-.79,1.18-.79,1.97,.26,1.43,.79,1.96c.53,.52,1.18,.78,1.96,.78s1.44-.26,1.96-.79c.53-.52,.79-1.18,.79-1.96s-.26-1.43-.79-1.96Zm2.72,9.45c-1.14-.59-2.7-.89-4.67-.89s-3.53,.3-4.68,.89c-1.15,.59-1.73,1.39-1.73,2.41v.15h12.8v-.15c0-1.02-.57-1.82-1.72-2.41Z"/>
    <path class="cls-1" d="M33.85,14.95c-.33-.33-.7-.5-1.1-.5H3.35c-.4,0-.77,.17-1.1,.5-.33,.34-.5,.7-.5,1.1v21.5c0,.4,.17,.77,.5,1.1,.33,.34,.7,.5,1.1,.5h29.4c.4,0,.77-.16,1.1-.5,.33-.33,.5-.7,.5-1.1V16.05c0-.4-.17-.76-.5-1.1Zm-17.76,6.34c.52-.52,1.18-.79,1.96-.79s1.43,.27,1.96,.79c.53,.53,.79,1.18,.79,1.96s-.26,1.44-.79,1.96c-.52,.53-1.18,.79-1.96,.79s-1.43-.26-1.96-.78c-.53-.53-.79-1.18-.79-1.96s.26-1.44,.79-1.97Zm8.36,12.01H11.65v-.15c0-1.02,.58-1.82,1.73-2.41,1.15-.59,2.71-.89,4.68-.89s3.53,.3,4.67,.89c1.15,.59,1.72,1.39,1.72,2.41v.15Z"/>
  </g>
</svg>