<?xml version="1.0" encoding="UTF-8"?>
<svg id="Layer_1" data-name="Layer 1" xmlns="http://www.w3.org/2000/svg" width="40.5" height="63.8" viewBox="0 0 40.5 63.8">
  <defs>
    <style>
      .cls-1 {
        fill: #f2f2f7;
      }

      .cls-2 {
        fill: #ffaf20;
      }

      .cls-3 {
        fill: #d96bd9;
      }

      .cls-4 {
        fill: #421679;
      }
    </style>
  </defs>
  <polygon class="cls-4" points="36.17 46.82 29.63 48.19 26.22 53.94 20.22 51.34 14.22 53.94 10.88 48.19 4.33 46.82 4.72 42.82 6.45 42.82 6.22 45.44 11.87 46.73 15.02 51.64 20.22 49.49 25.52 51.64 28.58 46.74 34.22 45.39 34 42.82 35.74 42.82 36.17 46.82"/>
  <polygon class="cls-3" points="34.22 45.39 28.58 46.74 25.52 51.64 20.22 49.49 15.02 51.64 11.87 46.73 6.22 45.44 6.45 42.82 34 42.82 34.22 45.39"/>
  <polygon class="cls-4" points="36.17 43.46 29.63 44.83 26.22 50.58 20.22 47.98 14.22 50.58 10.88 44.83 4.33 43.46 4.72 39.46 6.45 39.46 6.22 42.08 11.87 43.37 15.02 48.28 20.22 46.13 25.52 48.28 28.58 43.38 34.22 42.03 34 39.46 35.74 39.46 36.17 43.46"/>
  <polygon class="cls-2" points="34.22 42.03 28.58 43.38 25.52 48.28 20.22 46.13 15.02 48.28 11.87 43.37 6.22 42.08 6.45 39.46 34 39.46 34.22 42.03"/>
  <g>
    <path class="cls-4" d="M26.9,23.01l-8.75,8.75-4.45-4.65-1.35,1.35,5.8,5.75,10.05-10-1.3-1.2Zm0,0l-8.75,8.75-4.45-4.65-1.35,1.35,5.8,5.75,10.05-10-1.3-1.2Zm12.9,5.55l-4.31-4.93,.71-6.6-6.55-1.42-3.4-5.75-6,2.6-6-2.6-3.35,5.75-6.55,1.42,.67,6.6L.7,28.56l4.32,4.93-.67,6.65,6.55,1.37,3.35,5.75,6-2.6,6,2.6,3.4-5.75,6.55-1.37-.71-6.65,4.31-4.93Zm-11.2,11.5l-3.05,4.9-5.3-2.15-5.2,2.15-3.16-4.91-5.64-1.29,.5-5.84-3.8-4.36,3.8-4.36-.5-5.9,5.67-1.24,3.03-4.9,5.3,2.15,5.25-2.15,3.12,4.9,5.63,1.24-.5,5.89,3.8,4.36-3.8,4.36,.5,5.8-5.65,1.35Zm-10.45-8.3l-4.45-4.65-1.35,1.35,5.8,5.75,10.05-10-1.3-1.2-8.75,8.75Z"/>
    <path class="cls-1" d="M37.55,28.55l-3.8-4.36,.5-5.89-5.63-1.24-3.12-4.9-5.25,2.15-5.3-2.15-3.03,4.9-5.67,1.24,.5,5.9-3.8,4.36,3.8,4.36-.5,5.84,5.64,1.29,3.16,4.91,5.2-2.15,5.3,2.15,3.05-4.9,5.65-1.35-.5-5.8,3.8-4.36Zm-19.4,5.66l-5.8-5.75,1.35-1.35,4.45,4.65,8.75-8.75,1.3,1.2-10.05,10Z"/>
  </g>
</svg>