<?xml version="1.0" encoding="UTF-8"?>
<svg id="Layer_1" data-name="Layer 1" xmlns="http://www.w3.org/2000/svg" width="32.69" height="63.8" viewBox="0 0 32.69 63.8">
  <defs>
    <style>
      .cls-1 {
        fill: #f2f2f7;
      }

      .cls-2 {
        fill: #ffaf20;
      }

      .cls-3 {
        fill: #d96bd9;
      }

      .cls-4 {
        fill: #421679;
      }
    </style>
  </defs>
  <g>
    <polygon class="cls-4" points="26.35 44.58 26.35 53.55 16.25 50.5 6.15 53.55 6.15 44.58 7.9 44.58 7.9 51.1 16.25 48.7 24.6 51.1 24.6 44.58 26.35 44.58"/>
    <polygon class="cls-3" points="24.6 44.58 24.6 51.1 16.25 48.7 7.9 51.1 7.9 44.58 24.6 44.58"/>
  </g>
  <g>
    <polygon class="cls-4" points="26.35 41.58 26.35 50.55 16.25 47.5 6.15 50.55 6.15 41.58 7.9 41.58 7.9 48.1 16.25 45.7 24.6 48.1 24.6 41.58 26.35 41.58"/>
    <polygon class="cls-2" points="24.6 41.58 24.6 48.1 16.25 45.7 7.9 48.1 7.9 41.58 24.6 41.58"/>
  </g>
  <g>
    <path class="cls-4" d="M23.45,22.75h-5.55l-1.65-5.95-1.7,5.95h-5.5l4.45,2.88-1.65,5.57,4.4-3.45,4.45,3.45-1.6-5.57,4.35-2.88Zm0,0h-5.55l-1.65-5.95-1.7,5.95h-5.5l4.45,2.88-1.65,5.57,4.4-3.45,4.45,3.45-1.6-5.57,4.35-2.88Zm0,0h-5.55l-1.65-5.95-1.7,5.95h-5.5l4.45,2.88-1.65,5.57,4.4-3.45,4.45,3.45-1.6-5.57,4.35-2.88Zm2.83-8.36c-2.75-2.76-6.09-4.14-10.02-4.14s-7.27,1.38-10.02,4.14c-2.76,2.75-4.14,6.09-4.14,10.01,0,1.79,.34,3.55,1.03,5.29,.68,1.74,1.69,3.26,3.02,4.54v13.32l10.1-3.05,10.1,3.05v-13.32c1.37-1.28,2.38-2.8,3.05-4.54,.67-1.74,1-3.5,1-5.29,0-3.92-1.37-7.26-4.12-10.01Zm-1.68,30.71l-8.35-2.4-8.35,2.4v-9.4c1.2,.97,2.51,1.69,3.94,2.15,1.43,.47,2.9,.7,4.41,.7s2.98-.23,4.41-.7c1.43-.46,2.74-1.18,3.94-2.15v9.4Zm.45-11.9c-2.4,2.4-5.33,3.6-8.8,3.6s-6.4-1.2-8.8-3.6-3.6-5.33-3.6-8.8,1.2-6.4,3.6-8.8,5.33-3.6,8.8-3.6,6.4,1.2,8.8,3.6,3.6,5.34,3.6,8.8-1.2,6.4-3.6,8.8Zm-7.15-10.45l-1.65-5.95-1.7,5.95h-5.5l4.45,2.88-1.65,5.57,4.4-3.45,4.45,3.45-1.6-5.57,4.35-2.88h-5.55Zm5.55,0h-5.55l-1.65-5.95-1.7,5.95h-5.5l4.45,2.88-1.65,5.57,4.4-3.45,4.45,3.45-1.6-5.57,4.35-2.88Z"/>
    <path class="cls-1" d="M24.6,35.7v9.4l-8.35-2.4-8.35,2.4v-9.4c1.2,.97,2.51,1.69,3.94,2.15,1.43,.47,2.9,.7,4.41,.7s2.98-.23,4.41-.7c1.43-.46,2.74-1.18,3.94-2.15Z"/>
    <path class="cls-1" d="M25.05,15.6c-2.4-2.4-5.33-3.6-8.8-3.6s-6.4,1.2-8.8,3.6-3.6,5.34-3.6,8.8,1.2,6.4,3.6,8.8,5.33,3.6,8.8,3.6,6.4-1.2,8.8-3.6,3.6-5.33,3.6-8.8-1.2-6.4-3.6-8.8Zm-4.35,15.6l-4.45-3.45-4.4,3.45,1.65-5.57-4.45-2.88h5.5l1.7-5.95,1.65,5.95h5.55l-4.35,2.88,1.6,5.57Z"/>
  </g>
</svg>