<?xml version="1.0" encoding="UTF-8"?>
<svg id="Layer_1" data-name="Layer 1" xmlns="http://www.w3.org/2000/svg" width="39.7" height="63.8" viewBox="0 0 39.7 63.8">
  <defs>
    <style>
      .cls-1 {
        fill: #f2f2f7;
      }

      .cls-2 {
        fill: #ffaf20;
      }

      .cls-3 {
        fill: #d96bd9;
      }

      .cls-4 {
        fill: #421679;
      }
    </style>
  </defs>
  <g>
    <path class="cls-4" d="M32.85,27.4c-.63-.09-1.3-.13-2-.13-1.3,0-2.57,.15-3.82,.46-1.25,.3-2.41,.75-3.48,1.34v1c1.07-.57,2.23-.99,3.48-1.27,1.25-.29,2.52-.43,3.82-.43,.77,0,1.46,.03,2.08,.1,.61,.07,1.25,.2,1.92,.4v-1.1c-.7-.17-1.37-.29-2-.37Zm0,10.8c-.63-.09-1.3-.13-2-.13-1.27,0-2.55,.15-3.85,.46-1.3,.3-2.45,.75-3.45,1.34v1.1c1.07-.57,2.23-1.01,3.48-1.32,1.25-.32,2.52-.48,3.82-.48,.77,0,1.46,.03,2.08,.1,.61,.07,1.25,.2,1.92,.4v-1.1c-.7-.17-1.37-.29-2-.37Zm0-5.4c-.63-.09-1.3-.13-2-.13-1.3,0-2.57,.15-3.82,.46-1.25,.3-2.41,.75-3.48,1.34v1.1c1.07-.57,2.23-1.01,3.48-1.32,1.25-.32,2.52-.48,3.82-.48,.77,0,1.46,.03,2.08,.1,.61,.07,1.25,.2,1.92,.4v-1.1c-.7-.17-1.37-.29-2-.37Zm0-5.4c-.63-.09-1.3-.13-2-.13-1.3,0-2.57,.15-3.82,.46-1.25,.3-2.41,.75-3.48,1.34v1c1.07-.57,2.23-.99,3.48-1.27,1.25-.29,2.52-.43,3.82-.43,.77,0,1.46,.03,2.08,.1,.61,.07,1.25,.2,1.92,.4v-1.1c-.7-.17-1.37-.29-2-.37Zm0,5.4c-.63-.09-1.3-.13-2-.13-1.3,0-2.57,.15-3.82,.46-1.25,.3-2.41,.75-3.48,1.34v1.1c1.07-.57,2.23-1.01,3.48-1.32,1.25-.32,2.52-.48,3.82-.48,.77,0,1.46,.03,2.08,.1,.61,.07,1.25,.2,1.92,.4v-1.1c-.7-.17-1.37-.29-2-.37Zm0,5.4c-.63-.09-1.3-.13-2-.13-1.27,0-2.55,.15-3.85,.46-1.3,.3-2.45,.75-3.45,1.34v1.1c1.07-.57,2.23-1.01,3.48-1.32,1.25-.32,2.52-.48,3.82-.48,.77,0,1.46,.03,2.08,.1,.61,.07,1.25,.2,1.92,.4v-1.1c-.7-.17-1.37-.29-2-.37Zm0-10.8c-.63-.09-1.3-.13-2-.13-1.3,0-2.57,.15-3.82,.46-1.25,.3-2.41,.75-3.48,1.34v1c1.07-.57,2.23-.99,3.48-1.27,1.25-.29,2.52-.43,3.82-.43,.77,0,1.46,.03,2.08,.1,.61,.07,1.25,.2,1.92,.4v-1.1c-.7-.17-1.37-.29-2-.37Zm0,5.4c-.63-.09-1.3-.13-2-.13-1.3,0-2.57,.15-3.82,.46-1.25,.3-2.41,.75-3.48,1.34v1.1c1.07-.57,2.23-1.01,3.48-1.32,1.25-.32,2.52-.48,3.82-.48,.77,0,1.46,.03,2.08,.1,.61,.07,1.25,.2,1.92,.4v-1.1c-.7-.17-1.37-.29-2-.37Zm0,5.4c-.63-.09-1.3-.13-2-.13-1.27,0-2.55,.15-3.85,.46-1.3,.3-2.45,.75-3.45,1.34v1.1c1.07-.57,2.23-1.01,3.48-1.32,1.25-.32,2.52-.48,3.82-.48,.77,0,1.46,.03,2.08,.1,.61,.07,1.25,.2,1.92,.4v-1.1c-.7-.17-1.37-.29-2-.37Zm-2-.13c-1.27,0-2.55,.15-3.85,.46-1.3,.3-2.45,.75-3.45,1.34v1.1c1.07-.57,2.23-1.01,3.48-1.32,1.25-.32,2.52-.48,3.82-.48,.77,0,1.46,.03,2.08,.1,.61,.07,1.25,.2,1.92,.4v-1.1c-.7-.17-1.37-.29-2-.37-.63-.09-1.3-.13-2-.13Zm0-5.4c-1.3,0-2.57,.15-3.82,.46-1.25,.3-2.41,.75-3.48,1.34v1.1c1.07-.57,2.23-1.01,3.48-1.32,1.25-.32,2.52-.48,3.82-.48,.77,0,1.46,.03,2.08,.1,.61,.07,1.25,.2,1.92,.4v-1.1c-.7-.17-1.37-.29-2-.37-.63-.09-1.3-.13-2-.13Zm2-5.27c-.63-.09-1.3-.13-2-.13-1.3,0-2.57,.15-3.82,.46-1.25,.3-2.41,.75-3.48,1.34v1c1.07-.57,2.23-.99,3.48-1.27,1.25-.29,2.52-.43,3.82-.43,.77,0,1.46,.03,2.08,.1,.61,.07,1.25,.2,1.92,.4v-1.1c-.7-.17-1.37-.29-2-.37Zm6.4-3.85c-.3-.49-.72-.83-1.25-1.03-1.1-.37-2.22-.65-3.36-.85-1.14-.2-2.3-.3-3.49-.3-2.03,0-4,.31-5.9,.93-1.9,.61-3.68,1.49-5.35,2.62-1.67-1.13-3.47-2.01-5.4-2.62-1.94-.62-3.92-.93-5.95-.93-1.18,0-2.34,.09-3.48,.28-1.13,.18-2.26,.47-3.37,.87-.53,.21-.95,.55-1.25,1.03-.3,.48-.45,1-.45,1.55v18.32c0,.9,.34,1.6,1.01,2.1s1.38,.6,2.14,.3c.9-.27,1.79-.47,2.67-.6s1.79-.2,2.73-.2c2.05,0,4.03,.29,5.95,.87,1.91,.59,3.71,1.43,5.38,2.53,1.68-1.1,3.48-1.94,5.39-2.53,1.91-.58,3.87-.87,5.87-.87,.86,0,1.72,.06,2.58,.18,.85,.11,1.7,.29,2.53,.52,.79,.3,1.56,.21,2.32-.28,.75-.48,1.13-1.16,1.13-2.02V25.12c0-.57-.15-1.09-.45-1.57Zm-20,22.92c-1.73-.93-3.48-1.63-5.25-2.1-1.76-.47-3.58-.7-5.45-.7-1.24,0-2.34,.08-3.28,.23-.95,.15-1.72,.34-2.32,.57-.4,.13-.77,.09-1.1-.12-.33-.22-.5-.55-.5-.98V25.08c0-.3,.08-.58,.25-.83,.17-.25,.45-.44,.85-.57,1.13-.37,2.13-.63,2.98-.76,.85-.13,1.89-.2,3.12-.2,1.88,0,3.76,.29,5.64,.88,1.87,.58,3.56,1.43,5.06,2.56v20.31Zm19.1-3.2c0,.47-.17,.81-.5,1.03-.33,.21-.7,.24-1.1,.07-.57-.2-1.33-.37-2.3-.5-.97-.13-2.07-.2-3.31-.2-1.91,0-3.72,.23-5.43,.7-1.7,.47-3.41,1.17-5.11,2.1V26.16c1.47-1.13,3.11-1.98,4.94-2.56,1.82-.59,3.69-.88,5.6-.88,1.25,0,2.31,.07,3.17,.2,.86,.13,1.84,.4,2.94,.8,.4,.16,.68,.36,.85,.6,.17,.23,.25,.5,.25,.8v18.15Zm-7.5-5.2c-1.27,0-2.55,.15-3.85,.46-1.3,.3-2.45,.75-3.45,1.34v1.1c1.07-.57,2.23-1.01,3.48-1.32,1.25-.32,2.52-.48,3.82-.48,.77,0,1.46,.03,2.08,.1,.61,.07,1.25,.2,1.92,.4v-1.1c-.7-.17-1.37-.29-2-.37-.63-.09-1.3-.13-2-.13Zm0-5.4c-1.3,0-2.57,.15-3.82,.46-1.25,.3-2.41,.75-3.48,1.34v1.1c1.07-.57,2.23-1.01,3.48-1.32,1.25-.32,2.52-.48,3.82-.48,.77,0,1.46,.03,2.08,.1,.61,.07,1.25,.2,1.92,.4v-1.1c-.7-.17-1.37-.29-2-.37-.63-.09-1.3-.13-2-.13Zm0-5.4c-1.3,0-2.57,.15-3.82,.46-1.25,.3-2.41,.75-3.48,1.34v1c1.07-.57,2.23-.99,3.48-1.27,1.25-.29,2.52-.43,3.82-.43,.77,0,1.46,.03,2.08,.1,.61,.07,1.25,.2,1.92,.4v-1.1c-.7-.17-1.37-.29-2-.37-.63-.09-1.3-.13-2-.13Z"/>
    <path class="cls-3" d="M38.1,24.32c-.17-.24-.45-.44-.85-.6-1.1-.4-2.08-.67-2.94-.8-.86-.13-1.92-.2-3.17-.2-1.91,0-3.78,.29-5.6,.88-1.83,.58-3.47,1.43-4.94,2.56v20.31c1.7-.93,3.41-1.63,5.11-2.1,1.71-.47,3.52-.7,5.43-.7,1.24,0,2.34,.07,3.31,.2,.97,.13,1.73,.3,2.3,.5,.4,.17,.77,.14,1.1-.07,.33-.22,.5-.56,.5-1.03V25.12c0-.3-.08-.57-.25-.8Zm-3.25,15.35c-.67-.2-1.31-.33-1.92-.4-.62-.07-1.31-.1-2.08-.1-1.3,0-2.57,.16-3.82,.48-1.25,.31-2.41,.75-3.48,1.32v-1.1c1-.59,2.15-1.04,3.45-1.34,1.3-.31,2.58-.46,3.85-.46,.7,0,1.37,.04,2,.13,.63,.08,1.3,.2,2,.37v1.1Zm0-5.4c-.67-.2-1.31-.33-1.92-.4-.62-.07-1.31-.1-2.08-.1-1.3,0-2.57,.16-3.82,.48-1.25,.31-2.41,.75-3.48,1.32v-1.1c1.07-.59,2.23-1.04,3.48-1.34,1.25-.31,2.52-.46,3.82-.46,.7,0,1.37,.04,2,.13,.63,.08,1.3,.2,2,.37v1.1Zm0-5.4c-.67-.2-1.31-.33-1.92-.4-.62-.07-1.31-.1-2.08-.1-1.3,0-2.57,.14-3.82,.43-1.25,.28-2.41,.7-3.48,1.27v-1c1.07-.59,2.23-1.04,3.48-1.34,1.25-.31,2.52-.46,3.82-.46,.7,0,1.37,.04,2,.13,.63,.08,1.3,.2,2,.37v1.1Z"/>
    <path class="cls-3" d="M19.25,26.16v20.31c-1.73-.93-3.48-1.63-5.25-2.1-1.76-.47-3.58-.7-5.45-.7-1.24,0-2.34,.08-3.28,.23-.95,.15-1.72,.34-2.32,.57-.4,.13-.77,.09-1.1-.12-.33-.22-.5-.55-.5-.98V25.08c0-.3,.08-.58,.25-.83,.17-.25,.45-.44,.85-.57,1.13-.37,2.13-.63,2.98-.76,.85-.13,1.89-.2,3.12-.2,1.88,0,3.76,.29,5.64,.88,1.87,.58,3.56,1.43,5.06,2.56Z"/>
  </g>
  <g>
    <path class="cls-4" d="M32.85,24.4c-.63-.09-1.3-.13-2-.13-1.3,0-2.57,.15-3.82,.46-1.25,.3-2.41,.75-3.48,1.34v1c1.07-.57,2.23-.99,3.48-1.27,1.25-.29,2.52-.43,3.82-.43,.77,0,1.46,.03,2.08,.1,.61,.07,1.25,.2,1.92,.4v-1.1c-.7-.17-1.37-.29-2-.37Zm0,10.8c-.63-.09-1.3-.13-2-.13-1.27,0-2.55,.15-3.85,.46-1.3,.3-2.45,.75-3.45,1.34v1.1c1.07-.57,2.23-1.01,3.48-1.32,1.25-.32,2.52-.48,3.82-.48,.77,0,1.46,.03,2.08,.1,.61,.07,1.25,.2,1.92,.4v-1.1c-.7-.17-1.37-.29-2-.37Zm0-5.4c-.63-.09-1.3-.13-2-.13-1.3,0-2.57,.15-3.82,.46-1.25,.3-2.41,.75-3.48,1.34v1.1c1.07-.57,2.23-1.01,3.48-1.32,1.25-.32,2.52-.48,3.82-.48,.77,0,1.46,.03,2.08,.1,.61,.07,1.25,.2,1.92,.4v-1.1c-.7-.17-1.37-.29-2-.37Zm0-5.4c-.63-.09-1.3-.13-2-.13-1.3,0-2.57,.15-3.82,.46-1.25,.3-2.41,.75-3.48,1.34v1c1.07-.57,2.23-.99,3.48-1.27,1.25-.29,2.52-.43,3.82-.43,.77,0,1.46,.03,2.08,.1,.61,.07,1.25,.2,1.92,.4v-1.1c-.7-.17-1.37-.29-2-.37Zm0,5.4c-.63-.09-1.3-.13-2-.13-1.3,0-2.57,.15-3.82,.46-1.25,.3-2.41,.75-3.48,1.34v1.1c1.07-.57,2.23-1.01,3.48-1.32,1.25-.32,2.52-.48,3.82-.48,.77,0,1.46,.03,2.08,.1,.61,.07,1.25,.2,1.92,.4v-1.1c-.7-.17-1.37-.29-2-.37Zm0,5.4c-.63-.09-1.3-.13-2-.13-1.27,0-2.55,.15-3.85,.46-1.3,.3-2.45,.75-3.45,1.34v1.1c1.07-.57,2.23-1.01,3.48-1.32,1.25-.32,2.52-.48,3.82-.48,.77,0,1.46,.03,2.08,.1,.61,.07,1.25,.2,1.92,.4v-1.1c-.7-.17-1.37-.29-2-.37Zm0-10.8c-.63-.09-1.3-.13-2-.13-1.3,0-2.57,.15-3.82,.46-1.25,.3-2.41,.75-3.48,1.34v1c1.07-.57,2.23-.99,3.48-1.27,1.25-.29,2.52-.43,3.82-.43,.77,0,1.46,.03,2.08,.1,.61,.07,1.25,.2,1.92,.4v-1.1c-.7-.17-1.37-.29-2-.37Zm0,5.4c-.63-.09-1.3-.13-2-.13-1.3,0-2.57,.15-3.82,.46-1.25,.3-2.41,.75-3.48,1.34v1.1c1.07-.57,2.23-1.01,3.48-1.32,1.25-.32,2.52-.48,3.82-.48,.77,0,1.46,.03,2.08,.1,.61,.07,1.25,.2,1.92,.4v-1.1c-.7-.17-1.37-.29-2-.37Zm0,5.4c-.63-.09-1.3-.13-2-.13-1.27,0-2.55,.15-3.85,.46-1.3,.3-2.45,.75-3.45,1.34v1.1c1.07-.57,2.23-1.01,3.48-1.32,1.25-.32,2.52-.48,3.82-.48,.77,0,1.46,.03,2.08,.1,.61,.07,1.25,.2,1.92,.4v-1.1c-.7-.17-1.37-.29-2-.37Zm-2-.13c-1.27,0-2.55,.15-3.85,.46-1.3,.3-2.45,.75-3.45,1.34v1.1c1.07-.57,2.23-1.01,3.48-1.32,1.25-.32,2.52-.48,3.82-.48,.77,0,1.46,.03,2.08,.1,.61,.07,1.25,.2,1.92,.4v-1.1c-.7-.17-1.37-.29-2-.37-.63-.09-1.3-.13-2-.13Zm0-5.4c-1.3,0-2.57,.15-3.82,.46-1.25,.3-2.41,.75-3.48,1.34v1.1c1.07-.57,2.23-1.01,3.48-1.32,1.25-.32,2.52-.48,3.82-.48,.77,0,1.46,.03,2.08,.1,.61,.07,1.25,.2,1.92,.4v-1.1c-.7-.17-1.37-.29-2-.37-.63-.09-1.3-.13-2-.13Zm2-5.27c-.63-.09-1.3-.13-2-.13-1.3,0-2.57,.15-3.82,.46-1.25,.3-2.41,.75-3.48,1.34v1c1.07-.57,2.23-.99,3.48-1.27,1.25-.29,2.52-.43,3.82-.43,.77,0,1.46,.03,2.08,.1,.61,.07,1.25,.2,1.92,.4v-1.1c-.7-.17-1.37-.29-2-.37Zm6.4-3.85c-.3-.49-.72-.83-1.25-1.03-1.1-.37-2.22-.65-3.36-.85-1.14-.2-2.3-.3-3.49-.3-2.03,0-4,.31-5.9,.93-1.9,.61-3.68,1.49-5.35,2.62-1.67-1.13-3.47-2.01-5.4-2.62-1.94-.62-3.92-.93-5.95-.93-1.18,0-2.34,.09-3.48,.28-1.13,.18-2.26,.47-3.37,.87-.53,.21-.95,.55-1.25,1.03-.3,.48-.45,1-.45,1.55v18.32c0,.9,.34,1.6,1.01,2.1s1.38,.6,2.14,.3c.9-.27,1.79-.47,2.67-.6s1.79-.2,2.73-.2c2.05,0,4.03,.29,5.95,.87,1.91,.59,3.71,1.43,5.38,2.53,1.68-1.1,3.48-1.94,5.39-2.53,1.91-.58,3.87-.87,5.87-.87,.86,0,1.72,.06,2.58,.18,.85,.11,1.7,.29,2.53,.52,.79,.3,1.56,.21,2.32-.28,.75-.48,1.13-1.16,1.13-2.02V22.12c0-.57-.15-1.09-.45-1.57Zm-20,22.92c-1.73-.93-3.48-1.63-5.25-2.1-1.76-.47-3.58-.7-5.45-.7-1.24,0-2.34,.08-3.28,.23-.95,.15-1.72,.34-2.32,.57-.4,.13-.77,.09-1.1-.12-.33-.22-.5-.55-.5-.98V22.08c0-.3,.08-.58,.25-.83,.17-.25,.45-.44,.85-.57,1.13-.37,2.13-.63,2.98-.76,.85-.13,1.89-.2,3.12-.2,1.88,0,3.76,.29,5.64,.88,1.87,.58,3.56,1.43,5.06,2.56v20.31Zm19.1-3.2c0,.47-.17,.81-.5,1.03-.33,.21-.7,.24-1.1,.07-.57-.2-1.33-.37-2.3-.5-.97-.13-2.07-.2-3.31-.2-1.91,0-3.72,.23-5.43,.7-1.7,.47-3.41,1.17-5.11,2.1V23.16c1.47-1.13,3.11-1.98,4.94-2.56,1.82-.59,3.69-.88,5.6-.88,1.25,0,2.31,.07,3.17,.2,.86,.13,1.84,.4,2.94,.8,.4,.16,.68,.36,.85,.6,.17,.23,.25,.5,.25,.8v18.15Zm-7.5-5.2c-1.27,0-2.55,.15-3.85,.46-1.3,.3-2.45,.75-3.45,1.34v1.1c1.07-.57,2.23-1.01,3.48-1.32,1.25-.32,2.52-.48,3.82-.48,.77,0,1.46,.03,2.08,.1,.61,.07,1.25,.2,1.92,.4v-1.1c-.7-.17-1.37-.29-2-.37-.63-.09-1.3-.13-2-.13Zm0-5.4c-1.3,0-2.57,.15-3.82,.46-1.25,.3-2.41,.75-3.48,1.34v1.1c1.07-.57,2.23-1.01,3.48-1.32,1.25-.32,2.52-.48,3.82-.48,.77,0,1.46,.03,2.08,.1,.61,.07,1.25,.2,1.92,.4v-1.1c-.7-.17-1.37-.29-2-.37-.63-.09-1.3-.13-2-.13Zm0-5.4c-1.3,0-2.57,.15-3.82,.46-1.25,.3-2.41,.75-3.48,1.34v1c1.07-.57,2.23-.99,3.48-1.27,1.25-.29,2.52-.43,3.82-.43,.77,0,1.46,.03,2.08,.1,.61,.07,1.25,.2,1.92,.4v-1.1c-.7-.17-1.37-.29-2-.37-.63-.09-1.3-.13-2-.13Z"/>
    <path class="cls-2" d="M38.1,21.32c-.17-.24-.45-.44-.85-.6-1.1-.4-2.08-.67-2.94-.8-.86-.13-1.92-.2-3.17-.2-1.91,0-3.78,.29-5.6,.88-1.83,.58-3.47,1.43-4.94,2.56v20.31c1.7-.93,3.41-1.63,5.11-2.1,1.71-.47,3.52-.7,5.43-.7,1.24,0,2.34,.07,3.31,.2,.97,.13,1.73,.3,2.3,.5,.4,.17,.77,.14,1.1-.07,.33-.22,.5-.56,.5-1.03V22.12c0-.3-.08-.57-.25-.8Zm-3.25,15.35c-.67-.2-1.31-.33-1.92-.4-.62-.07-1.31-.1-2.08-.1-1.3,0-2.57,.16-3.82,.48-1.25,.31-2.41,.75-3.48,1.32v-1.1c1-.59,2.15-1.04,3.45-1.34,1.3-.31,2.58-.46,3.85-.46,.7,0,1.37,.04,2,.13,.63,.08,1.3,.2,2,.37v1.1Zm0-5.4c-.67-.2-1.31-.33-1.92-.4-.62-.07-1.31-.1-2.08-.1-1.3,0-2.57,.16-3.82,.48-1.25,.31-2.41,.75-3.48,1.32v-1.1c1.07-.59,2.23-1.04,3.48-1.34,1.25-.31,2.52-.46,3.82-.46,.7,0,1.37,.04,2,.13,.63,.08,1.3,.2,2,.37v1.1Zm0-5.4c-.67-.2-1.31-.33-1.92-.4-.62-.07-1.31-.1-2.08-.1-1.3,0-2.57,.14-3.82,.43-1.25,.28-2.41,.7-3.48,1.27v-1c1.07-.59,2.23-1.04,3.48-1.34,1.25-.31,2.52-.46,3.82-.46,.7,0,1.37,.04,2,.13,.63,.08,1.3,.2,2,.37v1.1Z"/>
    <path class="cls-2" d="M19.25,23.16v20.31c-1.73-.93-3.48-1.63-5.25-2.1-1.76-.47-3.58-.7-5.45-.7-1.24,0-2.34,.08-3.28,.23-.95,.15-1.72,.34-2.32,.57-.4,.13-.77,.09-1.1-.12-.33-.22-.5-.55-.5-.98V22.08c0-.3,.08-.58,.25-.83,.17-.25,.45-.44,.85-.57,1.13-.37,2.13-.63,2.98-.76,.85-.13,1.89-.2,3.12-.2,1.88,0,3.76,.29,5.64,.88,1.87,.58,3.56,1.43,5.06,2.56Z"/>
  </g>
  <g>
    <path class="cls-4" d="M32.85,21.4c-.63-.09-1.3-.13-2-.13-1.3,0-2.57,.15-3.82,.46-1.25,.3-2.41,.75-3.48,1.34v1c1.07-.57,2.23-.99,3.48-1.27,1.25-.29,2.52-.43,3.82-.43,.77,0,1.46,.03,2.08,.1,.61,.07,1.25,.2,1.92,.4v-1.1c-.7-.17-1.37-.29-2-.37Zm0,10.8c-.63-.09-1.3-.13-2-.13-1.27,0-2.55,.15-3.85,.46-1.3,.3-2.45,.75-3.45,1.34v1.1c1.07-.57,2.23-1.01,3.48-1.32,1.25-.32,2.52-.48,3.82-.48,.77,0,1.46,.03,2.08,.1,.61,.07,1.25,.2,1.92,.4v-1.1c-.7-.17-1.37-.29-2-.37Zm0-5.4c-.63-.09-1.3-.13-2-.13-1.3,0-2.57,.15-3.82,.46-1.25,.3-2.41,.75-3.48,1.34v1.1c1.07-.57,2.23-1.01,3.48-1.32,1.25-.32,2.52-.48,3.82-.48,.77,0,1.46,.03,2.08,.1,.61,.07,1.25,.2,1.92,.4v-1.1c-.7-.17-1.37-.29-2-.37Zm0-5.4c-.63-.09-1.3-.13-2-.13-1.3,0-2.57,.15-3.82,.46-1.25,.3-2.41,.75-3.48,1.34v1c1.07-.57,2.23-.99,3.48-1.27,1.25-.29,2.52-.43,3.82-.43,.77,0,1.46,.03,2.08,.1,.61,.07,1.25,.2,1.92,.4v-1.1c-.7-.17-1.37-.29-2-.37Zm0,5.4c-.63-.09-1.3-.13-2-.13-1.3,0-2.57,.15-3.82,.46-1.25,.3-2.41,.75-3.48,1.34v1.1c1.07-.57,2.23-1.01,3.48-1.32,1.25-.32,2.52-.48,3.82-.48,.77,0,1.46,.03,2.08,.1,.61,.07,1.25,.2,1.92,.4v-1.1c-.7-.17-1.37-.29-2-.37Zm0,5.4c-.63-.09-1.3-.13-2-.13-1.27,0-2.55,.15-3.85,.46-1.3,.3-2.45,.75-3.45,1.34v1.1c1.07-.57,2.23-1.01,3.48-1.32,1.25-.32,2.52-.48,3.82-.48,.77,0,1.46,.03,2.08,.1,.61,.07,1.25,.2,1.92,.4v-1.1c-.7-.17-1.37-.29-2-.37Zm0-10.8c-.63-.09-1.3-.13-2-.13-1.3,0-2.57,.15-3.82,.46-1.25,.3-2.41,.75-3.48,1.34v1c1.07-.57,2.23-.99,3.48-1.27,1.25-.29,2.52-.43,3.82-.43,.77,0,1.46,.03,2.08,.1,.61,.07,1.25,.2,1.92,.4v-1.1c-.7-.17-1.37-.29-2-.37Zm0,5.4c-.63-.09-1.3-.13-2-.13-1.3,0-2.57,.15-3.82,.46-1.25,.3-2.41,.75-3.48,1.34v1.1c1.07-.57,2.23-1.01,3.48-1.32,1.25-.32,2.52-.48,3.82-.48,.77,0,1.46,.03,2.08,.1,.61,.07,1.25,.2,1.92,.4v-1.1c-.7-.17-1.37-.29-2-.37Zm0,5.4c-.63-.09-1.3-.13-2-.13-1.27,0-2.55,.15-3.85,.46-1.3,.3-2.45,.75-3.45,1.34v1.1c1.07-.57,2.23-1.01,3.48-1.32,1.25-.32,2.52-.48,3.82-.48,.77,0,1.46,.03,2.08,.1,.61,.07,1.25,.2,1.92,.4v-1.1c-.7-.17-1.37-.29-2-.37Zm-2-.13c-1.27,0-2.55,.15-3.85,.46-1.3,.3-2.45,.75-3.45,1.34v1.1c1.07-.57,2.23-1.01,3.48-1.32,1.25-.32,2.52-.48,3.82-.48,.77,0,1.46,.03,2.08,.1,.61,.07,1.25,.2,1.92,.4v-1.1c-.7-.17-1.37-.29-2-.37-.63-.09-1.3-.13-2-.13Zm0-5.4c-1.3,0-2.57,.15-3.82,.46-1.25,.3-2.41,.75-3.48,1.34v1.1c1.07-.57,2.23-1.01,3.48-1.32,1.25-.32,2.52-.48,3.82-.48,.77,0,1.46,.03,2.08,.1,.61,.07,1.25,.2,1.92,.4v-1.1c-.7-.17-1.37-.29-2-.37-.63-.09-1.3-.13-2-.13Zm2-5.27c-.63-.09-1.3-.13-2-.13-1.3,0-2.57,.15-3.82,.46-1.25,.3-2.41,.75-3.48,1.34v1c1.07-.57,2.23-.99,3.48-1.27,1.25-.29,2.52-.43,3.82-.43,.77,0,1.46,.03,2.08,.1,.61,.07,1.25,.2,1.92,.4v-1.1c-.7-.17-1.37-.29-2-.37Zm6.4-3.85c-.3-.49-.72-.83-1.25-1.03-1.1-.37-2.22-.65-3.36-.85-1.14-.2-2.3-.3-3.49-.3-2.03,0-4,.31-5.9,.93-1.9,.61-3.68,1.49-5.35,2.62-1.67-1.13-3.47-2.01-5.4-2.62-1.94-.62-3.92-.93-5.95-.93-1.18,0-2.34,.09-3.48,.28-1.13,.18-2.26,.47-3.37,.87-.53,.21-.95,.55-1.25,1.03-.3,.48-.45,1-.45,1.55v18.32c0,.9,.34,1.6,1.01,2.1s1.38,.6,2.14,.3c.9-.27,1.79-.47,2.67-.6s1.79-.2,2.73-.2c2.05,0,4.03,.29,5.95,.87,1.91,.59,3.71,1.43,5.38,2.53,1.68-1.1,3.48-1.94,5.39-2.53,1.91-.58,3.87-.87,5.87-.87,.86,0,1.72,.06,2.58,.18,.85,.11,1.7,.29,2.53,.52,.79,.3,1.56,.21,2.32-.28,.75-.48,1.13-1.16,1.13-2.02V19.12c0-.57-.15-1.09-.45-1.57Zm-20,22.92c-1.73-.93-3.48-1.63-5.25-2.1-1.76-.47-3.58-.7-5.45-.7-1.24,0-2.34,.08-3.28,.23-.95,.15-1.72,.34-2.32,.57-.4,.13-.77,.09-1.1-.12-.33-.22-.5-.55-.5-.98V19.08c0-.3,.08-.58,.25-.83,.17-.25,.45-.44,.85-.57,1.13-.37,2.13-.63,2.98-.76,.85-.13,1.89-.2,3.12-.2,1.88,0,3.76,.29,5.64,.88,1.87,.58,3.56,1.43,5.06,2.56v20.31Zm19.1-3.2c0,.47-.17,.81-.5,1.03-.33,.21-.7,.24-1.1,.07-.57-.2-1.33-.37-2.3-.5-.97-.13-2.07-.2-3.31-.2-1.91,0-3.72,.23-5.43,.7-1.7,.47-3.41,1.17-5.11,2.1V20.16c1.47-1.13,3.11-1.98,4.94-2.56,1.82-.59,3.69-.88,5.6-.88,1.25,0,2.31,.07,3.17,.2,.86,.13,1.84,.4,2.94,.8,.4,.16,.68,.36,.85,.6,.17,.23,.25,.5,.25,.8v18.15Zm-7.5-5.2c-1.27,0-2.55,.15-3.85,.46-1.3,.3-2.45,.75-3.45,1.34v1.1c1.07-.57,2.23-1.01,3.48-1.32,1.25-.32,2.52-.48,3.82-.48,.77,0,1.46,.03,2.08,.1,.61,.07,1.25,.2,1.92,.4v-1.1c-.7-.17-1.37-.29-2-.37-.63-.09-1.3-.13-2-.13Zm0-5.4c-1.3,0-2.57,.15-3.82,.46-1.25,.3-2.41,.75-3.48,1.34v1.1c1.07-.57,2.23-1.01,3.48-1.32,1.25-.32,2.52-.48,3.82-.48,.77,0,1.46,.03,2.08,.1,.61,.07,1.25,.2,1.92,.4v-1.1c-.7-.17-1.37-.29-2-.37-.63-.09-1.3-.13-2-.13Zm0-5.4c-1.3,0-2.57,.15-3.82,.46-1.25,.3-2.41,.75-3.48,1.34v1c1.07-.57,2.23-.99,3.48-1.27,1.25-.29,2.52-.43,3.82-.43,.77,0,1.46,.03,2.08,.1,.61,.07,1.25,.2,1.92,.4v-1.1c-.7-.17-1.37-.29-2-.37-.63-.09-1.3-.13-2-.13Z"/>
    <path class="cls-1" d="M38.1,18.32c-.17-.24-.45-.44-.85-.6-1.1-.4-2.08-.67-2.94-.8-.86-.13-1.92-.2-3.17-.2-1.91,0-3.78,.29-5.6,.88-1.83,.58-3.47,1.43-4.94,2.56v20.31c1.7-.93,3.41-1.63,5.11-2.1,1.71-.47,3.52-.7,5.43-.7,1.24,0,2.34,.07,3.31,.2,.97,.13,1.73,.3,2.3,.5,.4,.17,.77,.14,1.1-.07,.33-.22,.5-.56,.5-1.03V19.12c0-.3-.08-.57-.25-.8Zm-3.25,15.35c-.67-.2-1.31-.33-1.92-.4-.62-.07-1.31-.1-2.08-.1-1.3,0-2.57,.16-3.82,.48-1.25,.31-2.41,.75-3.48,1.32v-1.1c1-.59,2.15-1.04,3.45-1.34,1.3-.31,2.58-.46,3.85-.46,.7,0,1.37,.04,2,.13,.63,.08,1.3,.2,2,.37v1.1Zm0-5.4c-.67-.2-1.31-.33-1.92-.4-.62-.07-1.31-.1-2.08-.1-1.3,0-2.57,.16-3.82,.48-1.25,.31-2.41,.75-3.48,1.32v-1.1c1.07-.59,2.23-1.04,3.48-1.34,1.25-.31,2.52-.46,3.82-.46,.7,0,1.37,.04,2,.13,.63,.08,1.3,.2,2,.37v1.1Zm0-5.4c-.67-.2-1.31-.33-1.92-.4-.62-.07-1.31-.1-2.08-.1-1.3,0-2.57,.14-3.82,.43-1.25,.28-2.41,.7-3.48,1.27v-1c1.07-.59,2.23-1.04,3.48-1.34,1.25-.31,2.52-.46,3.82-.46,.7,0,1.37,.04,2,.13,.63,.08,1.3,.2,2,.37v1.1Z"/>
    <path class="cls-1" d="M19.25,20.16v20.31c-1.73-.93-3.48-1.63-5.25-2.1-1.76-.47-3.58-.7-5.45-.7-1.24,0-2.34,.08-3.28,.23-.95,.15-1.72,.34-2.32,.57-.4,.13-.77,.09-1.1-.12-.33-.22-.5-.55-.5-.98V19.08c0-.3,.08-.58,.25-.83,.17-.25,.45-.44,.85-.57,1.13-.37,2.13-.63,2.98-.76,.85-.13,1.89-.2,3.12-.2,1.88,0,3.76,.29,5.64,.88,1.87,.58,3.56,1.43,5.06,2.56Z"/>
  </g>
</svg>