<?xml version="1.0" encoding="UTF-8"?>
<svg id="Layer_1" data-name="Layer 1" xmlns="http://www.w3.org/2000/svg" width="40.5" height="63.8" viewBox="0 0 40.5 63.8">
  <defs>
    <style>
      .cls-1 {
        fill: #f2f2f7;
      }

      .cls-2 {
        fill: #ffaf20;
      }

      .cls-3 {
        fill: #d96bd9;
      }

      .cls-4 {
        fill: #421679;
      }
    </style>
  </defs>
  <g>
    <path class="cls-4" d="M38.58,37.28c-1.29-1.29-2.88-1.96-4.78-2.03h-1.6v-3c-.2-3.21-1.42-5.93-3.67-8.15-2.24-2.23-4.99-3.35-8.23-3.35-3,0-5.63,.99-7.9,2.95-2.26,1.97-3.6,4.44-4,7.4-2.2,.07-4.15,.99-5.85,2.76-1.7,1.77-2.55,3.84-2.55,6.19,0,2.54,.88,4.67,2.63,6.4,1.75,1.74,3.89,2.6,6.42,2.6h24.6c1.93,0,3.55-.67,4.87-2.03,1.32-1.35,1.98-2.99,1.98-4.92s-.64-3.54-1.92-4.82Zm-1.35,8.48c-1.02,1.03-2.25,1.54-3.7,1.54h-10.78c-.4,0-.77-.16-1.1-.5-.33-.33-.5-.7-.5-1.1v-12.1l4.55,4.55,1.25-1.2-6.7-6.65-6.65,6.65,1.25,1.2,4.55-4.55v12.1c0,.59,.13,1.12,.4,1.6H9.05c-2.04,0-3.77-.7-5.18-2.1-1.41-1.4-2.12-3.09-2.12-5.07s.71-3.8,2.13-5.18c1.43-1.39,3.09-2.08,4.98-2.08h1.11c0-2.84,.99-5.27,2.98-7.31,1.99-2.04,4.41-3.06,7.26-3.06s5.26,1.02,7.25,3.06c1.98,2.04,2.98,4.48,2.98,7.31v4.07h3.1c1.43,0,2.65,.51,3.68,1.54,1.02,1.03,1.53,2.24,1.53,3.64s-.51,2.61-1.52,3.64Z"/>
    <path class="cls-3" d="M38.75,42.12c0,1.4-.51,2.61-1.52,3.64-1.02,1.03-2.25,1.54-3.7,1.54h-10.78c-.4,0-.77-.16-1.1-.5-.33-.33-.5-.7-.5-1.1v-12.1l4.55,4.55,1.25-1.2-6.7-6.65-6.65,6.65,1.25,1.2,4.55-4.55v12.1c0,.59,.13,1.12,.4,1.6H9.05c-2.04,0-3.77-.7-5.18-2.1-1.41-1.4-2.12-3.09-2.12-5.07s.71-3.8,2.13-5.18c1.43-1.39,3.09-2.08,4.98-2.08h1.11c0-2.84,.99-5.27,2.98-7.31,1.99-2.04,4.41-3.06,7.26-3.06s5.26,1.02,7.25,3.06c1.98,2.04,2.98,4.48,2.98,7.31v4.07h3.1c1.43,0,2.65,.51,3.68,1.54,1.02,1.03,1.53,2.24,1.53,3.64Z"/>
  </g>
  <g>
    <path class="cls-4" d="M38.58,34.28c-1.29-1.29-2.88-1.96-4.78-2.03h-1.6v-3c-.2-3.21-1.42-5.93-3.67-8.15-2.24-2.23-4.99-3.35-8.23-3.35-3,0-5.63,.99-7.9,2.95-2.26,1.97-3.6,4.44-4,7.4-2.2,.07-4.15,.99-5.85,2.76-1.7,1.77-2.55,3.84-2.55,6.19,0,2.54,.88,4.67,2.63,6.4,1.75,1.74,3.89,2.6,6.42,2.6h24.6c1.93,0,3.55-.67,4.87-2.03,1.32-1.35,1.98-2.99,1.98-4.92s-.64-3.54-1.92-4.82Zm-1.35,8.48c-1.02,1.03-2.25,1.54-3.7,1.54h-10.78c-.4,0-.77-.16-1.1-.5-.33-.33-.5-.7-.5-1.1v-12.1l4.55,4.55,1.25-1.2-6.7-6.65-6.65,6.65,1.25,1.2,4.55-4.55v12.1c0,.59,.13,1.12,.4,1.6H9.05c-2.04,0-3.77-.7-5.18-2.1-1.41-1.4-2.12-3.09-2.12-5.07s.71-3.8,2.13-5.18c1.43-1.39,3.09-2.08,4.98-2.08h1.11c0-2.84,.99-5.27,2.98-7.31,1.99-2.04,4.41-3.06,7.26-3.06s5.26,1.02,7.25,3.06c1.98,2.04,2.98,4.48,2.98,7.31v4.07h3.1c1.43,0,2.65,.51,3.68,1.54,1.02,1.03,1.53,2.24,1.53,3.64s-.51,2.61-1.52,3.64Z"/>
    <path class="cls-2" d="M38.75,39.12c0,1.4-.51,2.61-1.52,3.64-1.02,1.03-2.25,1.54-3.7,1.54h-10.78c-.4,0-.77-.16-1.1-.5-.33-.33-.5-.7-.5-1.1v-12.1l4.55,4.55,1.25-1.2-6.7-6.65-6.65,6.65,1.25,1.2,4.55-4.55v12.1c0,.59,.13,1.12,.4,1.6H9.05c-2.04,0-3.77-.7-5.18-2.1-1.41-1.4-2.12-3.09-2.12-5.07s.71-3.8,2.13-5.18c1.43-1.39,3.09-2.08,4.98-2.08h1.11c0-2.84,.99-5.27,2.98-7.31,1.99-2.04,4.41-3.06,7.26-3.06s5.26,1.02,7.25,3.06c1.98,2.04,2.98,4.48,2.98,7.31v4.07h3.1c1.43,0,2.65,.51,3.68,1.54,1.02,1.03,1.53,2.24,1.53,3.64Z"/>
  </g>
  <g>
    <path class="cls-4" d="M38.58,31.28c-1.29-1.29-2.88-1.96-4.78-2.03h-1.6v-3c-.2-3.21-1.42-5.93-3.67-8.15-2.24-2.23-4.99-3.35-8.23-3.35-3,0-5.63,.99-7.9,2.95-2.26,1.97-3.6,4.44-4,7.4-2.2,.07-4.15,.99-5.85,2.76-1.7,1.77-2.55,3.84-2.55,6.19,0,2.54,.88,4.67,2.63,6.4,1.75,1.74,3.89,2.6,6.42,2.6h24.6c1.93,0,3.55-.67,4.87-2.03,1.32-1.35,1.98-2.99,1.98-4.92s-.64-3.54-1.92-4.82Zm-1.35,8.48c-1.02,1.03-2.25,1.54-3.7,1.54h-10.78c-.4,0-.77-.16-1.1-.5-.33-.33-.5-.7-.5-1.1v-12.1l4.55,4.55,1.25-1.2-6.7-6.65-6.65,6.65,1.25,1.2,4.55-4.55v12.1c0,.59,.13,1.12,.4,1.6H9.05c-2.04,0-3.77-.7-5.18-2.1-1.41-1.4-2.12-3.09-2.12-5.07s.71-3.8,2.13-5.18c1.43-1.39,3.09-2.08,4.98-2.08h1.11c0-2.84,.99-5.27,2.98-7.31,1.99-2.04,4.41-3.06,7.26-3.06s5.26,1.02,7.25,3.06c1.98,2.04,2.98,4.48,2.98,7.31v4.07h3.1c1.43,0,2.65,.51,3.68,1.54,1.02,1.03,1.53,2.24,1.53,3.64s-.51,2.61-1.52,3.64Z"/>
    <path class="cls-1" d="M38.75,36.12c0,1.4-.51,2.61-1.52,3.64-1.02,1.03-2.25,1.54-3.7,1.54h-10.78c-.4,0-.77-.16-1.1-.5-.33-.33-.5-.7-.5-1.1v-12.1l4.55,4.55,1.25-1.2-6.7-6.65-6.65,6.65,1.25,1.2,4.55-4.55v12.1c0,.59,.13,1.12,.4,1.6H9.05c-2.04,0-3.77-.7-5.18-2.1-1.41-1.4-2.12-3.09-2.12-5.07s.71-3.8,2.13-5.18c1.43-1.39,3.09-2.08,4.98-2.08h1.11c0-2.84,.99-5.27,2.98-7.31,1.99-2.04,4.41-3.06,7.26-3.06s5.26,1.02,7.25,3.06c1.98,2.04,2.98,4.48,2.98,7.31v4.07h3.1c1.43,0,2.65,.51,3.68,1.54,1.02,1.03,1.53,2.24,1.53,3.64Z"/>
  </g>
</svg>