<?xml version="1.0" encoding="UTF-8"?>
<svg id="Layer_1" data-name="Layer 1" xmlns="http://www.w3.org/2000/svg" width="32.69" height="63.8" viewBox="0 0 32.69 63.8">
  <defs>
    <style>
      .cls-1, .cls-2 {
        fill: #421679;
      }

      .cls-3 {
        fill: #f2f2f7;
      }

      .cls-3, .cls-2, .cls-4, .cls-5 {
        fill-rule: evenodd;
      }

      .cls-4 {
        fill: #d96bd9;
      }

      .cls-5 {
        fill: #ffaf20;
      }
    </style>
  </defs>
  <path class="cls-4" d="M30.82,62.3h-.34c-1.1,0-2.2-.04-3.3,0h-.07c-.2,0-.5-.02-.76-.02-.12,0-.23,.01-.31,.02H6.35c-1.36-.04-3.18-.09-4.53-.13-.19-.22,1.33-4.41,2.7-5.97,.55-.63,1.24-1.14,1.84-1.73,.27-.27,.65-.57,.72-.91,.27-1.26,.5-2.52,.71-3.78H24.89c.13,1.02,.26,2.04,.38,3.06,.08,.75,.45,.93,1.56,1.63,1.12,.71,2.21,1.76,2.74,2.74,.28,.51,1.25,1.71,1.6,4.14,.02,.5,.1,.95-.35,.95Z"/>
  <path class="cls-5" d="M30.82,59.3h-.34c-1.1,0-2.2-.04-3.3,0h-.07c-.2,0-.5-.02-.76-.02-.12,0-.23,.01-.31,.02H6.35c-1.36-.04-3.18-.09-4.53-.13-.19-.22,1.33-4.41,2.7-5.97,.55-.63,1.24-1.14,1.84-1.73,.27-.27,.65-.57,.72-.91,.27-1.26,.5-2.52,.71-3.78H24.89c.13,1.02,.26,2.04,.38,3.06,.08,.75,.45,.93,1.56,1.63,1.12,.71,2.21,1.76,2.74,2.74,.28,.51,1.25,1.71,1.6,4.14,.02,.5,.1,.95-.35,.95Z"/>
  <path class="cls-1" d="M32.17,63.24c-.34,.36-.81,.56-1.34,.56h-.35c-.37,0-.75,0-1.13-.01h-1.1c-.34,0-.68,0-1.03,.01h-.11c-.11,0-.24,0-.38-.01-.12,0-.26-.01-.38-.01h-.08l-.11,.02H6.3c-.68-.02-1.47-.04-2.26-.07-.8-.02-1.59-.04-2.27-.06l-.66-.02-.43-.5c-.55-.64-.6-1.34,.52-4.04,.41-1,1.25-2.83,2.2-3.91,.39-.45,.82-.82,1.23-1.18,.23-.2,.46-.41,.68-.62l.16-.15c.05-.06,.13-.12,.18-.18,.23-1.09,.43-2.19,.61-3.29h1.53c-.21,1.26-.44,2.52-.71,3.78-.07,.34-.45,.64-.72,.91-.6,.59-1.29,1.1-1.84,1.73-1.37,1.56-2.89,5.75-2.7,5.97,1.35,.04,3.17,.09,4.53,.13H26.04c.08-.01,.19-.02,.31-.02,.26,0,.56,.02,.76,.02h.07c.36-.01,.71-.01,1.07-.01,.75,0,1.49,.01,2.23,.01h.34c.45,0,.37-.45,.35-.95-.35-2.43-1.32-3.63-1.6-4.14-.53-.98-1.62-2.03-2.74-2.74-1.11-.7-1.48-.88-1.56-1.63-.12-1.02-.25-2.04-.38-3.06h1.51c.12,.94,.24,1.89,.35,2.85,.14,.1,.41,.27,.65,.43l.24,.15c1.4,.89,2.62,2.12,3.25,3.29,.03,.06,.08,.13,.14,.22,.42,.67,1.29,2.06,1.63,4.41v.09s.01,.09,.01,.09v.15c.03,.44,.06,1.19-.5,1.78Z"/>
  <path class="cls-1" d="M32.17,60.24c-.34,.36-.81,.56-1.34,.56h-.35c-.37,0-.75,0-1.13-.01h-1.1c-.34,0-.68,0-1.03,.01h-.11c-.11,0-.24,0-.38-.01-.12,0-.26-.01-.38-.01h-.08l-.11,.02H6.3c-.68-.02-1.47-.04-2.26-.07-.8-.02-1.59-.04-2.27-.06l-.66-.02-.43-.5c-.55-.64-.6-1.34,.52-4.04,.41-1,1.25-2.83,2.2-3.91,.39-.45,.82-.82,1.23-1.18,.23-.2,.46-.41,.68-.62l.16-.15c.05-.06,.13-.12,.18-.18,.23-1.09,.43-2.19,.61-3.29h1.53c-.21,1.26-.44,2.52-.71,3.78-.07,.34-.45,.64-.72,.91-.6,.59-1.29,1.1-1.84,1.73-1.37,1.56-2.89,5.75-2.7,5.97,1.35,.04,3.17,.09,4.53,.13H26.04c.08-.01,.19-.02,.31-.02,.26,0,.56,.02,.76,.02h.07c.36-.01,.71-.01,1.07-.01,.75,0,1.49,.01,2.23,.01h.34c.45,0,.37-.45,.35-.95-.35-2.43-1.32-3.63-1.6-4.14-.53-.98-1.62-2.03-2.74-2.74-1.11-.7-1.48-.88-1.56-1.63-.12-1.02-.25-2.04-.38-3.06h1.51c.12,.94,.24,1.89,.35,2.85,.14,.1,.41,.27,.65,.43l.24,.15c1.4,.89,2.62,2.12,3.25,3.29,.03,.06,.08,.13,.14,.22,.42,.67,1.29,2.06,1.63,4.41v.09s.01,.09,.01,.09v.15c.03,.44,.06,1.19-.5,1.78Z"/>
  <g>
    <g>
      <path class="cls-3" d="M29.27,51.21c-.54-.99-1.63-2.03-2.74-2.74-1.11-.71-1.48-.88-1.57-1.63-.52-4.45-1.14-8.89-1.59-13.35-.41-4.06-.38-8.13-.06-12.2,.03-.34,0,.08,.01-.55,.02-.5,.05-.79,.08-.95,.09-.48,.17-.96,.23-1.44,.06-.51,.14-1.08,.21-1.49,.43-2.62,.91-5.23,1.39-7.84,.17-.92,.43-1.83,.67-2.86-1.84,.15-3.56,.3-5.39,.45,.3-1.6,.58-3.09,.87-4.65-.23,.05-.32,.07-.41,.09-4.91,1.61-9.83,3.23-14.74,4.83-.59,.19-.79,.51-.68,1.14,.46,2.44,.88,4.89,1.31,7.34,.98,5.65,1.69,11.33,1.6,17.08-.08,5.08-.64,10.12-1.69,15.09-.07,.34-.45,.64-.72,.91-.6,.59-1.28,1.1-1.83,1.72-1.38,1.56-2.89,5.76-2.71,5.97,1.35,.04,3.18,.09,4.53,.13H25.74c.26-.04,.87,0,1.13,0,1.21-.04,2.43,0,3.65,0,.45,0,.37-.45,.35-.95-.35-2.43-1.32-3.63-1.6-4.14Z"/>
      <path class="cls-1" d="M21.39,1.97c-.29,1.56-.57,3.05-.87,4.65,1.82-.15,3.55-.29,5.39-.45-.25,1.03-.5,1.93-.67,2.86-.49,2.61-.96,5.22-1.39,7.84-.07,.41-.14,.98-.21,1.49-.06,.48-.14,.96-.23,1.44-.03,.17-.06,.45-.08,.95-.02,.63,.01,.21-.01,.55-.32,4.07-.35,8.14,.06,12.2,.45,4.46,1.07,8.9,1.59,13.35,.09,.75,.45,.92,1.57,1.63s2.21,1.75,2.74,2.74c.28,.51,1.25,1.7,1.6,4.14,.01,.5,.09,.95-.35,.95-.11,0-.23,0-.34,0-.74,0-1.49-.02-2.23-.02-.36,0-.72,0-1.08,.02-.02,0-.04,0-.07,0-.19,0-.5-.02-.75-.02-.12,0-.23,0-.31,.02H6.04c-1.35-.04-3.18-.09-4.53-.13-.19-.22,1.33-4.41,2.71-5.97,.55-.63,1.23-1.14,1.83-1.72,.28-.27,.65-.57,.72-.91,1.05-4.97,1.62-10.01,1.69-15.09,.09-5.75-.63-11.43-1.6-17.08-.42-2.45-.85-4.9-1.31-7.34-.12-.63,.08-.95,.68-1.14,4.92-1.6,9.83-3.22,14.74-4.83,.09-.03,.18-.04,.41-.09m1.9-1.97l-2.23,.51-.18,.04c-.16,.03-.26,.06-.36,.09l-4.1,1.35c-3.55,1.16-7.09,2.33-10.64,3.49-1.31,.43-1.94,1.49-1.69,2.85,.46,2.44,.89,4.92,1.3,7.32,1.17,6.75,1.66,11.93,1.58,16.8-.07,4.91-.62,9.83-1.62,14.63-.05,.05-.13,.12-.18,.17l-.16,.16c-.22,.21-.45,.41-.68,.62-.41,.36-.84,.74-1.23,1.19-.95,1.08-1.79,2.91-2.2,3.91-1.12,2.7-1.07,3.4-.51,4.04l.43,.49,.65,.02c.68,.02,1.47,.04,2.27,.07,.79,.02,1.58,.04,2.26,.07H25.74s.11,0,.11,0l.11-.02s.04,0,.09,0c.12,0,.25,0,.38,0,.14,0,.27,0,.38,0h.12c.34-.01,.69-.02,1.03-.02,.37,0,.73,0,1.1,0,.38,0,.75,0,1.13,0h.35c.52,0,1-.2,1.34-.56,.56-.59,.53-1.34,.51-1.78v-.15s0-.09,0-.09v-.09c-.35-2.36-1.23-3.75-1.65-4.42-.05-.09-.1-.16-.13-.22-.64-1.17-1.85-2.4-3.26-3.29l-.24-.15c-.24-.15-.51-.32-.64-.42-.19-1.62-.39-3.18-.59-4.75-.35-2.8-.71-5.69-1-8.53-.38-3.73-.39-7.63-.06-11.93,.01-.15,.02-.26,.01-.38,0-.04,0-.12,0-.24,.02-.5,.05-.69,.05-.74,.08-.44,.17-.97,.24-1.52,.06-.49,.14-1.04,.2-1.43,.38-2.28,.8-4.69,1.39-7.81,.11-.58,.26-1.17,.42-1.81,.08-.32,.16-.64,.24-.98l.48-2.01-2.06,.17-3.17,.26-.25,.02,.51-2.71,.42-2.25h0Z"/>
    </g>
    <path class="cls-2" d="M7.78,54.07s-.02-.1-.02-.15c0-.54,.05-1.07,.18-1.6,.02-.07,.04-.13,.08-.19,.02-.03,.08-.05,.11-.04,.03,0,.06,.06,.07,.09,0,.04,0,.09-.01,.12-.17,.44-.22,.9-.26,1.36,0,.08,0,.17-.02,.25-.01,.05-.04,.1-.07,.15-.02,0-.03,0-.05,0m11.89-.58c-.19,.16-.39,.33-.58,.51-.03,.03-.07,.11-.05,.13,.02,.04,.09,.06,.14,.06,.18,.01,.34-.04,.5-.12,.24-.13,.24-.41,0-.58Zm-.45-.71s.1,.05,.14,.09c.11,.12,.22,.23,.32,.36,.04,.05,.07,.06,.13,.03,.17-.09,.33-.17,.5-.25,.13-.06,.26-.1,.39-.14,.02,0,.03,0,.05,0h.03s0,0,.01,0c-.01,.03-.02,.07-.05,.1-.03,.03-.07,.04-.1,.06-.2,.09-.4,.17-.6,.25-.06,.03-.12,.06-.18,.09,.04,.05,.07,.09,.09,.14,.15,.24,.1,.49-.14,.65-.24,.15-.5,.19-.77,.16-.08,0-.16-.03-.19-.12-.03-.09,.01-.16,.07-.21,.19-.19,.39-.37,.59-.55,.02-.02,.05-.04,.08-.06-.14-.13-.27-.25-.41-.37-.02-.02-.05-.03-.06-.06-.01-.04-.03-.09-.01-.12,.01-.03,.07-.05,.1-.04Zm1.42,.79c.08,.09,.16,.17,.23,.26,.01,.01,0,.07-.03,.09-.07,.06-.11,.14-.12,.23-.04,.54-.35,.91-.75,1.22-.03,.02-.07,.01-.11,.02,.01-.03,.02-.07,.05-.1,.28-.26,.48-.56,.56-.94,.02-.1,.03-.19-.07-.26-.01,0-.02-.05,0-.07,.06-.11,.12-.21,.18-.32,0-.02,.02-.03,.03-.05l.03-.05s0-.01,.01-.02Zm-2.58-.38c-.1,0-.24,.12-.24,.21,0,.08,.09,.18,.17,.18,.1,0,.25-.12,.26-.21,0-.08-.1-.18-.18-.19Zm-1.35-.91c.11,.07,.16,.18,.09,.29-.06,.1-.15,.17-.23,.25,0,0-.03,0-.06,0h-.02s-.02-.01-.02-.01c.02-.03,.03-.06,.05-.1,0,0,0,0,0,0,.08-.04,.17-.1,.16-.2,0-.11-.1-.18-.19-.2-.11-.03-.24-.05-.36-.03-.51,.1-.86,.61-.79,1.14,.03,.21,.12,.37,.31,.45,.45,.19,.89,.19,1.31-.08,.02-.02,.04-.04,.07-.06,0,0-.01-.02-.02-.03-.04,.02-.08,.03-.11,.05-.05,.02-.1,.03-.11-.03,0-.03,.02-.08,.04-.1,.06-.05,.13-.08,.19-.13,.14-.1,.24-.23,.27-.41,0,0,0-.01,0-.02,.04-.04,.09-.12,.13-.12,.07,.01,.08,.09,.06,.16-.01,.05-.02,.11-.03,.16-.11,.46-.32,.73-.98,.84-.22,.03-.44,0-.65-.04-.65-.13-.81-.8-.59-1.23,.19-.37,.48-.63,.91-.69,.2-.03,.39,.02,.56,.13Zm1.51,.64c.19,0,.3,.12,.32,.31,.04,.32-.05,.58-.32,.75-.26,.16-.52,.31-.78,.45-.07,.04-.16,.03-.23,.04,0-.02-.01-.03-.02-.05,.02-.02,.05-.05,.07-.06,.14-.09,.29-.17,.43-.26,.13-.09,.14-.15,.05-.29-.05-.08-.11-.17-.14-.26-.1-.28,.02-.53,.3-.6,.1-.03,.21-.04,.31-.03Zm-1.89,1.47c.07,0,.17,.13,.15,.22-.01,.05-.07,.1-.11,.11-.06,.02-.13-.11-.13-.23,0-.04,.02-.1,.09-.1Zm-2.76-1.23c-.11,0-.16,.05-.16,.14,0,.1,.07,.16,.19,.16,.1,0,.15-.05,.15-.13,0-.1-.07-.17-.18-.17Zm1.1-.05c-.05,.11-.1,.22-.14,.33,0,.02,.02,.07,.04,.08,.02,0,.07,0,.08-.03,.06-.1,.1-.21,.15-.31-.02-.05-.03-.09-.05-.1-.02,0-.07,0-.08,.03Zm-1.98,.03c-.06,.06-.12,.13-.17,.2-.02,.03-.04,.09-.02,.11,.02,.04,.07,.06,.11,.09,.04-.03,.08-.04,.09-.07,.04-.08,.09-.17,.12-.26,.01-.03,0-.09-.03-.1-.02-.01-.08,0-.1,.02Zm-1.35-.62c.07,0,.1,.09,.09,.22-.01,.2-.01,.4-.02,.61,0,0,0,.02,0,.03,0,.01,0,.02,0,.03v.03c.02,.07,.05,.13,.13,.16,.09,.03,.15-.05,.21-.1,.08-.08,.16-.16,.24-.24h.03c0,.06,0,.1-.02,.14-.08,.15-.15,.31-.25,.45-.13,.18-.34,.16-.45-.03-.06-.11-.1-.23-.11-.35-.02-.25,0-.5,0-.75,0-.12,.06-.2,.13-.19Zm3.56,.49c.02,.1,.01,.21,0,.31-.06,.3-.22,.56-.42,.79-.08,.09-.17,.18-.26,.26-.05,.04-.1,.09-.19,.03,.18-.23,.35-.45,.53-.67-.02-.01-.03-.02-.04-.03-.17-.1-.21-.18-.13-.36,.06-.14,.16-.28,.26-.39,.09-.11,.23-.07,.26,.07Zm-3.24,1.26s.04,.07,.05,.1c.02,.07-.03,.18-.09,.17-.04,0-.09-.06-.12-.1-.02-.02-.02-.07-.04-.12,.02-.03,.05-.08,.08-.09,.03-.01,.08,.01,.11,.04Zm-.45,.15c-.18,.02-.36,.05-.54,.07-.1,.01-.19,.04-.29,.05-.03,0-.06-.02-.09-.03,.02-.03,.04-.08,.06-.08,.29-.05,.57-.11,.86-.01Zm-1.51-2.47c.09,.08,.18,.16,.24,.26,.14,.26,.2,.54,.25,.83,.02,.09,.03,.18,.05,.26,.1,.29,.36,.34,.56,.12,.04-.04,.07-.09,.12-.13,.03-.03,.08-.04,.12-.06,.01,.05,.05,.11,.04,.15-.04,.15-.12,.28-.25,.37-.07,.05-.16,.09-.24,.12-.13,.05-.24,0-.34-.1-.06,.22-.11,.42-.18,.62-.04,.12-.11,.24-.19,.34-.16,.21-.38,.29-.64,.23-.46-.1-.92-.69-.91-1.17,0-.17,.08-.32,.21-.42,.09-.07,.18-.07,.27-.02,.11,.05,.21,.12,.24,.25,0,.03-.03,.08-.05,.09-.03,.01-.07,0-.1-.03-.04-.03-.06-.09-.1-.12-.08-.06-.16-.05-.21,.05-.07,.13-.08,.27-.05,.41,.04,.18,.12,.34,.23,.48,.29,.38,.74,.26,.96,.05,.21-.2,.31-.45,.32-.73,.02-.53-.05-1.05-.3-1.52-.04-.08-.1-.15-.15-.23-.02-.03-.03-.07-.04-.11,.04,0,.11-.02,.13,0Zm3.28,1.01c0,.14,0,.29,0,.43,0,.05-.02,.12,.06,.12,.07,0,.13-.02,.15-.09,.02-.06,.03-.12,.04-.18,.07-.29,.26-.38,.52-.25,.06,.03,.12,.07,.18,.12,.11,.09,.13,.18,.07,.3-.14,.28-.32,.38-.63,.34-.12-.02-.25-.04-.37-.06-.08-.02-.14,0-.19,.07-.28,.35-.5,.74-.69,1.15-.02,.04-.04,.08-.07,.12-.01,.02-.04,.02-.06,.03,0-.03-.03-.05-.02-.08,0-.04,.02-.08,.04-.12,.14-.33,.29-.66,.44-1.01-.06-.04-.11-.06-.16-.1-.12-.09-.15-.2-.09-.33,.13-.26,.34-.44,.58-.58,.1-.06,.19,0,.2,.12Zm-7.36,.07s.05,.07,.07,.1l.04,.07s.01,.02,.02,.04c0,0-.01,0-.02,.01,0,.03,0,.06-.02,.08-.04,.05-.09,.11-.13,.12-.04,0-.1-.06-.13-.1-.08-.13-.08-.24,0-.32,.06-.06,.13-.07,.18,0Zm.98-.83s.09,.04,.1,.08c.02,.07,.01,.15,.01,.22,0,.17,0,.34,0,.51v.61s0,.04,0,.06c-.02,.05-.04,.09-.07,.14-.02-.04-.06-.09-.06-.13-.03-.44-.05-.89-.07-1.33,0-.02,0-.05,0-.07,.02-.03,.06-.09,.08-.09Zm-.74-.16c.23,.01,.39,.12,.47,.35,.07,.21,.07,.42,.07,.63h-.03s-.04-.06-.04-.1c-.02-.09-.03-.18-.04-.27-.06-.37-.31-.54-.66-.45-.38,.1-.67,.34-.83,.71-.27,.61,.25,1.32,.9,1.25,.07,0,.13-.02,.2-.03,.23-.06,.32-.27,.22-.48-.02-.05-.06-.1-.09-.15-.06-.09-.05-.2,.03-.26,.08-.06,.17-.04,.21,.05,.06,.15,.09,.3,.07,.46-.05,.33-.29,.53-.65,.55-.51,.02-.94-.32-1.05-.84,0-.03-.02-.06-.02-.08v-.24s.02-.09,.03-.13c.12-.56,.67-.99,1.23-.97Zm1.73,2.33c-.24,.05-.47,.14-.71,.11,0-.01-.01-.02-.02-.04,.03-.03,.06-.07,.1-.08,.14-.05,.48-.05,.63,0Zm-.23-1.61c.03,.05,.08,.1,.1,.16,.12,.3,.13,.61,.07,.92-.01,.06-.07,.13-.13,.17-.06,.05-.12-.01-.15-.07-.03-.05-.04-.12-.05-.18-.02-.09-.07-.11-.14-.05-.05,.05-.09,.1-.13,.14-.28,.31-.55,.61-.83,.92-.03,.03-.07,.05-.11,.08l-.04-.03s.04-.07,.07-.11c.29-.38,.58-.75,.85-1.14,.08-.11,.14-.24,.2-.36l.06-.13c.03-.06,.06-.13,.09-.19,.02-.03,.04-.06,.07-.08l.04-.04s.01-.01,.02-.02Zm17.88-1.17c-.07,0-.13,.02-.19,.06-.25,.14-.37,.36-.39,.66,0,.05,.01,.11,.03,.18,.02,.11,.07,.13,.16,.07,.13-.1,.27-.19,.4-.3,.09-.08,.17-.17,.24-.27,.06-.09,.1-.19,.03-.29-.06-.1-.17-.12-.27-.11Zm-2.23,1.01c.08,0,.14,.06,.14,.15,0,.09-.06,.16-.14,.16-.08,0-.14-.07-.14-.15,0-.09,.06-.16,.14-.16Zm2.31-1.18c.07,.02,.14,.04,.2,.06,.22,.09,.28,.27,.16,.48-.14,.24-.32,.43-.54,.6-.08,.06-.16,.12-.24,.18,.02,.04,.05,.08,.06,.11,0,.03,.01,.08,0,.09-.02,.02-.07,.03-.1,.01-.05-.03-.11-.07-.14-.11-.07-.09-.15-.11-.25-.06-.16,.06-.32,.08-.48,.03-.03,0-.06-.03-.09-.04v-.03c.2-.02,.41-.04,.62-.06-.03-.1-.05-.19-.07-.27-.12-.48,.12-.86,.59-.96,.02,0,.05-.02,.07-.02h.21Zm-3.11,2.03h-.01s-.03,.02-.03,.02c-.02,0-.04,.01-.05,.03-.06,.06-.11,.12-.16,.18-.04,.06-.06,.12,0,.17,.07,.05,.14,.04,.18-.02,.05-.08,.09-.17,.12-.24-.02-.06-.03-.1-.05-.13Zm5.22,.37c.08,0,.12,.05,.12,.13,0,.08-.05,.14-.12,.13-.08,0-.11-.05-.11-.13,0-.09,.04-.13,.12-.13Zm-5.87-1.65s.08,.06,.08,.09c.01,.12,.03,.24,.01,.36-.1,.57-.22,1.14-.34,1.72-.01,.07-.05,.13-.07,.19-.01,0-.03,0-.04,0,0-.04-.02-.07-.02-.11-.03-.63,.03-1.26,.12-1.88,.02-.11,.09-.21,.15-.31,.02-.03,.07-.06,.1-.05Zm5.63,.67c.17,.08,.32,.19,.48,.29l.03,.02,.07,.03v.06c-.08,.06-.15,.07-.24,.01-.12-.07-.23-.02-.33,.04-.2,.13-.39,.26-.59,.38-.44,.26-.91,.45-1.42,.53-.72,.1-1.35-.1-1.9-.58-.02-.02-.04-.04-.07-.05-.1,.11-.19,.22-.29,.32-.15,.16-.32,.22-.53,.15-.08-.03-.13,.02-.17,.08-.24,.31-.44,.64-.61,1-.05,.11-.11,.22-.16,.33h-.04c-.06-.07-.02-.14,0-.21,.13-.29,.26-.59,.38-.88,.02-.04,.04-.09,.06-.14-.05-.03-.1-.06-.15-.1-.13-.09-.17-.21-.09-.36,.13-.25,.33-.43,.57-.56,.11-.06,.2,0,.21,.12,0,.16,0,.32,0,.48,0,.12,.01,.14,.13,.13,.16,0,.28-.07,.36-.2,.06-.1,.1-.21,.15-.32,.03-.07,.05-.15,.08-.23,.1,.09,.19,.18,.29,.26,.48,.42,1.03,.66,1.68,.62,.46-.02,.88-.17,1.26-.41,.28-.17,.54-.38,.81-.57,.02-.01,.04-.03,.05-.04-.12-.17-.34-.17-.44,0-.04,.07-.06,.14-.09,.22-.02,.04-.02,.08-.05,.1-.02,.02-.07,.03-.1,.02-.02,0-.04-.05-.04-.07,0-.4,.36-.65,.71-.48Z"/>
    <path class="cls-2" d="M18.89,4.45c-.21,1.48-.41,2.84-.58,4.21-.47,3.82-.51,7.66-.26,11.5,.49,7.59,1.84,15.05,3.23,22.5,.18,.96,.17,.97-.82,.99-2.22,.04-4.45,.06-6.67,.12-.65,.02-.93-.25-1.03-.88-1.42-8.97-2.85-17.94-4.29-26.91-.35-2.2-.73-4.4-1.11-6.61-.18-1.06-.05-1.27,.98-1.6,3.29-1.05,6.58-2.1,9.87-3.14,.18-.06,.37-.11,.67-.19"/>
  </g>
</svg>